<svg xmlns="http://www.w3.org/2000/svg" xmlns:xlink="http://www.w3.org/1999/xlink" width="500" zoomAndPan="magnify" viewBox="0 0 375 60" height="80" preserveAspectRatio="xMidYMid meet" version="1.0"><defs><clipPath id="cb781822ef"><path d="M 238 1.5 L 245 1.5 L 245 58.5 L 238 58.5 Z M 238 1.5 " clip-rule="nonzero"/></clipPath><clipPath id="4b33ba7145"><path d="M 180 1.5 L 185 1.5 L 185 58.5 L 180 58.5 Z M 180 1.5 " clip-rule="nonzero"/></clipPath><clipPath id="aa1f6fc5e1"><path d="M 139 1.5 L 144 1.5 L 144 58.5 L 139 58.5 Z M 139 1.5 " clip-rule="nonzero"/></clipPath><clipPath id="65ff8bcd8d"><path d="M 167 1.5 L 172 1.5 L 172 58.5 L 167 58.5 Z M 167 1.5 " clip-rule="nonzero"/></clipPath><clipPath id="d4dcc11b07"><path d="M 160 1.5 L 166 1.5 L 166 58.5 L 160 58.5 Z M 160 1.5 " clip-rule="nonzero"/></clipPath><clipPath id="5cc57f8317"><path d="M 152 1.5 L 156 1.5 L 156 58.5 L 152 58.5 Z M 152 1.5 " clip-rule="nonzero"/></clipPath><clipPath id="07823a5379"><path d="M 191 1.5 L 194 1.5 L 194 58.5 L 191 58.5 Z M 191 1.5 " clip-rule="nonzero"/></clipPath><clipPath id="b437a13122"><path d="M 229 1.5 L 232 1.5 L 232 58.5 L 229 58.5 Z M 229 1.5 " clip-rule="nonzero"/></clipPath><clipPath id="cb22c513f6"><path d="M 222 1.5 L 226 1.5 L 226 58.5 L 222 58.5 Z M 222 1.5 " clip-rule="nonzero"/></clipPath><clipPath id="2cd130f4e3"><path d="M 203 1.5 L 207 1.5 L 207 58.5 L 203 58.5 Z M 203 1.5 " clip-rule="nonzero"/></clipPath><clipPath id="a3b890ced7"><path d="M 147 1.5 L 151 1.5 L 151 58.5 L 147 58.5 Z M 147 1.5 " clip-rule="nonzero"/></clipPath><clipPath id="0ea94b9d68"><path d="M 215 1.5 L 219 1.5 L 219 58.5 L 215 58.5 Z M 215 1.5 " clip-rule="nonzero"/></clipPath><clipPath id="bdcfa08b45"><path d="M 251 1.5 L 252.476562 1.5 L 252.476562 58.5 L 251 58.5 Z M 251 1.5 " clip-rule="nonzero"/></clipPath><clipPath id="43417667b7"><path d="M 122.726562 1.5 L 125 1.5 L 125 58.5 L 122.726562 58.5 Z M 122.726562 1.5 " clip-rule="nonzero"/></clipPath><clipPath id="f384eeb3cf"><path d="M 125 1.5 L 127 1.5 L 127 58.5 L 125 58.5 Z M 125 1.5 " clip-rule="nonzero"/></clipPath><clipPath id="4ed0bf9af7"><path d="M 248 1.5 L 250 1.5 L 250 58.5 L 248 58.5 Z M 248 1.5 " clip-rule="nonzero"/></clipPath><clipPath id="d390965f5f"><path d="M 185 1.5 L 187 1.5 L 187 58.5 L 185 58.5 Z M 185 1.5 " clip-rule="nonzero"/></clipPath><clipPath id="37d6ed6ccc"><path d="M 188 1.5 L 190 1.5 L 190 58.5 L 188 58.5 Z M 188 1.5 " clip-rule="nonzero"/></clipPath><clipPath id="4bcad063ce"><path d="M 195 1.5 L 197 1.5 L 197 58.5 L 195 58.5 Z M 195 1.5 " clip-rule="nonzero"/></clipPath><clipPath id="16630ef8ec"><path d="M 176 1.5 L 178 1.5 L 178 58.5 L 176 58.5 Z M 176 1.5 " clip-rule="nonzero"/></clipPath><clipPath id="41bbf03977"><path d="M 236 1.5 L 238 1.5 L 238 58.5 L 236 58.5 Z M 236 1.5 " clip-rule="nonzero"/></clipPath><clipPath id="b40e4408df"><path d="M 144 1.5 L 147 1.5 L 147 58.5 L 144 58.5 Z M 144 1.5 " clip-rule="nonzero"/></clipPath><clipPath id="a603b465f2"><path d="M 173 1.5 L 175 1.5 L 175 58.5 L 173 58.5 Z M 173 1.5 " clip-rule="nonzero"/></clipPath><clipPath id="e02cff1099"><path d="M 210 1.5 L 212 1.5 L 212 58.5 L 210 58.5 Z M 210 1.5 " clip-rule="nonzero"/></clipPath><clipPath id="9ac532997f"><path d="M 200 1.5 L 202 1.5 L 202 58.5 L 200 58.5 Z M 200 1.5 " clip-rule="nonzero"/></clipPath><clipPath id="6cbfbb2e58"><path d="M 156 1.5 L 159 1.5 L 159 58.5 L 156 58.5 Z M 156 1.5 " clip-rule="nonzero"/></clipPath><clipPath id="f154032667"><path d="M 129 1.5 L 131 1.5 L 131 58.5 L 129 58.5 Z M 129 1.5 " clip-rule="nonzero"/></clipPath><clipPath id="2f7d363a0d"><path d="M 219 1.5 L 222 1.5 L 222 58.5 L 219 58.5 Z M 219 1.5 " clip-rule="nonzero"/></clipPath><clipPath id="4ffcd80589"><path d="M 135 1.5 L 137 1.5 L 137 58.5 L 135 58.5 Z M 135 1.5 " clip-rule="nonzero"/></clipPath><clipPath id="d8c1b12ceb"><path d="M 245 1.5 L 247 1.5 L 247 58.5 L 245 58.5 Z M 245 1.5 " clip-rule="nonzero"/></clipPath><clipPath id="b2e03d12a4"><path d="M 116 1.5 L 122 1.5 L 122 58.5 L 116 58.5 Z M 116 1.5 " clip-rule="nonzero"/></clipPath><clipPath id="2e8552aac9"><path d="M 57 1.5 L 62 1.5 L 62 58.5 L 57 58.5 Z M 57 1.5 " clip-rule="nonzero"/></clipPath><clipPath id="39ac2e45b7"><path d="M 16 1.5 L 21 1.5 L 21 58.5 L 16 58.5 Z M 16 1.5 " clip-rule="nonzero"/></clipPath><clipPath id="f9b7713c5a"><path d="M 45 1.5 L 50 1.5 L 50 58.5 L 45 58.5 Z M 45 1.5 " clip-rule="nonzero"/></clipPath><clipPath id="0d7a4fdd0a"><path d="M 38 1.5 L 43 1.5 L 43 58.5 L 38 58.5 Z M 38 1.5 " clip-rule="nonzero"/></clipPath><clipPath id="794e01bee1"><path d="M 30 1.5 L 33 1.5 L 33 58.5 L 30 58.5 Z M 30 1.5 " clip-rule="nonzero"/></clipPath><clipPath id="1996589332"><path d="M 68 1.5 L 72 1.5 L 72 58.5 L 68 58.5 Z M 68 1.5 " clip-rule="nonzero"/></clipPath><clipPath id="a0f4136dd3"><path d="M 106 1.5 L 110 1.5 L 110 58.5 L 106 58.5 Z M 106 1.5 " clip-rule="nonzero"/></clipPath><clipPath id="0780dab579"><path d="M 99 1.5 L 103 1.5 L 103 58.5 L 99 58.5 Z M 99 1.5 " clip-rule="nonzero"/></clipPath><clipPath id="6529b6707a"><path d="M 80 1.5 L 84 1.5 L 84 58.5 L 80 58.5 Z M 80 1.5 " clip-rule="nonzero"/></clipPath><clipPath id="62776b12f5"><path d="M 24 1.5 L 28 1.5 L 28 58.5 L 24 58.5 Z M 24 1.5 " clip-rule="nonzero"/></clipPath><clipPath id="59c287c74b"><path d="M 92 1.5 L 96 1.5 L 96 58.5 L 92 58.5 Z M 92 1.5 " clip-rule="nonzero"/></clipPath><clipPath id="30dd9e4200"><path d="M 128 1.5 L 129.75 1.5 L 129.75 58.5 L 128 58.5 Z M 128 1.5 " clip-rule="nonzero"/></clipPath><clipPath id="c52ba6c844"><path d="M 0 1.5 L 2 1.5 L 2 58.5 L 0 58.5 Z M 0 1.5 " clip-rule="nonzero"/></clipPath><clipPath id="5705ae8241"><path d="M 2 1.5 L 5 1.5 L 5 58.5 L 2 58.5 Z M 2 1.5 " clip-rule="nonzero"/></clipPath><clipPath id="0a14e31e57"><path d="M 125 1.5 L 128 1.5 L 128 58.5 L 125 58.5 Z M 125 1.5 " clip-rule="nonzero"/></clipPath><clipPath id="16a069e98d"><path d="M 62 1.5 L 65 1.5 L 65 58.5 L 62 58.5 Z M 62 1.5 " clip-rule="nonzero"/></clipPath><clipPath id="b9526aa575"><path d="M 65 1.5 L 67 1.5 L 67 58.5 L 65 58.5 Z M 65 1.5 " clip-rule="nonzero"/></clipPath><clipPath id="3a14b5bad2"><path d="M 72 1.5 L 74 1.5 L 74 58.5 L 72 58.5 Z M 72 1.5 " clip-rule="nonzero"/></clipPath><clipPath id="f0c32ed00f"><path d="M 53 1.5 L 55 1.5 L 55 58.5 L 53 58.5 Z M 53 1.5 " clip-rule="nonzero"/></clipPath><clipPath id="d9382f1f01"><path d="M 113 1.5 L 115 1.5 L 115 58.5 L 113 58.5 Z M 113 1.5 " clip-rule="nonzero"/></clipPath><clipPath id="8af37f67ab"><path d="M 21 1.5 L 24 1.5 L 24 58.5 L 21 58.5 Z M 21 1.5 " clip-rule="nonzero"/></clipPath><clipPath id="2a52dab21b"><path d="M 50 1.5 L 52 1.5 L 52 58.5 L 50 58.5 Z M 50 1.5 " clip-rule="nonzero"/></clipPath><clipPath id="fcc6278092"><path d="M 87 1.5 L 89 1.5 L 89 58.5 L 87 58.5 Z M 87 1.5 " clip-rule="nonzero"/></clipPath><clipPath id="db6849b397"><path d="M 77 1.5 L 80 1.5 L 80 58.5 L 77 58.5 Z M 77 1.5 " clip-rule="nonzero"/></clipPath><clipPath id="da070263f8"><path d="M 34 1.5 L 36 1.5 L 36 58.5 L 34 58.5 Z M 34 1.5 " clip-rule="nonzero"/></clipPath><clipPath id="48d88c4826"><path d="M 6 1.5 L 9 1.5 L 9 58.5 L 6 58.5 Z M 6 1.5 " clip-rule="nonzero"/></clipPath><clipPath id="bf8b33cd6f"><path d="M 96 1.5 L 99 1.5 L 99 58.5 L 96 58.5 Z M 96 1.5 " clip-rule="nonzero"/></clipPath><clipPath id="f5cd09ddd7"><path d="M 12 1.5 L 14 1.5 L 14 58.5 L 12 58.5 Z M 12 1.5 " clip-rule="nonzero"/></clipPath><clipPath id="7e9c5c17cb"><path d="M 122 1.5 L 125 1.5 L 125 58.5 L 122 58.5 Z M 122 1.5 " clip-rule="nonzero"/></clipPath><clipPath id="5ff526c402"><path d="M 361 1.5 L 367 1.5 L 367 58.5 L 361 58.5 Z M 361 1.5 " clip-rule="nonzero"/></clipPath><clipPath id="c98ba8640c"><path d="M 302 1.5 L 307 1.5 L 307 58.5 L 302 58.5 Z M 302 1.5 " clip-rule="nonzero"/></clipPath><clipPath id="bbad21f7d9"><path d="M 261 1.5 L 266 1.5 L 266 58.5 L 261 58.5 Z M 261 1.5 " clip-rule="nonzero"/></clipPath><clipPath id="2e067ad9a5"><path d="M 290 1.5 L 295 1.5 L 295 58.5 L 290 58.5 Z M 290 1.5 " clip-rule="nonzero"/></clipPath><clipPath id="9626634d0c"><path d="M 283 1.5 L 288 1.5 L 288 58.5 L 283 58.5 Z M 283 1.5 " clip-rule="nonzero"/></clipPath><clipPath id="0b35b17db2"><path d="M 275 1.5 L 279 1.5 L 279 58.5 L 275 58.5 Z M 275 1.5 " clip-rule="nonzero"/></clipPath><clipPath id="c65cb9b2d0"><path d="M 313 1.5 L 317 1.5 L 317 58.5 L 313 58.5 Z M 313 1.5 " clip-rule="nonzero"/></clipPath><clipPath id="e3f938f25b"><path d="M 351 1.5 L 355 1.5 L 355 58.5 L 351 58.5 Z M 351 1.5 " clip-rule="nonzero"/></clipPath><clipPath id="08f8b0483d"><path d="M 345 1.5 L 348 1.5 L 348 58.5 L 345 58.5 Z M 345 1.5 " clip-rule="nonzero"/></clipPath><clipPath id="285fc7749d"><path d="M 326 1.5 L 329 1.5 L 329 58.5 L 326 58.5 Z M 326 1.5 " clip-rule="nonzero"/></clipPath><clipPath id="2f6123323b"><path d="M 270 1.5 L 273 1.5 L 273 58.5 L 270 58.5 Z M 270 1.5 " clip-rule="nonzero"/></clipPath><clipPath id="7bea404efa"><path d="M 338 1.5 L 342 1.5 L 342 58.5 L 338 58.5 Z M 338 1.5 " clip-rule="nonzero"/></clipPath><clipPath id="45683612b3"><path d="M 373 1.5 L 375 1.5 L 375 58.5 L 373 58.5 Z M 373 1.5 " clip-rule="nonzero"/></clipPath><clipPath id="a98f46f75d"><path d="M 245.453125 1.5 L 247 1.5 L 247 58.5 L 245.453125 58.5 Z M 245.453125 1.5 " clip-rule="nonzero"/></clipPath><clipPath id="4e56dfa910"><path d="M 248 1.5 L 250 1.5 L 250 58.5 L 248 58.5 Z M 248 1.5 " clip-rule="nonzero"/></clipPath><clipPath id="71ac52e689"><path d="M 371 1.5 L 373 1.5 L 373 58.5 L 371 58.5 Z M 371 1.5 " clip-rule="nonzero"/></clipPath><clipPath id="3f3c459730"><path d="M 308 1.5 L 310 1.5 L 310 58.5 L 308 58.5 Z M 308 1.5 " clip-rule="nonzero"/></clipPath><clipPath id="e2314c8246"><path d="M 310 1.5 L 313 1.5 L 313 58.5 L 310 58.5 Z M 310 1.5 " clip-rule="nonzero"/></clipPath><clipPath id="d6957a03cd"><path d="M 317 1.5 L 320 1.5 L 320 58.5 L 317 58.5 Z M 317 1.5 " clip-rule="nonzero"/></clipPath><clipPath id="8e38c870f4"><path d="M 298 1.5 L 301 1.5 L 301 58.5 L 298 58.5 Z M 298 1.5 " clip-rule="nonzero"/></clipPath><clipPath id="7a11408ab6"><path d="M 358 1.5 L 361 1.5 L 361 58.5 L 358 58.5 Z M 358 1.5 " clip-rule="nonzero"/></clipPath><clipPath id="3c8d36af74"><path d="M 267 1.5 L 269 1.5 L 269 58.5 L 267 58.5 Z M 267 1.5 " clip-rule="nonzero"/></clipPath><clipPath id="f18f3bfbe3"><path d="M 295 1.5 L 298 1.5 L 298 58.5 L 295 58.5 Z M 295 1.5 " clip-rule="nonzero"/></clipPath><clipPath id="50883cd4e2"><path d="M 332 1.5 L 335 1.5 L 335 58.5 L 332 58.5 Z M 332 1.5 " clip-rule="nonzero"/></clipPath><clipPath id="14a5a2fc48"><path d="M 323 1.5 L 325 1.5 L 325 58.5 L 323 58.5 Z M 323 1.5 " clip-rule="nonzero"/></clipPath><clipPath id="aeefe6692b"><path d="M 279 1.5 L 282 1.5 L 282 58.5 L 279 58.5 Z M 279 1.5 " clip-rule="nonzero"/></clipPath><clipPath id="6221277f03"><path d="M 252 1.5 L 254 1.5 L 254 58.5 L 252 58.5 Z M 252 1.5 " clip-rule="nonzero"/></clipPath><clipPath id="16fae7a940"><path d="M 342 1.5 L 344 1.5 L 344 58.5 L 342 58.5 Z M 342 1.5 " clip-rule="nonzero"/></clipPath><clipPath id="034d8f03c6"><path d="M 257 1.5 L 260 1.5 L 260 58.5 L 257 58.5 Z M 257 1.5 " clip-rule="nonzero"/></clipPath><clipPath id="f8f6825993"><path d="M 368 1.5 L 370 1.5 L 370 58.5 L 368 58.5 Z M 368 1.5 " clip-rule="nonzero"/></clipPath></defs><g clip-path="url(#cb781822ef)"><path fill="#000000" d="M 244.132812 58.292969 C 242.335938 58.292969 240.582031 58.289062 238.777344 58.285156 C 238.808594 39.4375 238.839844 20.625 238.871094 1.773438 C 240.652344 1.777344 242.40625 1.78125 244.226562 1.785156 C 244.195312 20.597656 244.164062 39.40625 244.132812 58.292969 Z M 244.132812 58.292969 " fill-opacity="1" fill-rule="nonzero"/></g><g clip-path="url(#4b33ba7145)"><path fill="#000000" d="M 180.199219 1.667969 C 181.566406 1.671875 182.859375 1.675781 184.199219 1.675781 C 184.167969 20.523438 184.136719 39.335938 184.105469 58.191406 C 182.769531 58.191406 181.464844 58.1875 180.105469 58.1875 C 180.136719 39.347656 180.167969 20.535156 180.199219 1.667969 Z M 180.199219 1.667969 " fill-opacity="1" fill-rule="nonzero"/></g><g clip-path="url(#aa1f6fc5e1)"><path fill="#000000" d="M 143.171875 58.125 C 141.835938 58.125 140.527344 58.121094 139.171875 58.121094 C 139.203125 39.277344 139.234375 20.46875 139.265625 1.613281 C 140.585938 1.617188 141.894531 1.617188 143.265625 1.621094 C 143.234375 20.441406 143.203125 39.261719 143.171875 58.125 Z M 143.171875 58.125 " fill-opacity="1" fill-rule="nonzero"/></g><g clip-path="url(#65ff8bcd8d)"><path fill="#000000" d="M 171.800781 58.175781 C 170.476562 58.171875 169.167969 58.171875 167.808594 58.167969 C 167.839844 39.328125 167.871094 20.519531 167.902344 1.664062 C 169.21875 1.667969 170.523438 1.667969 171.894531 1.671875 C 171.863281 20.488281 171.832031 39.3125 171.800781 58.175781 Z M 171.800781 58.175781 " fill-opacity="1" fill-rule="nonzero"/></g><g clip-path="url(#d4dcc11b07)"><path fill="#000000" d="M 160.988281 58.195312 C 161.019531 39.308594 161.050781 20.515625 161.082031 1.660156 C 162.402344 1.664062 163.707031 1.664062 165.101562 1.667969 C 165.113281 1.835938 165.140625 2.019531 165.140625 2.207031 C 165.121094 13.101562 165.105469 24 165.085938 34.894531 C 165.074219 42.390625 165.066406 49.890625 165.058594 57.386719 C 165.054688 58.191406 165.054688 58.195312 164.113281 58.199219 C 163.105469 58.203125 162.09375 58.195312 160.988281 58.195312 Z M 160.988281 58.195312 " fill-opacity="1" fill-rule="nonzero"/></g><g clip-path="url(#5cc57f8317)"><path fill="#000000" d="M 155.441406 58.148438 C 154.5625 58.148438 153.722656 58.148438 152.816406 58.144531 C 152.847656 39.324219 152.878906 20.515625 152.914062 1.648438 C 153.753906 1.652344 154.609375 1.652344 155.535156 1.652344 C 155.503906 20.46875 155.472656 39.289062 155.441406 58.148438 Z M 155.441406 58.148438 " fill-opacity="1" fill-rule="nonzero"/></g><g clip-path="url(#07823a5379)"><path fill="#000000" d="M 191.105469 1.6875 C 192.007812 1.6875 192.847656 1.691406 193.753906 1.691406 C 193.769531 1.925781 193.792969 2.132812 193.792969 2.339844 C 193.773438 14.035156 193.753906 25.726562 193.734375 37.421875 C 193.722656 44.058594 193.71875 50.699219 193.710938 57.335938 C 193.710938 58.453125 193.726562 58.214844 192.605469 58.242188 C 192.089844 58.257812 191.578125 58.242188 191.011719 58.242188 C 191.042969 39.367188 191.074219 20.558594 191.105469 1.6875 Z M 191.105469 1.6875 " fill-opacity="1" fill-rule="nonzero"/></g><g clip-path="url(#b437a13122)"><path fill="#000000" d="M 231.835938 58.300781 C 231.042969 58.300781 230.292969 58.324219 229.546875 58.277344 C 229.410156 58.265625 229.199219 57.960938 229.195312 57.789062 C 229.171875 55.601562 229.179688 53.414062 229.183594 51.226562 C 229.195312 43.007812 229.210938 34.785156 229.226562 26.5625 C 229.238281 18.480469 229.253906 10.394531 229.253906 2.3125 C 229.253906 1.859375 229.398438 1.675781 229.96875 1.710938 C 230.601562 1.75 231.238281 1.722656 231.929688 1.722656 C 231.898438 20.585938 231.867188 39.398438 231.835938 58.300781 Z M 231.835938 58.300781 " fill-opacity="1" fill-rule="nonzero"/></g><g clip-path="url(#cb22c513f6)"><path fill="#000000" d="M 222.507812 1.742188 C 223.402344 1.742188 224.242188 1.746094 225.183594 1.746094 C 225.183594 2.316406 225.183594 2.859375 225.179688 3.398438 C 225.160156 14.726562 225.136719 26.054688 225.117188 37.382812 C 225.105469 44.101562 225.101562 50.816406 225.089844 57.535156 C 225.089844 58.039062 224.78125 58.289062 224.160156 58.292969 C 223.667969 58.292969 223.171875 58.292969 222.675781 58.289062 C 222.609375 58.289062 222.542969 58.265625 222.414062 58.238281 C 222.445312 39.429688 222.476562 20.613281 222.507812 1.742188 Z M 222.507812 1.742188 " fill-opacity="1" fill-rule="nonzero"/></g><g clip-path="url(#2cd130f4e3)"><path fill="#000000" d="M 203.398438 1.675781 C 204.109375 1.679688 204.746094 1.707031 205.378906 1.671875 C 205.949219 1.640625 206.097656 1.824219 206.09375 2.277344 C 206.066406 4.875 206.074219 7.472656 206.066406 10.066406 C 206.054688 18.289062 206.039062 26.511719 206.023438 34.734375 C 206.007812 42.390625 205.992188 50.046875 205.988281 57.699219 C 205.988281 58.121094 205.875 58.308594 205.320312 58.273438 C 204.667969 58.230469 204.007812 58.261719 203.304688 58.257812 C 203.335938 39.386719 203.367188 20.574219 203.398438 1.675781 Z M 203.398438 1.675781 " fill-opacity="1" fill-rule="nonzero"/></g><g clip-path="url(#a3b890ced7)"><path fill="#000000" d="M 147.363281 58.171875 C 147.394531 39.285156 147.425781 20.472656 147.460938 1.621094 C 148.332031 1.621094 149.171875 1.625 150.09375 1.625 C 150.109375 1.859375 150.136719 2.085938 150.136719 2.3125 C 150.113281 15.941406 150.089844 29.570312 150.0625 43.199219 C 150.054688 47.964844 150.039062 52.730469 150.050781 57.496094 C 150.054688 58.015625 149.910156 58.242188 149.234375 58.1875 C 148.632812 58.136719 148.019531 58.175781 147.363281 58.171875 Z M 147.363281 58.171875 " fill-opacity="1" fill-rule="nonzero"/></g><g clip-path="url(#0ea94b9d68)"><path fill="#000000" d="M 215.632812 1.734375 C 216.597656 1.738281 217.433594 1.738281 218.363281 1.738281 C 218.359375 2.570312 218.359375 3.367188 218.359375 4.160156 C 218.339844 14.003906 218.324219 23.847656 218.308594 33.691406 C 218.296875 41.679688 218.277344 49.667969 218.28125 57.65625 C 218.28125 58.121094 218.160156 58.304688 217.542969 58.300781 C 215.535156 58.285156 215.539062 58.304688 215.542969 56.664062 C 215.5625 42.210938 215.582031 27.757812 215.605469 13.308594 C 215.613281 9.65625 215.625 6.003906 215.632812 2.351562 C 215.632812 2.160156 215.632812 1.96875 215.632812 1.734375 Z M 215.632812 1.734375 " fill-opacity="1" fill-rule="nonzero"/></g><g clip-path="url(#bdcfa08b45)"><path fill="#000000" d="M 251.035156 58.277344 C 251.0625 39.457031 251.09375 20.660156 251.125 1.863281 C 251.226562 1.835938 251.289062 1.804688 251.355469 1.804688 C 252.464844 1.753906 252.46875 1.753906 252.46875 2.585938 C 252.453125 12.867188 252.433594 23.148438 252.417969 33.429688 C 252.40625 41.460938 252.398438 49.496094 252.386719 57.527344 C 252.386719 58.429688 252.347656 58.457031 251.035156 58.277344 Z M 251.035156 58.277344 " fill-opacity="1" fill-rule="nonzero"/></g><g clip-path="url(#43417667b7)"><path fill="#000000" d="M 124.222656 1.628906 C 124.222656 2.417969 124.21875 3.183594 124.21875 3.945312 C 124.195312 16.140625 124.171875 28.339844 124.148438 40.539062 C 124.140625 46.21875 124.125 51.898438 124.132812 57.578125 C 124.132812 58 124.007812 58.167969 123.394531 58.148438 C 122.863281 58.132812 122.71875 58 122.722656 57.621094 C 122.75 55.320312 122.746094 53.019531 122.75 50.71875 C 122.761719 43.402344 122.773438 36.082031 122.789062 28.765625 C 122.800781 21.429688 122.8125 14.09375 122.824219 6.757812 C 122.828125 5.3125 122.828125 3.863281 122.835938 2.417969 C 122.839844 1.515625 122.847656 1.515625 124.222656 1.628906 Z M 124.222656 1.628906 " fill-opacity="1" fill-rule="nonzero"/></g><g clip-path="url(#f384eeb3cf)"><path fill="#000000" d="M 126.777344 58.101562 C 126.636719 58.117188 126.523438 58.132812 126.410156 58.136719 C 125.78125 58.152344 125.464844 57.933594 125.464844 57.472656 C 125.488281 44.648438 125.515625 31.828125 125.539062 19.003906 C 125.546875 13.410156 125.558594 7.816406 125.566406 2.226562 C 125.566406 2.035156 125.566406 1.847656 125.566406 1.621094 C 126.03125 1.625 126.417969 1.625 126.871094 1.625 C 126.839844 20.425781 126.808594 39.234375 126.777344 58.101562 Z M 126.777344 58.101562 " fill-opacity="1" fill-rule="nonzero"/></g><g clip-path="url(#4ed0bf9af7)"><path fill="#000000" d="M 248.308594 58.28125 C 248.339844 39.460938 248.371094 20.664062 248.402344 1.832031 C 248.820312 1.832031 249.207031 1.832031 249.683594 1.832031 C 249.699219 1.980469 249.738281 2.144531 249.738281 2.308594 C 249.726562 9.820312 249.714844 17.328125 249.703125 24.835938 C 249.691406 32.136719 249.679688 39.4375 249.667969 46.738281 C 249.664062 50.34375 249.660156 53.953125 249.65625 57.558594 C 249.65625 58.429688 249.640625 58.4375 248.308594 58.28125 Z M 248.308594 58.28125 " fill-opacity="1" fill-rule="nonzero"/></g><g clip-path="url(#d390965f5f)"><path fill="#000000" d="M 185.65625 1.714844 C 186.097656 1.714844 186.484375 1.714844 186.921875 1.71875 C 186.890625 20.554688 186.859375 39.359375 186.828125 58.203125 C 186.40625 58.203125 186.015625 58.199219 185.5625 58.199219 C 185.59375 39.378906 185.625 20.5625 185.65625 1.714844 Z M 185.65625 1.714844 " fill-opacity="1" fill-rule="nonzero"/></g><g clip-path="url(#37d6ed6ccc)"><path fill="#000000" d="M 188.335938 1.710938 C 188.839844 1.710938 189.214844 1.710938 189.648438 1.710938 C 189.617188 20.542969 189.585938 39.363281 189.554688 58.199219 C 189.355469 58.21875 189.195312 58.226562 189.039062 58.246094 C 188.4375 58.3125 188.226562 58.15625 188.226562 57.679688 C 188.265625 48.375 188.277344 39.070312 188.292969 29.769531 C 188.308594 21.058594 188.320312 12.347656 188.332031 3.636719 C 188.332031 3.011719 188.332031 2.386719 188.335938 1.710938 Z M 188.335938 1.710938 " fill-opacity="1" fill-rule="nonzero"/></g><g clip-path="url(#4bcad063ce)"><path fill="#000000" d="M 195.09375 58.175781 C 195.125 39.34375 195.15625 20.542969 195.1875 1.703125 C 195.617188 1.703125 196.007812 1.703125 196.484375 1.703125 C 196.496094 1.910156 196.519531 2.113281 196.519531 2.320312 C 196.503906 13.257812 196.484375 24.191406 196.464844 35.128906 C 196.457031 42.527344 196.449219 49.929688 196.441406 57.332031 C 196.441406 58.34375 196.421875 58.359375 195.09375 58.175781 Z M 195.09375 58.175781 " fill-opacity="1" fill-rule="nonzero"/></g><g clip-path="url(#16630ef8ec)"><path fill="#000000" d="M 177.324219 58.183594 C 176.828125 58.183594 176.4375 58.183594 176 58.179688 C 176.03125 39.335938 176.0625 20.523438 176.09375 1.71875 C 176.15625 1.6875 176.195312 1.65625 176.234375 1.652344 C 177.03125 1.605469 177.429688 1.914062 177.425781 2.578125 C 177.402344 16.601562 177.378906 30.621094 177.355469 44.640625 C 177.347656 48.917969 177.335938 53.195312 177.324219 57.472656 C 177.324219 57.683594 177.324219 57.894531 177.324219 58.183594 Z M 177.324219 58.183594 " fill-opacity="1" fill-rule="nonzero"/></g><g clip-path="url(#41bbf03977)"><path fill="#000000" d="M 236.128906 1.769531 C 236.585938 1.773438 236.976562 1.773438 237.46875 1.773438 C 237.46875 2.039062 237.46875 2.265625 237.464844 2.496094 C 237.441406 16.148438 237.414062 29.800781 237.390625 43.453125 C 237.378906 48.097656 237.375 52.746094 237.363281 57.394531 C 237.363281 58.425781 237.359375 58.425781 236.035156 58.25 C 236.066406 39.441406 236.097656 20.625 236.128906 1.769531 Z M 236.128906 1.769531 " fill-opacity="1" fill-rule="nonzero"/></g><g clip-path="url(#b40e4408df)"><path fill="#000000" d="M 144.652344 1.636719 C 144.84375 1.609375 144.953125 1.585938 145.066406 1.582031 C 145.347656 1.578125 145.628906 1.582031 145.992188 1.582031 C 146.007812 1.824219 146.039062 2.03125 146.039062 2.238281 C 146.019531 15.808594 145.992188 29.382812 145.96875 42.953125 C 145.960938 47.777344 145.953125 52.601562 145.945312 57.425781 C 145.941406 58.167969 145.777344 58.292969 144.925781 58.144531 C 144.785156 58.121094 144.632812 57.949219 144.574219 57.816406 C 144.515625 57.679688 144.558594 57.507812 144.558594 57.351562 C 144.589844 39.054688 144.621094 20.753906 144.652344 2.457031 C 144.652344 2.1875 144.652344 1.917969 144.652344 1.636719 Z M 144.652344 1.636719 " fill-opacity="1" fill-rule="nonzero"/></g><g clip-path="url(#a603b465f2)"><path fill="#000000" d="M 174.550781 58.167969 C 174.390625 58.183594 174.277344 58.203125 174.164062 58.207031 C 173.539062 58.222656 173.226562 57.972656 173.226562 57.457031 C 173.25 44.628906 173.277344 31.800781 173.300781 18.972656 C 173.308594 13.445312 173.316406 7.917969 173.328125 2.394531 C 173.328125 2.164062 173.328125 1.933594 173.328125 1.667969 C 173.796875 1.667969 174.1875 1.667969 174.644531 1.667969 C 174.613281 20.503906 174.582031 39.328125 174.550781 58.167969 Z M 174.550781 58.167969 " fill-opacity="1" fill-rule="nonzero"/></g><g clip-path="url(#e02cff1099)"><path fill="#000000" d="M 210.207031 1.726562 C 210.683594 1.726562 211.074219 1.730469 211.507812 1.730469 C 211.476562 20.566406 211.445312 39.367188 211.414062 58.234375 C 211.179688 58.246094 210.953125 58.246094 210.730469 58.273438 C 210.195312 58.332031 210.046875 58.140625 210.050781 57.707031 C 210.082031 55.949219 210.070312 54.191406 210.074219 52.433594 C 210.089844 43.390625 210.101562 34.347656 210.121094 25.308594 C 210.132812 17.613281 210.148438 9.917969 210.167969 2.222656 C 210.167969 2.070312 210.191406 1.917969 210.207031 1.726562 Z M 210.207031 1.726562 " fill-opacity="1" fill-rule="nonzero"/></g><g clip-path="url(#9ac532997f)"><path fill="#000000" d="M 200.554688 58.183594 C 200.585938 39.378906 200.617188 20.566406 200.648438 1.714844 C 201.070312 1.714844 201.460938 1.714844 201.9375 1.714844 C 201.953125 1.917969 201.976562 2.125 201.976562 2.328125 C 201.957031 14.808594 201.933594 27.285156 201.917969 39.761719 C 201.90625 45.621094 201.902344 51.476562 201.894531 57.335938 C 201.894531 58.359375 201.855469 58.386719 200.554688 58.183594 Z M 200.554688 58.183594 " fill-opacity="1" fill-rule="nonzero"/></g><g clip-path="url(#6cbfbb2e58)"><path fill="#000000" d="M 156.992188 1.640625 C 157.421875 1.640625 157.8125 1.640625 158.289062 1.644531 C 158.300781 1.847656 158.328125 2.054688 158.328125 2.261719 C 158.304688 15.089844 158.28125 27.921875 158.257812 40.753906 C 158.246094 46.335938 158.230469 51.921875 158.242188 57.507812 C 158.242188 58.027344 158.109375 58.238281 157.429688 58.203125 C 156.882812 58.175781 156.84375 57.964844 156.84375 57.609375 C 156.859375 55.070312 156.859375 52.53125 156.863281 49.992188 C 156.878906 40.972656 156.894531 31.949219 156.914062 22.925781 C 156.925781 15.996094 156.9375 9.0625 156.953125 2.128906 C 156.953125 1.976562 156.976562 1.824219 156.992188 1.640625 Z M 156.992188 1.640625 " fill-opacity="1" fill-rule="nonzero"/></g><g clip-path="url(#f154032667)"><path fill="#000000" d="M 129.710938 1.578125 C 130.15625 1.578125 130.53125 1.582031 130.96875 1.582031 C 130.9375 20.40625 130.90625 39.214844 130.875 58.085938 C 130.484375 58.085938 130.078125 58.085938 129.617188 58.085938 C 129.648438 39.265625 129.679688 20.457031 129.710938 1.578125 Z M 129.710938 1.578125 " fill-opacity="1" fill-rule="nonzero"/></g><g clip-path="url(#2f7d363a0d)"><path fill="#000000" d="M 219.761719 1.738281 C 220 1.726562 220.164062 1.714844 220.328125 1.710938 C 220.535156 1.707031 220.746094 1.710938 221.042969 1.710938 C 221.058594 1.949219 221.082031 2.15625 221.082031 2.359375 C 221.054688 17.945312 221.03125 33.527344 221.003906 49.109375 C 221 51.863281 221 54.617188 220.996094 57.371094 C 220.996094 58.40625 220.984375 58.414062 219.667969 58.222656 C 219.699219 39.414062 219.730469 20.601562 219.761719 1.738281 Z M 219.761719 1.738281 " fill-opacity="1" fill-rule="nonzero"/></g><g clip-path="url(#4ffcd80589)"><path fill="#000000" d="M 135.058594 58.085938 C 135.089844 39.253906 135.121094 20.453125 135.152344 1.609375 C 135.570312 1.609375 135.960938 1.613281 136.4375 1.613281 C 136.449219 1.773438 136.472656 1.960938 136.472656 2.148438 C 136.457031 12.300781 136.441406 22.457031 136.425781 32.613281 C 136.414062 40.8125 136.402344 49.015625 136.394531 57.21875 C 136.394531 58.257812 136.398438 58.257812 135.058594 58.085938 Z M 135.058594 58.085938 " fill-opacity="1" fill-rule="nonzero"/></g><g clip-path="url(#d8c1b12ceb)"><path fill="#000000" d="M 245.59375 58.25 C 245.625 39.449219 245.65625 20.640625 245.6875 1.792969 C 246.113281 1.792969 246.5 1.792969 246.96875 1.792969 C 246.976562 2 247 2.207031 247 2.414062 C 246.976562 17.25 246.953125 32.089844 246.929688 46.925781 C 246.921875 50.441406 246.921875 53.957031 246.917969 57.46875 C 246.917969 58.4375 246.859375 58.472656 245.59375 58.25 Z M 245.59375 58.25 " fill-opacity="1" fill-rule="nonzero"/></g><g clip-path="url(#b2e03d12a4)"><path fill="#000000" d="M 121.40625 58.292969 C 119.609375 58.292969 117.855469 58.289062 116.046875 58.285156 C 116.078125 39.4375 116.109375 20.625 116.144531 1.773438 C 117.921875 1.777344 119.679688 1.78125 121.5 1.785156 C 121.46875 20.597656 121.4375 39.40625 121.40625 58.292969 Z M 121.40625 58.292969 " fill-opacity="1" fill-rule="nonzero"/></g><g clip-path="url(#2e8552aac9)"><path fill="#000000" d="M 57.472656 1.667969 C 58.839844 1.671875 60.132812 1.675781 61.472656 1.675781 C 61.441406 20.523438 61.410156 39.335938 61.378906 58.191406 C 60.042969 58.191406 58.738281 58.1875 57.378906 58.1875 C 57.410156 39.347656 57.441406 20.535156 57.472656 1.667969 Z M 57.472656 1.667969 " fill-opacity="1" fill-rule="nonzero"/></g><g clip-path="url(#39ac2e45b7)"><path fill="#000000" d="M 20.445312 58.125 C 19.109375 58.125 17.800781 58.121094 16.445312 58.121094 C 16.476562 39.277344 16.507812 20.46875 16.539062 1.613281 C 17.859375 1.617188 19.167969 1.617188 20.539062 1.621094 C 20.507812 20.441406 20.476562 39.261719 20.445312 58.125 Z M 20.445312 58.125 " fill-opacity="1" fill-rule="nonzero"/></g><g clip-path="url(#f9b7713c5a)"><path fill="#000000" d="M 49.074219 58.175781 C 47.746094 58.171875 46.441406 58.171875 45.082031 58.167969 C 45.113281 39.328125 45.144531 20.519531 45.175781 1.664062 C 46.488281 1.667969 47.796875 1.667969 49.167969 1.671875 C 49.136719 20.488281 49.105469 39.3125 49.074219 58.175781 Z M 49.074219 58.175781 " fill-opacity="1" fill-rule="nonzero"/></g><g clip-path="url(#0d7a4fdd0a)"><path fill="#000000" d="M 38.257812 58.195312 C 38.289062 39.308594 38.320312 20.515625 38.351562 1.660156 C 39.675781 1.664062 40.980469 1.664062 42.375 1.667969 C 42.386719 1.835938 42.414062 2.019531 42.410156 2.207031 C 42.394531 13.101562 42.375 24 42.359375 34.894531 C 42.347656 42.390625 42.339844 49.890625 42.328125 57.386719 C 42.328125 58.191406 42.328125 58.195312 41.386719 58.199219 C 40.375 58.203125 39.363281 58.195312 38.257812 58.195312 Z M 38.257812 58.195312 " fill-opacity="1" fill-rule="nonzero"/></g><g clip-path="url(#794e01bee1)"><path fill="#000000" d="M 32.714844 58.148438 C 31.835938 58.148438 30.996094 58.148438 30.089844 58.144531 C 30.121094 39.324219 30.152344 20.515625 30.183594 1.648438 C 31.023438 1.652344 31.882812 1.652344 32.808594 1.652344 C 32.777344 20.46875 32.746094 39.289062 32.714844 58.148438 Z M 32.714844 58.148438 " fill-opacity="1" fill-rule="nonzero"/></g><g clip-path="url(#1996589332)"><path fill="#000000" d="M 68.378906 1.6875 C 69.28125 1.6875 70.121094 1.691406 71.027344 1.691406 C 71.042969 1.925781 71.066406 2.132812 71.0625 2.339844 C 71.046875 14.035156 71.023438 25.726562 71.007812 37.421875 C 70.996094 44.058594 70.992188 50.699219 70.984375 57.335938 C 70.984375 58.453125 71 58.214844 69.875 58.242188 C 69.363281 58.257812 68.851562 58.242188 68.285156 58.242188 C 68.316406 39.367188 68.347656 20.558594 68.378906 1.6875 Z M 68.378906 1.6875 " fill-opacity="1" fill-rule="nonzero"/></g><g clip-path="url(#a0f4136dd3)"><path fill="#000000" d="M 109.109375 58.300781 C 108.316406 58.300781 107.566406 58.324219 106.820312 58.277344 C 106.683594 58.265625 106.46875 57.960938 106.46875 57.789062 C 106.445312 55.601562 106.453125 53.414062 106.457031 51.226562 C 106.46875 43.007812 106.484375 34.785156 106.5 26.5625 C 106.511719 18.480469 106.527344 10.394531 106.523438 2.3125 C 106.523438 1.859375 106.671875 1.675781 107.242188 1.710938 C 107.875 1.75 108.507812 1.722656 109.203125 1.722656 C 109.171875 20.585938 109.140625 39.398438 109.109375 58.300781 Z M 109.109375 58.300781 " fill-opacity="1" fill-rule="nonzero"/></g><g clip-path="url(#0780dab579)"><path fill="#000000" d="M 99.78125 1.742188 C 100.675781 1.742188 101.511719 1.746094 102.457031 1.746094 C 102.457031 2.316406 102.457031 2.859375 102.453125 3.398438 C 102.433594 14.726562 102.410156 26.054688 102.390625 37.382812 C 102.378906 44.101562 102.371094 50.816406 102.363281 57.535156 C 102.363281 58.039062 102.054688 58.289062 101.433594 58.292969 C 100.9375 58.292969 100.445312 58.292969 99.949219 58.289062 C 99.882812 58.289062 99.8125 58.265625 99.6875 58.238281 C 99.71875 39.429688 99.75 20.613281 99.78125 1.742188 Z M 99.78125 1.742188 " fill-opacity="1" fill-rule="nonzero"/></g><g clip-path="url(#6529b6707a)"><path fill="#000000" d="M 80.671875 1.675781 C 81.382812 1.679688 82.019531 1.707031 82.652344 1.671875 C 83.222656 1.640625 83.371094 1.824219 83.367188 2.277344 C 83.339844 4.875 83.34375 7.472656 83.339844 10.066406 C 83.324219 18.289062 83.3125 26.511719 83.296875 34.734375 C 83.28125 42.390625 83.265625 50.046875 83.261719 57.699219 C 83.261719 58.121094 83.148438 58.308594 82.589844 58.273438 C 81.941406 58.230469 81.28125 58.261719 80.578125 58.257812 C 80.609375 39.386719 80.640625 20.574219 80.671875 1.675781 Z M 80.671875 1.675781 " fill-opacity="1" fill-rule="nonzero"/></g><g clip-path="url(#62776b12f5)"><path fill="#000000" d="M 24.636719 58.171875 C 24.667969 39.285156 24.699219 20.472656 24.730469 1.621094 C 25.605469 1.621094 26.441406 1.625 27.367188 1.625 C 27.382812 1.859375 27.410156 2.085938 27.410156 2.3125 C 27.386719 15.941406 27.359375 29.570312 27.335938 43.199219 C 27.328125 47.964844 27.308594 52.730469 27.324219 57.496094 C 27.324219 58.015625 27.183594 58.242188 26.507812 58.1875 C 25.90625 58.136719 25.292969 58.175781 24.636719 58.171875 Z M 24.636719 58.171875 " fill-opacity="1" fill-rule="nonzero"/></g><g clip-path="url(#59c287c74b)"><path fill="#000000" d="M 92.90625 1.734375 C 93.867188 1.738281 94.707031 1.738281 95.636719 1.738281 C 95.632812 2.570312 95.632812 3.367188 95.632812 4.160156 C 95.613281 14.003906 95.597656 23.847656 95.582031 33.691406 C 95.566406 41.679688 95.550781 49.667969 95.554688 57.65625 C 95.554688 58.121094 95.433594 58.304688 94.816406 58.300781 C 92.808594 58.285156 92.8125 58.304688 92.8125 56.664062 C 92.835938 42.210938 92.855469 27.757812 92.878906 13.308594 C 92.882812 9.65625 92.894531 6.003906 92.90625 2.351562 C 92.90625 2.160156 92.90625 1.96875 92.90625 1.734375 Z M 92.90625 1.734375 " fill-opacity="1" fill-rule="nonzero"/></g><g clip-path="url(#30dd9e4200)"><path fill="#000000" d="M 128.304688 58.277344 C 128.335938 39.457031 128.367188 20.660156 128.398438 1.863281 C 128.5 1.835938 128.5625 1.804688 128.628906 1.804688 C 129.738281 1.753906 129.742188 1.753906 129.742188 2.585938 C 129.726562 12.867188 129.707031 23.148438 129.691406 33.429688 C 129.679688 41.460938 129.667969 49.496094 129.660156 57.527344 C 129.660156 58.429688 129.621094 58.457031 128.304688 58.277344 Z M 128.304688 58.277344 " fill-opacity="1" fill-rule="nonzero"/></g><g clip-path="url(#c52ba6c844)"><path fill="#000000" d="M 1.496094 1.628906 C 1.492188 2.417969 1.492188 3.183594 1.492188 3.945312 C 1.46875 16.140625 1.445312 28.339844 1.421875 40.539062 C 1.414062 46.21875 1.398438 51.898438 1.40625 57.578125 C 1.40625 58 1.28125 58.167969 0.667969 58.148438 C 0.136719 58.132812 -0.0078125 58 -0.00390625 57.621094 C 0.0234375 55.320312 0.0195312 53.019531 0.0234375 50.71875 C 0.0351562 43.402344 0.046875 36.082031 0.0585938 28.765625 C 0.0742188 21.429688 0.0859375 14.09375 0.0976562 6.757812 C 0.101562 5.3125 0.101562 3.863281 0.109375 2.417969 C 0.113281 1.515625 0.121094 1.515625 1.496094 1.628906 Z M 1.496094 1.628906 " fill-opacity="1" fill-rule="nonzero"/></g><g clip-path="url(#5705ae8241)"><path fill="#000000" d="M 4.050781 58.101562 C 3.910156 58.117188 3.796875 58.132812 3.683594 58.136719 C 3.054688 58.152344 2.738281 57.933594 2.738281 57.472656 C 2.761719 44.648438 2.785156 31.828125 2.8125 19.003906 C 2.820312 13.410156 2.828125 7.816406 2.839844 2.226562 C 2.839844 2.035156 2.839844 1.847656 2.839844 1.621094 C 3.300781 1.625 3.691406 1.625 4.144531 1.625 C 4.113281 20.425781 4.082031 39.234375 4.050781 58.101562 Z M 4.050781 58.101562 " fill-opacity="1" fill-rule="nonzero"/></g><g clip-path="url(#0a14e31e57)"><path fill="#000000" d="M 125.582031 58.28125 C 125.613281 39.460938 125.644531 20.664062 125.675781 1.832031 C 126.09375 1.832031 126.480469 1.832031 126.953125 1.832031 C 126.972656 1.980469 127.011719 2.144531 127.007812 2.308594 C 127 9.820312 126.988281 17.328125 126.976562 24.835938 C 126.964844 32.136719 126.953125 39.4375 126.941406 46.738281 C 126.9375 50.34375 126.933594 53.953125 126.929688 57.558594 C 126.929688 58.429688 126.914062 58.4375 125.582031 58.28125 Z M 125.582031 58.28125 " fill-opacity="1" fill-rule="nonzero"/></g><g clip-path="url(#16a069e98d)"><path fill="#000000" d="M 62.929688 1.714844 C 63.371094 1.714844 63.757812 1.714844 64.195312 1.71875 C 64.164062 20.554688 64.132812 39.359375 64.101562 58.203125 C 63.679688 58.203125 63.289062 58.199219 62.835938 58.199219 C 62.867188 39.378906 62.898438 20.5625 62.929688 1.714844 Z M 62.929688 1.714844 " fill-opacity="1" fill-rule="nonzero"/></g><g clip-path="url(#b9526aa575)"><path fill="#000000" d="M 65.609375 1.710938 C 66.113281 1.710938 66.484375 1.710938 66.921875 1.710938 C 66.890625 20.542969 66.859375 39.363281 66.828125 58.199219 C 66.628906 58.21875 66.46875 58.226562 66.308594 58.246094 C 65.710938 58.3125 65.496094 58.15625 65.5 57.679688 C 65.535156 48.375 65.550781 39.070312 65.566406 29.769531 C 65.582031 21.058594 65.59375 12.347656 65.605469 3.636719 C 65.605469 3.011719 65.605469 2.386719 65.609375 1.710938 Z M 65.609375 1.710938 " fill-opacity="1" fill-rule="nonzero"/></g><g clip-path="url(#3a14b5bad2)"><path fill="#000000" d="M 72.367188 58.175781 C 72.398438 39.34375 72.429688 20.542969 72.460938 1.703125 C 72.890625 1.703125 73.28125 1.703125 73.757812 1.703125 C 73.769531 1.910156 73.792969 2.113281 73.792969 2.320312 C 73.773438 13.257812 73.753906 24.191406 73.738281 35.128906 C 73.726562 42.527344 73.722656 49.929688 73.714844 57.332031 C 73.710938 58.34375 73.695312 58.359375 72.367188 58.175781 Z M 72.367188 58.175781 " fill-opacity="1" fill-rule="nonzero"/></g><g clip-path="url(#f0c32ed00f)"><path fill="#000000" d="M 54.597656 58.183594 C 54.101562 58.183594 53.710938 58.183594 53.273438 58.179688 C 53.304688 39.335938 53.335938 20.523438 53.367188 1.71875 C 53.429688 1.6875 53.464844 1.65625 53.507812 1.652344 C 54.304688 1.605469 54.699219 1.914062 54.699219 2.578125 C 54.675781 16.601562 54.652344 30.621094 54.628906 44.640625 C 54.621094 48.917969 54.609375 53.195312 54.597656 57.472656 C 54.597656 57.683594 54.597656 57.894531 54.597656 58.183594 Z M 54.597656 58.183594 " fill-opacity="1" fill-rule="nonzero"/></g><g clip-path="url(#d9382f1f01)"><path fill="#000000" d="M 113.402344 1.769531 C 113.859375 1.773438 114.25 1.773438 114.742188 1.773438 C 114.738281 2.039062 114.738281 2.265625 114.738281 2.496094 C 114.714844 16.148438 114.6875 29.800781 114.660156 43.453125 C 114.652344 48.097656 114.648438 52.746094 114.636719 57.394531 C 114.636719 58.425781 114.632812 58.425781 113.308594 58.25 C 113.339844 39.441406 113.371094 20.625 113.402344 1.769531 Z M 113.402344 1.769531 " fill-opacity="1" fill-rule="nonzero"/></g><g clip-path="url(#8af37f67ab)"><path fill="#000000" d="M 21.925781 1.636719 C 22.117188 1.609375 22.226562 1.585938 22.339844 1.582031 C 22.621094 1.578125 22.902344 1.582031 23.261719 1.582031 C 23.28125 1.824219 23.3125 2.03125 23.3125 2.238281 C 23.289062 15.808594 23.265625 29.382812 23.242188 42.953125 C 23.234375 47.777344 23.226562 52.601562 23.214844 57.425781 C 23.214844 58.167969 23.050781 58.292969 22.199219 58.144531 C 22.054688 58.121094 21.90625 57.949219 21.847656 57.816406 C 21.785156 57.679688 21.832031 57.507812 21.832031 57.351562 C 21.863281 39.054688 21.894531 20.753906 21.925781 2.457031 C 21.925781 2.1875 21.925781 1.917969 21.925781 1.636719 Z M 21.925781 1.636719 " fill-opacity="1" fill-rule="nonzero"/></g><g clip-path="url(#2a52dab21b)"><path fill="#000000" d="M 51.824219 58.167969 C 51.664062 58.183594 51.550781 58.203125 51.4375 58.207031 C 50.8125 58.222656 50.5 57.972656 50.5 57.457031 C 50.523438 44.628906 50.546875 31.800781 50.574219 18.972656 C 50.582031 13.445312 50.589844 7.917969 50.601562 2.394531 C 50.601562 2.164062 50.601562 1.933594 50.601562 1.667969 C 51.070312 1.667969 51.460938 1.667969 51.917969 1.667969 C 51.886719 20.503906 51.855469 39.328125 51.824219 58.167969 Z M 51.824219 58.167969 " fill-opacity="1" fill-rule="nonzero"/></g><g clip-path="url(#fcc6278092)"><path fill="#000000" d="M 87.480469 1.726562 C 87.957031 1.726562 88.347656 1.730469 88.78125 1.730469 C 88.75 20.566406 88.71875 39.367188 88.6875 58.234375 C 88.453125 58.246094 88.226562 58.246094 88.003906 58.273438 C 87.46875 58.332031 87.316406 58.140625 87.324219 57.707031 C 87.351562 55.949219 87.34375 54.191406 87.34375 52.433594 C 87.359375 43.390625 87.375 34.347656 87.390625 25.308594 C 87.40625 17.613281 87.421875 9.917969 87.4375 2.222656 C 87.4375 2.070312 87.464844 1.917969 87.480469 1.726562 Z M 87.480469 1.726562 " fill-opacity="1" fill-rule="nonzero"/></g><g clip-path="url(#db6849b397)"><path fill="#000000" d="M 77.828125 58.183594 C 77.859375 39.378906 77.890625 20.566406 77.921875 1.714844 C 78.34375 1.714844 78.734375 1.714844 79.210938 1.714844 C 79.222656 1.917969 79.25 2.125 79.25 2.328125 C 79.230469 14.808594 79.207031 27.285156 79.1875 39.761719 C 79.179688 45.621094 79.175781 51.476562 79.167969 57.335938 C 79.167969 58.359375 79.128906 58.386719 77.828125 58.183594 Z M 77.828125 58.183594 " fill-opacity="1" fill-rule="nonzero"/></g><g clip-path="url(#da070263f8)"><path fill="#000000" d="M 34.265625 1.640625 C 34.691406 1.640625 35.082031 1.640625 35.558594 1.644531 C 35.574219 1.847656 35.601562 2.054688 35.601562 2.261719 C 35.578125 15.089844 35.554688 27.921875 35.53125 40.753906 C 35.519531 46.335938 35.503906 51.921875 35.515625 57.507812 C 35.515625 58.027344 35.382812 58.238281 34.703125 58.203125 C 34.15625 58.175781 34.117188 57.964844 34.117188 57.609375 C 34.132812 55.070312 34.132812 52.53125 34.136719 49.992188 C 34.152344 40.972656 34.167969 31.949219 34.183594 22.925781 C 34.199219 15.996094 34.210938 9.0625 34.226562 2.128906 C 34.226562 1.976562 34.25 1.824219 34.265625 1.640625 Z M 34.265625 1.640625 " fill-opacity="1" fill-rule="nonzero"/></g><g clip-path="url(#48d88c4826)"><path fill="#000000" d="M 6.984375 1.578125 C 7.429688 1.578125 7.800781 1.582031 8.242188 1.582031 C 8.210938 20.40625 8.179688 39.214844 8.148438 58.085938 C 7.757812 58.085938 7.351562 58.085938 6.890625 58.085938 C 6.921875 39.265625 6.953125 20.457031 6.984375 1.578125 Z M 6.984375 1.578125 " fill-opacity="1" fill-rule="nonzero"/></g><g clip-path="url(#bf8b33cd6f)"><path fill="#000000" d="M 97.035156 1.738281 C 97.273438 1.726562 97.4375 1.714844 97.597656 1.710938 C 97.808594 1.707031 98.019531 1.710938 98.316406 1.710938 C 98.332031 1.949219 98.355469 2.15625 98.355469 2.359375 C 98.328125 17.945312 98.300781 33.527344 98.277344 49.109375 C 98.273438 51.863281 98.269531 54.617188 98.269531 57.371094 C 98.269531 58.40625 98.257812 58.414062 96.941406 58.222656 C 96.972656 39.414062 97.003906 20.601562 97.035156 1.738281 Z M 97.035156 1.738281 " fill-opacity="1" fill-rule="nonzero"/></g><g clip-path="url(#f5cd09ddd7)"><path fill="#000000" d="M 12.328125 58.085938 C 12.359375 39.253906 12.390625 20.453125 12.421875 1.609375 C 12.84375 1.609375 13.234375 1.613281 13.710938 1.613281 C 13.722656 1.773438 13.746094 1.960938 13.746094 2.148438 C 13.730469 12.300781 13.710938 22.457031 13.699219 32.613281 C 13.683594 40.8125 13.675781 49.015625 13.667969 57.21875 C 13.667969 58.257812 13.671875 58.257812 12.328125 58.085938 Z M 12.328125 58.085938 " fill-opacity="1" fill-rule="nonzero"/></g><g clip-path="url(#7e9c5c17cb)"><path fill="#000000" d="M 122.867188 58.25 C 122.898438 39.449219 122.929688 20.640625 122.960938 1.792969 C 123.382812 1.792969 123.773438 1.792969 124.238281 1.792969 C 124.25 2 124.273438 2.207031 124.273438 2.414062 C 124.25 17.25 124.222656 32.089844 124.199219 46.925781 C 124.195312 50.441406 124.195312 53.957031 124.191406 57.46875 C 124.191406 58.4375 124.132812 58.472656 122.867188 58.25 Z M 122.867188 58.25 " fill-opacity="1" fill-rule="nonzero"/></g><g clip-path="url(#5ff526c402)"><path fill="#000000" d="M 366.859375 58.292969 C 365.066406 58.292969 363.308594 58.289062 361.503906 58.285156 C 361.535156 39.4375 361.566406 20.625 361.597656 1.773438 C 363.378906 1.777344 365.132812 1.78125 366.953125 1.785156 C 366.921875 20.597656 366.890625 39.40625 366.859375 58.292969 Z M 366.859375 58.292969 " fill-opacity="1" fill-rule="nonzero"/></g><g clip-path="url(#c98ba8640c)"><path fill="#000000" d="M 302.925781 1.667969 C 304.296875 1.671875 305.585938 1.675781 306.929688 1.675781 C 306.898438 20.523438 306.867188 39.335938 306.835938 58.191406 C 305.496094 58.191406 304.191406 58.1875 302.832031 58.1875 C 302.863281 39.347656 302.894531 20.535156 302.925781 1.667969 Z M 302.925781 1.667969 " fill-opacity="1" fill-rule="nonzero"/></g><g clip-path="url(#bbad21f7d9)"><path fill="#000000" d="M 265.898438 58.125 C 264.5625 58.125 263.253906 58.121094 261.898438 58.121094 C 261.929688 39.277344 261.960938 20.46875 261.992188 1.613281 C 263.3125 1.617188 264.621094 1.617188 265.992188 1.621094 C 265.960938 20.441406 265.929688 39.261719 265.898438 58.125 Z M 265.898438 58.125 " fill-opacity="1" fill-rule="nonzero"/></g><g clip-path="url(#2e067ad9a5)"><path fill="#000000" d="M 294.527344 58.175781 C 293.203125 58.171875 291.894531 58.171875 290.535156 58.167969 C 290.566406 39.328125 290.597656 20.519531 290.628906 1.664062 C 291.945312 1.667969 293.25 1.667969 294.621094 1.671875 C 294.589844 20.488281 294.558594 39.3125 294.527344 58.175781 Z M 294.527344 58.175781 " fill-opacity="1" fill-rule="nonzero"/></g><g clip-path="url(#9626634d0c)"><path fill="#000000" d="M 283.714844 58.195312 C 283.746094 39.308594 283.777344 20.515625 283.808594 1.660156 C 285.128906 1.664062 286.433594 1.664062 287.828125 1.667969 C 287.839844 1.835938 287.867188 2.019531 287.867188 2.207031 C 287.851562 13.101562 287.832031 24 287.8125 34.894531 C 287.800781 42.390625 287.792969 49.890625 287.785156 57.386719 C 287.785156 58.191406 287.785156 58.195312 286.84375 58.199219 C 285.832031 58.203125 284.820312 58.195312 283.714844 58.195312 Z M 283.714844 58.195312 " fill-opacity="1" fill-rule="nonzero"/></g><g clip-path="url(#0b35b17db2)"><path fill="#000000" d="M 278.167969 58.148438 C 277.289062 58.148438 276.453125 58.148438 275.546875 58.144531 C 275.578125 39.324219 275.609375 20.515625 275.640625 1.648438 C 276.480469 1.652344 277.335938 1.652344 278.261719 1.652344 C 278.230469 20.46875 278.199219 39.289062 278.167969 58.148438 Z M 278.167969 58.148438 " fill-opacity="1" fill-rule="nonzero"/></g><g clip-path="url(#c65cb9b2d0)"><path fill="#000000" d="M 313.832031 1.6875 C 314.734375 1.6875 315.574219 1.691406 316.484375 1.691406 C 316.496094 1.925781 316.519531 2.132812 316.519531 2.339844 C 316.5 14.035156 316.480469 25.726562 316.460938 37.421875 C 316.453125 44.058594 316.445312 50.699219 316.4375 57.335938 C 316.4375 58.453125 316.453125 58.214844 315.332031 58.242188 C 314.820312 58.257812 314.304688 58.242188 313.738281 58.242188 C 313.769531 39.367188 313.800781 20.558594 313.832031 1.6875 Z M 313.832031 1.6875 " fill-opacity="1" fill-rule="nonzero"/></g><g clip-path="url(#e3f938f25b)"><path fill="#000000" d="M 354.5625 58.300781 C 353.773438 58.300781 353.019531 58.324219 352.273438 58.277344 C 352.136719 58.265625 351.925781 57.960938 351.921875 57.789062 C 351.898438 55.601562 351.90625 53.414062 351.910156 51.226562 C 351.925781 43.007812 351.941406 34.785156 351.953125 26.5625 C 351.964844 18.480469 351.980469 10.394531 351.980469 2.3125 C 351.980469 1.859375 352.125 1.675781 352.699219 1.710938 C 353.328125 1.75 353.964844 1.722656 354.65625 1.722656 C 354.625 20.585938 354.59375 39.398438 354.5625 58.300781 Z M 354.5625 58.300781 " fill-opacity="1" fill-rule="nonzero"/></g><g clip-path="url(#08f8b0483d)"><path fill="#000000" d="M 345.238281 1.742188 C 346.128906 1.742188 346.96875 1.746094 347.910156 1.746094 C 347.910156 2.316406 347.910156 2.859375 347.910156 3.398438 C 347.886719 14.726562 347.863281 26.054688 347.84375 37.382812 C 347.832031 44.101562 347.828125 50.816406 347.820312 57.535156 C 347.816406 58.039062 347.507812 58.289062 346.890625 58.292969 C 346.394531 58.292969 345.898438 58.292969 345.402344 58.289062 C 345.335938 58.289062 345.269531 58.265625 345.144531 58.238281 C 345.175781 39.429688 345.207031 20.613281 345.238281 1.742188 Z M 345.238281 1.742188 " fill-opacity="1" fill-rule="nonzero"/></g><g clip-path="url(#285fc7749d)"><path fill="#000000" d="M 326.128906 1.675781 C 326.835938 1.679688 327.472656 1.707031 328.105469 1.671875 C 328.675781 1.640625 328.824219 1.824219 328.820312 2.277344 C 328.792969 4.875 328.800781 7.472656 328.796875 10.066406 C 328.78125 18.289062 328.765625 26.511719 328.75 34.734375 C 328.738281 42.390625 328.71875 50.046875 328.71875 57.699219 C 328.71875 58.121094 328.601562 58.308594 328.046875 58.273438 C 327.394531 58.230469 326.738281 58.261719 326.035156 58.257812 C 326.066406 39.386719 326.097656 20.574219 326.128906 1.675781 Z M 326.128906 1.675781 " fill-opacity="1" fill-rule="nonzero"/></g><g clip-path="url(#2f6123323b)"><path fill="#000000" d="M 270.09375 58.171875 C 270.125 39.285156 270.15625 20.472656 270.1875 1.621094 C 271.058594 1.621094 271.898438 1.625 272.820312 1.625 C 272.835938 1.859375 272.867188 2.085938 272.863281 2.3125 C 272.839844 15.941406 272.816406 29.570312 272.789062 43.199219 C 272.78125 47.964844 272.765625 52.730469 272.777344 57.496094 C 272.78125 58.015625 272.636719 58.242188 271.960938 58.1875 C 271.359375 58.136719 270.746094 58.175781 270.09375 58.171875 Z M 270.09375 58.171875 " fill-opacity="1" fill-rule="nonzero"/></g><g clip-path="url(#7bea404efa)"><path fill="#000000" d="M 338.359375 1.734375 C 339.324219 1.738281 340.160156 1.738281 341.089844 1.738281 C 341.089844 2.570312 341.085938 3.367188 341.085938 4.160156 C 341.070312 14.003906 341.050781 23.847656 341.035156 33.691406 C 341.023438 41.679688 341.007812 49.667969 341.007812 57.65625 C 341.007812 58.121094 340.886719 58.304688 340.273438 58.300781 C 338.261719 58.285156 338.265625 58.304688 338.269531 56.664062 C 338.292969 42.210938 338.3125 27.757812 338.332031 13.308594 C 338.339844 9.65625 338.351562 6.003906 338.359375 2.351562 C 338.359375 2.160156 338.359375 1.96875 338.359375 1.734375 Z M 338.359375 1.734375 " fill-opacity="1" fill-rule="nonzero"/></g><g clip-path="url(#45683612b3)"><path fill="#000000" d="M 373.761719 58.277344 C 373.792969 39.457031 373.824219 20.660156 373.855469 1.863281 C 373.953125 1.835938 374.015625 1.804688 374.082031 1.804688 C 375.191406 1.753906 375.199219 1.753906 375.195312 2.585938 C 375.179688 12.867188 375.160156 23.148438 375.144531 33.429688 C 375.132812 41.460938 375.125 49.496094 375.113281 57.527344 C 375.113281 58.429688 375.074219 58.457031 373.761719 58.277344 Z M 373.761719 58.277344 " fill-opacity="1" fill-rule="nonzero"/></g><g clip-path="url(#a98f46f75d)"><path fill="#000000" d="M 246.949219 1.628906 C 246.949219 2.417969 246.945312 3.183594 246.945312 3.945312 C 246.921875 16.140625 246.898438 28.339844 246.878906 40.539062 C 246.867188 46.21875 246.851562 51.898438 246.859375 57.578125 C 246.859375 58 246.734375 58.167969 246.121094 58.148438 C 245.589844 58.132812 245.449219 58 245.453125 57.621094 C 245.476562 55.320312 245.472656 53.019531 245.476562 50.71875 C 245.492188 43.402344 245.503906 36.082031 245.515625 28.765625 C 245.527344 21.429688 245.539062 14.09375 245.554688 6.757812 C 245.554688 5.3125 245.554688 3.863281 245.5625 2.417969 C 245.570312 1.515625 245.574219 1.515625 246.949219 1.628906 Z M 246.949219 1.628906 " fill-opacity="1" fill-rule="nonzero"/></g><g clip-path="url(#4e56dfa910)"><path fill="#000000" d="M 249.507812 58.101562 C 249.363281 58.117188 249.25 58.132812 249.136719 58.136719 C 248.507812 58.152344 248.191406 57.933594 248.191406 57.472656 C 248.214844 44.648438 248.242188 31.828125 248.265625 19.003906 C 248.277344 13.410156 248.285156 7.816406 248.292969 2.226562 C 248.292969 2.035156 248.292969 1.847656 248.292969 1.621094 C 248.757812 1.625 249.144531 1.625 249.601562 1.625 C 249.570312 20.425781 249.539062 39.234375 249.507812 58.101562 Z M 249.507812 58.101562 " fill-opacity="1" fill-rule="nonzero"/></g><g clip-path="url(#71ac52e689)"><path fill="#000000" d="M 371.035156 58.28125 C 371.066406 39.460938 371.097656 20.664062 371.128906 1.832031 C 371.546875 1.832031 371.933594 1.832031 372.410156 1.832031 C 372.425781 1.980469 372.464844 2.144531 372.464844 2.308594 C 372.457031 9.820312 372.445312 17.328125 372.433594 24.835938 C 372.421875 32.136719 372.40625 39.4375 372.398438 46.738281 C 372.390625 50.34375 372.386719 53.953125 372.382812 57.558594 C 372.382812 58.429688 372.371094 58.4375 371.035156 58.28125 Z M 371.035156 58.28125 " fill-opacity="1" fill-rule="nonzero"/></g><g clip-path="url(#3f3c459730)"><path fill="#000000" d="M 308.382812 1.714844 C 308.824219 1.714844 309.210938 1.714844 309.648438 1.71875 C 309.617188 20.554688 309.585938 39.359375 309.554688 58.203125 C 309.132812 58.203125 308.742188 58.199219 308.289062 58.199219 C 308.320312 39.378906 308.351562 20.5625 308.382812 1.714844 Z M 308.382812 1.714844 " fill-opacity="1" fill-rule="nonzero"/></g><g clip-path="url(#e2314c8246)"><path fill="#000000" d="M 311.0625 1.710938 C 311.566406 1.710938 311.941406 1.710938 312.375 1.710938 C 312.34375 20.542969 312.3125 39.363281 312.28125 58.199219 C 312.082031 58.21875 311.921875 58.226562 311.765625 58.246094 C 311.164062 58.3125 310.953125 58.15625 310.953125 57.679688 C 310.992188 48.375 311.007812 39.070312 311.023438 29.769531 C 311.035156 21.058594 311.046875 12.347656 311.058594 3.636719 C 311.058594 3.011719 311.0625 2.386719 311.0625 1.710938 Z M 311.0625 1.710938 " fill-opacity="1" fill-rule="nonzero"/></g><g clip-path="url(#d6957a03cd)"><path fill="#000000" d="M 317.824219 58.175781 C 317.855469 39.34375 317.886719 20.542969 317.917969 1.703125 C 318.347656 1.703125 318.734375 1.703125 319.210938 1.703125 C 319.222656 1.910156 319.246094 2.113281 319.246094 2.320312 C 319.230469 13.257812 319.210938 24.191406 319.195312 35.128906 C 319.183594 42.527344 319.175781 49.929688 319.167969 57.332031 C 319.167969 58.34375 319.148438 58.359375 317.824219 58.175781 Z M 317.824219 58.175781 " fill-opacity="1" fill-rule="nonzero"/></g><g clip-path="url(#8e38c870f4)"><path fill="#000000" d="M 300.050781 58.183594 C 299.554688 58.183594 299.164062 58.183594 298.726562 58.179688 C 298.757812 39.335938 298.789062 20.523438 298.820312 1.71875 C 298.882812 1.6875 298.921875 1.65625 298.960938 1.652344 C 299.757812 1.605469 300.15625 1.914062 300.152344 2.578125 C 300.128906 16.601562 300.109375 30.621094 300.082031 44.640625 C 300.074219 48.917969 300.0625 53.195312 300.050781 57.472656 C 300.050781 57.683594 300.050781 57.894531 300.050781 58.183594 Z M 300.050781 58.183594 " fill-opacity="1" fill-rule="nonzero"/></g><g clip-path="url(#7a11408ab6)"><path fill="#000000" d="M 358.855469 1.769531 C 359.3125 1.773438 359.707031 1.773438 360.195312 1.773438 C 360.195312 2.039062 360.195312 2.265625 360.195312 2.496094 C 360.167969 16.148438 360.140625 29.800781 360.117188 43.453125 C 360.105469 48.097656 360.101562 52.746094 360.09375 57.394531 C 360.089844 58.425781 360.085938 58.425781 358.761719 58.25 C 358.792969 39.441406 358.824219 20.625 358.855469 1.769531 Z M 358.855469 1.769531 " fill-opacity="1" fill-rule="nonzero"/></g><g clip-path="url(#3c8d36af74)"><path fill="#000000" d="M 267.378906 1.636719 C 267.570312 1.609375 267.683594 1.585938 267.792969 1.582031 C 268.074219 1.578125 268.355469 1.582031 268.71875 1.582031 C 268.738281 1.824219 268.765625 2.03125 268.765625 2.238281 C 268.746094 15.808594 268.71875 29.382812 268.695312 42.953125 C 268.6875 47.777344 268.679688 52.601562 268.671875 57.425781 C 268.671875 58.167969 268.503906 58.292969 267.652344 58.144531 C 267.511719 58.121094 267.359375 57.949219 267.300781 57.816406 C 267.242188 57.679688 267.285156 57.507812 267.289062 57.351562 C 267.316406 39.054688 267.347656 20.753906 267.378906 2.457031 C 267.378906 2.1875 267.378906 1.917969 267.378906 1.636719 Z M 267.378906 1.636719 " fill-opacity="1" fill-rule="nonzero"/></g><g clip-path="url(#f18f3bfbe3)"><path fill="#000000" d="M 297.277344 58.167969 C 297.121094 58.183594 297.003906 58.203125 296.890625 58.207031 C 296.265625 58.222656 295.953125 57.972656 295.953125 57.457031 C 295.976562 44.628906 296.003906 31.800781 296.027344 18.972656 C 296.039062 13.445312 296.046875 7.917969 296.054688 2.394531 C 296.054688 2.164062 296.054688 1.933594 296.054688 1.667969 C 296.527344 1.667969 296.914062 1.667969 297.371094 1.667969 C 297.339844 20.503906 297.308594 39.328125 297.277344 58.167969 Z M 297.277344 58.167969 " fill-opacity="1" fill-rule="nonzero"/></g><g clip-path="url(#50883cd4e2)"><path fill="#000000" d="M 332.933594 1.726562 C 333.410156 1.726562 333.800781 1.730469 334.234375 1.730469 C 334.203125 20.566406 334.171875 39.367188 334.140625 58.234375 C 333.90625 58.246094 333.679688 58.246094 333.457031 58.273438 C 332.925781 58.332031 332.773438 58.140625 332.777344 57.707031 C 332.808594 55.949219 332.796875 54.191406 332.800781 52.433594 C 332.816406 43.390625 332.832031 34.347656 332.847656 25.308594 C 332.859375 17.613281 332.875 9.917969 332.894531 2.222656 C 332.894531 2.070312 332.917969 1.917969 332.933594 1.726562 Z M 332.933594 1.726562 " fill-opacity="1" fill-rule="nonzero"/></g><g clip-path="url(#14a5a2fc48)"><path fill="#000000" d="M 323.28125 58.183594 C 323.3125 39.378906 323.34375 20.566406 323.378906 1.714844 C 323.800781 1.714844 324.1875 1.714844 324.664062 1.714844 C 324.679688 1.917969 324.703125 2.125 324.703125 2.328125 C 324.683594 14.808594 324.664062 27.285156 324.644531 39.761719 C 324.632812 45.621094 324.628906 51.476562 324.625 57.335938 C 324.621094 58.359375 324.582031 58.386719 323.28125 58.183594 Z M 323.28125 58.183594 " fill-opacity="1" fill-rule="nonzero"/></g><g clip-path="url(#aeefe6692b)"><path fill="#000000" d="M 279.71875 1.640625 C 280.148438 1.640625 280.539062 1.640625 281.015625 1.644531 C 281.027344 1.847656 281.054688 2.054688 281.054688 2.261719 C 281.03125 15.089844 281.007812 27.921875 280.984375 40.753906 C 280.976562 46.335938 280.957031 51.921875 280.96875 57.507812 C 280.96875 58.027344 280.839844 58.238281 280.15625 58.203125 C 279.609375 58.175781 279.570312 57.964844 279.574219 57.609375 C 279.585938 55.070312 279.585938 52.53125 279.589844 49.992188 C 279.609375 40.972656 279.625 31.949219 279.640625 22.925781 C 279.652344 15.996094 279.664062 9.0625 279.679688 2.128906 C 279.679688 1.976562 279.703125 1.824219 279.71875 1.640625 Z M 279.71875 1.640625 " fill-opacity="1" fill-rule="nonzero"/></g><g clip-path="url(#6221277f03)"><path fill="#000000" d="M 252.4375 1.578125 C 252.882812 1.578125 253.257812 1.582031 253.695312 1.582031 C 253.664062 20.40625 253.632812 39.214844 253.601562 58.085938 C 253.210938 58.085938 252.808594 58.085938 252.34375 58.085938 C 252.375 39.265625 252.40625 20.457031 252.4375 1.578125 Z M 252.4375 1.578125 " fill-opacity="1" fill-rule="nonzero"/></g><g clip-path="url(#16fae7a940)"><path fill="#000000" d="M 342.488281 1.738281 C 342.726562 1.726562 342.890625 1.714844 343.054688 1.710938 C 343.265625 1.707031 343.472656 1.710938 343.769531 1.710938 C 343.785156 1.949219 343.808594 2.15625 343.808594 2.359375 C 343.785156 17.945312 343.757812 33.527344 343.730469 49.109375 C 343.726562 51.863281 343.726562 54.617188 343.726562 57.371094 C 343.722656 58.40625 343.710938 58.414062 342.394531 58.222656 C 342.425781 39.414062 342.457031 20.601562 342.488281 1.738281 Z M 342.488281 1.738281 " fill-opacity="1" fill-rule="nonzero"/></g><g clip-path="url(#034d8f03c6)"><path fill="#000000" d="M 257.785156 58.085938 C 257.816406 39.253906 257.847656 20.453125 257.878906 1.609375 C 258.296875 1.609375 258.6875 1.613281 259.164062 1.613281 C 259.175781 1.773438 259.199219 1.960938 259.199219 2.148438 C 259.1875 12.300781 259.167969 22.457031 259.152344 32.613281 C 259.140625 40.8125 259.132812 49.015625 259.121094 57.21875 C 259.121094 58.257812 259.128906 58.257812 257.785156 58.085938 Z M 257.785156 58.085938 " fill-opacity="1" fill-rule="nonzero"/></g><g clip-path="url(#f8f6825993)"><path fill="#000000" d="M 368.324219 58.25 C 368.355469 39.449219 368.386719 20.640625 368.417969 1.792969 C 368.839844 1.792969 369.226562 1.792969 369.695312 1.792969 C 369.707031 2 369.726562 2.207031 369.726562 2.414062 C 369.703125 17.25 369.679688 32.089844 369.65625 46.925781 C 369.648438 50.441406 369.648438 53.957031 369.644531 57.46875 C 369.644531 58.4375 369.585938 58.472656 368.324219 58.25 Z M 368.324219 58.25 " fill-opacity="1" fill-rule="nonzero"/></g></svg>