<svg preserveAspectRatio="xMidYMid meet" data-bbox="20 19.999 160.001 160" viewBox="20 19.999 160.001 160" width='100' xmlns="http://www.w3.org/2000/svg" data-type="tint" role="presentation" aria-hidden="true" aria-label="">
    <g>
                    <path d="M101.872 179.999h-3.721c0-67.801-52.394-77.192-74.92-78.083a89.183 89.183 0 0 0-3.23-.062v-3.721c.912 0 2.006-.022 3.238-.066 22.518-.892 74.913-10.281 74.913-78.068h3.721c0 67.784 52.376 77.176 74.894 78.068a92.03 92.03 0 0 0 3.234.066v3.721c-.916 0-2.006.016-3.238.062-22.515.893-74.891 10.286-74.891 78.083zM38.7 99.992c21.558 4.165 53.346 17.442 61.311 59.133 7.961-41.689 39.742-54.967 61.297-59.133-21.555-4.165-53.335-17.44-61.297-59.122C92.046 82.552 60.259 95.828 38.7 99.992z" fill='black'></path>
                </g>
</svg>