<svg xmlns="http://www.w3.org/2000/svg" xmlns:xlink="http://www.w3.org/1999/xlink" width="900" zoomAndPan="magnify" viewBox="0 0 675 187.499995" height="250" preserveAspectRatio="xMidYMid meet" version="1.0"><defs><g/><clipPath id="2b2b3cbd6f"><path d="M 242.066406 7.484375 L 413.832031 7.484375 L 413.832031 179.246094 L 242.066406 179.246094 Z M 242.066406 7.484375 " clip-rule="nonzero"/></clipPath></defs><g clip-path="url(#2b2b3cbd6f)"><path fill="#000000" d="M 334.402344 7.484375 L 322.089844 7.484375 L 322.089844 78.800781 L 271.660156 28.371094 L 262.957031 37.078125 L 313.382812 87.507812 L 242.066406 87.507812 L 242.066406 99.816406 L 313.382812 99.816406 L 262.957031 150.246094 L 271.660156 158.949219 L 322.089844 108.523438 L 322.089844 179.839844 L 334.402344 179.839844 L 334.402344 108.523438 L 384.828125 158.949219 L 393.535156 150.246094 L 343.105469 99.816406 L 414.421875 99.816406 L 414.421875 87.507812 L 343.105469 87.507812 L 393.535156 37.078125 L 384.828125 28.371094 L 334.402344 78.800781 Z M 334.402344 7.484375 " fill-opacity="1" fill-rule="evenodd"/></g><g fill="#000000" fill-opacity="1"><g transform="translate(27.811368, 160.518208)"><g><path d="M 83.28125 0 L 49.828125 0 L 48.1875 -22.90625 L 36 -22.90625 L 34.359375 0 L 0.90625 0 L 17.28125 -129.828125 L 65.453125 -129.828125 Z M 36 -45.828125 L 47.640625 -45.828125 L 41.828125 -106.921875 L 41.453125 -106.921875 Z M 36 -45.828125 "/></g></g></g><g fill="#000000" fill-opacity="1"><g transform="translate(119.266642, 160.518208)"><g><path d="M 57.28125 -54 L 57.640625 -54 L 65.453125 -129.828125 L 110.546875 -129.828125 L 110.546875 0 L 82.1875 0 L 82.1875 -96.375 L 81.828125 -96.375 L 67.828125 0 L 46.734375 0 L 32.734375 -96.375 L 32.359375 -96.375 L 32.359375 0 L 4 0 L 4 -129.828125 L 48.546875 -129.828125 Z M 57.28125 -54 "/></g></g></g><g fill="#000000" fill-opacity="1"><g transform="translate(422.665817, 160.521408)"><g><path d="M 78.921875 -104.203125 L 78.921875 -91.109375 C 78.921875 -83.953125 77.28125 -78.582031 74 -75 C 70.726562 -71.425781 65.820312 -69.398438 59.28125 -68.921875 L 59.28125 -68.5625 C 66.4375 -68.070312 71.707031 -66.007812 75.09375 -62.375 C 78.488281 -58.738281 80.1875 -53.34375 80.1875 -46.1875 L 80.1875 0 L 48.921875 0 L 48.921875 -49.828125 C 48.921875 -56.972656 46.007812 -60.546875 40.1875 -60.546875 C 38.851562 -60.546875 37.582031 -60.367188 36.375 -60.015625 L 36.375 0 L 4 0 L 4 -129.84375 L 43.09375 -129.84375 C 50.851562 -129.84375 57.21875 -129.265625 62.1875 -128.109375 C 67.15625 -126.953125 71.1875 -124.523438 74.28125 -120.828125 C 77.375 -117.128906 78.921875 -111.585938 78.921875 -104.203125 Z M 38.734375 -80.1875 C 42.609375 -80.1875 45.273438 -81.066406 46.734375 -82.828125 C 48.191406 -84.585938 48.921875 -86.617188 48.921875 -88.921875 L 48.921875 -100.375 C 48.921875 -102.5625 48.191406 -104.5625 46.734375 -106.375 C 45.273438 -108.195312 42.671875 -109.109375 38.921875 -109.109375 L 36.375 -109.109375 L 36.375 -80.1875 Z M 38.734375 -80.1875 "/></g></g></g><g fill="#000000" fill-opacity="1"><g transform="translate(514.12237, 160.521408)"><g><path d="M 60.546875 -103.65625 L 37.453125 -103.65625 L 37.453125 -79.828125 L 59.09375 -79.828125 L 59.09375 -54.734375 L 37.453125 -54.734375 L 37.453125 -26.1875 L 62.375 -26.1875 L 62.375 0 L 4 0 L 4 -129.84375 L 60.546875 -129.84375 Z M 30.359375 -138.015625 L 17.265625 -138.015625 L 32.90625 -157.65625 L 64 -157.65625 Z M 30.359375 -138.015625 "/></g></g></g><g fill="#000000" fill-opacity="1"><g transform="translate(585.397074, 160.521408)"><g><path d="M 60.546875 -103.65625 L 37.453125 -103.65625 L 37.453125 -79.828125 L 59.09375 -79.828125 L 59.09375 -54.734375 L 37.453125 -54.734375 L 37.453125 -26.1875 L 62.375 -26.1875 L 62.375 0 L 4 0 L 4 -129.84375 L 60.546875 -129.84375 Z M 60.546875 -103.65625 "/></g></g></g></svg>