<svg xmlns="http://www.w3.org/2000/svg" xmlns:xlink="http://www.w3.org/1999/xlink" width="500" zoomAndPan="magnify" viewBox="0 0 375 374.999991" height="500" preserveAspectRatio="xMidYMid meet" version="1.0"><defs><g/></defs><g fill="#000000" fill-opacity="1"><g transform="translate(5.112869, 180.581285)"><g><path d="M 58.09375 0 L 34.75 0 L 33.609375 -15.984375 L 25.109375 -15.984375 L 23.96875 0 L 0.640625 0 L 12.046875 -90.5625 L 45.65625 -90.5625 Z M 25.109375 -31.953125 L 33.234375 -31.953125 L 29.171875 -74.578125 L 28.921875 -74.578125 Z M 25.109375 -31.953125 "/></g></g></g><g fill="#000000" fill-opacity="1"><g transform="translate(65.352242, 180.581285)"><g><path d="M 53.390625 -67.71875 C 55.847656 -70.507812 58.238281 -72.625 60.5625 -74.0625 C 62.882812 -75.5 65.441406 -76.21875 68.234375 -76.21875 C 73.554688 -76.21875 77.441406 -74.441406 79.890625 -70.890625 C 82.347656 -67.335938 83.578125 -62.691406 83.578125 -56.953125 L 83.578125 0 L 61 0 L 61 -55.9375 C 61 -57.113281 60.742188 -58.25 60.234375 -59.34375 C 59.734375 -60.445312 58.804688 -61 57.453125 -61 C 55.421875 -61 54.40625 -59.351562 54.40625 -56.0625 L 54.40625 0 L 32.59375 0 L 32.59375 -55.9375 C 32.59375 -57.539062 32.273438 -58.785156 31.640625 -59.671875 C 31.003906 -60.554688 30.179688 -61 29.171875 -61 C 27.054688 -61 26 -59.351562 26 -56.0625 L 26 0 L 3.421875 0 L 3.421875 -74.328125 L 26 -74.328125 L 26 -68.609375 L 26.25 -68.609375 C 26.925781 -70.390625 28.570312 -72.101562 31.1875 -73.75 C 33.8125 -75.394531 36.734375 -76.21875 39.953125 -76.21875 C 42.910156 -76.21875 45.53125 -75.457031 47.8125 -73.9375 C 50.09375 -72.414062 51.953125 -70.34375 53.390625 -67.71875 Z M 53.390625 -67.71875 "/></g></g></g><g fill="#000000" fill-opacity="1"><g transform="translate(153.872314, 180.581285)"><g><path d="M 29.421875 -76.21875 C 37.960938 -76.21875 44.535156 -74.039062 49.140625 -69.6875 C 53.753906 -65.332031 56.0625 -59.476562 56.0625 -52.125 L 56.0625 -22.1875 C 56.0625 -14.832031 53.753906 -8.976562 49.140625 -4.625 C 44.535156 -0.269531 37.960938 1.90625 29.421875 1.90625 C 20.878906 1.90625 14.304688 -0.269531 9.703125 -4.625 C 5.097656 -8.976562 2.796875 -14.832031 2.796875 -22.1875 L 2.796875 -52.125 C 2.796875 -59.476562 5.097656 -65.332031 9.703125 -69.6875 C 14.304688 -74.039062 20.878906 -76.21875 29.421875 -76.21875 Z M 25.359375 -57.828125 L 25.359375 -18.015625 C 25.359375 -16.660156 25.738281 -15.535156 26.5 -14.640625 C 27.269531 -13.753906 28.242188 -13.3125 29.421875 -13.3125 C 30.609375 -13.3125 31.582031 -13.753906 32.34375 -14.640625 C 33.101562 -15.535156 33.484375 -16.660156 33.484375 -18.015625 L 33.484375 -57.828125 C 33.484375 -59.179688 33.101562 -60.300781 32.34375 -61.1875 C 31.582031 -62.082031 30.609375 -62.53125 29.421875 -62.53125 C 27.984375 -62.53125 26.945312 -62 26.3125 -60.9375 C 25.675781 -59.882812 25.359375 -58.847656 25.359375 -57.828125 Z M 25.359375 -57.828125 "/></g></g></g><g fill="#000000" fill-opacity="1"><g transform="translate(214.238503, 180.581285)"><g><path d="M 39.4375 -76.21875 L 39.4375 -49.203125 C 37.75 -49.378906 36.484375 -49.46875 35.640625 -49.46875 C 32.421875 -49.46875 30.007812 -48.515625 28.40625 -46.609375 C 26.800781 -44.703125 26 -42.484375 26 -39.953125 L 26 0 L 3.421875 0 L 3.421875 -74.328125 L 25.234375 -74.328125 L 25.234375 -64.8125 L 25.5 -64.8125 C 26.164062 -67.601562 27.894531 -70.140625 30.6875 -72.421875 C 33.476562 -74.703125 36.394531 -75.96875 39.4375 -76.21875 Z M 39.4375 -76.21875 "/></g></g></g><g fill="#000000" fill-opacity="1"><g transform="translate(255.708618, 180.581285)"><g><path d="M 29.421875 -76.21875 C 34.078125 -76.21875 38.304688 -75.265625 42.109375 -73.359375 C 45.910156 -71.460938 48.929688 -68.695312 51.171875 -65.0625 C 53.410156 -61.425781 54.53125 -57.113281 54.53125 -52.125 L 54.53125 -36.015625 L 25.359375 -36.015625 L 25.359375 -16.234375 C 25.359375 -13.273438 26.503906 -11.796875 28.796875 -11.796875 C 31.410156 -11.796875 32.71875 -13.441406 32.71875 -16.734375 L 32.71875 -30.3125 L 54.53125 -30.3125 L 54.53125 -22.1875 C 54.53125 -14.914062 52.394531 -9.082031 48.125 -4.6875 C 43.851562 -0.289062 37.617188 1.90625 29.421875 1.90625 C 20.796875 1.90625 14.203125 -0.269531 9.640625 -4.625 C 5.078125 -8.976562 2.796875 -14.832031 2.796875 -22.1875 L 2.796875 -52.125 C 2.796875 -59.5625 5.117188 -65.4375 9.765625 -69.75 C 14.410156 -74.0625 20.960938 -76.21875 29.421875 -76.21875 Z M 25.359375 -58.09375 L 25.359375 -48.1875 L 32.71875 -48.1875 L 32.71875 -57.578125 C 32.71875 -60.878906 31.410156 -62.53125 28.796875 -62.53125 C 26.503906 -62.53125 25.359375 -61.050781 25.359375 -58.09375 Z M 25.359375 -58.09375 "/></g></g></g><g fill="#000000" fill-opacity="1"><g transform="translate(313.538428, 180.581285)"><g><path d="M 29.421875 -76.21875 C 34.078125 -76.21875 38.304688 -75.265625 42.109375 -73.359375 C 45.910156 -71.460938 48.929688 -68.695312 51.171875 -65.0625 C 53.410156 -61.425781 54.53125 -57.113281 54.53125 -52.125 L 54.53125 -36.015625 L 25.359375 -36.015625 L 25.359375 -16.234375 C 25.359375 -13.273438 26.503906 -11.796875 28.796875 -11.796875 C 31.410156 -11.796875 32.71875 -13.441406 32.71875 -16.734375 L 32.71875 -30.3125 L 54.53125 -30.3125 L 54.53125 -22.1875 C 54.53125 -14.914062 52.394531 -9.082031 48.125 -4.6875 C 43.851562 -0.289062 37.617188 1.90625 29.421875 1.90625 C 20.796875 1.90625 14.203125 -0.269531 9.640625 -4.625 C 5.078125 -8.976562 2.796875 -14.832031 2.796875 -22.1875 L 2.796875 -52.125 C 2.796875 -59.5625 5.117188 -65.4375 9.765625 -69.75 C 14.410156 -74.0625 20.960938 -76.21875 29.421875 -76.21875 Z M 25.359375 -58.09375 L 25.359375 -48.1875 L 32.71875 -48.1875 L 32.71875 -57.578125 C 32.71875 -60.878906 31.410156 -62.53125 28.796875 -62.53125 C 26.503906 -62.53125 25.359375 -61.050781 25.359375 -58.09375 Z M 25.359375 -58.09375 "/></g></g></g><g fill="#000000" fill-opacity="1"><g transform="translate(103.108984, 270.494277)"><g><path d="M 11.65625 2.265625 L 9.125 2.703125 C 8.820312 2.765625 8.488281 2.738281 8.125 2.625 C 7.644531 2.382812 7.253906 2.265625 6.953125 2.265625 L 6.6875 2.265625 C 6.320312 2.265625 6.082031 2.113281 5.96875 1.8125 C 5.90625 1.570312 5.660156 1.390625 5.234375 1.265625 L 4.875 1.171875 C 4.269531 1.109375 3.96875 0.71875 3.96875 0 C 4.03125 -0.414062 3.972656 -0.835938 3.796875 -1.265625 C 3.015625 -2.472656 2.625 -3.859375 2.625 -5.421875 C 2.625 -6.085938 2.648438 -6.597656 2.703125 -6.953125 C 3.429688 -11.171875 4.941406 -14.90625 7.234375 -18.15625 C 8.859375 -20.207031 10.179688 -21.6875 11.203125 -22.59375 C 11.441406 -22.832031 11.5625 -23.101562 11.5625 -23.40625 C 11.5625 -23.582031 11.53125 -23.734375 11.46875 -23.859375 C 10.625 -26.742188 9.632812 -29.242188 8.5 -31.359375 L 5.96875 -35.96875 C 4.519531 -38.550781 3.539062 -40.398438 3.03125 -41.515625 C 2.519531 -42.628906 2.171875 -43.664062 1.984375 -44.625 C 1.804688 -45.59375 1.71875 -47.015625 1.71875 -48.890625 C 1.71875 -51.898438 2.300781 -54.65625 3.46875 -57.15625 C 4.644531 -59.65625 6.617188 -61.476562 9.390625 -62.625 C 11.679688 -63.46875 14.003906 -63.859375 16.359375 -63.796875 C 16.835938 -63.796875 17.378906 -63.644531 17.984375 -63.34375 L 18.96875 -62.890625 C 19.394531 -62.710938 19.664062 -62.5 19.78125 -62.25 C 21.050781 -60.863281 21.625 -60.203125 21.5 -60.265625 C 21.625 -60.265625 21.71875 -60.175781 21.78125 -60 C 22.257812 -58.550781 22.5 -57.285156 22.5 -56.203125 C 22.5 -55.597656 22.390625 -54.960938 22.171875 -54.296875 C 21.960938 -53.640625 21.710938 -52.953125 21.421875 -52.234375 L 20.6875 -50.421875 C 20.570312 -49.941406 20.269531 -49.535156 19.78125 -49.203125 C 19.300781 -48.867188 18.789062 -48.703125 18.25 -48.703125 C 17.707031 -48.703125 17.253906 -48.882812 16.890625 -49.25 L 16.71875 -49.96875 C 16.71875 -50.8125 17.078125 -52.226562 17.796875 -54.21875 C 18.222656 -55.175781 18.46875 -56.410156 18.53125 -57.921875 C 18.582031 -58.335938 18.519531 -58.816406 18.34375 -59.359375 C 18.164062 -59.117188 17.832031 -58.847656 17.34375 -58.546875 C 17.039062 -58.367188 16.742188 -58.128906 16.453125 -57.828125 L 15.09375 -56.84375 C 13.882812 -56.050781 13.070312 -55.054688 12.65625 -53.859375 C 12.40625 -53.253906 12.191406 -52.859375 12.015625 -52.671875 C 11.953125 -52.617188 11.921875 -52.53125 11.921875 -52.40625 L 11.75 -51.234375 L 11.5625 -50.0625 L 11.46875 -49.0625 C 11.46875 -48.21875 11.675781 -47.285156 12.09375 -46.265625 C 12.519531 -45.242188 13.273438 -43.796875 14.359375 -41.921875 L 15.546875 -40.125 C 16.929688 -38.007812 18.046875 -36.226562 18.890625 -34.78125 C 19.734375 -33.34375 20.515625 -31.8125 21.234375 -30.1875 C 21.410156 -29.882812 21.679688 -29.820312 22.046875 -30 C 23.554688 -30.601562 25.0625 -31.054688 26.5625 -31.359375 C 27.59375 -31.535156 28.132812 -31.171875 28.1875 -30.265625 C 28.25 -29.910156 28.128906 -29.609375 27.828125 -29.359375 L 26.109375 -28.734375 C 25.210938 -28.429688 24.160156 -28.007812 22.953125 -27.46875 C 22.648438 -27.34375 22.5625 -27.132812 22.6875 -26.84375 C 23.34375 -24.664062 23.757812 -22.796875 23.9375 -21.234375 C 24 -20.628906 23.941406 -19.664062 23.765625 -18.34375 C 23.523438 -16.957031 23.40625 -15.992188 23.40625 -15.453125 C 23.40625 -14.910156 22.984375 -13.4375 22.140625 -11.03125 C 21.710938 -9.9375 21.109375 -8.578125 20.328125 -6.953125 C 20.210938 -6.597656 19.972656 -6.117188 19.609375 -5.515625 L 18.609375 -3.703125 C 18.304688 -3.097656 17.765625 -2.253906 16.984375 -1.171875 C 16.921875 -0.992188 16.53125 -0.585938 15.8125 0.046875 C 15.09375 0.679688 14.582031 1.117188 14.28125 1.359375 C 13.914062 1.535156 13.613281 1.625 13.375 1.625 L 13.1875 1.625 C 13.132812 1.625 13.046875 1.6875 12.921875 1.8125 C 12.617188 1.988281 12.195312 2.140625 11.65625 2.265625 Z M 6.234375 -2.53125 C 6.597656 -2.351562 6.957031 -2.382812 7.3125 -2.625 C 7.5625 -2.863281 7.863281 -2.921875 8.21875 -2.796875 C 8.707031 -2.617188 9.070312 -2.738281 9.3125 -3.15625 C 10.507812 -4.789062 11.289062 -6.359375 11.65625 -7.859375 C 12.4375 -11.171875 12.796875 -14.304688 12.734375 -17.265625 C 12.617188 -18.523438 12.46875 -19.394531 12.28125 -19.875 L 11.75 -19.421875 C 10.425781 -18.097656 8.890625 -16.019531 7.140625 -13.1875 C 6.710938 -12.53125 6.226562 -11.628906 5.6875 -10.484375 C 5.632812 -10.421875 5.546875 -10.148438 5.421875 -9.671875 L 5.15625 -8.953125 C 4.550781 -7.679688 4.25 -6.472656 4.25 -5.328125 C 4.25 -4.066406 4.910156 -3.132812 6.234375 -2.53125 Z M 6.234375 -2.53125 "/></g></g></g><g fill="#000000" fill-opacity="1"><g transform="translate(133.104943, 270.494277)"><g><path d="M 9.671875 -4.78125 C 9.484375 -4.78125 8.789062 -4.84375 7.59375 -4.96875 C 5.476562 -5.269531 3.625 -6.265625 2.03125 -7.953125 C 0.4375 -9.640625 -0.8125 -11.804688 -1.71875 -14.453125 C -2.132812 -15.960938 -2.40625 -17.019531 -2.53125 -17.625 C -2.46875 -17.4375 -2.523438 -18.640625 -2.703125 -21.234375 C -2.765625 -22.921875 -2.738281 -24.546875 -2.625 -26.109375 C -2.257812 -28.523438 -1.742188 -30.679688 -1.078125 -32.578125 C -0.421875 -34.472656 0.566406 -36.320312 1.890625 -38.125 C 2.316406 -38.664062 2.890625 -39.269531 3.609375 -39.9375 C 3.554688 -39.875 3.800781 -39.960938 4.34375 -40.203125 C 5.425781 -40.742188 6.75 -41.015625 8.3125 -41.015625 C 10.300781 -41.015625 12.257812 -40.65625 14.1875 -39.9375 C 14.851562 -39.632812 15.304688 -39.332031 15.546875 -39.03125 L 16.265625 -38.40625 C 16.628906 -38.164062 16.8125 -37.863281 16.8125 -37.5 C 16.8125 -37.195312 16.675781 -36.910156 16.40625 -36.640625 C 16.132812 -36.367188 15.847656 -36.113281 15.546875 -35.875 C 15.304688 -35.75 14.910156 -35.628906 14.359375 -35.515625 C 13.640625 -35.390625 12.945312 -35.054688 12.28125 -34.515625 C 11.625 -33.972656 10.90625 -33.160156 10.125 -32.078125 C 10 -31.953125 9.878906 -31.738281 9.765625 -31.4375 C 9.640625 -31.144531 9.457031 -30.601562 9.21875 -29.8125 C 8.976562 -29.03125 8.765625 -28.488281 8.578125 -28.1875 C 8.335938 -27.226562 8.21875 -26.75 8.21875 -26.75 L 7.859375 -25.296875 L 7.3125 -21.5 C 7.195312 -20.539062 7.140625 -19.96875 7.140625 -19.78125 L 7.140625 -19.421875 C 7.203125 -19.179688 7.203125 -18.941406 7.140625 -18.703125 C 7.078125 -18.460938 7.046875 -17.347656 7.046875 -15.359375 C 7.171875 -13.367188 7.804688 -11.257812 8.953125 -9.03125 C 9.429688 -8.1875 10.03125 -7.738281 10.75 -7.6875 L 12.28125 -7.59375 C 12.882812 -7.707031 13.789062 -8.1875 15 -9.03125 C 16.082031 -9.8125 17.453125 -11.648438 19.109375 -14.546875 C 20.765625 -17.441406 22.554688 -21.507812 24.484375 -26.75 C 26.535156 -32.53125 27.679688 -35.601562 27.921875 -35.96875 C 28.160156 -36.207031 28.398438 -36.328125 28.640625 -36.328125 C 28.941406 -36.328125 29.195312 -36.160156 29.40625 -35.828125 C 29.625 -35.492188 29.734375 -35.117188 29.734375 -34.703125 C 29.734375 -34.515625 29.671875 -34.242188 29.546875 -33.890625 C 26.835938 -26.171875 24.457031 -19.90625 22.40625 -15.09375 C 21.6875 -13.46875 20.570312 -11.613281 19.0625 -9.53125 C 17.5625 -7.457031 16.238281 -6.269531 15.09375 -5.96875 C 12.257812 -5.175781 10.453125 -4.78125 9.671875 -4.78125 Z M 9.671875 -4.78125 "/></g></g></g><g fill="#000000" fill-opacity="1"><g transform="translate(158.764133, 270.494277)"><g><path d="M 11.296875 1.890625 C 10.566406 1.890625 9.929688 1.800781 9.390625 1.625 C 7.828125 0.90625 6.472656 -0.0234375 5.328125 -1.171875 C 3.285156 -3.160156 1.71875 -5.175781 0.625 -7.21875 C -0.457031 -9.269531 -1.207031 -11.53125 -1.625 -14 C -1.863281 -15.269531 -2.015625 -17.5 -2.078125 -20.6875 L -1.8125 -26.03125 C -1.144531 -29.09375 -0.628906 -31.09375 -0.265625 -32.03125 C 0.0859375 -32.96875 0.628906 -33.765625 1.359375 -34.421875 C 1.421875 -34.421875 1.539062 -34.570312 1.71875 -34.875 C 2.257812 -35.78125 2.984375 -36.414062 3.890625 -36.78125 C 5.691406 -37.4375 7.554688 -37.765625 9.484375 -37.765625 C 10.265625 -37.765625 10.835938 -37.738281 11.203125 -37.6875 C 11.921875 -37.625 12.566406 -37.425781 13.140625 -37.09375 C 13.710938 -36.757812 14.0625 -36.320312 14.1875 -35.78125 C 14.1875 -35.476562 14.367188 -35.328125 14.734375 -35.328125 C 15.328125 -35.265625 15.835938 -34.9375 16.265625 -34.34375 L 16.71875 -33.890625 C 16.957031 -33.828125 17.140625 -33.429688 17.265625 -32.703125 C 17.316406 -32.410156 17.34375 -32.019531 17.34375 -31.53125 C 17.34375 -30.6875 17.222656 -30.023438 16.984375 -29.546875 C 16.921875 -29.484375 16.742188 -28.640625 16.453125 -27.015625 L 15.359375 -23.5 C 15.484375 -23.738281 15.4375 -23.675781 15.21875 -23.3125 C 15.007812 -22.945312 14.800781 -22.507812 14.59375 -22 C 14.382812 -21.488281 14.1875 -20.960938 14 -20.421875 L 13.46875 -18.796875 C 13.039062 -18.128906 12.421875 -17.015625 11.609375 -15.453125 C 10.796875 -13.890625 10.328125 -12.832031 10.203125 -12.28125 L 10.203125 -11.46875 C 10.203125 -9.96875 10.804688 -8.34375 12.015625 -6.59375 L 13.546875 -4.34375 L 13.921875 -3.96875 C 14.160156 -3.726562 14.457031 -3.609375 14.8125 -3.609375 C 15.175781 -3.609375 15.476562 -3.757812 15.71875 -4.0625 C 17.945312 -6.476562 20.867188 -11.960938 24.484375 -20.515625 C 25.867188 -23.640625 27.078125 -26.5625 28.109375 -29.28125 C 28.890625 -31.207031 29.398438 -32.53125 29.640625 -33.25 C 29.753906 -33.488281 29.960938 -33.679688 30.265625 -33.828125 C 30.566406 -33.984375 30.867188 -34.0625 31.171875 -34.0625 C 31.597656 -34.0625 31.8125 -33.941406 31.8125 -33.703125 L 31.8125 -33.515625 C 28.4375 -20.929688 23.644531 -10.09375 17.4375 -1 C 17.4375 -0.9375 16.953125 -0.53125 15.984375 0.21875 C 15.023438 0.976562 14.09375 1.476562 13.1875 1.71875 C 12.945312 1.832031 12.316406 1.890625 11.296875 1.890625 Z M 9.484375 -16.53125 L 9.671875 -16.625 C 10.691406 -18.1875 11.425781 -19.554688 11.875 -20.734375 C 12.332031 -21.910156 12.769531 -23.582031 13.1875 -25.75 C 13.488281 -27.375 13.640625 -28.703125 13.640625 -29.734375 C 13.640625 -30.273438 13.582031 -30.96875 13.46875 -31.8125 L 13.1875 -32.890625 C 12.34375 -32.046875 11.742188 -31.234375 11.390625 -30.453125 C 9.941406 -27.015625 9.21875 -23.703125 9.21875 -20.515625 C 9.21875 -19.972656 9.273438 -19.28125 9.390625 -18.4375 Z M 9.484375 -16.53125 "/></g></g></g><g fill="#000000" fill-opacity="1"><g transform="translate(183.881235, 270.494277)"><g><path d="M 25.203125 -4.609375 C 24.847656 -4.609375 24.25 -4.726562 23.40625 -4.96875 C 22.019531 -5.507812 20.796875 -6.441406 19.734375 -7.765625 C 18.679688 -9.097656 17.976562 -10.726562 17.625 -12.65625 C 17.320312 -14.28125 17.171875 -15.753906 17.171875 -17.078125 C 17.171875 -20.148438 17.710938 -23.429688 18.796875 -26.921875 C 19.160156 -28.367188 19.613281 -29.800781 20.15625 -31.21875 C 20.695312 -32.632812 21.539062 -34.789062 22.6875 -37.6875 C 22.925781 -38.28125 23.101562 -38.941406 23.21875 -39.671875 C 23.28125 -39.734375 23.3125 -39.882812 23.3125 -40.125 C 23.3125 -40.425781 23.160156 -40.515625 22.859375 -40.390625 C 22.378906 -40.265625 21.988281 -40.113281 21.6875 -39.9375 C 20.71875 -39.332031 19.707031 -38.488281 18.65625 -37.40625 C 17.601562 -36.320312 16.835938 -35.359375 16.359375 -34.515625 L 14.640625 -31.625 C 13.367188 -28.851562 12.582031 -27.015625 12.28125 -26.109375 C 11.6875 -24.242188 10.785156 -22.078125 9.578125 -19.609375 L 9.390625 -18.796875 C 9.148438 -18.253906 8.773438 -17.226562 8.265625 -15.71875 C 7.753906 -14.21875 7.5 -13.375 7.5 -13.1875 C 7.4375 -13.007812 7.347656 -12.859375 7.234375 -12.734375 C 6.929688 -12.429688 6.78125 -12.132812 6.78125 -11.84375 C 6.78125 -11.957031 6.660156 -11.5625 6.421875 -10.65625 C 6.296875 -10.539062 6.234375 -10.484375 6.234375 -10.484375 C 6.054688 -10.421875 5.847656 -10.207031 5.609375 -9.84375 C 5.484375 -9.601562 4.9375 -9.210938 3.96875 -8.671875 C 3.789062 -8.492188 3.503906 -8.523438 3.109375 -8.765625 C 2.722656 -9.003906 2.347656 -9.242188 1.984375 -9.484375 C 1.628906 -9.785156 1.300781 -10.328125 1 -11.109375 C 0.457031 -12.554688 0.0976562 -14.015625 -0.078125 -15.484375 C -0.265625 -16.960938 -0.390625 -18.726562 -0.453125 -20.78125 C -0.515625 -21.5 -0.546875 -22.492188 -0.546875 -23.765625 C -0.546875 -24.972656 -0.515625 -25.847656 -0.453125 -26.390625 L -0.453125 -27.46875 L -0.359375 -28.546875 C -0.296875 -30.773438 -0.113281 -33.066406 0.1875 -35.421875 L 0.546875 -37.953125 C 0.546875 -38.191406 0.585938 -38.835938 0.671875 -39.890625 C 0.765625 -40.941406 0.898438 -42.039062 1.078125 -43.1875 C 1.203125 -43.789062 1.265625 -44.363281 1.265625 -44.90625 C 1.203125 -45.207031 1.242188 -45.535156 1.390625 -45.890625 C 1.546875 -46.253906 1.804688 -46.4375 2.171875 -46.4375 L 2.4375 -46.4375 C 2.800781 -46.382812 3.070312 -46.382812 3.25 -46.4375 C 3.375 -46.5625 3.46875 -46.5625 3.53125 -46.4375 L 4.515625 -46.171875 C 4.992188 -46.109375 5.367188 -46.015625 5.640625 -45.890625 C 5.910156 -45.773438 6.257812 -45.539062 6.6875 -45.1875 C 7.707031 -44.34375 8.550781 -43.375 9.21875 -42.28125 C 10 -40.957031 10.269531 -39.875 10.03125 -39.03125 C 9.96875 -38.96875 9.9375 -38.847656 9.9375 -38.671875 C 10 -38.253906 10.03125 -37.472656 10.03125 -36.328125 L 10.03125 -35.15625 L 9.84375 -33.25 C 9.789062 -33.007812 9.765625 -32.5 9.765625 -31.71875 C 9.765625 -30.875 9.734375 -30.363281 9.671875 -30.1875 C 9.671875 -28.914062 9.609375 -27.738281 9.484375 -26.65625 L 9.484375 -26.390625 C 10.085938 -27.171875 10.421875 -27.679688 10.484375 -27.921875 C 11.503906 -30.265625 12.738281 -32.375 14.1875 -34.25 C 14.25 -34.3125 14.457031 -34.640625 14.8125 -35.234375 L 15.453125 -36.140625 C 15.566406 -36.328125 16.140625 -36.988281 17.171875 -38.125 C 17.828125 -38.96875 18.15625 -39.390625 18.15625 -39.390625 C 20.207031 -41.441406 22.285156 -42.5 24.390625 -42.5625 C 24.816406 -42.5625 25 -42.53125 24.9375 -42.46875 C 25.476562 -42.59375 26.035156 -42.503906 26.609375 -42.203125 C 27.179688 -41.898438 27.679688 -41.382812 28.109375 -40.65625 C 28.222656 -40.476562 28.296875 -40.328125 28.328125 -40.203125 C 28.359375 -40.085938 28.34375 -40.085938 28.28125 -40.203125 C 29 -39.066406 29.421875 -37.953125 29.546875 -36.859375 C 29.546875 -36.679688 29.578125 -36.535156 29.640625 -36.421875 L 29.734375 -35.96875 C 29.785156 -35.726562 29.8125 -35.394531 29.8125 -34.96875 L 29.8125 -34.515625 C 29.8125 -34.210938 29.84375 -34.03125 29.90625 -33.96875 L 30 -33.15625 C 30 -32.851562 29.9375 -32.40625 29.8125 -31.8125 C 29.570312 -30.300781 29.242188 -28.613281 28.828125 -26.75 L 27.203125 -20.15625 L 26.75 -18.796875 L 26.390625 -17.4375 L 26.390625 -17.171875 C 26.203125 -16.984375 26.082031 -16.710938 26.03125 -16.359375 L 25.390625 -13.734375 C 25.328125 -13.671875 25.296875 -13.550781 25.296875 -13.375 L 25.296875 -12.828125 C 25.179688 -12.460938 25.125 -12.132812 25.125 -11.84375 C 25.125 -11 25.316406 -10.210938 25.703125 -9.484375 C 26.097656 -8.765625 26.625 -8.4375 27.28125 -8.5 C 27.53125 -8.5 27.773438 -8.617188 28.015625 -8.859375 C 28.734375 -9.460938 29.332031 -10.019531 29.8125 -10.53125 C 30.300781 -11.039062 30.96875 -11.804688 31.8125 -12.828125 C 32.113281 -13.367188 33.015625 -14.9375 34.515625 -17.53125 C 34.878906 -18.3125 35.753906 -19.394531 37.140625 -20.78125 C 37.617188 -21.75 38.566406 -23.46875 39.984375 -25.9375 C 41.398438 -28.40625 42.316406 -29.789062 42.734375 -30.09375 C 42.859375 -30.15625 43.085938 -30.003906 43.421875 -29.640625 C 43.753906 -29.273438 43.890625 -29.035156 43.828125 -28.921875 C 43.640625 -26.390625 40.597656 -20.816406 34.703125 -12.203125 C 34.097656 -11.296875 33.160156 -10.132812 31.890625 -8.71875 C 30.628906 -7.300781 29.609375 -6.382812 28.828125 -5.96875 C 28.160156 -5.601562 27.523438 -5.285156 26.921875 -5.015625 C 26.328125 -4.742188 25.753906 -4.609375 25.203125 -4.609375 Z M 25.203125 -4.609375 "/></g></g></g><g fill="#000000" fill-opacity="1"><g transform="translate(224.086657, 270.494277)"><g><path d="M 10.03125 1.171875 C 8.519531 1.171875 7.191406 0.597656 6.046875 -0.546875 C 4.960938 -1.628906 4.070312 -3.054688 3.375 -4.828125 C 2.6875 -6.609375 2.222656 -8.523438 1.984375 -10.578125 C 1.804688 -11.773438 1.65625 -13.851562 1.53125 -16.8125 C 1.53125 -17.164062 1.515625 -18.21875 1.484375 -19.96875 C 1.460938 -21.71875 1.453125 -23.882812 1.453125 -26.46875 C 1.453125 -29.96875 1.507812 -34.066406 1.625 -38.765625 C 1.6875 -39.429688 1.71875 -40.304688 1.71875 -41.390625 C 1.71875 -42.347656 1.6875 -43.007812 1.625 -43.375 L 1.625 -43.921875 C 0.78125 -43.253906 0.238281 -42.738281 0 -42.375 L -0.359375 -42.109375 C -0.785156 -42.046875 -1.207031 -41.742188 -1.625 -41.203125 C -1.800781 -40.898438 -2.039062 -40.75 -2.34375 -40.75 C -2.53125 -40.75 -2.648438 -40.78125 -2.703125 -40.84375 C -2.890625 -41.019531 -3.132812 -41.109375 -3.4375 -41.109375 C -3.613281 -41.109375 -3.734375 -41.140625 -3.796875 -41.203125 C -3.910156 -41.503906 -4.0625 -41.59375 -4.25 -41.46875 L -4.515625 -41.921875 C -4.691406 -41.984375 -5.082031 -42.648438 -5.6875 -43.921875 C -5.8125 -44.210938 -5.8125 -44.300781 -5.6875 -44.1875 C -5.8125 -44.300781 -5.929688 -44.570312 -6.046875 -45 C -6.171875 -45.601562 -6.234375 -45.90625 -6.234375 -45.90625 C -6.710938 -46.988281 -6.953125 -47.710938 -6.953125 -48.078125 C -6.953125 -48.492188 -6.742188 -48.882812 -6.328125 -49.25 C -5.898438 -49.550781 -5.566406 -49.703125 -5.328125 -49.703125 L -4.96875 -49.703125 C -4.726562 -49.640625 -4.304688 -49.640625 -3.703125 -49.703125 C -1.054688 -50.296875 0.660156 -50.625 1.453125 -50.6875 C 1.691406 -50.75 1.8125 -50.898438 1.8125 -51.140625 L 1.890625 -52.40625 L 1.890625 -53.671875 C 1.953125 -56.203125 2.132812 -58.703125 2.4375 -61.171875 C 2.675781 -62.984375 2.796875 -64.367188 2.796875 -65.328125 C 2.796875 -66.597656 2.617188 -67.710938 2.265625 -68.671875 C 2.078125 -69.148438 2.238281 -69.476562 2.75 -69.65625 C 3.269531 -69.84375 3.800781 -69.9375 4.34375 -69.9375 L 4.78125 -69.9375 C 5.988281 -69.570312 6.710938 -69.269531 6.953125 -69.03125 C 7.140625 -68.851562 7.257812 -68.765625 7.3125 -68.765625 C 7.800781 -68.585938 8.390625 -68.078125 9.078125 -67.234375 C 9.773438 -66.390625 10.300781 -65.695312 10.65625 -65.15625 C 11.082031 -64.488281 11.296875 -63.882812 11.296875 -63.34375 C 11.296875 -63.164062 11.382812 -62.832031 11.5625 -62.34375 C 11.800781 -61.925781 11.984375 -61.234375 12.109375 -60.265625 L 12.109375 -60.171875 C 12.109375 -60.117188 12.164062 -59.128906 12.28125 -57.203125 L 12.28125 -54.671875 C 12.28125 -54.128906 12.222656 -53.554688 12.109375 -52.953125 L 12.109375 -52.859375 C 11.984375 -52.378906 12.222656 -52.046875 12.828125 -51.859375 C 12.890625 -51.804688 13.734375 -51.6875 15.359375 -51.5 C 16.867188 -51.320312 18.101562 -51.019531 19.0625 -50.59375 C 20.03125 -50.175781 20.722656 -49.363281 21.140625 -48.15625 C 21.441406 -47.375 21.625 -46.953125 21.6875 -46.890625 C 21.863281 -46.585938 21.800781 -46.5 21.5 -46.625 C 21.6875 -46.5 21.207031 -46.410156 20.0625 -46.359375 C 20 -46.359375 19.96875 -46.296875 19.96875 -46.171875 C 19.84375 -46.054688 19.722656 -46.023438 19.609375 -46.078125 L 18.796875 -46.078125 C 18.554688 -46.140625 18.222656 -46.171875 17.796875 -46.171875 C 17.679688 -46.109375 17.109375 -46.171875 16.078125 -46.359375 L 15.71875 -46.4375 C 15.90625 -46.5 15.125 -46.53125 13.375 -46.53125 C 13.132812 -46.53125 12.921875 -46.5 12.734375 -46.4375 L 12.015625 -46.359375 C 11.953125 -46.359375 11.863281 -46.265625 11.75 -46.078125 C 11.625 -45.597656 11.5625 -45.175781 11.5625 -44.8125 C 11.5625 -43.125 11.203125 -39.332031 10.484375 -33.4375 C 10.296875 -32.101562 10.203125 -31.140625 10.203125 -30.546875 L 10.03125 -27.65625 L 9.9375 -26.390625 L 9.765625 -25.390625 L 9.578125 -24.484375 L 9.390625 -24.03125 L 9.3125 -23.578125 L 9.21875 -22.140625 C 9.09375 -21.171875 9.03125 -20.507812 9.03125 -20.15625 C 9.03125 -19.125 8.972656 -18.007812 8.859375 -16.8125 C 8.796875 -16.320312 8.765625 -14.960938 8.765625 -12.734375 L 8.765625 -9.9375 C 8.890625 -8.3125 8.953125 -7.46875 8.953125 -7.40625 C 9.003906 -7.050781 9.003906 -6.75 8.953125 -6.5 C 8.953125 -6.257812 9.007812 -5.960938 9.125 -5.609375 C 9.488281 -4.222656 9.820312 -3.269531 10.125 -2.75 C 10.425781 -2.238281 10.90625 -2.015625 11.5625 -2.078125 C 11.863281 -2.078125 12.316406 -2.226562 12.921875 -2.53125 C 14.179688 -3.195312 15.175781 -4.007812 15.90625 -4.96875 C 18.613281 -8.519531 22.195312 -16.050781 26.65625 -27.5625 C 27.195312 -28.820312 27.769531 -29.453125 28.375 -29.453125 C 28.550781 -29.453125 28.757812 -29.363281 29 -29.1875 C 29.0625 -29.007812 29.09375 -28.707031 29.09375 -28.28125 C 29.09375 -27.257812 28.851562 -26.234375 28.375 -25.203125 C 25.90625 -18.703125 23.71875 -13.613281 21.8125 -9.9375 C 19.914062 -6.257812 17.945312 -3.488281 15.90625 -1.625 C 13.851562 0.238281 11.894531 1.171875 10.03125 1.171875 Z M 10.03125 1.171875 "/></g></g></g><g fill="#000000" fill-opacity="1"><g transform="translate(248.932693, 270.494277)"><g><path d="M 4.96875 -0.359375 C 4.300781 -0.359375 3.519531 -0.628906 2.625 -1.171875 C 1.84375 -1.648438 1.421875 -2.34375 1.359375 -3.25 C 1.234375 -4.332031 1.171875 -5.207031 1.171875 -5.875 C 1.171875 -9.125 1.925781 -12.132812 3.4375 -14.90625 C 4.15625 -16.226562 4.753906 -17.132812 5.234375 -17.625 C 5.421875 -17.925781 5.515625 -18.164062 5.515625 -18.34375 L 5.421875 -18.703125 C 5.054688 -20.328125 4.394531 -22.285156 3.4375 -24.578125 L 1.984375 -27.65625 C 0.660156 -30.476562 0 -33.128906 0 -35.609375 C 0 -37.828125 0.507812 -39.78125 1.53125 -41.46875 C 2.4375 -42.851562 3.25 -43.910156 3.96875 -44.640625 C 4.507812 -45.117188 5.054688 -45.390625 5.609375 -45.453125 L 6.875 -45.8125 C 7.226562 -45.9375 7.585938 -46 7.953125 -46 C 9.097656 -46 10.332031 -45.695312 11.65625 -45.09375 C 12.257812 -44.851562 12.921875 -44.367188 13.640625 -43.640625 C 13.941406 -43.398438 14.125 -43.128906 14.1875 -42.828125 C 14.363281 -42.347656 14.515625 -41.988281 14.640625 -41.75 C 14.816406 -41.445312 14.921875 -41.21875 14.953125 -41.0625 C 14.984375 -40.914062 15.03125 -40.8125 15.09375 -40.75 C 15.15625 -40.570312 15.1875 -40.242188 15.1875 -39.765625 C 15.1875 -39.097656 15.078125 -38.382812 14.859375 -37.625 C 14.648438 -36.875 14.394531 -36.257812 14.09375 -35.78125 L 13.46875 -35.15625 C 12.800781 -34.3125 12.300781 -33.753906 11.96875 -33.484375 C 11.632812 -33.210938 11.289062 -33.132812 10.9375 -33.25 C 10.507812 -33.488281 10.296875 -33.703125 10.296875 -33.890625 L 10.390625 -34.25 C 10.816406 -35.03125 11.132812 -35.75 11.34375 -36.40625 C 11.550781 -37.070312 11.835938 -38.28125 12.203125 -40.03125 C 12.253906 -40.207031 12.265625 -40.398438 12.234375 -40.609375 C 12.210938 -40.828125 12.050781 -40.9375 11.75 -40.9375 C 11.207031 -40.9375 10.648438 -40.648438 10.078125 -40.078125 C 9.503906 -39.503906 9.128906 -38.945312 8.953125 -38.40625 C 8.703125 -37.800781 8.578125 -37.257812 8.578125 -36.78125 L 8.578125 -36.328125 L 8.671875 -35.421875 C 8.609375 -35.242188 8.609375 -35.0625 8.671875 -34.875 L 8.953125 -33.609375 L 9.3125 -32.34375 C 9.664062 -30.84375 10.628906 -29.128906 12.203125 -27.203125 L 13.28125 -25.65625 C 13.582031 -25.238281 14.847656 -25.707031 17.078125 -27.0625 C 19.304688 -28.414062 22.617188 -30.691406 27.015625 -33.890625 C 27.742188 -33.460938 28.109375 -33.039062 28.109375 -32.625 C 28.109375 -32.320312 27.832031 -31.957031 27.28125 -31.53125 L 15.09375 -23.671875 C 14.851562 -23.609375 14.789062 -23.425781 14.90625 -23.125 C 16.53125 -20.300781 17.375 -18.253906 17.4375 -16.984375 C 17.5625 -16.265625 17.472656 -15.484375 17.171875 -14.640625 C 17.234375 -14.703125 17.234375 -14.488281 17.171875 -14 L 16.625 -12.015625 C 16.507812 -11.535156 16.421875 -11.203125 16.359375 -11.015625 C 16.296875 -10.835938 16.144531 -10.660156 15.90625 -10.484375 C 15.664062 -10.242188 15.453125 -9.972656 15.265625 -9.671875 C 14.484375 -8.222656 13.941406 -7.109375 13.640625 -6.328125 C 13.398438 -5.785156 13.234375 -5.378906 13.140625 -5.109375 C 13.054688 -4.835938 13.015625 -4.703125 13.015625 -4.703125 L 13.015625 -5.0625 C 13.078125 -5.125 13.09375 -5.164062 13.0625 -5.1875 C 13.03125 -5.21875 12.984375 -5.234375 12.921875 -5.234375 C 12.921875 -5.234375 12.800781 -5.113281 12.5625 -4.875 C 12.4375 -4.757812 12.132812 -4.21875 11.65625 -3.25 C 11.53125 -3.007812 11.378906 -2.800781 11.203125 -2.625 C 10.960938 -2.382812 10.78125 -2.140625 10.65625 -1.890625 L 11.03125 -2.796875 C 11.207031 -3.285156 11.296875 -3.585938 11.296875 -3.703125 C 11.234375 -3.765625 11.144531 -3.734375 11.03125 -3.609375 C 10.363281 -2.828125 9.816406 -2.316406 9.390625 -2.078125 L 9.3125 -1.984375 C 9.3125 -1.867188 8.828125 -1.507812 7.859375 -0.90625 C 7.554688 -0.71875 7.316406 -0.65625 7.140625 -0.71875 C 6.597656 -0.84375 6.113281 -0.785156 5.6875 -0.546875 C 5.445312 -0.421875 5.207031 -0.359375 4.96875 -0.359375 Z M 4.515625 -3.53125 C 5.484375 -3.707031 6.023438 -4.304688 6.140625 -5.328125 L 6.140625 -5.6875 L 5.96875 -13.28125 L 5.875 -14.546875 C 5.988281 -14.546875 6.03125 -14.53125 6 -14.5 C 5.976562 -14.46875 5.90625 -14.484375 5.78125 -14.546875 L 5.421875 -13.734375 C 5.054688 -13.253906 4.394531 -11.597656 3.4375 -8.765625 C 3.3125 -8.398438 3.25 -7.976562 3.25 -7.5 C 3.25 -6.832031 3.21875 -6.441406 3.15625 -6.328125 C 3.039062 -5.722656 2.984375 -5.238281 2.984375 -4.875 L 3.078125 -3.890625 C 3.078125 -3.648438 3.148438 -3.5 3.296875 -3.4375 C 3.453125 -3.375 3.664062 -3.375 3.9375 -3.4375 C 4.207031 -3.5 4.398438 -3.53125 4.515625 -3.53125 Z M 4.515625 -3.53125 "/></g></g></g></svg>