<svg xmlns="http://www.w3.org/2000/svg" xmlns:xlink="http://www.w3.org/1999/xlink" width="3000" zoomAndPan="magnify" viewBox="0 0 2250 1499.999933" height="2000" preserveAspectRatio="xMidYMid meet" version="1.0"><path fill="#000000" d="M 367.949219 928.207031 C 366.902344 932.277344 364.148438 934.0625 360.558594 931.9375 C 356.304688 929.398438 352.585938 925.792969 348.386719 923.054688 C 347.765625 922.660156 345.707031 924.476562 343.90625 925.511719 L 354.121094 940.304688 L 349.679688 946.191406 C 356.390625 960.859375 370.105469 971.128906 375.78125 986.515625 C 375.964844 987 375.230469 987.835938 374.917969 988.503906 C 374.222656 988.886719 373.144531 989.75 372.902344 989.566406 C 359.425781 978.859375 352.757812 962.304688 340.515625 950.628906 C 335.820312 953.15625 338.089844 956.304688 338.640625 959.226562 C 339.832031 965.695312 348.074219 969.453125 345.734375 977.664062 C 338.640625 979.085938 338.328125 972.175781 335.09375 969.242188 C 331.363281 965.835938 329.265625 960.730469 323.929688 958.828125 C 319.304688 960.105469 315.5625 962.773438 318.765625 967.738281 C 323.347656 974.828125 329.023438 981.15625 334.160156 987.722656 C 332.457031 990.660156 326.484375 989.664062 327.449219 994.089844 C 329.308594 1002.472656 325.277344 999.894531 321.378906 997.78125 C 319.449219 996.730469 317.84375 996.53125 317.121094 998.203125 C 316.597656 999.625 316.199219 1001.777344 316.910156 1002.730469 C 324 1012.277344 331.746094 1021.453125 336.671875 1031.835938 C 333.519531 1037.59375 330.996094 1034.8125 328.613281 1032.601562 C 326.230469 1030.390625 324.808594 1026.773438 320.652344 1027.085938 C 316.640625 1014.898438 316.640625 1014.898438 302.28125 1003.75 C 306.539062 1017.054688 306.539062 1017.054688 321.136719 1026.644531 L 313.390625 1039.296875 C 309.007812 1041.539062 306.296875 1039.296875 303.757812 1037.054688 C 298.082031 1031.964844 292.550781 1026.574219 286.734375 1021.59375 C 286.222656 1021.15625 283.898438 1022.828125 282.207031 1023.636719 C 295.957031 1046.148438 314.042969 1065.75 325.902344 1089.394531 C 324.652344 1092.230469 322.726562 1092.886719 320.355469 1090.925781 C 311.53125 1083.59375 306.992188 1073.042969 300.496094 1063.976562 C 293.5 1054.261719 286.578125 1044.644531 276.378906 1037.15625 C 274.449219 1049.921875 274.449219 1049.921875 297.898438 1075.820312 C 295.289062 1079.835938 292.421875 1078.386719 289.785156 1076.019531 C 283.753906 1070.585938 277.839844 1065.027344 271.539062 1059.210938 C 268.449219 1066.742188 274.378906 1069.550781 276.605469 1073.722656 C 280.40625 1080.8125 278.023438 1082.332031 271.144531 1080.742188 C 270.40625 1087.226562 265.242188 1086.855469 259.894531 1087.539062 C 266.40625 1101.722656 279.003906 1111.652344 285.429688 1124.5 C 282.847656 1128.898438 280.277344 1128.289062 278.632812 1126.332031 C 268.683594 1114.445312 258.84375 1102.460938 249.113281 1090.375 C 247.539062 1088.429688 246.699219 1085.90625 244.996094 1082.617188 C 240.628906 1091.125 240.628906 1091.125 258.632812 1116.488281 C 257.210938 1119.152344 254.957031 1119.90625 252.785156 1117.90625 C 246.515625 1112.230469 240.5 1106.175781 233.789062 1099.707031 C 234.160156 1108.460938 234.160156 1108.460938 251.722656 1127.382812 C 249.777344 1129.992188 247.464844 1129.523438 245.308594 1127.878906 C 240.175781 1124.003906 236.796875 1117.621094 230.03125 1116.203125 C 226.273438 1120.855469 229.589844 1123.296875 231.550781 1125.765625 C 234.769531 1129.75 238.472656 1133.351562 241.960938 1137.113281 C 238.34375 1143.609375 242.742188 1148.074219 245.863281 1152.914062 C 246.074219 1153.226562 245.496094 1154.332031 245.027344 1154.726562 C 244.558594 1155.125 243.378906 1155.878906 242.882812 1155.664062 C 240.546875 1154.792969 238.371094 1153.621094 236.359375 1152.148438 C 227.847656 1145.054688 219.335938 1137.664062 211.589844 1130.957031 C 203.957031 1132.472656 210.171875 1145.777344 195.699219 1139.265625 L 205.132812 1153.265625 C 203.929688 1154.035156 202.296875 1155.734375 201.585938 1155.410156 C 197.105469 1153.070312 192.835938 1150.316406 188.324219 1147.578125 C 177.058594 1155.804688 164.972656 1161.566406 150.929688 1163.722656 C 143.464844 1164.882812 136.542969 1169.253906 129.222656 1171.75 C 125.589844 1172.984375 122.710938 1171.039062 120.808594 1167.835938 C 119.917969 1164.671875 121.917969 1162.585938 124.144531 1161.609375 C 132.003906 1158.132812 139.835938 1154.246094 148.089844 1152.089844 C 160.261719 1148.914062 170.09375 1142.160156 178.917969 1133.90625 C 189.558594 1123.878906 200.195312 1113.878906 209.078125 1102.035156 C 225.578125 1079.949219 242.175781 1058.0625 256.0625 1034.035156 C 270.25 1009.496094 285.785156 985.695312 298.039062 960.277344 C 296.691406 954.089844 292.167969 952.714844 287.046875 952.121094 C 283.457031 956.203125 291.105469 959.59375 287.640625 963.652344 C 286.222656 964.277344 284.195312 965.921875 283.300781 965.453125 C 275.128906 961.199219 266.789062 962.617188 258.617188 964.617188 C 252.078125 966.277344 245.847656 968.984375 241.351562 970.546875 C 231.578125 970.546875 228.511719 962.035156 222.015625 960.714844 C 218.824219 962.617188 218.285156 964.828125 220.257812 967.097656 C 225.277344 972.914062 232.882812 976.234375 236.457031 983.695312 C 235.421875 988.898438 232.203125 991.566406 227.703125 987.949219 C 221.691406 983.199219 216.566406 977.3125 211.53125 972.347656 C 207.578125 972.488281 203.683594 973.0625 199.855469 974.0625 C 196.027344 975.0625 192.351562 976.464844 188.835938 978.277344 C 183.046875 977.054688 179.667969 970.488281 173.769531 970.714844 C 172.347656 971.90625 171.128906 972.53125 171.171875 973.042969 C 171.78125 979.652344 178.363281 982.417969 180.820312 987.820312 C 181.328125 988.972656 180.351562 990.914062 179.769531 992.390625 C 179.5 993.085938 178.351562 994.0625 177.910156 993.933594 C 175.429688 993.253906 173.101562 991.933594 170.605469 991.453125 C 165.597656 990.503906 160.433594 989.4375 156.289062 993.894531 C 156.445312 1002.261719 163.382812 1004.84375 168.804688 1008.871094 C 170.945312 1010.460938 171.640625 1012.929688 169.042969 1015.296875 C 168.824219 1015.523438 168.585938 1015.726562 168.324219 1015.90625 C 168.066406 1016.085938 167.792969 1016.238281 167.503906 1016.363281 C 167.214844 1016.492188 166.917969 1016.589844 166.609375 1016.65625 C 166.300781 1016.726562 165.988281 1016.765625 165.675781 1016.773438 C 165.359375 1016.78125 165.046875 1016.757812 164.734375 1016.703125 C 164.425781 1016.652344 164.121094 1016.570312 163.828125 1016.457031 C 163.53125 1016.34375 163.25 1016.207031 162.980469 1016.039062 C 162.714844 1015.871094 162.464844 1015.683594 162.234375 1015.46875 C 160.234375 1013.847656 158.339844 1012.105469 156.558594 1010.246094 C 150.359375 1004.304688 144.289062 998.203125 137.90625 992.472656 C 137.675781 992.21875 137.421875 991.996094 137.140625 991.796875 C 136.859375 991.601562 136.5625 991.4375 136.246094 991.3125 C 135.929688 991.183594 135.601562 991.089844 135.261719 991.035156 C 134.925781 990.980469 134.585938 990.964844 134.246094 990.988281 C 133.902344 991.011719 133.570312 991.070312 133.242188 991.167969 C 132.914062 991.269531 132.601562 991.402344 132.304688 991.570312 C 132.007812 991.738281 131.730469 991.941406 131.480469 992.171875 C 131.226562 992.402344 131.003906 992.660156 130.8125 992.941406 C 131.363281 1000.316406 140.359375 1002.0625 142.035156 1008.941406 C 141.664062 1015.199219 134.839844 1015.609375 131.917969 1019.664062 C 128.882812 1025.238281 139.125 1030.273438 132.558594 1035.992188 C 127.703125 1036.429688 125.464844 1032.121094 121.929688 1030.105469 C 120.1875 1031.226562 119.605469 1032.941406 121.066406 1034.472656 C 126.472656 1039.992188 132.414062 1045.070312 137.449219 1050.84375 C 139.152344 1052.757812 137.265625 1055.507812 134.289062 1057.195312 C 126.683594 1056.375 122.9375 1048.542969 116.738281 1044.914062 C 112.242188 1049.324219 120.796875 1052.558594 116.921875 1056.699219 C 110.539062 1062.089844 107.164062 1050.886719 101.050781 1053.59375 C 99.132812 1058.445312 101.503906 1064.558594 95.757812 1068.628906 C 91.601562 1071.566406 95.273438 1079.027344 89.871094 1082.117188 C 84.890625 1082.046875 82.5625 1078.191406 79.726562 1075.027344 C 76.890625 1071.863281 74.277344 1069.054688 67.5 1068.191406 C 73.171875 1082.375 82.179688 1091.167969 90.847656 1099.507812 C 90.464844 1101.792969 90.648438 1103.664062 89.828125 1104.800781 C 89.003906 1105.933594 87.074219 1106.65625 85.640625 1107.539062 C 63.441406 1080.941406 63.441406 1080.941406 55.566406 1080.585938 C 53.921875 1086.84375 67.03125 1090.089844 59.058594 1097.609375 C 53.285156 1096.191406 50.546875 1086.019531 42.035156 1090.914062 C 43.167969 1100.019531 51.964844 1103.550781 53.835938 1111.28125 C 43.4375 1122.828125 43.4375 1122.828125 24.300781 1110.699219 C 22.242188 1116.304688 27.960938 1117.226562 29.75 1120.148438 C 31.960938 1123.765625 31.167969 1126.402344 27.589844 1129.453125 L 14.03125 1118.316406 C 10.921875 1119.734375 11.449219 1122.289062 13.007812 1124.105469 C 18.613281 1130.574219 24.769531 1136.601562 30.132812 1143.253906 C 31.550781 1144.957031 29.917969 1147.890625 26.074219 1149.367188 C 23.335938 1146.984375 20.128906 1144.246094 16.953125 1141.464844 C 14.457031 1139.296875 12.214844 1136.585938 8.3125 1137.4375 C 7.445312 1144.53125 7.445312 1144.53125 13.988281 1154.957031 C 14.070312 1160.359375 7.078125 1159.722656 6.242188 1163.464844 C 9.375 1180.105469 28.089844 1186.003906 30.796875 1202.289062 C 30.910156 1202.925781 30.03125 1203.707031 29.125 1205.308594 C 17.519531 1202.089844 13.519531 1191.125 6.78125 1183.070312 C -0.3125 1174.558594 -5.179688 1164.046875 -15.589844 1156.996094 C -22.855469 1159.167969 -27.265625 1166.0625 -33.722656 1169.761719 C -41.921875 1168.6875 -44.972656 1159.28125 -52.164062 1157.507812 C -55.371094 1159.125 -57.113281 1161.324219 -55.753906 1163.777344 C -51.878906 1170.757812 -44.703125 1174.34375 -39.027344 1179.492188 C -35 1183.167969 -37.394531 1187.167969 -41.863281 1189.664062 C -48.546875 1190.429688 -50.375 1181.152344 -57.285156 1182.34375 C -57.371094 1176.828125 -60.875 1173.195312 -64.546875 1169.820312 C -66.519531 1167.992188 -69.414062 1167.253906 -70.664062 1170.261719 C -71.054688 1171.359375 -71.191406 1172.488281 -71.082031 1173.648438 C -70.96875 1174.8125 -70.617188 1175.894531 -70.023438 1176.898438 C -69.664062 1177.414062 -69.269531 1177.898438 -68.835938 1178.351562 C -68.402344 1178.804688 -67.9375 1179.222656 -67.441406 1179.605469 C -66.945312 1179.988281 -66.421875 1180.332031 -65.871094 1180.636719 C -65.324219 1180.941406 -64.753906 1181.203125 -64.164062 1181.417969 C -63.578125 1181.636719 -62.976562 1181.808594 -62.359375 1181.933594 C -61.746094 1182.058594 -61.125 1182.140625 -60.5 1182.171875 C -59.871094 1182.203125 -59.246094 1182.1875 -58.621094 1182.121094 C -58 1182.058594 -57.382812 1181.949219 -56.773438 1181.792969 C -58.191406 1192.8125 -67.824219 1196.230469 -75.757812 1201.976562 C -79.839844 1197.722656 -83.898438 1193.335938 -88.070312 1189.097656 C -89.785156 1187.367188 -95.164062 1187.992188 -94.9375 1189.722656 C -94.710938 1191.453125 -94.738281 1193.183594 -93.816406 1194.117188 C -89.078125 1198.984375 -84.082031 1203.578125 -79.488281 1207.960938 C -83.046875 1223.265625 -83.0625 1223.265625 -74.410156 1233.492188 C -73.179688 1234.691406 -72.058594 1235.980469 -71.046875 1237.367188 C -70.332031 1238.996094 -69.800781 1240.683594 -69.457031 1242.429688 L -75.132812 1247.351562 C -79.1875 1242.386719 -82.863281 1237.621094 -86.863281 1233.167969 C -88.523438 1231.308594 -91.246094 1228.402344 -92.808594 1228.785156 C -104.15625 1231.621094 -111.25 1223.90625 -118.089844 1215.367188 C -122.828125 1224.457031 -117.207031 1225.917969 -115.050781 1228.898438 C -113.546875 1230.953125 -111.5625 1232.65625 -109.917969 1234.570312 C -108.269531 1236.484375 -108.910156 1241.308594 -110.710938 1241.421875 C -112.214844 1241.679688 -113.691406 1241.5625 -115.136719 1241.066406 C -120.457031 1238.402344 -122.855469 1231.636719 -129.464844 1230.671875 C -131.878906 1231.378906 -132.304688 1232.613281 -130.542969 1234.34375 L -94.894531 1270.753906 C -94.652344 1275.578125 -96.824219 1277.71875 -100.566406 1278.65625 C -111.503906 1273.605469 -113.136719 1258.019531 -126.402344 1255.648438 C -130.34375 1258.484375 -123.40625 1264.472656 -132.558594 1266.996094 C -138.714844 1267.378906 -140.84375 1256.429688 -148.675781 1255.777344 C -151.511719 1256.742188 -153.753906 1259.335938 -152.546875 1261.449219 C -150.972656 1264.1875 -147.46875 1265.707031 -144.957031 1268.003906 C -141.367188 1271.238281 -139.28125 1276.386719 -143.539062 1278.953125 C -151.15625 1283.578125 -141 1291.875 -147.210938 1294.558594 C -152.886719 1296.980469 -157.695312 1299.847656 -161.085938 1304.726562 C -165.242188 1310.683594 -168.40625 1317.378906 -175.515625 1321.492188 L -163.300781 1338.925781 C -163.867188 1340.460938 -164.648438 1341.878906 -165.640625 1343.179688 C -169.144531 1346.511719 -172.023438 1343.820312 -174.152344 1341.351562 C -178.90625 1335.449219 -181.671875 1327.832031 -188.550781 1323.621094 C -194.90625 1325.976562 -188.382812 1333.550781 -195.105469 1336.742188 L -204.625 1330.144531 C -208.328125 1333.789062 -204.796875 1336.257812 -203.207031 1338.980469 C -201.789062 1341.449219 -201.449219 1343.917969 -203.886719 1345.675781 C -204.542969 1346.09375 -205.253906 1346.34375 -206.023438 1346.421875 C -206.796875 1346.503906 -207.546875 1346.40625 -208.269531 1346.128906 C -218.910156 1339.28125 -227.621094 1340.824219 -234.898438 1351.335938 C -236.148438 1353.164062 -238.617188 1354.171875 -240.671875 1355.589844 C -241.238281 1353.5625 -242.546875 1351.535156 -241.976562 1350.511719 C -239.941406 1346.695312 -237.535156 1343.125 -234.757812 1339.804688 C -210.640625 1311.648438 -191.628906 1279.621094 -166.746094 1252.046875 C -159.113281 1243.808594 -152.398438 1234.875 -146.601562 1225.253906 C -127.890625 1193.140625 -100.484375 1169.933594 -70.945312 1148.65625 C -53.378906 1136.226562 -35.179688 1124.800781 -16.34375 1114.386719 C -8.257812 1109.835938 -0.4375 1104.871094 7.117188 1099.488281 C 14.675781 1094.109375 21.929688 1088.34375 28.875 1082.195312 C 35.824219 1076.046875 42.425781 1069.550781 48.683594 1062.703125 C 54.941406 1055.855469 60.820312 1048.695312 66.320312 1041.226562 C 77.554688 1026.019531 89.074219 1011.015625 100.878906 996.21875 C 120.738281 971.339844 145.539062 953.664062 176.222656 944.046875 C 200.964844 936.460938 226.207031 931.339844 251.949219 928.6875 C 269.894531 926.703125 287.828125 924.601562 305.859375 922.886719 C 307.789062 922.78125 309.679688 922.445312 311.53125 921.871094 C 313.378906 921.296875 315.128906 920.507812 316.78125 919.5 C 318.433594 918.492188 319.941406 917.296875 321.296875 915.917969 C 322.652344 914.535156 323.820312 913.011719 324.796875 911.339844 C 332.089844 899.667969 340.332031 888.558594 347.296875 876.703125 C 361.949219 851.738281 384.875 836.984375 410.097656 825.269531 C 413.996094 823.359375 418.066406 821.964844 422.316406 821.089844 C 426.570312 820.214844 430.859375 819.886719 435.195312 820.105469 C 442.910156 820.6875 450.6875 820.304688 458.445312 820.375 C 482.816406 820.601562 506.125 814.148438 529.660156 809.027344 C 535.960938 807.609375 540.230469 803.554688 544.726562 799.511719 C 568.367188 778.035156 589.882812 754.613281 609.277344 729.242188 C 625.617188 708.148438 642.34375 687.339844 659.238281 666.675781 C 671.242188 651.972656 681.882812 636.339844 691.160156 619.78125 C 704.679688 595.808594 720.410156 573.101562 734.398438 549.386719 C 765.027344 497.457031 795.402344 445.386719 819.519531 389.882812 C 827.023438 372.550781 836.542969 356.023438 845.832031 339.5 C 854.800781 323.558594 867.511719 310.664062 881.300781 298.707031 C 894.238281 287.261719 908.144531 277.148438 923.023438 268.367188 C 945.324219 255.410156 967.445312 242.125 989.386719 228.507812 C 996.664062 223.996094 1002.988281 217.984375 1009.828125 212.765625 C 1024.183594 201.828125 1038.597656 190.992188 1052.941406 180.054688 C 1067.546875 169.191406 1080.472656 156.605469 1091.726562 142.296875 C 1098.535156 133.445312 1106.28125 125.273438 1113.914062 117.089844 C 1127.589844 102.425781 1143.195312 90.496094 1162.148438 83.246094 C 1168.523438 80.605469 1174.703125 77.566406 1180.6875 74.125 C 1198.804688 64.140625 1217.90625 56.6875 1238 51.773438 C 1267.125 44.820312 1296.164062 36.339844 1323.488281 23.132812 C 1346.1875 12.128906 1371.394531 9.347656 1395.527344 3.277344 C 1408.125 0.0703125 1421.347656 2.992188 1433.832031 6.59375 C 1444.058594 9.546875 1452.160156 16.78125 1458.332031 24.949219 C 1480.105469 53.785156 1503.472656 81.488281 1521.558594 113.019531 C 1537.832031 141.386719 1552.554688 170.621094 1570.234375 198.238281 C 1579.90625 213.359375 1586.859375 230.152344 1596.503906 245.488281 C 1634.695312 305.964844 1668.976562 368.578125 1699.355469 433.328125 C 1712.125 460.777344 1729.359375 485.527344 1742.609375 512.578125 C 1750.160156 527.980469 1758.710938 542.917969 1766.316406 558.292969 C 1772.542969 570.886719 1781.921875 581.117188 1791.070312 591.257812 C 1807.214844 609.03125 1823.5 626.460938 1844.214844 639.738281 C 1875.425781 659.726562 1905.542969 681.398438 1932.167969 707.484375 C 1933.355469 708.738281 1934.609375 709.925781 1935.929688 711.042969 C 1979.777344 745.46875 2007.925781 791.484375 2031.816406 840.671875 C 2035.957031 849.183594 2040.480469 857.554688 2044.910156 865.9375 C 2056.226562 887.246094 2066 909.238281 2074.230469 931.921875 C 2090.816406 978.078125 2108.664062 1023.765625 2125.96875 1069.652344 C 2127.929688 1074.4375 2129.625 1079.316406 2131.046875 1084.289062 C 2138.863281 1115.296875 2156.273438 1140.542969 2177.863281 1163.296875 C 2180.21875 1165.777344 2183.113281 1168.046875 2184.617188 1170.996094 C 2195.253906 1191.664062 2205.625 1212.484375 2215.953125 1233.308594 C 2216.640625 1234.933594 2216.789062 1236.609375 2216.394531 1238.328125 C 2216.230469 1239.144531 2215.929688 1239.902344 2215.484375 1240.601562 C 2215.039062 1241.300781 2214.480469 1241.894531 2213.8125 1242.386719 C 2213.082031 1242.722656 2212.3125 1242.882812 2211.507812 1242.863281 C 2210.703125 1242.84375 2209.941406 1242.644531 2209.230469 1242.273438 C 2204.039062 1238.65625 2202.304688 1232.613281 2199.511719 1227.335938 C 2189.425781 1208.332031 2179.253906 1189.367188 2165.933594 1172.359375 C 2161.152344 1166.257812 2156.128906 1160.359375 2151.304688 1154.300781 C 2137.773438 1137.28125 2127.191406 1118.839844 2122.125 1097.367188 C 2120.960938 1092.417969 2118.367188 1087.820312 2116.5625 1083.011719 C 2111.457031 1069.308594 2105.867188 1055.765625 2101.46875 1041.878906 C 2090.121094 1005.792969 2075.933594 970.785156 2061.960938 935.636719 C 2051.476562 909.210938 2039.714844 883.324219 2026.933594 858.191406 C 2009.824219 824.53125 1990.730469 791.625 1968.046875 761.183594 C 1956.144531 745.214844 1940.027344 733.285156 1925.785156 719.539062 C 1897.710938 692.449219 1864.585938 672.136719 1833.574219 648.988281 C 1810.136719 631.496094 1786.519531 614.035156 1769.566406 589.5 C 1765.664062 583.824219 1761.675781 578.152344 1758.328125 572.195312 C 1739.023438 537.65625 1719.613281 503.171875 1700.816406 468.351562 C 1690.207031 448.664062 1680.714844 428.394531 1670.757812 408.351562 C 1654.65625 375.96875 1636.949219 344.519531 1618.652344 313.316406 C 1596.917969 276.238281 1575.707031 238.835938 1554.570312 201.386719 C 1537.644531 171.402344 1521.175781 141.148438 1504.492188 111.019531 C 1503.320312 108.675781 1501.996094 106.421875 1500.519531 104.253906 C 1484.601562 82.835938 1468.757812 61.347656 1452.527344 40.167969 C 1448.96875 35.515625 1445.066406 30.636719 1438.953125 28.820312 C 1438.269531 29.335938 1437.621094 29.886719 1437.007812 30.480469 C 1440.257812 35.375 1443.632812 40.199219 1446.867188 44.863281 C 1444.511719 48.125 1442.34375 47.699219 1440.128906 45.585938 C 1430.90625 36.835938 1423.261719 26.296875 1411.757812 20.054688 C 1411.132812 21.0625 1410.152344 22.097656 1410.335938 22.425781 C 1413.800781 28.296875 1417.429688 34.070312 1421.941406 41.402344 L 1416.269531 45.175781 C 1416.410156 46.738281 1416.054688 48.59375 1416.792969 49.757812 C 1420 54.820312 1423.460938 59.6875 1426.921875 64.621094 C 1427.429688 65.316406 1427.855469 66.054688 1428.195312 66.84375 C 1428.535156 67.632812 1428.785156 68.453125 1428.9375 69.296875 C 1429.09375 70.140625 1429.152344 70.992188 1429.113281 71.851562 C 1429.074219 72.710938 1428.9375 73.554688 1428.710938 74.382812 L 1429.234375 73.871094 C 1421.757812 71.96875 1419.203125 64.863281 1414.933594 59.773438 C 1410.664062 54.679688 1407.332031 48.253906 1400.933594 44.367188 L 1395.257812 52.15625 C 1385.867188 45.984375 1383.609375 33.089844 1372.898438 28.269531 C 1372.359375 28.027344 1371.480469 28.722656 1370.332031 29.105469 C 1368.417969 33.941406 1372.957031 36.4375 1374.898438 39.617188 C 1377.921875 44.550781 1376.757812 49.546875 1376.601562 54.636719 C 1376.488281 58.183594 1371.695312 59.929688 1368.65625 58.042969 C 1359.578125 52.367188 1354.257812 43.488281 1348.1875 35.203125 C 1347.601562 34.703125 1346.929688 34.371094 1346.171875 34.214844 C 1345.417969 34.054688 1344.671875 34.085938 1343.929688 34.3125 C 1342.824219 34.90625 1341.535156 37.515625 1341.988281 38.3125 C 1345.761719 45.019531 1349.847656 51.546875 1353.960938 58.042969 C 1356.640625 62.296875 1361.453125 65.21875 1361.308594 71.035156 C 1353.421875 69.007812 1352.414062 68.097656 1343.179688 57.402344 C 1338.183594 51.617188 1334.964844 44.199219 1327.941406 40.382812 C 1324.894531 40.808594 1321.84375 43.035156 1322.976562 45.21875 C 1326.878906 52.808594 1331.730469 59.898438 1336.242188 67.175781 C 1337.945312 69.929688 1341.035156 72.125 1339.277344 77.402344 C 1326.722656 71.828125 1323.546875 56.679688 1311.65625 50.339844 C 1309.03125 58.992188 1319.289062 62.097656 1318.75 68.695312 C 1318.339844 74.367188 1315.175781 79.773438 1315.644531 85.941406 C 1316.140625 92.59375 1319.898438 97.175781 1324.15625 101.359375 C 1338.527344 115.316406 1348.753906 132.367188 1359.761719 148.808594 C 1361.835938 151.882812 1364.8125 155.644531 1362.601562 160.070312 C 1361.757812 160.441406 1360.878906 160.667969 1359.960938 160.75 C 1359.128906 160.644531 1358.441406 160.277344 1357.890625 159.644531 C 1348.542969 147.289062 1340.441406 133.714844 1329.675781 122.765625 C 1310.523438 103.003906 1295.910156 79.375 1276.476562 59.800781 C 1276.035156 59.375 1274.800781 59.515625 1274.019531 59.714844 C 1272.90625 60.226562 1271.863281 60.847656 1270.886719 61.585938 C 1275.140625 76.636719 1292.308594 85.273438 1294.433594 104.351562 C 1279.582031 98.082031 1277.636719 81.742188 1265.679688 76.054688 C 1261.339844 80.621094 1268.714844 83.828125 1265.921875 88.410156 L 1256.628906 90.253906 C 1254.515625 91.316406 1255.125 92.523438 1255.507812 94.507812 C 1257.480469 104.507812 1263.507812 112.820312 1268.585938 122.707031 C 1260.289062 123.460938 1259.109375 117.6875 1256.230469 114.339844 C 1252.867188 110.425781 1249.976562 106.113281 1246.683594 102.140625 C 1243.390625 98.167969 1239.929688 94.28125 1236.339844 90.550781 C 1232.753906 86.820312 1229.914062 82.59375 1224.625 81.132812 C 1219.472656 88.4375 1227.09375 92.125 1228.722656 97.359375 C 1230.355469 102.59375 1238.214844 105.375 1235.816406 112.808594 C 1231.460938 113.898438 1230.679688 109.730469 1228.398438 107.898438 C 1225.050781 105.246094 1222.070312 102.054688 1218.46875 99.785156 C 1215.886719 98.140625 1213.417969 94.976562 1208.535156 97.261719 L 1215.628906 111.203125 C 1213.644531 113.316406 1212.464844 112.921875 1210.835938 111.316406 C 1205.289062 105.925781 1199.726562 100.539062 1193.925781 95.429688 C 1193.273438 94.863281 1191.085938 96.082031 1188.078125 96.851562 C 1198.011719 111.035156 1207.714844 124.878906 1217.460938 138.652344 C 1219.417969 141.488281 1222.125 143.828125 1221.714844 147.65625 C 1221.453125 148.507812 1220.9375 149.15625 1220.167969 149.601562 C 1219.660156 149.941406 1218.410156 150.097656 1218.183594 149.800781 C 1212.949219 143.089844 1207.855469 136.28125 1202.578125 129.574219 C 1199.371094 125.460938 1193.511719 125.035156 1191.074219 127.5 C 1186.066406 132.566406 1180.191406 132.847656 1174.191406 134.75 C 1165.480469 137.5 1163.4375 126.992188 1156.429688 127.886719 C 1155.847656 128.523438 1155.011719 129.078125 1154.753906 129.8125 C 1154.484375 130.671875 1154.546875 131.503906 1154.941406 132.308594 C 1163.296875 146.253906 1171.707031 160.152344 1179.878906 173.6875 C 1177.894531 178.054688 1175.511719 176.382812 1174.035156 174.59375 C 1169.097656 168.621094 1164.304688 162.507812 1159.847656 156.152344 C 1154.980469 148.953125 1149.074219 142.734375 1142.128906 137.5 C 1138.484375 140.691406 1140.882812 143.5 1142.726562 146.167969 C 1146.625 151.84375 1150.683594 157.316406 1154.640625 162.863281 C 1147.847656 170.890625 1146.910156 159.117188 1138.839844 163.65625 L 1135.589844 167.332031 C 1128.183594 160.453125 1120.808594 153.574219 1111.472656 144.890625 C 1114.59375 154.691406 1114.835938 155.074219 1122.226562 162.578125 C 1127.0625 167.5 1132.3125 172.082031 1136.625 177.417969 C 1140.820312 182.890625 1144.636719 188.613281 1148.074219 194.59375 C 1151.449219 200.140625 1157.410156 205.203125 1152.046875 214.125 C 1139.773438 195.855469 1130.296875 176.039062 1111.246094 164.265625 C 1106.140625 167.105469 1107.542969 171.585938 1109.613281 174.863281 C 1113.273438 180.664062 1118.125 185.699219 1122.070312 191.34375 C 1127.476562 199.0625 1132.511719 207.046875 1137.675781 214.804688 L 1129.503906 226.410156 C 1133.929688 244.707031 1143.960938 260.90625 1152.414062 277.640625 C 1170.671875 313.753906 1189.925781 349.359375 1204.535156 387.203125 C 1208.878906 398.4375 1214.324219 409.246094 1219.585938 420.09375 C 1229.007812 439.527344 1235.589844 459.996094 1242.03125 480.507812 C 1253.136719 515.839844 1260.019531 552.195312 1267.296875 588.433594 C 1268.765625 596.972656 1269.160156 605.558594 1268.472656 614.191406 C 1267.496094 632.492188 1270.757812 650.222656 1274.359375 667.9375 C 1279.328125 692.390625 1293.171875 712.21875 1309.175781 730.433594 C 1319.375 742.050781 1330.964844 752.519531 1342.484375 762.871094 C 1352.074219 771.496094 1362.445312 779.226562 1372.515625 787.3125 C 1392.660156 803.496094 1412.722656 819.808594 1433.050781 835.765625 C 1446.613281 846.402344 1460.414062 856.601562 1472.007812 869.625 C 1481.3125 880.089844 1488.902344 891.054688 1493.570312 904.417969 C 1498.660156 919.054688 1503.769531 933.625 1508.136719 948.53125 C 1517.089844 979.097656 1527.53125 1009.125 1545.023438 1036.261719 C 1555.761719 1052.871094 1564.105469 1071.054688 1575.085938 1087.480469 C 1597.554688 1121.109375 1621.089844 1154.046875 1644.214844 1187.253906 C 1646.625 1190.714844 1649.179688 1194.089844 1652.839844 1199.136719 C 1641.304688 1198.828125 1633.546875 1196.300781 1627.816406 1187.933594 C 1608.917969 1160.175781 1589.058594 1133.039062 1570.757812 1104.898438 C 1553.875 1078.96875 1537.800781 1052.417969 1522.820312 1025.367188 C 1515.027344 1010.929688 1509.070312 995.769531 1504.945312 979.890625 C 1499.085938 958.304688 1491.511719 937.183594 1484.859375 915.808594 C 1478.203125 894.433594 1464.996094 877.808594 1447.859375 863.992188 C 1432.453125 851.539062 1416.777344 839.4375 1401.214844 827.113281 C 1383.652344 813.269531 1365.847656 799.710938 1348.597656 785.496094 C 1324.609375 765.738281 1301.398438 745.070312 1283.964844 719 C 1276.871094 708.433594 1264.246094 705.738281 1255.761719 697.3125 C 1255.054688 696.617188 1252.328125 696.945312 1251.394531 697.765625 C 1250.828125 698.34375 1250.433594 699.019531 1250.207031 699.792969 C 1249.984375 700.566406 1249.953125 701.347656 1250.117188 702.136719 C 1251.78125 705.152344 1253.632812 708.046875 1255.664062 710.832031 C 1257.082031 712.957031 1258.5 715.085938 1256.5 717.921875 C 1251.167969 720.207031 1250.058594 710.957031 1244.554688 713.042969 C 1244.371094 713.160156 1244.203125 713.296875 1244.050781 713.453125 C 1243.898438 713.609375 1243.765625 713.78125 1243.65625 713.96875 C 1243.542969 714.15625 1243.453125 714.355469 1243.386719 714.5625 C 1243.316406 714.769531 1243.277344 714.984375 1243.257812 715.199219 C 1243.238281 715.417969 1243.246094 715.632812 1243.28125 715.851562 C 1243.3125 716.066406 1243.367188 716.273438 1243.449219 716.476562 C 1243.527344 716.679688 1243.632812 716.871094 1243.757812 717.050781 C 1243.878906 717.230469 1244.023438 717.394531 1244.1875 717.539062 C 1251.476562 726.050781 1259.152344 734.25 1266.019531 743.070312 C 1269.480469 747.523438 1274.53125 751.808594 1272.671875 759.921875 C 1265.679688 759.226562 1264.472656 752.488281 1260.726562 748.800781 C 1256.589844 744.414062 1252.179688 740.328125 1247.492188 736.53125 C 1242.738281 732.972656 1237.304688 730.332031 1231.886719 727.15625 C 1232.15625 737.269531 1232.15625 737.269531 1246.199219 757.027344 C 1245.039062 760.941406 1242.953125 759.042969 1240.980469 757.867188 C 1234.695312 754.148438 1231.757812 746.0625 1224.054688 743.679688 C 1221.21875 749.539062 1226.054688 752.121094 1227.347656 755.835938 C 1228.398438 758.84375 1232.027344 760.972656 1230.324219 765.140625 C 1220.949219 763.015625 1217.65625 752.304688 1207.839844 749.398438 C 1202.167969 763.285156 1223.347656 767.367188 1219.191406 780.21875 C 1208.949219 778.304688 1206.335938 764.617188 1193.46875 764.0625 C 1199.925781 775.878906 1210.949219 782.972656 1216.722656 793.027344 C 1215.074219 796.304688 1213.882812 796.746094 1212.464844 795.496094 C 1203.742188 787.566406 1191.78125 784.703125 1181.511719 770.503906 C 1184.347656 789.367188 1197.5 795.140625 1200.421875 806.84375 C 1194.746094 811.554688 1185.667969 810.359375 1181.128906 818.332031 C 1192.476562 833.9375 1203.941406 849.863281 1215.359375 865.820312 C 1215.613281 866.175781 1214.820312 867.242188 1214.167969 868.871094 C 1202.621094 865.085938 1199.359375 853.75 1192.675781 845.707031 C 1185.582031 837.199219 1178.234375 828.898438 1169.878906 819.210938 C 1168.984375 833.992188 1172.304688 845.566406 1179.964844 855.921875 C 1174.472656 857.933594 1169.453125 858.289062 1167.890625 864.742188 L 1152.855469 851.636719 C 1149.875 853.550781 1149.71875 855.894531 1151.09375 858.175781 C 1153.933594 863.027344 1159.71875 866.6875 1155.734375 874.007812 C 1154.796875 875.75 1158.101562 879.863281 1159.578125 882.816406 C 1162.5 888.660156 1168.6875 892.742188 1169.425781 899.933594 C 1163.027344 901.949219 1161.992188 894.019531 1156.996094 894.261719 C 1154.019531 896.359375 1156.160156 898.816406 1156.402344 901.199219 C 1156.558594 902.617188 1156.753906 904.742188 1155.933594 905.59375 C 1153.832031 907.765625 1151.464844 907.011719 1149.507812 904.898438 C 1145.71875 900.742188 1144.640625 893.777344 1137.476562 893.140625 C 1136.738281 893.820312 1135.449219 894.671875 1135.5625 894.957031 C 1137.492188 899.695312 1139.589844 904.359375 1141.886719 909.550781 C 1139.632812 911.167969 1136.738281 912.574219 1134.796875 914.828125 C 1132.851562 917.082031 1133.375 920.957031 1129.6875 922.886719 C 1124.3125 925.722656 1127.234375 935.964844 1118.339844 936.191406 C 1114.453125 941.863281 1110.28125 947.28125 1106.761719 953.140625 C 1102.75 959.835938 1095.9375 960.472656 1089.425781 962.175781 C 1085.78125 958.230469 1087.242188 954.003906 1089.527344 950.417969 C 1101.246094 931.976562 1106.550781 911.167969 1113.359375 890.84375 C 1119.148438 873.722656 1125.589844 856.800781 1131.800781 839.78125 C 1133.222656 835.738281 1135.703125 831.894531 1136.414062 827.722656 C 1140.46875 803.949219 1155.265625 785.441406 1167.042969 765.566406 C 1171.296875 758.363281 1178.558594 752.800781 1184.773438 746.902344 C 1189.753906 742.148438 1195.160156 737.835938 1200.476562 733.453125 C 1231.859375 707.609375 1244.457031 672.800781 1248.160156 633.753906 C 1248.398438 631.183594 1248.414062 628.574219 1248.894531 626.035156 C 1255.863281 589.496094 1248.003906 554.378906 1239.875 519 C 1231.746094 483.625 1217.671875 450.378906 1202.988281 417.257812 C 1190.460938 388.890625 1179.808594 359.769531 1165.539062 332.152344 C 1160.785156 323.003906 1156.332031 313.710938 1151.707031 304.464844 C 1138.539062 278.308594 1125.164062 252.265625 1112.324219 225.953125 C 1108.066406 217.230469 1102.648438 209.882812 1094.71875 204.394531 C 1089.570312 206.875 1092.195312 211.683594 1091.15625 215.414062 C 1090.121094 219.144531 1087.382812 216.835938 1084.917969 216.140625 C 1081.3125 223.300781 1088.875 226.410156 1090.929688 231.457031 C 1093.1875 237.03125 1096.066406 242.367188 1098.71875 247.785156 C 1101.003906 252.421875 1103.359375 257.03125 1105.683594 261.640625 C 1108.394531 267.03125 1111.246094 272.367188 1113.785156 277.839844 C 1116.167969 283.019531 1121.0625 287.769531 1116.621094 295.742188 C 1110.566406 290.578125 1107.175781 283.953125 1103.289062 277.996094 C 1099.03125 271.542969 1095.96875 264.335938 1092.40625 257.445312 C 1089.257812 251.332031 1086.222656 245.160156 1083 239.089844 C 1079.355469 232.253906 1076.078125 225.132812 1071.652344 218.792969 C 1067.566406 212.890625 1066.671875 204.210938 1058.542969 201.429688 C 1055.335938 205.105469 1056.316406 208.378906 1057.804688 211.570312 C 1060.359375 217.046875 1063.125 222.421875 1065.621094 227.910156 C 1067.367188 231.757812 1065.621094 234.550781 1062.1875 236.253906 C 1058.34375 238.179688 1055.480469 235.8125 1053.675781 232.933594 C 1051.875 230.054688 1051.308594 226.367188 1049.421875 223.613281 C 1047.742188 221.691406 1045.664062 220.410156 1043.195312 219.769531 C 1041.449219 219.203125 1040.128906 225.203125 1040.640625 228.679688 C 1041.335938 233.527344 1047.25 236.988281 1044.144531 243.046875 C 1036 243.359375 1036.527344 232.179688 1028.765625 231.699219 C 1027.972656 232.367188 1026.269531 233.117188 1025.84375 234.296875 C 1024.90625 236.890625 1024.78125 236.566406 1016.878906 244.066406 C 1013.914062 246.90625 1011.957031 250.792969 1007.1875 252.578125 C 1012.863281 263.144531 1020.324219 272.4375 1023.671875 283.953125 C 1018 288.492188 1015.019531 280.5625 1010.097656 281.003906 C 1003.828125 281.558594 1001.671875 276.054688 998.476562 272.179688 C 995.285156 268.308594 992.066406 264.4375 988.617188 260.265625 C 985.070312 265.785156 985.015625 267.699219 987.441406 277.019531 C 981.765625 278.976562 980.050781 271.601562 974.191406 271.910156 C 973.652344 284.054688 984.050781 292.777344 986.875 307.855469 C 974.261719 297.386719 971.851562 283.132812 960.148438 277.34375 C 954.601562 283.214844 966.019531 287.753906 960.65625 294.492188 C 954.699219 292.367188 952.429688 283.96875 945.222656 283.628906 C 943.082031 288.480469 938.921875 291.34375 934.128906 294.5625 L 961.464844 335.457031 C 954.257812 336.464844 954.257812 336.480469 946.542969 326.066406 C 943.023438 321.328125 938.964844 316.988281 934.878906 312.136719 L 927.789062 320.777344 C 920.167969 320.902344 920.054688 312.265625 914.777344 309.613281 C 907.542969 312.988281 909.246094 322.664062 902.933594 326.5625 C 900.667969 325.304688 898.332031 324.199219 895.925781 323.246094 C 893.542969 322.449219 890.25 325.203125 891.058594 327.058594 C 893.171875 331.671875 895.542969 336.167969 897.8125 340.707031 C 891.015625 346.917969 891.015625 346.917969 887.882812 357.160156 C 883.1875 353.132812 878.746094 349.089844 874.019531 345.429688 C 873.308594 345.003906 872.535156 344.761719 871.707031 344.699219 C 870.878906 344.636719 870.082031 344.761719 869.3125 345.074219 C 869.03125 345.226562 868.765625 345.402344 868.523438 345.609375 C 868.277344 345.8125 868.058594 346.042969 867.859375 346.292969 C 867.664062 346.542969 867.492188 346.8125 867.351562 347.097656 C 867.207031 347.382812 867.09375 347.679688 867.011719 347.988281 C 866.929688 348.296875 866.882812 348.609375 866.863281 348.925781 C 866.847656 349.246094 866.863281 349.5625 866.910156 349.878906 C 866.957031 350.195312 867.035156 350.5 867.148438 350.800781 C 867.257812 351.101562 867.398438 351.386719 867.566406 351.65625 C 869.894531 356.238281 872.488281 360.675781 875.070312 365.371094 C 871.097656 365.597656 875.90625 367.855469 872.984375 367.726562 C 866.53125 367.429688 866.121094 357.441406 858.800781 359.769531 C 858.246094 360.4375 857.109375 361.285156 857.253906 361.753906 C 859.667969 369.90625 860.816406 378.234375 860.699219 386.734375 C 860.699219 389.796875 863.28125 393.046875 865.183594 395.867188 C 871.410156 405.160156 877.949219 414.222656 884.136719 423.542969 C 885.554688 425.597656 886.035156 428.40625 882.71875 430.394531 C 875.75 428.25 874.207031 420.945312 870.246094 415.699219 C 866.132812 410.207031 861.863281 404.804688 857.480469 399.542969 C 853.335938 394.605469 850.753906 387.824219 842.074219 385.285156 C 841.433594 395.03125 847.011719 400.734375 850.585938 406.960938 C 853.949219 412.820312 858.273438 418.09375 862.628906 424.28125 L 851.023438 431.085938 C 841.703125 427.953125 839.5625 416.195312 829.929688 413.371094 C 828.796875 423.089844 828.796875 423.089844 858.300781 469.144531 C 856.332031 474.007812 853.734375 472.605469 851.136719 469.769531 C 847.863281 466.195312 846.953125 460.433594 841.277344 459.074219 L 837.039062 465.953125 C 830.183594 464.789062 829.5625 457.65625 825.859375 453.625 C 821.902344 449.285156 818.851562 444.136719 815.375 439.300781 C 812.253906 440.972656 808.976562 443.015625 810.992188 447.128906 C 814.664062 454.691406 818.863281 461.996094 822.652344 469.03125 C 821.503906 470.449219 820.976562 471.117188 820.4375 471.769531 L 805.457031 458.265625 C 803.019531 460.222656 801.570312 462.734375 802.890625 465.003906 C 805.457031 469.429688 810.140625 473.046875 811.402344 477.769531 C 813.105469 483.925781 808.308594 481.1875 805.386719 480.492188 C 805.019531 480.40625 804.324219 481.65625 803.003906 483.1875 C 820.339844 508.832031 842.855469 531.738281 854.570312 563.753906 C 845.589844 562.433594 844.386719 556.078125 841.292969 551.910156 C 837.703125 547.074219 834.484375 541.980469 831.105469 536.988281 C 828.269531 532.730469 825.433594 528.292969 822.4375 524.121094 C 818.878906 519.257812 815.046875 514.605469 811.488281 510.039062 C 803.046875 512.773438 813.386719 519.273438 807.316406 523.003906 C 798.066406 518.050781 795.316406 505.980469 785.457031 498.265625 C 784.859375 510.917969 793.96875 516.703125 796.550781 525.355469 C 788.71875 522.519531 788.71875 522.519531 778.605469 511.953125 C 775.042969 514.648438 775.765625 517.925781 777.910156 520.847656 C 787.511719 533.9375 797.273438 546.917969 806.492188 559.285156 C 805.074219 564.039062 802.335938 563.613281 800.664062 561.796875 C 796.023438 556.746094 791.742188 551.355469 787.527344 545.9375 C 783.3125 540.519531 780.035156 534.703125 773.453125 531.910156 C 769.480469 535.738281 772.644531 540.265625 771.851562 544.308594 C 770.828125 549.484375 772.871094 553.851562 775.523438 558.050781 L 775.523438 568.503906 C 766.660156 568.804688 764.730469 560.234375 758.019531 556.960938 C 755.949219 565.042969 763.964844 568.960938 765.113281 575.582031 C 765.75 580.789062 758.019531 579.839844 757.777344 584.589844 C 768.871094 601.78125 768.871094 601.78125 769.011719 612.121094 C 756.742188 601.9375 752.144531 585.496094 738.1875 577.144531 C 736.769531 585.46875 736.769531 585.46875 745.023438 603.15625 C 743.605469 608.832031 740.160156 604.417969 737.277344 604.988281 C 732.808594 610.09375 745.023438 615.101562 738.160156 620.589844 C 730.339844 618.460938 731.25 606.929688 722.425781 605.824219 C 721.902344 606.71875 721.007812 607.640625 721.148438 608.121094 C 729.347656 628.886719 745.917969 644.71875 755.492188 664.207031 C 754.273438 665.765625 753.28125 667.042969 753.253906 667.042969 C 736.414062 654.730469 730.328125 633.511719 714.949219 619.683594 C 710.394531 626.179688 710.394531 626.179688 718.167969 646.632812 C 710.808594 649.640625 710.339844 638.460938 703.699219 639.722656 C 699.445312 643.085938 704.296875 645.144531 705.019531 647.824219 C 705.96875 651.3125 716.664062 658.605469 701.828125 656.335938 C 701.457031 656.335938 699.785156 659.414062 700.238281 660.222656 C 702.691406 664.6875 705.8125 668.800781 708.238281 673.269531 C 708.777344 674.25 707.429688 676.234375 706.933594 677.753906 C 698.761719 676.433594 697.160156 663.953125 685.925781 665.640625 C 687.257812 675.042969 697.1875 678.816406 698.605469 687.226562 C 691.96875 686.914062 691.96875 686.914062 678.875 676.546875 C 678.148438 676.929688 676.789062 677.425781 676.832031 677.695312 C 678.25 687.101562 687.46875 692.832031 688.179688 703.496094 C 678.703125 706.050781 677.722656 694.320312 670.390625 693.226562 C 670.0625 693.625 668.347656 694.757812 668.445312 695.722656 C 668.984375 701.253906 674.914062 706.023438 669.9375 712.574219 C 668.902344 713.992188 671.355469 718.859375 673.226562 721.398438 C 678.25 728.25 683.824219 734.703125 689.65625 741.90625 C 702.421875 737.992188 713.871094 732.292969 725.121094 726.21875 C 740.855469 717.710938 756.8125 715.425781 774.773438 718.433594 C 804.367188 723.355469 834.1875 728.714844 864.402344 726.589844 C 883.15625 725.269531 895.613281 733.328125 904.90625 748.617188 C 928.285156 787.042969 948.230469 826.941406 958.488281 871.113281 C 959.265625 874.445312 961.152344 877.539062 961.820312 880.886719 C 967.496094 909.453125 984.773438 930.628906 1005.796875 949.226562 C 1034.796875 974.941406 1064.148438 1000.289062 1090.648438 1028.65625 C 1115.96875 1055.609375 1140.03125 1083.863281 1164.417969 1111.722656 C 1168.363281 1116.316406 1171.75 1121.296875 1174.574219 1126.65625 C 1186.449219 1148.628906 1203.214844 1167.492188 1213.175781 1190.003906 C 1219.800781 1189.761719 1223.742188 1186.328125 1228.054688 1183.605469 C 1236.058594 1178.558594 1243.945312 1173.292969 1252.171875 1168.699219 C 1289.257812 1148.074219 1276.121094 1152.910156 1318.097656 1150.699219 C 1337.984375 1149.417969 1357.695312 1150.753906 1377.226562 1154.714844 C 1383.90625 1156.132812 1390.945312 1156.046875 1397.824219 1156.601562 L 1469.917969 1162.273438 C 1473.351562 1162.542969 1476.8125 1162.769531 1480.21875 1163.253906 C 1503.300781 1166.472656 1522.863281 1176.019531 1537.660156 1194.628906 C 1551.050781 1211.492188 1565.566406 1227.519531 1578.246094 1244.882812 C 1589.597656 1260.273438 1604.207031 1267.363281 1622.652344 1265.945312 C 1643.207031 1264.300781 1664.003906 1262.726562 1684.050781 1258.246094 C 1711.023438 1252.09375 1738.34375 1249.335938 1766.003906 1249.960938 C 1794.375 1250.683594 1822.933594 1248.214844 1851.121094 1254.03125 C 1856.171875 1255.066406 1861.535156 1255.265625 1866.257812 1257.125 C 1888.6875 1265.945312 1911.34375 1274.328125 1933.148438 1284.554688 C 1957.265625 1295.902344 1980.53125 1309.09375 2004.222656 1321.433594 C 2031.730469 1335.621094 2058.996094 1350.300781 2087.679688 1362.34375 C 2099.683594 1367.308594 2111.058594 1373.4375 2121.808594 1380.726562 C 2132.5625 1388.019531 2142.464844 1396.320312 2151.519531 1405.632812 C 2165.40625 1420.042969 2181.308594 1431.589844 2198.09375 1442.328125 C 2211.851562 1451.164062 2225.117188 1460.769531 2238.777344 1469.789062 C 2244.027344 1473.265625 2248 1477.460938 2249.773438 1483.574219 C 2247.445312 1487.460938 2244.210938 1485.929688 2241.078125 1484.996094 C 2227.601562 1480.996094 2216.320312 1472.882812 2205.257812 1464.808594 C 2181.621094 1447.578125 2156.921875 1431.773438 2136.140625 1410.695312 C 2129.996094 1404.609375 2123.347656 1399.132812 2116.195312 1394.265625 C 2109.042969 1389.402344 2101.503906 1385.234375 2093.582031 1381.761719 C 2055.09375 1364.371094 2017.742188 1344.78125 1980.800781 1324.355469 C 1977.777344 1322.683594 1974.585938 1321.25 1971.167969 1323.675781 C 1969.367188 1329.859375 1979.453125 1331.902344 1975.878906 1339.777344 L 1959.929688 1327.816406 L 1954.652344 1335.832031 C 1938.9375 1325.433594 1929.375 1308.144531 1913.285156 1298.203125 L 1907.78125 1303.988281 C 1902.71875 1302.058594 1899.355469 1294.542969 1892.0625 1299.734375 C 1888.914062 1301.988281 1885.609375 1299.734375 1882.671875 1297.832031 C 1879.226562 1295.519531 1875.578125 1293.40625 1872.402344 1291.394531 C 1868.046875 1294.230469 1870.570312 1298.144531 1869.378906 1301.136719 L 1869.238281 1301.265625 C 1858.753906 1299.632812 1855.503906 1289.222656 1848.128906 1283.789062 C 1844.242188 1280.953125 1841.703125 1275.605469 1835.558594 1277.265625 C 1834.90625 1277.890625 1833.703125 1278.8125 1833.785156 1278.980469 C 1837.828125 1285.820312 1841.972656 1292.597656 1847.078125 1300.96875 C 1836.511719 1300.203125 1832.097656 1289.28125 1822.75 1291.039062 C 1818.039062 1285.648438 1813.699219 1279.820312 1804.734375 1274.996094 C 1813.484375 1287.464844 1813.484375 1287.464844 1823.375 1290.316406 L 1821.542969 1299.449219 C 1816.875 1301.25 1814.378906 1298.542969 1812.023438 1296.429688 C 1804.929688 1290.101562 1798.191406 1283.476562 1791.199219 1277.09375 C 1789.042969 1275.125 1785.90625 1274.953125 1784.402344 1277.207031 C 1783.4375 1278.628906 1784.660156 1281.5625 1784.898438 1283.945312 C 1784.402344 1284.257812 1783.355469 1285.363281 1782.984375 1285.082031 C 1777.777344 1282.246094 1772.785156 1279.023438 1767.464844 1276.484375 C 1765.039062 1275.542969 1762.554688 1275.328125 1760.003906 1275.832031 C 1756.484375 1276.398438 1757.605469 1279.4375 1757.433594 1281.902344 C 1756.96875 1288.796875 1749.730469 1289.875 1745.09375 1294.089844 L 1761.125 1311.265625 C 1759.707031 1312.898438 1758.597656 1314.101562 1758.542969 1314.101562 C 1747.191406 1305.308594 1735.84375 1296.429688 1724.679688 1287.578125 C 1711.300781 1289.28125 1698.191406 1295.5625 1684.84375 1286.160156 C 1687.410156 1293.734375 1692.5625 1297.917969 1696.476562 1302.980469 C 1700.050781 1307.605469 1706.632812 1309.664062 1707.824219 1316.34375 C 1698.71875 1314.742188 1698.691406 1314.753906 1690.023438 1306.898438 C 1684.347656 1301.71875 1678.671875 1296.472656 1672.855469 1291.09375 C 1666.984375 1295.945312 1676.273438 1301.933594 1670.300781 1306.359375 C 1665.210938 1310.101562 1675.976562 1315.335938 1669.324219 1319.972656 C 1660.015625 1315.476562 1654.398438 1306.328125 1646.414062 1300.03125 C 1641.390625 1296.074219 1636.90625 1297.507812 1633.207031 1302.101562 C 1632.097656 1305.164062 1634.113281 1307.082031 1635.816406 1308.710938 C 1647.648438 1320.058594 1655.761719 1334.710938 1668.855469 1344.953125 C 1693.332031 1364.046875 1718.394531 1382.285156 1744.042969 1399.675781 C 1769.777344 1417.023438 1795.296875 1434.695312 1820.265625 1453.109375 C 1838.367188 1466.457031 1854.042969 1482.765625 1867.960938 1500.355469 C 1884.078125 1520.726562 1902.265625 1539.066406 1920.039062 1557.859375 C 1926.464844 1564.652344 1932.976562 1571.277344 1936.59375 1578.964844 C 1934.28125 1583.363281 1932.042969 1582.667969 1929.5 1582.171875 C 1920.195312 1580.355469 1914.988281 1573.105469 1909.257812 1566.835938 C 1887.738281 1543.292969 1865.976562 1519.929688 1845.320312 1495.648438 C 1827.203125 1474.371094 1805.328125 1457.589844 1782.402344 1442.5 C 1746.425781 1418.796875 1711.472656 1393.734375 1676.445312 1368.640625 C 1669.382812 1363.640625 1662.878906 1358 1656.925781 1351.71875 C 1627.460938 1320.285156 1596.023438 1290.726562 1570.574219 1255.59375 C 1560.851562 1242.410156 1550.445312 1229.792969 1539.363281 1217.734375 C 1534.199219 1212.058594 1530.667969 1201.449219 1519.132812 1206.726562 C 1514.605469 1202.796875 1510.109375 1198.839844 1505.542969 1194.996094 C 1503.472656 1193.253906 1500.832031 1192.003906 1498.746094 1194.34375 C 1496.660156 1196.683594 1499.582031 1198.597656 1500.335938 1200.726562 C 1500.570312 1201.742188 1500.726562 1202.765625 1500.804688 1203.804688 C 1495.328125 1206.640625 1494.761719 1200.371094 1491.867188 1198.753906 C 1488.984375 1196.976562 1486.203125 1195.054688 1483.523438 1192.984375 C 1480.898438 1197.378906 1478.730469 1201.039062 1476.148438 1205.351562 C 1482.617188 1214.058594 1489.296875 1222.882812 1495.683594 1231.917969 C 1496.292969 1232.785156 1495.484375 1235.378906 1494.503906 1236.359375 C 1493.832031 1236.652344 1493.128906 1236.765625 1492.398438 1236.699219 C 1491.667969 1236.632812 1490.996094 1236.390625 1490.390625 1235.976562 C 1480.207031 1224.371094 1470.386719 1212.441406 1460.089844 1200.941406 C 1454.769531 1195.304688 1449.171875 1189.960938 1443.292969 1184.910156 C 1442.257812 1183.988281 1440.226562 1184.1875 1437.363281 1183.605469 C 1438.339844 1190.175781 1443.746094 1193.4375 1446.230469 1198.246094 C 1448.910156 1203.464844 1454.246094 1207.324219 1454.457031 1213.847656 C 1451.71875 1217.933594 1450.199219 1214.214844 1448.9375 1212.796875 C 1441.023438 1203.71875 1433.332031 1194.359375 1425.433594 1185.308594 C 1423.191406 1182.742188 1420.15625 1180.585938 1416.59375 1183.335938 C 1413.757812 1185.507812 1415.914062 1187.847656 1416.878906 1190.03125 C 1417.96875 1192.457031 1418.453125 1194.769531 1416.054688 1196.910156 L 1405.671875 1189.519531 C 1399.996094 1198.03125 1395.625 1199.449219 1390.066406 1194.257812 C 1383.921875 1188.445312 1379.453125 1180.457031 1369.339844 1179.195312 L 1362.246094 1191.847656 C 1366.105469 1201.519531 1374.914062 1206.402344 1380.574219 1213.863281 C 1382.175781 1215.988281 1383.085938 1218.300781 1381.097656 1220.628906 C 1378.789062 1223.363281 1376.019531 1222.046875 1374.574219 1220.101562 C 1364.445312 1206.003906 1351.28125 1194.828125 1339.007812 1182.785156 C 1336.957031 1181.050781 1334.804688 1179.453125 1332.554688 1177.988281 C 1332.113281 1190.402344 1345.320312 1194.386719 1346.511719 1204.542969 C 1344.839844 1207.265625 1342.386719 1207.492188 1340.398438 1205.535156 C 1336.144531 1201.28125 1332.339844 1196.570312 1328.085938 1192.328125 C 1323.828125 1188.089844 1319.347656 1189.039062 1315.6875 1195.167969 C 1314.535156 1197.082031 1315.074219 1200.003906 1312.125 1200.96875 L 1302.109375 1194.714844 L 1296.777344 1201.367188 L 1272.445312 1178.671875 C 1268.191406 1182.003906 1271.027344 1184.671875 1272.828125 1187.179688 C 1278.402344 1194.484375 1285.398438 1200.796875 1291.074219 1212.8125 C 1274.660156 1204.941406 1268.671875 1190.359375 1255.832031 1184.03125 C 1252.386719 1185.847656 1247.507812 1186.699219 1251.746094 1192.65625 C 1257.734375 1201.039062 1263.378906 1209.675781 1269.425781 1218.585938 C 1268.671875 1225.152344 1267.921875 1231.832031 1267.054688 1239.464844 C 1250.242188 1232.96875 1242.257812 1215.464844 1225.472656 1209.210938 C 1235.40625 1225.761719 1235.40625 1225.761719 1235.832031 1236.160156 C 1230.980469 1238.34375 1228.738281 1233.71875 1224.269531 1231.71875 C 1220.851562 1238.570312 1229.277344 1241.648438 1229.148438 1246.867188 C 1227.730469 1247.082031 1225.515625 1248.015625 1224.765625 1247.363281 C 1217.800781 1241.378906 1212.070312 1233.902344 1203.160156 1228.925781 C 1205.402344 1240.542969 1205.613281 1240.273438 1216.453125 1252.753906 C 1221.757812 1258.824219 1230.015625 1263.011719 1232.058594 1274.570312 C 1219.574219 1269.238281 1213.488281 1259.707031 1205.101562 1253.152344 C 1204.507812 1253.324219 1203.300781 1253.507812 1203.300781 1253.734375 C 1203.171875 1256.785156 1203.214844 1259.832031 1203.214844 1262.96875 C 1195.386719 1265.238281 1196.320312 1257.09375 1192.886719 1254.246094 C 1188.929688 1250.96875 1185.625 1246.925781 1180.347656 1245.734375 C 1177.097656 1246.996094 1177.722656 1249.109375 1178.800781 1251.535156 C 1179.78125 1253.71875 1181.824219 1255.976562 1178.800781 1258.753906 L 1167.75 1252.441406 C 1165.496094 1256.132812 1166.429688 1258.257812 1168.089844 1260.386719 C 1176.601562 1271.203125 1185.113281 1282.054688 1193.625 1292.9375 C 1196.464844 1296.613281 1197.882812 1300.328125 1193.457031 1304.699219 C 1181.441406 1298.855469 1179.269531 1283.320312 1167.308594 1277.4375 C 1163.820312 1280.472656 1167.523438 1286.257812 1162.105469 1289.394531 C 1153.125 1284.570312 1148.796875 1274.597656 1141.449219 1267.71875 C 1139.292969 1265.707031 1136.808594 1266.824219 1134.949219 1268.96875 C 1135.078125 1277.675781 1146.613281 1282.03125 1143.945312 1291.933594 C 1126.765625 1291.050781 1126.921875 1290.511719 1113.132812 1279.167969 C 1110.296875 1276.898438 1107.144531 1276.046875 1104.054688 1281.449219 C 1112.890625 1296.953125 1129.589844 1307.675781 1137.007812 1324.910156 C 1134.527344 1327.320312 1132 1327.859375 1129.914062 1325.578125 C 1123.617188 1318.484375 1117.558594 1311.222656 1111.375 1304.046875 C 1108.152344 1300.316406 1105.699219 1295.734375 1100.578125 1293.988281 C 1098.664062 1304.34375 1108.804688 1310.101562 1110.109375 1319.207031 C 1108.222656 1321.550781 1106.023438 1322.484375 1103.785156 1319.875 C 1098.25 1313.433594 1093.03125 1306.699219 1085.339844 1302.855469 C 1079.667969 1308.527344 1091.851562 1313.832031 1084.988281 1319.320312 C 1075.878906 1313.648438 1071.496094 1302.214844 1060.34375 1298.1875 C 1055.875 1306.003906 1065.59375 1308.554688 1065.097656 1315.082031 C 1056.828125 1318.625 1053.664062 1304.65625 1044.257812 1309.265625 C 1046.414062 1315.648438 1050.855469 1320.511719 1055.820312 1324.726562 C 1076.347656 1342.171875 1092.347656 1363.660156 1109.445312 1384.1875 C 1112.707031 1388.101562 1115.984375 1392.511719 1110.75 1398.371094 C 1089.726562 1380.527344 1077.625 1354.160156 1054.300781 1338.625 C 1046.78125 1344.144531 1060.871094 1348.554688 1052.785156 1354.953125 C 1045.492188 1354.171875 1044.527344 1344.429688 1038.78125 1340.398438 C 1032.625 1336.074219 1026.410156 1331.890625 1018.15625 1326.214844 C 1019.574219 1336.980469 1027.632812 1340.667969 1029.929688 1348.015625 C 1028.511719 1354.398438 1018.394531 1353.691406 1018.011719 1363.179688 L 992.632812 1340.65625 C 988.617188 1344.625 992.886719 1346.640625 994.832031 1348.8125 C 1005.03125 1360.160156 1016.707031 1370.386719 1025.246094 1382.78125 C 1024.578125 1383.84375 1023.828125 1384.851562 1023.007812 1385.804688 C 1005.316406 1376.824219 995.96875 1357.433594 978.019531 1349.066406 C 973.511719 1351.546875 974.390625 1354.738281 976.601562 1357.578125 C 982.023438 1364.257812 987.765625 1370.695312 993.3125 1377.292969 C 995.398438 1379.789062 998.507812 1381.890625 997.257812 1386.003906 C 992.363281 1388.554688 990.277344 1383.164062 986.632812 1382.171875 L 980.589844 1387.535156 L 955.761719 1366.398438 C 952.925781 1369.066406 952.925781 1371.390625 954.898438 1373.660156 C 958.828125 1378.1875 962.855469 1382.65625 966.914062 1387.222656 C 963.90625 1394.484375 966.445312 1404.683594 954.925781 1406.867188 C 955.125 1416.910156 965.464844 1421.902344 967.167969 1431.363281 C 963.621094 1435.917969 961.804688 1430.882812 959.933594 1429.535156 C 952.980469 1424.570312 951.167969 1414.484375 942.128906 1411.363281 C 937.109375 1414.527344 941.503906 1416.921875 943.066406 1418.894531 C 945.691406 1422.199219 948.371094 1425.121094 946.300781 1431.191406 C 934.46875 1422.882812 926.863281 1412.386719 917.515625 1403.789062 C 913.957031 1400.527344 911.601562 1402.65625 909.332031 1406.15625 C 909.570312 1412.710938 915.617188 1415.433594 919.261719 1419.789062 C 922.90625 1424.144531 926.824219 1428.582031 931.390625 1433.859375 C 921.460938 1432.796875 921.460938 1432.796875 899.980469 1416.398438 C 899.441406 1422.851562 904.734375 1424.839844 907.332031 1428.398438 C 909.699219 1431.605469 913.074219 1434.328125 912.878906 1439.335938 C 901.953125 1440.613281 898.691406 1427.390625 887.894531 1426.824219 C 883.867188 1434.910156 893.1875 1437.988281 894.859375 1443.988281 C 887.921875 1448.441406 884.363281 1441.152344 879.140625 1439.421875 C 873.28125 1442.78125 881 1446.214844 878.148438 1450.257812 C 874.007812 1453.09375 869.738281 1446 864.671875 1448.328125 C 851.71875 1462.074219 838.796875 1475.84375 825.746094 1489.460938 C 824.679688 1490.554688 822.652344 1490.710938 821.105469 1491.292969 C 818.523438 1490.1875 816.851562 1488.015625 817.460938 1485.476562 C 818.160156 1481.957031 819.558594 1478.742188 821.660156 1475.832031 C 836.015625 1457.546875 850.132812 1439.179688 867.453125 1423.347656 C 883.304688 1408.835938 898.5625 1393.644531 913.230469 1377.773438 C 924.34375 1365.6875 936.34375 1354.566406 949.242188 1344.402344 C 962.136719 1334.242188 975.757812 1325.171875 990.109375 1317.195312 C 1020.238281 1300.472656 1050.230469 1283.535156 1081.738281 1269.335938 C 1114.773438 1254.539062 1146.867188 1237.925781 1178.019531 1219.492188 C 1188.488281 1213.265625 1197.199219 1205.308594 1206.09375 1196.019531 C 1195.214844 1184.671875 1187.652344 1172.132812 1180.09375 1159.707031 C 1156.597656 1121.238281 1126.625 1087.917969 1096.390625 1054.898438 C 1063.761719 1019.28125 1028.382812 986.429688 992.292969 954.375 C 981.835938 945.082031 973.355469 934.375 965.152344 923.296875 C 962.3125 919.484375 959.902344 915.421875 957.921875 911.101562 C 955.9375 906.78125 954.429688 902.304688 953.394531 897.664062 C 947.25 870.714844 937.917969 844.800781 927.859375 819.167969 C 919.082031 796.390625 907.65625 775.03125 893.582031 755.085938 C 887.683594 751.46875 884.632812 758.789062 880.25 755.269531 C 876.984375 752.644531 873.523438 750.277344 869.792969 747.523438 C 864.601562 757.085938 876.320312 761.480469 874.148438 769.128906 C 873.15625 771.070312 872.035156 770.789062 870.007812 769.636719 C 861.496094 764.789062 855.820312 757.199219 849.605469 750.050781 C 849.414062 749.785156 849.195312 749.546875 848.953125 749.328125 C 848.710938 749.109375 848.449219 748.917969 848.167969 748.753906 C 847.886719 748.589844 847.589844 748.457031 847.28125 748.355469 C 846.972656 748.25 846.65625 748.179688 846.332031 748.144531 C 846.007812 748.105469 845.683594 748.101562 845.359375 748.132812 C 845.035156 748.164062 844.71875 748.226562 844.40625 748.320312 C 844.09375 748.417969 843.796875 748.542969 843.511719 748.699219 C 843.226562 748.859375 842.957031 749.042969 842.710938 749.253906 C 842.199219 757.765625 852.402344 762.136719 851.890625 771.410156 C 844.128906 771.210938 843.039062 763.980469 838.980469 760.304688 C 835.222656 756.886719 832.398438 752.417969 826.210938 753.042969 C 819.21875 753.722656 816.863281 745.949219 811.089844 744.121094 C 806.835938 746.558594 800.734375 745.328125 797.839844 751.835938 C 804.324219 762.164062 811.117188 772.929688 817.816406 783.765625 C 818.027344 784.132812 817.148438 785.183594 816.15625 787.140625 C 808.949219 783.667969 806.140625 776.304688 801.742188 770.730469 C 796.378906 763.9375 791.65625 756.546875 782.390625 754.675781 C 772.261719 752.660156 768.046875 743.070312 762.0625 737.652344 C 755.550781 738.984375 754.726562 747.980469 747.605469 744.40625 C 745.535156 748.558594 744.769531 754.632812 737.761719 749.894531 C 736.03125 759.128906 747.863281 762.519531 744.855469 771.296875 C 738.398438 773.058594 737.761719 765.183594 733.050781 764.460938 C 729.488281 765.992188 732.058594 774.773438 725.503906 771.667969 C 719.972656 769.058594 720.652344 775.3125 717.402344 775.523438 C 708.960938 772.476562 705.828125 762.148438 696.902344 757.90625 C 693.03125 766.617188 699.742188 770.191406 702.179688 775.015625 C 704.917969 780.363281 708.75 785.128906 711.800781 790.332031 C 714.636719 795.296875 720.226562 799.128906 718.976562 807.15625 C 707.21875 804.632812 707.898438 791.199219 699.796875 786.019531 C 691.980469 781.042969 689.867188 770.417969 680.050781 764.941406 C 676.601562 779.496094 691.230469 784.574219 693.1875 795.625 C 679.199219 798.078125 675 783.824219 666.046875 778.019531 C 661.453125 785.453125 666.617188 788.746094 669.398438 792.632812 C 671.964844 796.191406 674.363281 799.625 672.746094 804.445312 C 667.269531 807.976562 665.054688 798.984375 659.976562 800.972656 C 659.769531 801.066406 659.582031 801.179688 659.402344 801.320312 C 659.226562 801.457031 659.066406 801.617188 658.925781 801.792969 C 658.785156 801.96875 658.667969 802.160156 658.574219 802.367188 C 658.480469 802.570312 658.410156 802.78125 658.367188 803.003906 C 658.324219 803.226562 658.308594 803.449219 658.316406 803.675781 C 658.324219 803.898438 658.363281 804.121094 658.425781 804.335938 C 658.484375 804.554688 658.574219 804.761719 658.683594 804.957031 C 658.796875 805.152344 658.929688 805.332031 659.082031 805.496094 C 669.109375 820.550781 679.136719 835.59375 689.171875 850.628906 C 693.429688 857.042969 698.71875 863 699.441406 871.125 C 699.441406 871.957031 699.257812 872.75 698.890625 873.496094 C 698.527344 874.242188 698.015625 874.871094 697.359375 875.382812 C 696.640625 875.648438 695.902344 875.71875 695.144531 875.601562 C 694.386719 875.484375 693.707031 875.1875 693.101562 874.714844 C 685.042969 862.671875 677.355469 850.390625 669.296875 838.347656 C 665.496094 832.671875 661.113281 827.355469 656.984375 821.863281 C 639.433594 824.546875 637.886719 804.941406 626.101562 799.667969 C 623.375 800.972656 622.863281 802.800781 624.453125 805.339844 C 628.511719 811.921875 632.511719 818.546875 636.214844 824.628906 C 634.613281 831.296875 631.023438 826.488281 628.566406 827.085938 C 626.113281 827.679688 623.957031 828.503906 621.941406 829.210938 C 603.742188 810.558594 603.742188 810.558594 596.507812 812.515625 C 597.328125 821.808594 607.417969 825.636719 609.273438 834.390625 C 608.933594 839.949219 603.855469 835.113281 602.28125 837.339844 C 601.050781 839.484375 600.046875 841.730469 599.273438 844.078125 C 594.25 845.027344 592.550781 839.894531 588.703125 838.402344 C 588.039062 839.453125 586.5625 840.742188 586.773438 841.59375 C 587.9375 846.078125 593.371094 850.007812 587.753906 856.050781 C 579.242188 846.289062 574.136719 834.105469 564.871094 825.808594 C 556.046875 830.617188 570.121094 841.167969 557.535156 843.992188 C 548.558594 846.828125 541.847656 837.582031 531.378906 835.480469 C 536.5 853.199219 549.648438 863.851562 556.785156 877.863281 C 554.21875 882.417969 551.109375 880.984375 549.023438 878.21875 C 540.742188 867.226562 532.851562 855.921875 524.609375 844.914062 C 522.609375 842.246094 519.941406 839.539062 516.011719 842.601562 C 514.59375 848.6875 523.488281 851.4375 521.175781 857.933594 C 519.289062 859.269531 519.289062 859.269531 503.898438 846.078125 C 497.359375 848.828125 491.128906 854.914062 484.136719 846.078125 C 481.710938 855.523438 489.980469 858.007812 489.980469 864.019531 C 488.5625 864.546875 486.476562 865.949219 485.625 865.4375 C 481.996094 863.226562 479.03125 859.609375 475.199219 858.164062 C 472.660156 857.199219 468.929688 859.863281 465.964844 859.410156 C 459.949219 858.488281 459.28125 849.765625 452.542969 849.339844 C 447.421875 852.347656 456.34375 856.828125 451.410156 859.894531 C 445.734375 859.765625 445.125 851.625 439.066406 852.175781 C 434.613281 856.261719 444.101562 861.296875 438.171875 865.296875 C 428.609375 862.984375 426.625 850.957031 416.894531 848.277344 C 417.6875 862.078125 417.6875 862.078125 449.523438 904.359375 C 447.054688 908.019531 443.492188 908.160156 441.09375 905.210938 C 435.71875 898.585938 431.023438 891.410156 425.746094 884.046875 L 413.121094 887.210938 L 402.152344 871.792969 C 397.8125 878.800781 403.246094 881.027344 404.921875 884.488281 C 406.339844 887.4375 409.175781 889.964844 407.359375 893.878906 C 402.378906 895.183594 401.53125 889 396.71875 888.203125 C 392.109375 891.042969 391.316406 896.898438 388.449219 901.394531 C 390.890625 913 401.386719 919.382812 406.410156 929.28125 C 406.835938 930.132812 405.542969 932.121094 404.707031 933.253906 C 404.339844 933.480469 403.941406 933.605469 403.511719 933.625 C 403.078125 933.648438 402.671875 933.566406 402.28125 933.382812 C 399.289062 930.402344 396.378906 927.324219 393.597656 924.148438 C 387.925781 917.75 384.703125 909.28125 376.71875 904.6875 C 368.929688 913.199219 381.074219 921.480469 376.902344 929.808594 C 373.484375 932.316406 370.660156 928.660156 367.46875 928.941406 C 368.175781 921.226562 363.210938 916.402344 358.488281 911.507812 C 356.769531 909.722656 354.757812 908.445312 353.183594 912.234375 C 357.042969 918.53125 361.027344 924.886719 368.375 928.160156 Z M 683.625 745.058594 C 672.277344 733.878906 667.339844 720.222656 654.742188 713.257812 C 650.003906 718.929688 653.324219 723.074219 656.359375 727.441406 C 659.011719 731.300781 664.757812 734.109375 660.84375 741.101562 C 652.828125 740.492188 652.1875 729.171875 644.175781 728.875 C 641.152344 732.574219 645.082031 735.113281 645.59375 738.191406 C 646.101562 741.269531 644.03125 742.449219 640.996094 741.554688 C 638.753906 740.929688 636.484375 740.40625 634.34375 739.867188 C 632.925781 742.632812 632.144531 745.328125 630.414062 747.042969 C 628.894531 748.554688 627.703125 750.289062 626.832031 752.246094 C 625.960938 754.203125 625.46875 756.253906 625.363281 758.390625 C 625.269531 759.226562 624.882812 759.886719 624.199219 760.378906 C 622.140625 761.398438 618.523438 758.574219 617.703125 762.078125 C 616.15625 768.605469 609.816406 767.824219 605.941406 770.703125 C 605.175781 771.160156 604.601562 771.789062 604.210938 772.589844 C 603.8125 774.007812 603.148438 776.050781 603.8125 776.84375 C 604.691406 777.953125 607.078125 779.058594 608.199219 778.617188 C 625.746094 771.640625 643.292969 764.605469 660.6875 757.144531 C 667.625 754.148438 674.21875 750.035156 683.625 745.058594 Z M -13.050781 1137.480469 C -11.449219 1146.828125 -11.492188 1146.871094 -4.34375 1153.195312 C -2.996094 1154.386719 -1.773438 1153.847656 -0.285156 1150.53125 C -5.136719 1147.253906 -5.632812 1139.453125 -13.050781 1137.480469 Z M -13.050781 1137.480469 " fill-opacity="1" fill-rule="nonzero"/><path fill="#000000" d="M 523.035156 1187.195312 C 513.914062 1186.714844 513.007812 1175.765625 504.722656 1173.75 L 500.152344 1181.140625 C 492.648438 1179.976562 490.335938 1172.230469 484.179688 1168.84375 C 480.605469 1177.238281 492.335938 1181.082031 490.292969 1189.777344 C 484.125 1190.417969 482.492188 1181.265625 476.292969 1182.53125 C 471.808594 1185.027344 474.449219 1188.203125 475.441406 1191.039062 C 476.433594 1193.878906 475.582031 1197.308594 473.511719 1197.550781 C 463.097656 1198.742188 470.675781 1204.542969 470.375 1208.289062 C 470.375 1209.054688 470.148438 1209.820312 470.035156 1210.585938 C 467.070312 1214.488281 461.242188 1210.074219 458.359375 1214.839844 C 457.921875 1223.960938 469.269531 1227.070312 470.335938 1235.308594 C 469.574219 1236.042969 468.746094 1236.691406 467.851562 1237.253906 C 463.140625 1233.566406 458.53125 1229.75 453.820312 1225.90625 C 448.984375 1227.792969 450.785156 1230.871094 452.925781 1233.296875 C 458.601562 1239.75 464.773438 1245.777344 470.335938 1252.316406 C 472.050781 1254.332031 470.859375 1256.941406 468.375 1258.445312 C 460.007812 1254.585938 457.125 1243.679688 447.253906 1241.679688 C 442.21875 1246.953125 452.175781 1250.515625 448.34375 1255.863281 C 441.378906 1255.28125 439.351562 1246.472656 432.484375 1245.59375 C 432.484375 1253.804688 432.484375 1253.804688 443.179688 1266.871094 C 435.363281 1271.621094 432.625 1260.03125 425.71875 1261.691406 C 422.15625 1269.167969 431.746094 1272.273438 432.625 1277.492188 C 427.960938 1282.742188 424.414062 1274.5 420.597656 1278.5 C 421.222656 1288.882812 434.898438 1292.683594 434.117188 1304.03125 C 427.605469 1306.132812 426.300781 1298.585938 421.476562 1298.21875 L 417.632812 1308.699219 C 405.375 1302.855469 403.515625 1286.671875 390.152344 1282.515625 C 383.058594 1293.863281 397.65625 1298.359375 398.054688 1307.152344 C 389.898438 1305.265625 389.898438 1305.265625 376.195312 1293.890625 C 369.242188 1299.410156 380.320312 1303.820312 377.074219 1309.125 C 376.109375 1311.109375 374.773438 1311.238281 372.957031 1309.675781 C 369.070312 1306.34375 365.128906 1303.054688 361.242188 1299.75 C 354.515625 1300.558594 358.714844 1306.570312 355.113281 1310.457031 C 350.730469 1313.195312 346.332031 1302.640625 340.5 1308.03125 C 338.769531 1312.796875 344.386719 1314.828125 344.683594 1319.378906 C 334.753906 1317.960938 328.003906 1322.8125 322.539062 1330.726562 L 336.558594 1348.414062 C 334.882812 1352.132812 333.066406 1352.160156 330.882812 1350.171875 C 324.074219 1344.074219 317.902344 1337.097656 308.554688 1332.058594 C 307.671875 1341.832031 317.703125 1343.152344 317.816406 1351.066406 C 316.921875 1352.628906 314.425781 1352.925781 312.382812 1351.210938 C 307.148438 1346.8125 302.226562 1342.03125 297.628906 1337.820312 C 292.621094 1337.71875 291.273438 1340.058594 290.28125 1343.875 C 289.117188 1348.429688 285.300781 1346.257812 282.324219 1345.71875 C 277.78125 1354.058594 290.125 1356.230469 289.101562 1363.023438 C 286.933594 1365.394531 286.933594 1365.394531 266.644531 1350.257812 C 263.582031 1352.515625 261.992188 1355.5625 264.546875 1358.769531 C 271.539062 1367.480469 278.917969 1375.890625 286.125 1384.429688 C 287.785156 1386.402344 289.132812 1388.5 286.605469 1392.429688 C 274.390625 1386.273438 267.425781 1373.988281 256.816406 1366.003906 C 252.828125 1368.214844 254.21875 1371.238281 255.550781 1374.273438 C 259.808594 1383.777344 266.730469 1391.292969 273.597656 1397.71875 C 272.5625 1401.976562 271.34375 1403.507812 268.191406 1401.847656 C 265.042969 1400.1875 262.023438 1398.796875 258.433594 1400.046875 C 258.984375 1390.230469 251.339844 1386.328125 243.722656 1377.480469 C 248.289062 1390.839844 248.289062 1390.839844 259.054688 1399.476562 C 257.765625 1403.167969 255 1405.890625 251.523438 1403.621094 C 245.847656 1399.890625 240.96875 1395.109375 235.820312 1390.710938 C 232.796875 1392.941406 233.832031 1395.378906 235.4375 1397.351562 C 244.160156 1408.015625 253.054688 1418.527344 261.808594 1429.167969 C 263.867188 1431.675781 265.582031 1434.484375 267.371094 1437.023438 C 263.113281 1441.195312 259.851562 1438.769531 257.609375 1436.570312 C 251.46875 1430.570312 245.804688 1424.058594 240.03125 1417.675781 C 235.59375 1412.769531 231.691406 1407.167969 224.425781 1405.351562 C 224.425781 1414.203125 224.425781 1414.203125 240.03125 1432.554688 C 238.175781 1437.039062 235.222656 1436.160156 232.554688 1433.691406 C 228.160156 1429.621094 224.117188 1425.179688 219.789062 1421.023438 C 218.429688 1419.933594 216.980469 1418.988281 215.433594 1418.1875 C 211.390625 1420.824219 212.792969 1424.089844 215.261719 1426.371094 C 219.09375 1429.613281 223.082031 1432.636719 227.238281 1435.449219 C 220.46875 1445.378906 215.136719 1433.832031 208.894531 1439.066406 C 216.144531 1447.222656 223.503906 1455.265625 230.554688 1463.5625 C 233.394531 1466.96875 234.8125 1470.910156 230.328125 1474.628906 C 219.234375 1468.726562 215.589844 1455.578125 205.332031 1448.953125 C 204.582031 1455.335938 204.582031 1455.335938 209.417969 1462.953125 C 210.210938 1467.945312 204.566406 1466.414062 203.164062 1469.222656 C 202.070312 1471.421875 200.820312 1473.550781 199.246094 1476.402344 L 180.167969 1461.960938 C 182.207031 1470.613281 182.207031 1470.613281 189.230469 1479.664062 C 180.09375 1481.976562 176.464844 1471.152344 168.605469 1472.570312 C 165.765625 1477.25 165.582031 1477.292969 169.074219 1484.898438 C 167.652344 1485.5625 166.148438 1486.980469 165 1486.710938 C 161.730469 1485.75 158.535156 1484.589844 155.410156 1483.222656 C 149.851562 1489.152344 144.925781 1495.109375 139.238281 1500.246094 C 134.984375 1504.015625 129.960938 1504.699219 125.917969 1499.207031 C 126.03125 1497.5625 125.507812 1495.394531 126.355469 1494.34375 C 164.773438 1446.769531 203.261719 1399.257812 241.820312 1351.804688 C 263.949219 1324.457031 290.636719 1303.578125 324.214844 1291.847656 C 337.960938 1287.011719 350.984375 1280.117188 364.53125 1274.644531 C 387.699219 1265.253906 405.261719 1248.65625 420.425781 1229.792969 C 445.453125 1198.800781 464.519531 1163.992188 479.554688 1127.113281 C 490.28125 1100.828125 499.671875 1074.007812 509.546875 1047.367188 C 511.035156 1043.367188 511.898438 1039.140625 513.09375 1035.027344 C 520.753906 1008.574219 536.785156 987.398438 555.992188 968.476562 C 560.546875 964.382812 565.78125 961.546875 571.695312 959.964844 C 594.394531 953.242188 613.886719 940.746094 633.09375 927.566406 C 635.148438 925.992188 637.375 924.726562 639.777344 923.765625 C 641.082031 923.339844 643.066406 924.164062 644.429688 924.945312 C 647.027344 926.363281 647.265625 929.058594 646.472656 931.625 C 645.800781 933.207031 644.9375 934.671875 643.875 936.023438 C 639.890625 942.050781 630.738281 944.660156 632.851562 954.84375 C 634.085938 960.84375 626 965.808594 629.136719 973 L 618.679688 966.574219 C 615.347656 975.566406 626.796875 980.546875 626.1875 989.667969 C 614.667969 987.042969 613.773438 974.800781 605.078125 971.226562 C 598.125 974.929688 609.914062 980.332031 602.976562 984.53125 L 589.273438 976.019531 C 587.257812 983.90625 598.734375 987 593.527344 994.574219 C 586.050781 993.738281 584.476562 984.816406 577.769531 982.957031 C 577.476562 983.058594 577.199219 983.183594 576.933594 983.339844 C 576.667969 983.496094 576.421875 983.675781 576.195312 983.878906 C 575.964844 984.085938 575.757812 984.3125 575.574219 984.554688 C 575.390625 984.800781 575.230469 985.0625 575.097656 985.339844 C 574.96875 985.617188 574.863281 985.90625 574.789062 986.203125 C 574.714844 986.5 574.667969 986.804688 574.65625 987.109375 C 574.640625 987.417969 574.65625 987.722656 574.703125 988.027344 C 574.75 988.332031 574.824219 988.625 574.929688 988.914062 C 577.613281 995.171875 580.945312 1001.140625 583.996094 1007.140625 C 583.101562 1009.554688 582.023438 1009.835938 580.292969 1008.785156 C 574.519531 1005.242188 571.15625 998.445312 562.703125 996.234375 C 562.476562 1005.765625 575.128906 1008.460938 573.15625 1018.476562 C 564.503906 1020.035156 563.992188 1007.398438 556.046875 1008.105469 C 552.828125 1012.0625 556.503906 1014.476562 558.472656 1016.730469 C 566.984375 1026.433594 575.894531 1035.78125 584.351562 1045.523438 C 586.125 1047.566406 584.832031 1050.148438 581.511719 1051.992188 L 547.707031 1017.59375 C 544.230469 1020.433594 544.796875 1022.929688 546.429688 1024.957031 C 551.308594 1030.984375 556.472656 1036.757812 561.410156 1042.730469 C 562.984375 1044.644531 564.488281 1046.785156 563.027344 1049.707031 C 562.660156 1050.105469 561.851562 1051.324219 561.609375 1051.210938 C 550.757812 1046.957031 547.082031 1034.191406 535.179688 1029.453125 C 530.925781 1042.21875 543.832031 1046.773438 547.039062 1055.863281 L 541.367188 1060.515625 C 540.984375 1069.496094 552.984375 1072.234375 552.644531 1082.234375 C 541.292969 1083.738281 538.941406 1070.289062 529.945312 1069.167969 C 524.074219 1079.664062 540.785156 1082.488281 536.300781 1092.617188 L 524.738281 1084.742188 C 521.222656 1092.773438 528.796875 1095.949219 530.414062 1101.539062 L 522.851562 1108.433594 C 529.816406 1119.777344 536.855469 1131.269531 543.832031 1142.660156 C 535.703125 1148.886719 535.066406 1140.730469 531.71875 1138.105469 C 527.308594 1137.792969 528.570312 1143.199219 524.625 1144.585938 L 505.304688 1125.183594 C 498.210938 1132.175781 506.621094 1136.53125 506.722656 1142.542969 L 499.203125 1148.8125 C 506.125 1158.558594 513.007812 1168.386719 520.015625 1178.132812 C 522.101562 1180.96875 523.730469 1183.808594 522.851562 1187.566406 Z M 523.035156 1187.195312 " fill-opacity="1" fill-rule="nonzero"/><path fill="#000000" d="M 1273.496094 1393.292969 C 1265.394531 1393.40625 1263.566406 1384.542969 1256.628906 1386.058594 C 1256.34375 1393.605469 1266.316406 1395.039062 1265.960938 1402.429688 C 1264.445312 1402.8125 1262.375 1404.015625 1261.480469 1403.4375 C 1254.585938 1398.925781 1249.152344 1392.089844 1239.617188 1388.316406 C 1239.816406 1399.492188 1251.960938 1401.578125 1251.945312 1410.683594 C 1247.363281 1414.257812 1244.300781 1409.71875 1240.964844 1408.144531 C 1237.109375 1406.316406 1233.71875 1403.535156 1229.789062 1400.96875 C 1228.738281 1403.550781 1228.269531 1406.171875 1226.792969 1407.976562 C 1223.828125 1411.621094 1216.421875 1410.046875 1215.984375 1416.9375 C 1206.75 1421.195312 1197.542969 1425.578125 1188.222656 1429.589844 C 1187.199219 1430.03125 1184.84375 1428.8125 1183.964844 1427.691406 C 1183.085938 1426.570312 1182.546875 1423.988281 1183.171875 1423.238281 C 1192.242188 1412.9375 1201.457031 1402.769531 1210.820312 1392.726562 C 1233.261719 1368.828125 1255.082031 1344.402344 1273.242188 1317.039062 C 1284.136719 1300.65625 1298.277344 1288.996094 1316.804688 1282.332031 C 1325.6875 1279.125 1334.113281 1274.65625 1343.039062 1271.59375 C 1351.128906 1268.652344 1359.429688 1266.515625 1367.933594 1265.179688 C 1385.835938 1262.699219 1403.640625 1260.003906 1420.933594 1254.542969 C 1421.273438 1254.414062 1421.625 1254.3125 1421.980469 1254.246094 C 1422.339844 1254.175781 1422.703125 1254.140625 1423.066406 1254.140625 C 1423.429688 1254.136719 1423.792969 1254.167969 1424.152344 1254.230469 C 1424.507812 1254.292969 1424.859375 1254.386719 1425.203125 1254.511719 C 1425.542969 1254.640625 1425.871094 1254.796875 1426.183594 1254.980469 C 1426.5 1255.167969 1426.792969 1255.378906 1427.070312 1255.617188 C 1427.34375 1255.855469 1427.59375 1256.117188 1427.824219 1256.402344 C 1428.050781 1256.6875 1428.253906 1256.988281 1428.425781 1257.308594 C 1429.703125 1264.488281 1421.332031 1267.238281 1418.835938 1273.140625 C 1419.429688 1280.230469 1429.246094 1285.792969 1422.210938 1294.117188 C 1414.027344 1291.28125 1413.300781 1281.351562 1406.054688 1277.835938 C 1404.632812 1277.179688 1402.589844 1276.683594 1401.457031 1277.296875 C 1400.863281 1277.804688 1400.417969 1278.425781 1400.121094 1279.148438 C 1399.824219 1279.875 1399.707031 1280.628906 1399.769531 1281.410156 C 1400.25 1285.335938 1405.03125 1288.570312 1401.585938 1293.238281 C 1392.945312 1292.839844 1391.867188 1278.898438 1380.164062 1282.160156 C 1389.597656 1300.386719 1411.914062 1307.691406 1417.769531 1327.945312 C 1417.898438 1328.386719 1416.722656 1329.210938 1415.996094 1330.019531 C 1405.230469 1320.246094 1395.695312 1308.984375 1383.171875 1301.792969 C 1375.011719 1305.238281 1386.007812 1311.210938 1380.558594 1314.65625 C 1377.199219 1315.265625 1381.410156 1317.097656 1378.671875 1314.996094 C 1368.460938 1307.140625 1362.445312 1294.828125 1350.769531 1288.402344 C 1346.003906 1290.882812 1348.839844 1293.550781 1350.457031 1296.160156 C 1353.578125 1301.222656 1359.890625 1303.960938 1361.109375 1310.34375 C 1361.339844 1311.523438 1359.691406 1313.066406 1359.011719 1314.445312 C 1350.710938 1310.542969 1347.664062 1299.820312 1337.304688 1297.949219 C 1335.988281 1305.28125 1342.597656 1308.003906 1345.71875 1312.542969 C 1348.554688 1316.601562 1351.832031 1320.316406 1357.195312 1327.023438 C 1339.648438 1321.792969 1333.914062 1305.75 1319.472656 1300.871094 C 1315.5 1310.359375 1327.433594 1313.011719 1326.566406 1320.289062 C 1320.496094 1322.160156 1318.453125 1314.742188 1311.957031 1314.484375 C 1311.148438 1321.578125 1310.335938 1328.769531 1309.542969 1335.761719 C 1301.613281 1337.464844 1300.039062 1328.429688 1293.9375 1328.019531 C 1291.769531 1329.023438 1291.46875 1330.246094 1292.789062 1331.875 C 1296.007812 1335.890625 1299.160156 1339.960938 1302.167969 1343.777344 C 1302.421875 1349.179688 1294.363281 1347.464844 1295.160156 1352.726562 C 1295.667969 1356.003906 1298.09375 1359.820312 1297.074219 1362.34375 C 1295.03125 1367.363281 1297.613281 1376.402344 1287.144531 1374.246094 C 1289.980469 1384.65625 1300.890625 1387.902344 1302.632812 1397.847656 C 1294.972656 1398.570312 1291.851562 1392.65625 1287.457031 1389.167969 C 1282.75 1385.402344 1278.285156 1381.367188 1274.0625 1377.066406 C 1269.992188 1372.953125 1266.96875 1367.664062 1260.828125 1366.101562 C 1260.261719 1366.839844 1259.265625 1367.519531 1259.308594 1368.1875 C 1259.734375 1378.285156 1272.359375 1381.238281 1273.355469 1393.28125 Z M 1273.496094 1393.292969 " fill-opacity="1" fill-rule="nonzero"/><path fill="#000000" d="M 1550.554688 468.449219 C 1556.882812 470.648438 1559.367188 476.535156 1562.316406 481.597656 C 1597.78125 542.675781 1639.320312 599.867188 1676.046875 660.109375 C 1698.363281 696.703125 1730.140625 721.824219 1766.839844 742.078125 C 1778.871094 748.71875 1790.390625 756.261719 1801.953125 763.753906 C 1809.199219 768.476562 1815.773438 773.996094 1821.683594 780.316406 C 1827.589844 786.632812 1832.65625 793.566406 1836.878906 801.113281 C 1842.316406 810.457031 1846.847656 820.222656 1850.46875 830.40625 C 1854.09375 840.589844 1856.753906 851.019531 1858.441406 861.695312 C 1863.835938 895.703125 1871.648438 929.144531 1881.878906 962.019531 C 1891.808594 994.234375 1908.082031 1023.851562 1926.847656 1051.722656 C 1938.835938 1069.507812 1953.09375 1085.765625 1966.570312 1102.558594 C 1980.628906 1120.0625 1992.105469 1139.308594 2002.804688 1158.828125 C 2015.570312 1182.175781 2026.324219 1206.671875 2037.941406 1230.644531 C 2032.539062 1234.359375 2030.765625 1234.332031 2028.566406 1230.261719 C 2018.324219 1211.351562 2007.78125 1192.570312 1998.035156 1173.410156 C 1987.039062 1151.890625 1973.988281 1131.703125 1958.882812 1112.84375 C 1935.84375 1083.949219 1913.769531 1054.273438 1895.683594 1021.792969 C 1877.863281 989.820312 1867.59375 955.339844 1859.707031 920.007812 C 1854.03125 894.871094 1849.460938 869.511719 1844.371094 844.261719 C 1838.695312 816.007812 1823.925781 793.679688 1800.988281 776.25 C 1785.824219 764.703125 1768.855469 756.304688 1752.753906 746.460938 C 1738.808594 737.953125 1725.117188 729.339844 1712.351562 718.886719 C 1699.058594 707.746094 1687.664062 694.917969 1678.164062 680.40625 C 1655.5625 646.886719 1633.132812 613.230469 1611.484375 579.074219 C 1590.789062 546.363281 1571.183594 512.945312 1551.082031 479.855469 C 1548.953125 476.136719 1546.542969 472.464844 1550.65625 468.449219 Z M 1550.554688 468.449219 " fill-opacity="1" fill-rule="nonzero"/><path fill="#000000" d="M 868.289062 646.535156 C 863.933594 644.503906 863.507812 641.1875 865 638.09375 C 868.628906 630.3125 872.664062 622.75 877.101562 615.398438 C 882.648438 606.535156 885.925781 596.816406 889.214844 587.03125 C 902.125 548.832031 915.089844 510.648438 931.492188 473.769531 C 936.328125 462.875 939.335938 451.074219 947.09375 441.5 C 951.4375 436.136719 955.480469 430.820312 961.28125 426.734375 C 986.421875 408.804688 1011.386719 390.648438 1036.46875 372.636719 C 1037.949219 371.867188 1039.5 371.292969 1041.121094 370.917969 C 1044.625 372.761719 1042.542969 375.074219 1041.519531 377.089844 C 1039.300781 381.289062 1036.664062 385.214844 1033.617188 388.859375 C 1030.570312 392.503906 1027.175781 395.789062 1023.433594 398.71875 C 1011.445312 408.351562 999.613281 418.578125 986.308594 426.082031 C 962.347656 439.558594 947.125 459.769531 939.238281 484.960938 C 933.050781 504.734375 924.328125 523.328125 916.863281 542.476562 C 905.046875 572.789062 893.910156 603.46875 878.148438 632.121094 C 875.339844 637.273438 873.539062 643.257812 868.289062 646.535156 Z M 868.289062 646.535156 " fill-opacity="1" fill-rule="nonzero"/><path fill="#000000" d="M 2031.472656 1179.535156 C 2029.699219 1177.664062 2027.316406 1176.117188 2026.265625 1173.863281 C 2008.238281 1136.542969 1984.007812 1102.941406 1963.25 1067.183594 C 1944.667969 1035.210938 1925.628906 1003.496094 1907.257812 971.398438 C 1903.625 965.054688 1898.574219 958.871094 1898.574219 950.84375 C 1900.648438 950.332031 1902.691406 949.167969 1903.484375 949.738281 C 1905.625 951.246094 1907.347656 953.136719 1908.648438 955.410156 C 1925.914062 987.140625 1948.128906 1015.808594 1963.976562 1048.601562 C 1974.34375 1070.148438 1989.511719 1089.394531 2002.40625 1109.722656 C 2015.8125 1130.828125 2025.542969 1153.691406 2033.332031 1177.339844 C 2033.332031 1177.804688 2032.195312 1178.65625 2031.488281 1179.535156 Z M 2031.472656 1179.535156 " fill-opacity="1" fill-rule="nonzero"/><path fill="#000000" d="M 1030.652344 1026.546875 C 1033.078125 1023.226562 1035.390625 1021.75 1037.875 1022.941406 C 1041.027344 1024.34375 1043.804688 1026.277344 1046.214844 1028.742188 C 1066.21875 1051.113281 1086.589844 1073.113281 1103.359375 1098.246094 C 1116.125 1117.507812 1131.148438 1135.351562 1145.125 1153.847656 C 1148.230469 1157.960938 1152.132812 1161.765625 1154.074219 1166.386719 C 1156.757812 1172.714844 1166.65625 1176.800781 1160.800781 1186.019531 C 1151.863281 1185.722656 1151.378906 1177.351562 1147.449219 1172.1875 C 1136.511719 1157.847656 1125.21875 1143.820312 1114.394531 1129.367188 C 1103.570312 1114.914062 1092.945312 1100.445312 1082.660156 1085.679688 C 1072.730469 1071.496094 1060.273438 1059.707031 1048.683594 1047.097656 C 1042.398438 1040.289062 1035.347656 1034.121094 1030.652344 1026.546875 Z M 1030.652344 1026.546875 " fill-opacity="1" fill-rule="nonzero"/><path fill="#000000" d="M 1623.898438 387.332031 C 1616.109375 378.097656 1608.292969 369.542969 1602.621094 359.21875 C 1595.527344 346.449219 1588.53125 333.542969 1580.445312 321.402344 C 1562.375 294.238281 1543.5625 267.5 1525.121094 240.550781 C 1522.105469 236.386719 1519.414062 232.023438 1517.046875 227.460938 C 1515.996094 225.316406 1517.203125 222.652344 1519.65625 221.203125 C 1538.414062 234.976562 1595.300781 323.515625 1620.382812 369.699219 C 1623.21875 374.761719 1627.332031 379.871094 1623.929688 387.332031 Z M 1623.898438 387.332031 " fill-opacity="1" fill-rule="nonzero"/><path fill="#000000" d="M 1459.90625 984.828125 C 1462.996094 979.933594 1466.1875 979.75 1468.785156 982.855469 C 1474.84375 990.105469 1480.816406 997.453125 1486.25 1005.167969 C 1509.527344 1038.304688 1532.15625 1071.835938 1550.8125 1107.90625 C 1553.964844 1114.058594 1556.660156 1120.402344 1558.898438 1126.941406 C 1559.480469 1128.613281 1557.480469 1131.195312 1555.933594 1135.550781 C 1526.28125 1081.933594 1493.085938 1033.011719 1459.890625 984.828125 Z M 1459.90625 984.828125 " fill-opacity="1" fill-rule="nonzero"/><path fill="#000000" d="M 1638.226562 674.066406 C 1628.410156 659.625 1618.070312 645.910156 1609.371094 631.230469 C 1596.207031 609.03125 1583.042969 586.875 1567.722656 566.066406 C 1566.613281 564.734375 1565.925781 563.210938 1565.664062 561.5 C 1565.640625 560.683594 1565.796875 559.902344 1566.128906 559.15625 C 1566.464844 558.410156 1566.941406 557.773438 1567.566406 557.242188 C 1568.296875 556.925781 1569.058594 556.800781 1569.851562 556.871094 C 1570.644531 556.941406 1571.371094 557.199219 1572.035156 557.640625 C 1585.410156 573.328125 1598.621094 589.1875 1608.519531 607.414062 C 1618.421875 625.640625 1631.617188 641.65625 1639.066406 661.117188 C 1640.625 665.042969 1643.035156 668.902344 1638.355469 674.066406 Z M 1638.226562 674.066406 " fill-opacity="1" fill-rule="nonzero"/><path fill="#000000" d="M 522.824219 1187.394531 C 526.796875 1186.914062 529.234375 1189.464844 531.207031 1192.160156 C 536.753906 1199.707031 542.019531 1207.464844 547.394531 1215.152344 C 545.648438 1216.289062 543.648438 1218.132812 543.136719 1217.792969 C 535.917969 1212.796875 526.257812 1197.835938 523.007812 1187.195312 Z M 522.824219 1187.394531 " fill-opacity="1" fill-rule="nonzero"/><path fill="#000000" d="M 775.539062 557.996094 C 772.886719 553.742188 770.84375 549.484375 771.867188 544.25 C 787.570312 559.101562 787.570312 559.101562 790.464844 568.363281 C 789.472656 569.78125 788.050781 569.882812 786.433594 568.363281 C 782.761719 564.933594 779.171875 561.441406 775.539062 557.996094 Z M 775.539062 557.996094 " fill-opacity="1" fill-rule="nonzero"/><path fill="#000000" d="M 1428.835938 74.367188 C 1430.425781 74.765625 1432.597656 74.636719 1433.488281 75.628906 C 1439.078125 81.984375 1444.386719 88.582031 1451.933594 97.742188 C 1436.058594 88.550781 1435.746094 88.210938 1429.332031 73.859375 Z M 1428.835938 74.367188 " fill-opacity="1" fill-rule="nonzero"/><path fill="#000000" d="M 1869.324219 1301.136719 C 1877.054688 1301.222656 1881 1306.289062 1884.007812 1312.484375 C 1884.191406 1312.867188 1883.4375 1313.90625 1882.941406 1314.371094 C 1882.445312 1314.839844 1881.523438 1315.5625 1881.125 1315.378906 C 1875.238281 1312.328125 1869.066406 1309.449219 1869.183594 1301.292969 Z M 1869.324219 1301.136719 " fill-opacity="1" fill-rule="nonzero"/></svg>