<svg xmlns="http://www.w3.org/2000/svg" xmlns:xlink="http://www.w3.org/1999/xlink" width="500" zoomAndPan="magnify" viewBox="0 0 375 374.999991" height="500" preserveAspectRatio="xMidYMid meet" version="1.0"><defs><clipPath id="6d0e424dd6"><path d="M 2.402344 70 L 372.902344 70 L 372.902344 305 L 2.402344 305 Z M 2.402344 70 " clip-rule="nonzero"/></clipPath></defs><g clip-path="url(#6d0e424dd6)"><path fill="#ffffff" d="M 93.117188 207.785156 C 92.960938 208.386719 92.550781 208.652344 92.019531 208.335938 C 91.386719 207.960938 90.832031 207.425781 90.210938 207.019531 C 90.117188 206.960938 89.8125 207.230469 89.542969 207.382812 L 91.0625 209.582031 L 90.402344 210.453125 C 91.398438 212.632812 93.433594 214.15625 94.277344 216.445312 C 94.304688 216.515625 94.195312 216.640625 94.148438 216.738281 C 94.046875 216.796875 93.886719 216.925781 93.851562 216.898438 C 91.847656 215.304688 90.859375 212.847656 89.042969 211.113281 C 88.34375 211.488281 88.679688 211.957031 88.761719 212.390625 C 88.941406 213.351562 90.164062 213.910156 89.816406 215.128906 C 88.761719 215.339844 88.714844 214.3125 88.238281 213.878906 C 87.683594 213.371094 87.371094 212.613281 86.578125 212.332031 C 85.890625 212.519531 85.335938 212.917969 85.8125 213.65625 C 86.492188 214.707031 87.335938 215.648438 88.097656 216.621094 C 87.84375 217.058594 86.957031 216.910156 87.101562 217.570312 C 87.375 218.8125 86.777344 218.429688 86.199219 218.117188 C 85.914062 217.960938 85.675781 217.929688 85.566406 218.179688 C 85.488281 218.390625 85.429688 218.710938 85.535156 218.851562 C 86.589844 220.269531 87.738281 221.632812 88.46875 223.175781 C 88.003906 224.03125 87.628906 223.617188 87.273438 223.289062 C 86.917969 222.960938 86.710938 222.421875 86.09375 222.46875 C 85.496094 220.660156 85.496094 220.660156 83.363281 219.003906 C 83.996094 220.980469 83.996094 220.980469 86.164062 222.402344 L 85.011719 224.28125 C 84.363281 224.613281 83.960938 224.28125 83.582031 223.949219 C 82.742188 223.191406 81.917969 222.394531 81.054688 221.652344 C 80.980469 221.589844 80.632812 221.835938 80.382812 221.957031 C 82.425781 225.300781 85.109375 228.210938 86.871094 231.722656 C 86.6875 232.144531 86.398438 232.242188 86.046875 231.949219 C 84.738281 230.859375 84.0625 229.292969 83.097656 227.949219 C 82.058594 226.503906 81.03125 225.078125 79.515625 223.964844 C 79.230469 225.859375 79.230469 225.859375 82.714844 229.707031 C 82.324219 230.304688 81.898438 230.089844 81.507812 229.734375 C 80.613281 228.929688 79.734375 228.105469 78.800781 227.238281 C 78.339844 228.359375 79.21875 228.777344 79.550781 229.394531 C 80.117188 230.449219 79.761719 230.671875 78.738281 230.4375 C 78.628906 231.402344 77.863281 231.347656 77.070312 231.445312 C 78.035156 233.554688 79.90625 235.027344 80.859375 236.9375 C 80.476562 237.589844 80.097656 237.5 79.851562 237.207031 C 78.375 235.441406 76.914062 233.664062 75.46875 231.867188 C 75.234375 231.578125 75.109375 231.203125 74.859375 230.714844 C 74.207031 231.980469 74.207031 231.980469 76.882812 235.746094 C 76.671875 236.140625 76.335938 236.253906 76.015625 235.957031 C 75.082031 235.113281 74.191406 234.214844 73.191406 233.253906 C 73.25 234.554688 73.25 234.554688 75.855469 237.363281 C 75.566406 237.75 75.222656 237.683594 74.902344 237.4375 C 74.140625 236.863281 73.640625 235.914062 72.636719 235.703125 C 72.078125 236.394531 72.570312 236.757812 72.859375 237.125 C 73.339844 237.714844 73.886719 238.25 74.40625 238.808594 C 73.871094 239.773438 74.523438 240.4375 74.984375 241.15625 C 75.019531 241.203125 74.929688 241.367188 74.863281 241.425781 C 74.792969 241.484375 74.617188 241.597656 74.542969 241.566406 C 74.195312 241.433594 73.875 241.261719 73.574219 241.042969 C 72.3125 239.988281 71.046875 238.890625 69.898438 237.894531 C 68.761719 238.121094 69.6875 240.097656 67.539062 239.128906 L 68.9375 241.207031 C 68.757812 241.324219 68.515625 241.574219 68.410156 241.527344 C 67.746094 241.179688 67.113281 240.769531 66.441406 240.363281 C 64.769531 241.585938 62.972656 242.441406 60.890625 242.761719 C 59.78125 242.933594 58.753906 243.582031 57.664062 243.953125 C 57.125 244.136719 56.699219 243.847656 56.417969 243.371094 C 56.285156 242.902344 56.582031 242.59375 56.910156 242.449219 C 58.078125 241.929688 59.242188 241.355469 60.46875 241.035156 C 62.273438 240.5625 63.734375 239.558594 65.046875 238.332031 C 66.625 236.84375 68.203125 235.359375 69.523438 233.601562 C 71.972656 230.320312 74.4375 227.070312 76.5 223.5 C 78.605469 219.855469 80.914062 216.320312 82.734375 212.546875 C 82.535156 211.628906 81.863281 211.421875 81.101562 211.335938 C 80.570312 211.941406 81.703125 212.445312 81.191406 213.046875 C 80.980469 213.140625 80.679688 213.386719 80.546875 213.316406 C 79.332031 212.683594 78.09375 212.894531 76.878906 213.191406 C 75.910156 213.4375 74.984375 213.839844 74.316406 214.070312 C 72.863281 214.070312 72.410156 212.808594 71.445312 212.613281 C 70.972656 212.894531 70.890625 213.222656 71.183594 213.558594 C 71.929688 214.421875 73.058594 214.917969 73.589844 216.023438 C 73.4375 216.796875 72.957031 217.195312 72.289062 216.65625 C 71.394531 215.949219 70.636719 215.078125 69.886719 214.339844 C 68.699219 214.382812 67.574219 214.675781 66.515625 215.21875 C 65.65625 215.039062 65.15625 214.0625 64.28125 214.097656 C 64.070312 214.273438 63.886719 214.367188 63.894531 214.441406 C 63.984375 215.425781 64.964844 215.835938 65.328125 216.636719 C 65.402344 216.808594 65.257812 217.097656 65.171875 217.316406 C 65.132812 217.417969 64.960938 217.566406 64.894531 217.546875 C 64.527344 217.445312 64.179688 217.25 63.8125 217.175781 C 63.066406 217.035156 62.300781 216.878906 61.683594 217.539062 C 61.707031 218.78125 62.738281 219.164062 63.542969 219.765625 C 63.859375 220 63.964844 220.367188 63.578125 220.71875 C 63.441406 220.859375 63.273438 220.933594 63.078125 220.9375 C 62.882812 220.941406 62.710938 220.878906 62.566406 220.742188 C 62.269531 220.503906 61.988281 220.246094 61.726562 219.96875 C 60.804688 219.085938 59.902344 218.179688 58.953125 217.328125 C 58.886719 217.253906 58.804688 217.195312 58.707031 217.15625 C 58.613281 217.117188 58.515625 217.101562 58.410156 217.109375 C 58.308594 217.113281 58.210938 217.144531 58.125 217.195312 C 58.035156 217.246094 57.960938 217.3125 57.902344 217.398438 C 57.984375 218.492188 59.320312 218.753906 59.566406 219.773438 C 59.511719 220.703125 58.5 220.765625 58.066406 221.367188 C 57.613281 222.195312 59.136719 222.941406 58.160156 223.792969 C 57.441406 223.855469 57.109375 223.214844 56.582031 222.917969 C 56.324219 223.082031 56.238281 223.339844 56.453125 223.566406 C 57.257812 224.386719 58.140625 225.140625 58.886719 225.996094 C 59.140625 226.28125 58.859375 226.691406 58.417969 226.941406 C 57.289062 226.820312 56.734375 225.65625 55.8125 225.117188 C 55.144531 225.773438 56.414062 226.253906 55.839844 226.867188 C 54.890625 227.667969 54.390625 226.003906 53.480469 226.40625 C 53.199219 227.125 53.550781 228.035156 52.695312 228.640625 C 52.078125 229.074219 52.625 230.183594 51.820312 230.640625 C 51.082031 230.632812 50.738281 230.058594 50.316406 229.589844 C 49.894531 229.117188 49.507812 228.703125 48.5 228.574219 C 49.34375 230.679688 50.679688 231.984375 51.96875 233.226562 C 51.910156 233.5625 51.9375 233.84375 51.816406 234.011719 C 51.695312 234.179688 51.40625 234.285156 51.195312 234.417969 C 47.898438 230.46875 47.898438 230.46875 46.726562 230.414062 C 46.484375 231.34375 48.429688 231.824219 47.246094 232.941406 C 46.390625 232.730469 45.984375 231.222656 44.71875 231.949219 C 44.886719 233.300781 46.191406 233.824219 46.472656 234.972656 C 44.925781 236.6875 44.925781 236.6875 42.085938 234.886719 C 41.78125 235.71875 42.628906 235.855469 42.894531 236.289062 C 43.222656 236.828125 43.105469 237.21875 42.574219 237.671875 L 40.558594 236.019531 C 40.097656 236.230469 40.175781 236.609375 40.410156 236.878906 C 41.242188 237.839844 42.15625 238.734375 42.953125 239.722656 C 43.160156 239.972656 42.917969 240.410156 42.347656 240.628906 C 41.941406 240.277344 41.464844 239.867188 40.996094 239.457031 C 40.625 239.132812 40.289062 238.730469 39.710938 238.859375 C 39.582031 239.910156 39.582031 239.910156 40.554688 241.460938 C 40.566406 242.261719 39.527344 242.167969 39.402344 242.722656 C 39.871094 245.195312 42.648438 246.070312 43.050781 248.488281 C 43.066406 248.582031 42.9375 248.699219 42.800781 248.9375 C 41.078125 248.460938 40.484375 246.832031 39.484375 245.632812 C 38.429688 244.371094 37.707031 242.808594 36.160156 241.761719 C 35.082031 242.085938 34.429688 243.109375 33.46875 243.660156 C 32.25 243.5 31.800781 242.101562 30.730469 241.839844 C 30.253906 242.078125 29.996094 242.40625 30.199219 242.769531 C 30.773438 243.804688 31.839844 244.339844 32.683594 245.105469 C 33.28125 245.648438 32.925781 246.242188 32.261719 246.613281 C 31.269531 246.726562 30.996094 245.351562 29.96875 245.527344 C 29.957031 244.707031 29.4375 244.167969 28.890625 243.667969 C 28.597656 243.394531 28.167969 243.285156 27.984375 243.730469 C 27.863281 244.074219 27.894531 244.40625 28.078125 244.71875 C 28.296875 245.03125 28.589844 245.257812 28.949219 245.390625 C 29.308594 245.523438 29.675781 245.542969 30.046875 245.445312 C 29.835938 247.082031 28.40625 247.589844 27.226562 248.441406 C 26.621094 247.8125 26.019531 247.160156 25.398438 246.53125 C 25.144531 246.273438 24.347656 246.367188 24.378906 246.621094 C 24.414062 246.878906 24.410156 247.136719 24.546875 247.277344 C 25.25 248 25.992188 248.679688 26.671875 249.332031 C 26.144531 251.605469 26.144531 251.605469 27.429688 253.125 C 27.609375 253.300781 27.777344 253.492188 27.925781 253.699219 C 28.035156 253.941406 28.113281 254.191406 28.164062 254.449219 L 27.320312 255.183594 C 26.71875 254.445312 26.171875 253.738281 25.578125 253.074219 C 25.332031 252.800781 24.925781 252.367188 24.695312 252.425781 C 23.011719 252.84375 21.957031 251.699219 20.941406 250.429688 C 20.238281 251.78125 21.074219 252 21.390625 252.441406 C 21.617188 252.746094 21.910156 253 22.15625 253.285156 C 22.398438 253.566406 22.304688 254.285156 22.035156 254.300781 C 21.8125 254.339844 21.59375 254.320312 21.378906 254.25 C 20.589844 253.851562 20.234375 252.847656 19.253906 252.703125 C 18.894531 252.808594 18.832031 252.992188 19.09375 253.25 L 24.386719 258.65625 C 24.421875 259.375 24.097656 259.691406 23.542969 259.832031 C 21.917969 259.082031 21.675781 256.765625 19.707031 256.414062 C 19.121094 256.835938 20.152344 257.722656 18.792969 258.097656 C 17.878906 258.15625 17.5625 256.53125 16.398438 256.433594 C 15.980469 256.578125 15.644531 256.960938 15.824219 257.277344 C 16.058594 257.683594 16.578125 257.90625 16.953125 258.25 C 17.484375 258.730469 17.792969 259.492188 17.164062 259.875 C 16.03125 260.5625 17.539062 261.792969 16.617188 262.191406 C 15.773438 262.550781 15.058594 262.976562 14.554688 263.703125 C 13.9375 264.585938 13.46875 265.582031 12.414062 266.191406 L 14.226562 268.78125 C 14.144531 269.011719 14.027344 269.21875 13.878906 269.414062 C 13.359375 269.910156 12.933594 269.507812 12.617188 269.140625 C 11.910156 268.265625 11.5 267.132812 10.476562 266.507812 C 9.535156 266.859375 10.503906 267.984375 9.503906 268.457031 L 8.089844 267.476562 C 7.542969 268.019531 8.066406 268.386719 8.300781 268.789062 C 8.511719 269.15625 8.5625 269.523438 8.199219 269.785156 C 7.996094 269.914062 7.777344 269.9375 7.550781 269.851562 C 5.96875 268.835938 4.675781 269.0625 3.597656 270.625 C 3.410156 270.898438 3.042969 271.046875 2.738281 271.257812 C 2.65625 270.957031 2.460938 270.65625 2.542969 270.503906 C 2.847656 269.9375 3.203125 269.40625 3.617188 268.914062 C 7.199219 264.730469 10.019531 259.972656 13.714844 255.878906 C 14.851562 254.65625 15.847656 253.328125 16.707031 251.898438 C 19.484375 247.128906 23.554688 243.683594 27.941406 240.523438 C 30.550781 238.679688 33.253906 236.980469 36.050781 235.433594 C 40.921875 232.691406 45.011719 229.070312 48.324219 224.570312 C 49.992188 222.308594 51.703125 220.082031 53.457031 217.882812 C 56.40625 214.191406 60.089844 211.566406 64.644531 210.136719 C 68.320312 209.011719 72.066406 208.25 75.890625 207.855469 C 78.554688 207.558594 81.21875 207.25 83.894531 206.992188 C 84.476562 206.960938 85.019531 206.792969 85.515625 206.492188 C 86.015625 206.1875 86.414062 205.78125 86.707031 205.277344 C 87.789062 203.546875 89.015625 201.894531 90.046875 200.132812 C 92.222656 196.425781 95.628906 194.234375 99.375 192.496094 C 100.550781 191.917969 101.792969 191.664062 103.101562 191.730469 C 104.246094 191.816406 105.402344 191.757812 106.554688 191.769531 C 110.171875 191.804688 113.632812 190.84375 117.128906 190.085938 C 118.0625 189.875 118.699219 189.269531 119.367188 188.671875 C 122.875 185.480469 126.070312 182.003906 128.949219 178.234375 C 131.378906 175.101562 133.859375 172.011719 136.371094 168.941406 C 138.152344 166.757812 139.730469 164.4375 141.109375 161.976562 C 143.117188 158.417969 145.453125 155.046875 147.53125 151.523438 C 152.078125 143.8125 156.589844 136.078125 160.167969 127.835938 C 161.285156 125.261719 162.699219 122.804688 164.078125 120.351562 C 165.410156 117.984375 167.296875 116.070312 169.34375 114.292969 C 171.265625 112.59375 173.332031 111.089844 175.539062 109.789062 C 178.851562 107.863281 182.136719 105.890625 185.394531 103.867188 C 186.476562 103.199219 187.414062 102.304688 188.429688 101.53125 C 190.5625 99.90625 192.703125 98.296875 194.832031 96.671875 C 197 95.058594 198.921875 93.1875 200.589844 91.0625 C 201.601562 89.75 202.753906 88.535156 203.886719 87.320312 C 205.917969 85.140625 208.234375 83.371094 211.046875 82.292969 C 211.996094 81.902344 212.914062 81.449219 213.800781 80.941406 C 216.492188 79.457031 219.328125 78.351562 222.3125 77.621094 C 226.636719 76.585938 230.949219 75.328125 235.007812 73.367188 C 238.375 71.730469 242.121094 71.320312 245.703125 70.417969 C 247.574219 69.941406 249.539062 70.375 251.390625 70.910156 C 252.910156 71.347656 254.113281 72.421875 255.027344 73.636719 C 258.261719 77.917969 261.734375 82.035156 264.417969 86.714844 C 266.835938 90.929688 269.019531 95.269531 271.644531 99.371094 C 273.082031 101.617188 274.113281 104.113281 275.546875 106.390625 C 281.21875 115.371094 286.308594 124.671875 290.820312 134.285156 C 292.714844 138.363281 295.277344 142.039062 297.242188 146.054688 C 298.363281 148.34375 299.632812 150.5625 300.761719 152.847656 C 301.6875 154.714844 303.082031 156.234375 304.4375 157.742188 C 306.835938 160.382812 309.253906 162.96875 312.332031 164.941406 C 316.964844 167.910156 321.4375 171.128906 325.390625 175.003906 C 325.566406 175.191406 325.753906 175.367188 325.949219 175.53125 C 332.460938 180.644531 336.640625 187.476562 340.1875 194.785156 C 340.804688 196.046875 341.476562 197.289062 342.132812 198.535156 C 343.8125 201.699219 345.265625 204.96875 346.488281 208.335938 C 348.949219 215.191406 351.597656 221.976562 354.167969 228.789062 C 354.460938 229.5 354.710938 230.226562 354.921875 230.964844 C 356.085938 235.570312 358.667969 239.320312 361.875 242.699219 C 362.226562 243.066406 362.65625 243.402344 362.878906 243.84375 C 364.457031 246.910156 365.996094 250.003906 367.53125 253.097656 C 367.632812 253.335938 367.65625 253.585938 367.597656 253.84375 C 367.546875 254.09375 367.417969 254.292969 367.214844 254.445312 C 366.984375 254.550781 366.757812 254.542969 366.53125 254.425781 C 365.761719 253.890625 365.503906 252.992188 365.089844 252.210938 C 363.59375 249.386719 362.082031 246.570312 360.101562 244.042969 C 359.394531 243.136719 358.648438 242.261719 357.929688 241.363281 C 355.921875 238.835938 354.351562 236.097656 353.597656 232.90625 C 353.425781 232.171875 353.039062 231.488281 352.773438 230.773438 C 352.015625 228.738281 351.183594 226.726562 350.53125 224.664062 C 348.847656 219.304688 346.738281 214.109375 344.664062 208.886719 C 343.109375 204.960938 341.359375 201.117188 339.464844 197.386719 C 336.921875 192.386719 334.085938 187.5 330.71875 182.976562 C 328.953125 180.605469 326.558594 178.835938 324.441406 176.792969 C 320.273438 172.769531 315.355469 169.753906 310.75 166.316406 C 307.269531 163.71875 303.761719 161.125 301.246094 157.480469 C 300.667969 156.636719 300.074219 155.796875 299.578125 154.910156 C 296.710938 149.78125 293.828125 144.660156 291.035156 139.488281 C 289.460938 136.5625 288.050781 133.554688 286.574219 130.578125 C 284.183594 125.769531 281.554688 121.097656 278.835938 116.464844 C 275.609375 110.957031 272.460938 105.402344 269.320312 99.839844 C 266.808594 95.386719 264.363281 90.894531 261.882812 86.417969 C 261.710938 86.070312 261.511719 85.734375 261.292969 85.414062 C 258.929688 82.234375 256.578125 79.042969 254.167969 75.898438 C 253.640625 75.207031 253.058594 74.480469 252.152344 74.210938 C 252.050781 74.289062 251.953125 74.371094 251.863281 74.457031 C 252.34375 75.183594 252.847656 75.902344 253.328125 76.59375 C 252.976562 77.078125 252.65625 77.015625 252.328125 76.703125 C 250.957031 75.402344 249.820312 73.835938 248.113281 72.910156 C 248.019531 73.058594 247.875 73.214844 247.902344 73.261719 C 248.417969 74.132812 248.957031 74.992188 249.625 76.078125 L 248.785156 76.640625 C 248.804688 76.871094 248.75 77.148438 248.859375 77.320312 C 249.335938 78.074219 249.851562 78.796875 250.367188 79.527344 C 250.6875 79.96875 250.777344 80.453125 250.628906 80.976562 L 250.707031 80.902344 C 249.597656 80.621094 249.21875 79.5625 248.585938 78.808594 C 247.949219 78.050781 247.457031 77.097656 246.507812 76.519531 L 245.664062 77.675781 C 244.269531 76.761719 243.933594 74.84375 242.34375 74.128906 C 242.261719 74.09375 242.132812 74.195312 241.960938 74.253906 C 241.679688 74.972656 242.351562 75.34375 242.640625 75.816406 C 243.089844 76.546875 242.917969 77.289062 242.894531 78.046875 C 242.875 78.570312 242.164062 78.832031 241.714844 78.550781 C 240.367188 77.707031 239.574219 76.390625 238.671875 75.160156 C 238.488281 75 238.277344 74.957031 238.042969 75.027344 C 237.878906 75.113281 237.6875 75.503906 237.753906 75.621094 C 238.3125 76.617188 238.921875 77.585938 239.53125 78.550781 C 239.929688 79.183594 240.644531 79.617188 240.621094 80.480469 C 239.449219 80.179688 239.300781 80.042969 237.929688 78.457031 C 237.1875 77.597656 236.710938 76.496094 235.667969 75.929688 C 235.214844 75.992188 234.761719 76.320312 234.929688 76.648438 C 235.507812 77.773438 236.230469 78.828125 236.898438 79.90625 C 237.152344 80.316406 237.613281 80.644531 237.351562 81.425781 C 235.488281 80.597656 235.015625 78.347656 233.25 77.40625 C 232.859375 78.691406 234.382812 79.152344 234.300781 80.132812 C 234.242188 80.976562 233.773438 81.777344 233.839844 82.695312 C 233.914062 83.683594 234.472656 84.363281 235.105469 84.984375 C 237.238281 87.058594 238.757812 89.589844 240.394531 92.03125 C 240.699219 92.488281 241.144531 93.046875 240.8125 93.703125 C 240.6875 93.757812 240.558594 93.792969 240.421875 93.804688 C 240.296875 93.789062 240.195312 93.734375 240.113281 93.640625 C 238.726562 91.804688 237.523438 89.789062 235.925781 88.164062 C 233.082031 85.230469 230.910156 81.71875 228.023438 78.8125 C 227.960938 78.75 227.777344 78.769531 227.660156 78.800781 C 227.496094 78.875 227.339844 78.96875 227.195312 79.078125 C 227.828125 81.3125 230.375 82.59375 230.691406 85.429688 C 228.488281 84.496094 228.199219 82.070312 226.421875 81.226562 C 225.777344 81.90625 226.871094 82.378906 226.457031 83.0625 L 225.078125 83.335938 C 224.765625 83.492188 224.855469 83.671875 224.910156 83.96875 C 225.203125 85.453125 226.097656 86.6875 226.855469 88.15625 C 225.621094 88.265625 225.445312 87.410156 225.019531 86.910156 C 224.519531 86.332031 224.089844 85.691406 223.601562 85.101562 C 223.113281 84.511719 222.597656 83.933594 222.066406 83.378906 C 221.53125 82.824219 221.109375 82.199219 220.324219 81.980469 C 219.5625 83.066406 220.691406 83.613281 220.933594 84.390625 C 221.175781 85.167969 222.34375 85.582031 221.988281 86.683594 C 221.339844 86.847656 221.226562 86.226562 220.886719 85.957031 C 220.386719 85.5625 219.945312 85.085938 219.410156 84.75 C 219.027344 84.507812 218.660156 84.035156 217.9375 84.375 L 218.988281 86.445312 C 218.695312 86.761719 218.519531 86.703125 218.277344 86.464844 C 217.453125 85.664062 216.628906 84.863281 215.765625 84.105469 C 215.667969 84.019531 215.34375 84.199219 214.898438 84.316406 C 216.375 86.421875 217.8125 88.476562 219.261719 90.523438 C 219.550781 90.945312 219.953125 91.292969 219.894531 91.859375 C 219.855469 91.988281 219.777344 92.082031 219.664062 92.148438 C 219.589844 92.199219 219.402344 92.222656 219.367188 92.179688 C 218.589844 91.183594 217.835938 90.171875 217.050781 89.175781 C 216.574219 88.5625 215.707031 88.5 215.34375 88.867188 C 214.601562 89.617188 213.726562 89.660156 212.835938 89.945312 C 211.542969 90.351562 211.238281 88.792969 210.199219 88.925781 C 210.113281 89.019531 209.988281 89.101562 209.949219 89.210938 C 209.910156 89.335938 209.917969 89.460938 209.976562 89.582031 C 211.21875 91.652344 212.46875 93.714844 213.679688 95.726562 C 213.386719 96.375 213.03125 96.125 212.8125 95.859375 C 212.082031 94.972656 211.367188 94.066406 210.707031 93.121094 C 209.984375 92.050781 209.105469 91.128906 208.074219 90.351562 C 207.535156 90.824219 207.890625 91.242188 208.164062 91.640625 C 208.742188 92.480469 209.347656 93.296875 209.933594 94.117188 C 208.925781 95.3125 208.785156 93.5625 207.585938 94.238281 L 207.105469 94.78125 C 206.003906 93.761719 204.910156 92.738281 203.523438 91.449219 C 203.988281 92.90625 204.023438 92.960938 205.121094 94.078125 C 205.839844 94.808594 206.617188 95.488281 207.257812 96.28125 C 207.882812 97.09375 208.449219 97.941406 208.957031 98.832031 C 209.460938 99.65625 210.34375 100.40625 209.546875 101.730469 C 207.726562 99.019531 206.320312 96.074219 203.488281 94.328125 C 202.730469 94.75 202.941406 95.414062 203.246094 95.902344 C 203.789062 96.761719 204.511719 97.511719 205.097656 98.347656 C 205.898438 99.496094 206.648438 100.679688 207.414062 101.832031 L 206.199219 103.554688 C 206.859375 106.273438 208.347656 108.679688 209.601562 111.164062 C 212.3125 116.527344 215.171875 121.816406 217.34375 127.4375 C 217.988281 129.105469 218.796875 130.710938 219.578125 132.320312 C 220.976562 135.207031 221.953125 138.246094 222.910156 141.292969 C 224.558594 146.539062 225.582031 151.941406 226.660156 157.324219 C 226.878906 158.589844 226.9375 159.867188 226.835938 161.148438 C 226.691406 163.867188 227.175781 166.5 227.710938 169.128906 C 228.449219 172.761719 230.503906 175.707031 232.878906 178.410156 C 234.394531 180.136719 236.117188 181.691406 237.828125 183.230469 C 239.25 184.511719 240.789062 185.65625 242.285156 186.859375 C 245.277344 189.261719 248.257812 191.683594 251.273438 194.054688 C 253.289062 195.636719 255.339844 197.148438 257.058594 199.082031 C 258.441406 200.636719 259.570312 202.265625 260.261719 204.25 C 261.019531 206.425781 261.777344 208.589844 262.425781 210.800781 C 263.753906 215.34375 265.304688 219.800781 267.902344 223.832031 C 269.496094 226.296875 270.734375 229 272.367188 231.4375 C 275.703125 236.433594 279.199219 241.324219 282.632812 246.257812 C 282.988281 246.769531 283.367188 247.269531 283.914062 248.019531 C 282.199219 247.976562 281.046875 247.601562 280.195312 246.355469 C 277.390625 242.234375 274.441406 238.203125 271.722656 234.023438 C 269.21875 230.175781 266.832031 226.230469 264.605469 222.214844 C 263.449219 220.070312 262.5625 217.816406 261.953125 215.460938 C 261.082031 212.253906 259.957031 209.117188 258.96875 205.941406 C 257.980469 202.769531 256.019531 200.296875 253.472656 198.246094 C 251.1875 196.398438 248.859375 194.601562 246.546875 192.769531 C 243.941406 190.714844 241.296875 188.699219 238.734375 186.589844 C 235.171875 183.65625 231.726562 180.585938 229.136719 176.714844 C 228.082031 175.144531 226.210938 174.742188 224.949219 173.492188 C 224.84375 173.390625 224.441406 173.4375 224.300781 173.558594 C 224.121094 173.742188 224.058594 173.957031 224.109375 174.207031 C 224.359375 174.65625 224.632812 175.085938 224.933594 175.5 C 225.144531 175.816406 225.355469 176.132812 225.058594 176.554688 C 224.265625 176.890625 224.101562 175.519531 223.285156 175.828125 C 223.167969 175.902344 223.105469 176.011719 223.09375 176.148438 C 223.082031 176.289062 223.128906 176.402344 223.230469 176.496094 C 224.3125 177.761719 225.453125 178.976562 226.472656 180.289062 C 226.988281 180.949219 227.738281 181.585938 227.460938 182.789062 C 226.421875 182.6875 226.242188 181.6875 225.6875 181.140625 C 225.070312 180.488281 224.417969 179.878906 223.722656 179.316406 C 223.015625 178.789062 222.207031 178.398438 221.402344 177.925781 C 221.445312 179.425781 221.445312 179.425781 223.53125 182.359375 C 223.355469 182.941406 223.046875 182.660156 222.753906 182.484375 C 221.820312 181.933594 221.386719 180.734375 220.242188 180.378906 C 219.820312 181.25 220.539062 181.632812 220.730469 182.183594 C 220.886719 182.632812 221.425781 182.945312 221.171875 183.566406 C 219.78125 183.25 219.289062 181.660156 217.832031 181.226562 C 216.992188 183.289062 220.136719 183.898438 219.519531 185.804688 C 217.996094 185.519531 217.609375 183.488281 215.699219 183.40625 C 216.65625 185.160156 218.292969 186.214844 219.152344 187.707031 C 218.90625 188.195312 218.730469 188.257812 218.519531 188.074219 C 217.222656 186.898438 215.449219 186.472656 213.921875 184.363281 C 214.34375 187.164062 216.296875 188.023438 216.730469 189.757812 C 215.890625 190.457031 214.539062 190.28125 213.867188 191.464844 C 215.550781 193.78125 217.253906 196.148438 218.949219 198.519531 C 218.988281 198.570312 218.871094 198.730469 218.773438 198.972656 C 217.058594 198.410156 216.574219 196.726562 215.582031 195.53125 C 214.527344 194.269531 213.4375 193.035156 212.195312 191.597656 C 212.0625 193.792969 212.554688 195.511719 213.695312 197.046875 C 212.878906 197.347656 212.132812 197.398438 211.902344 198.359375 L 209.667969 196.414062 C 209.226562 196.695312 209.203125 197.042969 209.40625 197.382812 C 209.828125 198.105469 210.6875 198.648438 210.097656 199.734375 C 209.957031 199.992188 210.449219 200.605469 210.667969 201.042969 C 211.101562 201.910156 212.019531 202.515625 212.128906 203.585938 C 211.179688 203.882812 211.023438 202.707031 210.285156 202.742188 C 209.839844 203.054688 210.160156 203.417969 210.195312 203.773438 C 210.21875 203.984375 210.246094 204.300781 210.125 204.425781 C 209.8125 204.746094 209.460938 204.636719 209.171875 204.324219 C 208.609375 203.707031 208.449219 202.671875 207.382812 202.574219 C 207.273438 202.675781 207.082031 202.804688 207.101562 202.84375 C 207.386719 203.550781 207.699219 204.242188 208.039062 205.011719 C 207.703125 205.253906 207.273438 205.460938 206.988281 205.796875 C 206.699219 206.132812 206.777344 206.707031 206.226562 206.992188 C 205.429688 207.414062 205.863281 208.9375 204.542969 208.96875 C 203.964844 209.8125 203.347656 210.617188 202.824219 211.488281 C 202.226562 212.480469 201.214844 212.574219 200.25 212.828125 C 199.707031 212.242188 199.925781 211.617188 200.265625 211.082031 C 202.003906 208.34375 202.792969 205.253906 203.804688 202.234375 C 204.664062 199.691406 205.621094 197.179688 206.542969 194.652344 C 206.753906 194.050781 207.121094 193.480469 207.226562 192.859375 C 207.828125 189.328125 210.027344 186.582031 211.773438 183.628906 C 212.40625 182.558594 213.484375 181.734375 214.40625 180.855469 C 215.148438 180.152344 215.949219 179.511719 216.738281 178.859375 C 221.398438 175.023438 223.269531 169.851562 223.820312 164.054688 C 223.855469 163.671875 223.859375 163.285156 223.929688 162.90625 C 224.964844 157.480469 223.796875 152.265625 222.589844 147.011719 C 221.382812 141.757812 219.292969 136.820312 217.113281 131.898438 C 215.253906 127.6875 213.671875 123.363281 211.550781 119.261719 C 210.847656 117.902344 210.183594 116.523438 209.496094 115.148438 C 207.542969 111.265625 205.554688 107.394531 203.648438 103.488281 C 203.019531 102.191406 202.214844 101.101562 201.035156 100.285156 C 200.269531 100.65625 200.660156 101.371094 200.507812 101.921875 C 200.351562 102.476562 199.945312 102.132812 199.578125 102.03125 C 199.042969 103.09375 200.167969 103.554688 200.472656 104.304688 C 200.808594 105.132812 201.234375 105.925781 201.628906 106.730469 C 201.96875 107.417969 202.316406 108.105469 202.664062 108.789062 C 203.066406 109.589844 203.488281 110.382812 203.867188 111.195312 C 204.21875 111.964844 204.949219 112.667969 204.289062 113.851562 C 203.386719 113.085938 202.886719 112.101562 202.308594 111.21875 C 201.675781 110.257812 201.222656 109.1875 200.691406 108.164062 C 200.222656 107.257812 199.773438 106.339844 199.296875 105.4375 C 198.753906 104.425781 198.265625 103.367188 197.609375 102.425781 C 197.003906 101.546875 196.871094 100.257812 195.664062 99.847656 C 195.1875 100.390625 195.332031 100.878906 195.554688 101.351562 C 195.933594 102.164062 196.34375 102.964844 196.714844 103.78125 C 196.972656 104.351562 196.714844 104.765625 196.203125 105.019531 C 195.632812 105.304688 195.207031 104.953125 194.941406 104.523438 C 194.671875 104.097656 194.589844 103.550781 194.308594 103.140625 C 194.058594 102.855469 193.75 102.664062 193.382812 102.570312 C 193.125 102.484375 192.929688 103.378906 193.003906 103.894531 C 193.109375 104.613281 193.988281 105.128906 193.527344 106.027344 C 192.316406 106.074219 192.394531 104.414062 191.242188 104.34375 C 191.125 104.441406 190.871094 104.550781 190.808594 104.726562 C 190.667969 105.113281 190.648438 105.0625 189.476562 106.179688 C 189.035156 106.601562 188.746094 107.175781 188.039062 107.441406 C 188.878906 109.011719 189.988281 110.390625 190.484375 112.101562 C 189.644531 112.777344 189.199219 111.597656 188.46875 111.664062 C 187.539062 111.746094 187.21875 110.929688 186.746094 110.355469 C 186.269531 109.777344 185.792969 109.203125 185.28125 108.585938 C 184.753906 109.402344 184.746094 109.6875 185.105469 111.074219 C 184.261719 111.363281 184.007812 110.269531 183.136719 110.3125 C 183.058594 112.117188 184.601562 113.414062 185.019531 115.652344 C 183.148438 114.097656 182.789062 111.980469 181.050781 111.121094 C 180.230469 111.992188 181.925781 112.667969 181.128906 113.667969 C 180.242188 113.351562 179.90625 112.105469 178.835938 112.054688 C 178.519531 112.773438 177.902344 113.199219 177.1875 113.679688 L 181.25 119.75 C 180.179688 119.902344 180.179688 119.902344 179.03125 118.355469 C 178.507812 117.652344 177.90625 117.007812 177.300781 116.289062 L 176.246094 117.570312 C 175.117188 117.589844 175.097656 116.308594 174.316406 115.914062 C 173.242188 116.414062 173.492188 117.851562 172.554688 118.429688 C 172.21875 118.242188 171.875 118.078125 171.515625 117.9375 C 171.160156 117.820312 170.671875 118.226562 170.792969 118.503906 C 171.105469 119.1875 171.457031 119.855469 171.796875 120.53125 C 170.785156 121.453125 170.785156 121.453125 170.320312 122.972656 C 169.625 122.375 168.964844 121.777344 168.261719 121.234375 C 168.039062 121.097656 167.804688 121.082031 167.5625 121.179688 C 167.386719 121.273438 167.273438 121.417969 167.222656 121.613281 C 167.171875 121.804688 167.199219 121.988281 167.304688 122.15625 C 167.648438 122.835938 168.035156 123.496094 168.417969 124.195312 C 167.828125 124.226562 168.542969 124.5625 168.109375 124.542969 C 167.152344 124.5 167.089844 123.015625 166.003906 123.363281 C 165.921875 123.460938 165.753906 123.585938 165.773438 123.65625 C 166.132812 124.867188 166.300781 126.105469 166.285156 127.367188 C 166.285156 127.820312 166.667969 128.304688 166.949219 128.722656 C 167.875 130.101562 168.847656 131.449219 169.765625 132.832031 C 169.976562 133.140625 170.046875 133.554688 169.554688 133.851562 C 168.519531 133.53125 168.289062 132.449219 167.703125 131.667969 C 167.09375 130.851562 166.457031 130.050781 165.808594 129.269531 C 165.191406 128.535156 164.808594 127.527344 163.519531 127.152344 C 163.425781 128.597656 164.253906 129.445312 164.78125 130.371094 C 165.28125 131.242188 165.925781 132.023438 166.570312 132.941406 L 164.847656 133.953125 C 163.464844 133.488281 163.144531 131.742188 161.714844 131.324219 C 161.546875 132.765625 161.546875 132.765625 165.929688 139.605469 C 165.636719 140.328125 165.25 140.121094 164.867188 139.699219 C 164.378906 139.167969 164.242188 138.3125 163.402344 138.109375 L 162.769531 139.132812 C 161.753906 138.960938 161.660156 137.898438 161.113281 137.300781 C 160.523438 136.65625 160.070312 135.890625 159.554688 135.171875 C 159.089844 135.421875 158.605469 135.726562 158.902344 136.335938 C 159.449219 137.460938 160.074219 138.542969 160.636719 139.589844 C 160.464844 139.800781 160.386719 139.898438 160.308594 139.996094 L 158.082031 137.992188 C 157.71875 138.28125 157.503906 138.652344 157.699219 138.992188 C 158.082031 139.648438 158.777344 140.183594 158.964844 140.886719 C 159.21875 141.800781 158.503906 141.394531 158.070312 141.292969 C 158.015625 141.277344 157.914062 141.464844 157.71875 141.691406 C 160.292969 145.5 163.636719 148.902344 165.375 153.65625 C 164.042969 153.460938 163.863281 152.515625 163.402344 151.898438 C 162.871094 151.179688 162.390625 150.421875 161.890625 149.683594 C 161.46875 149.050781 161.046875 148.390625 160.605469 147.769531 C 160.074219 147.046875 159.507812 146.359375 158.976562 145.679688 C 157.722656 146.085938 159.257812 147.050781 158.359375 147.605469 C 156.984375 146.871094 156.574219 145.078125 155.113281 143.929688 C 155.023438 145.808594 156.375 146.667969 156.757812 147.953125 C 155.597656 147.53125 155.597656 147.53125 154.09375 145.964844 C 153.566406 146.363281 153.671875 146.851562 153.992188 147.285156 C 155.417969 149.230469 156.867188 151.15625 158.234375 152.992188 C 158.023438 153.699219 157.617188 153.636719 157.371094 153.367188 C 156.679688 152.617188 156.046875 151.816406 155.417969 151.011719 C 154.792969 150.207031 154.308594 149.34375 153.328125 148.925781 C 152.738281 149.496094 153.210938 150.167969 153.089844 150.769531 C 152.941406 151.539062 153.242188 152.1875 153.636719 152.808594 L 153.636719 154.363281 C 152.320312 154.40625 152.035156 153.132812 151.039062 152.648438 C 150.730469 153.847656 151.921875 154.429688 152.089844 155.414062 C 152.1875 156.1875 151.039062 156.046875 151 156.75 C 152.648438 159.304688 152.648438 159.304688 152.671875 160.839844 C 150.847656 159.328125 150.164062 156.886719 148.09375 155.644531 C 147.882812 156.882812 147.882812 156.882812 149.109375 159.507812 C 148.898438 160.351562 148.386719 159.695312 147.957031 159.78125 C 147.292969 160.539062 149.109375 161.28125 148.089844 162.097656 C 146.929688 161.78125 147.0625 160.070312 145.753906 159.90625 C 145.675781 160.039062 145.542969 160.175781 145.5625 160.246094 C 146.78125 163.332031 149.242188 165.679688 150.664062 168.574219 C 150.480469 168.808594 150.335938 168.996094 150.328125 168.996094 C 147.828125 167.167969 146.925781 164.015625 144.640625 161.964844 C 143.964844 162.929688 143.964844 162.929688 145.121094 165.964844 C 144.027344 166.414062 143.957031 164.753906 142.972656 164.941406 C 142.339844 165.4375 143.058594 165.746094 143.167969 166.144531 C 143.308594 166.660156 144.898438 167.742188 142.695312 167.40625 C 142.640625 167.40625 142.390625 167.863281 142.457031 167.984375 C 142.820312 168.648438 143.285156 169.257812 143.644531 169.921875 C 143.726562 170.066406 143.527344 170.363281 143.453125 170.585938 C 142.238281 170.390625 142 168.539062 140.332031 168.789062 C 140.53125 170.183594 142.003906 170.746094 142.214844 171.996094 C 141.230469 171.949219 141.230469 171.949219 139.285156 170.410156 C 139.175781 170.464844 138.976562 170.539062 138.980469 170.578125 C 139.191406 171.976562 140.5625 172.828125 140.667969 174.410156 C 139.261719 174.789062 139.113281 173.046875 138.027344 172.886719 C 137.976562 172.945312 137.722656 173.113281 137.738281 173.257812 C 137.816406 174.078125 138.699219 174.785156 137.957031 175.757812 C 137.804688 175.96875 138.167969 176.691406 138.445312 177.070312 C 139.191406 178.085938 140.019531 179.046875 140.886719 180.117188 C 142.78125 179.535156 144.480469 178.6875 146.152344 177.785156 C 148.488281 176.523438 150.859375 176.183594 153.527344 176.628906 C 157.921875 177.359375 162.347656 178.15625 166.835938 177.839844 C 169.621094 177.644531 171.46875 178.839844 172.847656 181.113281 C 176.320312 186.820312 179.28125 192.746094 180.804688 199.304688 C 180.921875 199.800781 181.203125 200.257812 181.300781 200.757812 C 182.144531 205 184.710938 208.144531 187.832031 210.90625 C 192.136719 214.726562 196.496094 218.488281 200.429688 222.703125 C 204.191406 226.703125 207.765625 230.902344 211.386719 235.039062 C 211.972656 235.722656 212.472656 236.460938 212.894531 237.257812 C 214.65625 240.519531 217.148438 243.320312 218.625 246.664062 C 219.609375 246.628906 220.195312 246.117188 220.835938 245.714844 C 222.023438 244.964844 223.195312 244.183594 224.417969 243.5 C 229.921875 240.4375 227.972656 241.15625 234.207031 240.828125 C 237.160156 240.636719 240.085938 240.835938 242.984375 241.421875 C 243.976562 241.632812 245.023438 241.621094 246.042969 241.703125 L 256.75 242.546875 C 257.261719 242.585938 257.773438 242.621094 258.28125 242.691406 C 261.707031 243.167969 264.613281 244.585938 266.808594 247.351562 C 268.796875 249.855469 270.953125 252.238281 272.835938 254.816406 C 274.519531 257.101562 276.691406 258.152344 279.429688 257.941406 C 282.480469 257.699219 285.570312 257.464844 288.546875 256.800781 C 292.550781 255.886719 296.609375 255.476562 300.714844 255.570312 C 304.929688 255.675781 309.171875 255.308594 313.355469 256.171875 C 314.105469 256.328125 314.902344 256.355469 315.605469 256.632812 C 318.933594 257.941406 322.296875 259.1875 325.535156 260.707031 C 329.117188 262.390625 332.574219 264.351562 336.089844 266.183594 C 340.175781 268.289062 344.222656 270.472656 348.484375 272.257812 C 352.085938 273.75 355.246094 275.894531 357.964844 278.6875 C 360.027344 280.828125 362.386719 282.542969 364.878906 284.136719 C 366.921875 285.449219 368.890625 286.878906 370.921875 288.21875 C 371.699219 288.734375 372.289062 289.355469 372.554688 290.265625 C 372.207031 290.839844 371.726562 290.613281 371.261719 290.476562 C 369.261719 289.882812 367.585938 288.675781 365.941406 287.476562 C 362.433594 284.917969 358.765625 282.570312 355.679688 279.441406 C 353.839844 277.617188 351.734375 276.183594 349.359375 275.144531 C 343.644531 272.5625 338.097656 269.652344 332.613281 266.617188 C 332.164062 266.371094 331.691406 266.15625 331.183594 266.515625 C 330.914062 267.4375 332.414062 267.738281 331.882812 268.90625 L 329.515625 267.132812 L 328.730469 268.324219 C 326.394531 266.777344 324.976562 264.210938 322.585938 262.734375 L 321.769531 263.59375 C 321.019531 263.308594 320.519531 262.191406 319.4375 262.960938 C 318.96875 263.296875 318.476562 262.960938 318.042969 262.679688 C 317.53125 262.335938 316.988281 262.023438 316.515625 261.722656 C 315.871094 262.144531 316.246094 262.726562 316.066406 263.167969 L 316.046875 263.1875 C 314.488281 262.945312 314.007812 261.398438 312.910156 260.59375 C 312.335938 260.171875 311.957031 259.378906 311.046875 259.625 C 310.949219 259.71875 310.769531 259.855469 310.78125 259.878906 C 311.382812 260.894531 311.996094 261.902344 312.757812 263.144531 C 311.1875 263.03125 310.53125 261.410156 309.144531 261.667969 C 308.445312 260.871094 307.800781 260.003906 306.46875 259.289062 C 307.765625 261.140625 307.765625 261.140625 309.234375 261.5625 L 308.964844 262.917969 C 308.269531 263.1875 307.898438 262.785156 307.550781 262.46875 C 306.496094 261.53125 305.496094 260.546875 304.457031 259.597656 C 304.136719 259.304688 303.671875 259.28125 303.449219 259.617188 C 303.304688 259.828125 303.488281 260.261719 303.523438 260.617188 C 303.449219 260.664062 303.292969 260.828125 303.238281 260.785156 C 302.464844 260.363281 301.722656 259.886719 300.933594 259.507812 C 300.574219 259.367188 300.203125 259.335938 299.824219 259.410156 C 299.304688 259.496094 299.46875 259.945312 299.445312 260.3125 C 299.375 261.335938 298.300781 261.496094 297.613281 262.121094 L 299.992188 264.675781 C 299.78125 264.917969 299.617188 265.09375 299.609375 265.09375 C 297.921875 263.789062 296.238281 262.46875 294.582031 261.15625 C 292.59375 261.410156 290.648438 262.34375 288.664062 260.945312 C 289.046875 262.070312 289.8125 262.691406 290.390625 263.445312 C 290.921875 264.128906 291.902344 264.4375 292.078125 265.429688 C 290.726562 265.191406 290.722656 265.191406 289.433594 264.023438 C 288.589844 263.257812 287.75 262.476562 286.886719 261.679688 C 286.011719 262.398438 287.394531 263.289062 286.503906 263.945312 C 285.75 264.5 287.347656 265.277344 286.359375 265.96875 C 284.976562 265.300781 284.144531 263.941406 282.957031 263.003906 C 282.210938 262.417969 281.546875 262.628906 280.996094 263.3125 C 280.832031 263.769531 281.132812 264.050781 281.382812 264.292969 C 283.140625 265.980469 284.347656 268.15625 286.289062 269.675781 C 289.925781 272.511719 293.648438 275.222656 297.457031 277.804688 C 301.277344 280.378906 305.066406 283.003906 308.773438 285.738281 C 311.460938 287.722656 313.789062 290.144531 315.855469 292.757812 C 318.25 295.78125 320.949219 298.503906 323.589844 301.296875 C 324.542969 302.304688 325.511719 303.289062 326.046875 304.429688 C 325.703125 305.085938 325.371094 304.980469 324.996094 304.90625 C 323.613281 304.636719 322.839844 303.5625 321.988281 302.628906 C 318.792969 299.132812 315.5625 295.664062 312.496094 292.058594 C 309.804688 288.898438 306.554688 286.40625 303.152344 284.164062 C 297.808594 280.644531 292.617188 276.921875 287.417969 273.195312 C 286.371094 272.453125 285.402344 271.613281 284.519531 270.683594 C 280.144531 266.011719 275.476562 261.625 271.695312 256.40625 C 270.253906 254.449219 268.707031 252.574219 267.0625 250.78125 C 266.296875 249.941406 265.769531 248.363281 264.058594 249.148438 C 263.386719 248.566406 262.71875 247.976562 262.039062 247.40625 C 261.730469 247.148438 261.339844 246.960938 261.03125 247.308594 C 260.722656 247.65625 261.15625 247.941406 261.265625 248.257812 C 261.300781 248.40625 261.324219 248.558594 261.335938 248.714844 C 260.523438 249.136719 260.4375 248.203125 260.007812 247.964844 C 259.582031 247.699219 259.167969 247.414062 258.769531 247.105469 C 258.378906 247.761719 258.058594 248.304688 257.675781 248.945312 C 258.636719 250.238281 259.628906 251.546875 260.574219 252.890625 C 260.667969 253.019531 260.546875 253.402344 260.402344 253.550781 C 260.1875 253.644531 259.984375 253.625 259.789062 253.492188 C 258.277344 251.769531 256.820312 249.996094 255.289062 248.289062 C 254.5 247.453125 253.667969 246.660156 252.796875 245.910156 C 252.640625 245.769531 252.339844 245.800781 251.914062 245.714844 C 252.0625 246.691406 252.863281 247.175781 253.230469 247.886719 C 253.628906 248.664062 254.421875 249.238281 254.453125 250.207031 C 254.046875 250.8125 253.820312 250.261719 253.632812 250.050781 C 252.460938 248.703125 251.316406 247.3125 250.144531 245.96875 C 249.8125 245.585938 249.359375 245.265625 248.832031 245.675781 C 248.410156 245.996094 248.730469 246.34375 248.875 246.667969 C 249.035156 247.027344 249.109375 247.371094 248.75 247.691406 L 247.210938 246.59375 C 246.367188 247.855469 245.71875 248.066406 244.890625 247.296875 C 243.980469 246.433594 243.316406 245.246094 241.816406 245.058594 L 240.761719 246.9375 C 241.335938 248.375 242.640625 249.101562 243.484375 250.207031 C 243.722656 250.523438 243.855469 250.867188 243.5625 251.210938 C 243.21875 251.621094 242.808594 251.421875 242.59375 251.136719 C 241.089844 249.039062 239.132812 247.382812 237.3125 245.59375 C 237.007812 245.335938 236.6875 245.097656 236.351562 244.878906 C 236.285156 246.722656 238.25 247.316406 238.425781 248.824219 C 238.175781 249.226562 237.8125 249.261719 237.515625 248.972656 C 236.886719 248.339844 236.320312 247.640625 235.6875 247.011719 C 235.058594 246.378906 234.390625 246.519531 233.847656 247.429688 C 233.675781 247.714844 233.757812 248.148438 233.320312 248.292969 L 231.832031 247.363281 L 231.039062 248.351562 L 227.425781 244.980469 C 226.792969 245.476562 227.214844 245.871094 227.484375 246.246094 C 228.3125 247.332031 229.351562 248.269531 230.191406 250.050781 C 227.753906 248.882812 226.867188 246.71875 224.960938 245.777344 C 224.449219 246.046875 223.722656 246.175781 224.351562 247.058594 C 225.242188 248.304688 226.082031 249.585938 226.976562 250.910156 C 226.867188 251.886719 226.753906 252.878906 226.625 254.011719 C 224.128906 253.046875 222.945312 250.445312 220.453125 249.515625 C 221.925781 251.976562 221.925781 251.976562 221.988281 253.519531 C 221.269531 253.84375 220.9375 253.15625 220.273438 252.859375 C 219.765625 253.878906 221.015625 254.335938 220.996094 255.109375 C 220.785156 255.140625 220.457031 255.28125 220.347656 255.183594 C 219.3125 254.292969 218.460938 253.183594 217.136719 252.445312 C 217.472656 254.171875 217.503906 254.128906 219.113281 255.984375 C 219.898438 256.886719 221.125 257.507812 221.429688 259.222656 C 219.574219 258.433594 218.671875 257.015625 217.425781 256.042969 C 217.339844 256.070312 217.160156 256.097656 217.160156 256.128906 C 217.140625 256.582031 217.148438 257.035156 217.148438 257.5 C 215.984375 257.839844 216.121094 256.628906 215.613281 256.207031 C 215.023438 255.71875 214.535156 255.117188 213.75 254.941406 C 213.269531 255.128906 213.359375 255.441406 213.519531 255.804688 C 213.667969 256.128906 213.96875 256.460938 213.519531 256.875 L 211.878906 255.9375 C 211.546875 256.484375 211.683594 256.800781 211.929688 257.117188 C 213.195312 258.722656 214.457031 260.335938 215.722656 261.953125 C 216.144531 262.496094 216.355469 263.050781 215.695312 263.699219 C 213.914062 262.832031 213.589844 260.523438 211.816406 259.648438 C 211.296875 260.101562 211.847656 260.960938 211.042969 261.425781 C 209.707031 260.710938 209.066406 259.226562 207.972656 258.207031 C 207.652344 257.90625 207.285156 258.074219 207.007812 258.390625 C 207.027344 259.683594 208.742188 260.332031 208.34375 261.800781 C 205.792969 261.671875 205.816406 261.59375 203.769531 259.90625 C 203.347656 259.570312 202.878906 259.441406 202.421875 260.246094 C 203.734375 262.546875 206.214844 264.140625 207.316406 266.699219 C 206.945312 267.058594 206.570312 267.136719 206.261719 266.800781 C 205.328125 265.746094 204.425781 264.667969 203.507812 263.601562 C 203.03125 263.046875 202.664062 262.367188 201.90625 262.109375 C 201.621094 263.644531 203.128906 264.5 203.320312 265.855469 C 203.039062 266.199219 202.714844 266.339844 202.382812 265.953125 C 201.558594 264.996094 200.785156 263.996094 199.644531 263.425781 C 198.800781 264.265625 200.609375 265.054688 199.589844 265.871094 C 198.238281 265.027344 197.585938 263.328125 195.929688 262.730469 C 195.265625 263.890625 196.710938 264.269531 196.636719 265.242188 C 195.410156 265.765625 194.9375 263.691406 193.542969 264.375 C 193.863281 265.324219 194.523438 266.046875 195.257812 266.671875 C 198.308594 269.265625 200.683594 272.457031 203.222656 275.503906 C 203.707031 276.085938 204.191406 276.742188 203.414062 277.609375 C 200.292969 274.960938 198.496094 271.042969 195.035156 268.738281 C 193.917969 269.558594 196.007812 270.210938 194.808594 271.160156 C 193.726562 271.046875 193.582031 269.597656 192.730469 269 C 191.816406 268.359375 190.890625 267.738281 189.667969 266.894531 C 189.875 268.492188 191.074219 269.039062 191.414062 270.132812 C 191.203125 271.078125 189.703125 270.972656 189.644531 272.382812 L 185.875 269.039062 C 185.28125 269.628906 185.914062 269.925781 186.203125 270.25 C 187.71875 271.933594 189.453125 273.453125 190.71875 275.296875 C 190.621094 275.453125 190.507812 275.601562 190.386719 275.742188 C 187.757812 274.410156 186.371094 271.53125 183.707031 270.289062 C 183.035156 270.65625 183.167969 271.128906 183.496094 271.550781 C 184.300781 272.542969 185.152344 273.5 185.976562 274.480469 C 186.289062 274.851562 186.75 275.164062 186.5625 275.773438 C 185.835938 276.152344 185.527344 275.351562 184.984375 275.203125 L 184.085938 276 L 180.402344 272.863281 C 179.980469 273.257812 179.980469 273.605469 180.273438 273.941406 C 180.855469 274.613281 181.453125 275.277344 182.058594 275.953125 C 181.609375 277.03125 181.988281 278.546875 180.277344 278.871094 C 180.304688 280.363281 181.84375 281.105469 182.09375 282.511719 C 181.570312 283.1875 181.296875 282.4375 181.019531 282.238281 C 179.988281 281.5 179.71875 280.003906 178.375 279.539062 C 177.632812 280.007812 178.285156 280.367188 178.515625 280.660156 C 178.90625 281.148438 179.304688 281.582031 178.996094 282.484375 C 177.238281 281.25 176.109375 279.691406 174.722656 278.414062 C 174.191406 277.929688 173.84375 278.246094 173.507812 278.765625 C 173.542969 279.738281 174.441406 280.144531 174.980469 280.792969 C 175.523438 281.4375 176.105469 282.097656 176.78125 282.882812 C 175.308594 282.722656 175.308594 282.722656 172.117188 280.289062 C 172.039062 281.246094 172.824219 281.542969 173.210938 282.070312 C 173.5625 282.546875 174.0625 282.949219 174.03125 283.695312 C 172.410156 283.882812 171.925781 281.921875 170.324219 281.835938 C 169.726562 283.035156 171.109375 283.492188 171.359375 284.386719 C 170.328125 285.046875 169.800781 283.964844 169.023438 283.707031 C 168.152344 284.207031 169.300781 284.714844 168.875 285.316406 C 168.261719 285.738281 167.628906 284.683594 166.875 285.03125 C 164.953125 287.070312 163.03125 289.117188 161.09375 291.140625 C 160.9375 291.300781 160.636719 291.324219 160.40625 291.410156 C 160.023438 291.246094 159.773438 290.925781 159.863281 290.546875 C 159.96875 290.023438 160.175781 289.546875 160.488281 289.113281 C 162.621094 286.398438 164.714844 283.671875 167.289062 281.320312 C 169.640625 279.164062 171.90625 276.90625 174.085938 274.550781 C 177.40625 270.9375 181.210938 267.9375 185.5 265.554688 C 189.976562 263.070312 194.429688 260.554688 199.109375 258.445312 C 204.011719 256.25 208.777344 253.78125 213.40625 251.042969 C 214.960938 250.121094 216.253906 248.9375 217.574219 247.558594 C 215.957031 245.871094 214.835938 244.011719 213.710938 242.164062 C 210.222656 236.453125 205.773438 231.503906 201.285156 226.597656 C 196.4375 221.308594 191.183594 216.429688 185.824219 211.671875 C 184.273438 210.289062 183.011719 208.699219 181.796875 207.054688 C 180.941406 205.910156 180.359375 204.640625 180.050781 203.246094 C 179.136719 199.246094 177.75 195.398438 176.257812 191.589844 C 174.953125 188.207031 173.257812 185.035156 171.167969 182.074219 C 170.292969 181.535156 169.839844 182.621094 169.1875 182.101562 C 168.703125 181.710938 168.191406 181.359375 167.636719 180.949219 C 166.863281 182.371094 168.605469 183.023438 168.28125 184.15625 C 168.132812 184.445312 167.96875 184.40625 167.667969 184.234375 C 166.402344 183.511719 165.558594 182.386719 164.636719 181.324219 C 164.515625 181.160156 164.355469 181.066406 164.152344 181.042969 C 163.949219 181.019531 163.769531 181.074219 163.613281 181.207031 C 163.539062 182.472656 165.054688 183.121094 164.976562 184.496094 C 163.824219 184.46875 163.664062 183.394531 163.058594 182.847656 C 162.5 182.339844 162.082031 181.675781 161.164062 181.769531 C 160.125 181.871094 159.777344 180.714844 158.917969 180.445312 C 158.285156 180.804688 157.378906 180.625 156.949219 181.589844 C 157.914062 183.125 158.921875 184.722656 159.917969 186.332031 C 159.949219 186.386719 159.816406 186.542969 159.671875 186.832031 C 158.601562 186.316406 158.183594 185.222656 157.53125 184.394531 C 156.734375 183.386719 156.03125 182.289062 154.65625 182.011719 C 153.152344 181.710938 152.527344 180.289062 151.636719 179.484375 C 150.671875 179.683594 150.550781 181.015625 149.492188 180.488281 C 149.183594 181.105469 149.070312 182.003906 148.03125 181.300781 C 147.773438 182.671875 149.53125 183.175781 149.082031 184.480469 C 148.125 184.742188 148.03125 183.574219 147.332031 183.464844 C 146.800781 183.691406 147.183594 184.996094 146.210938 184.535156 C 145.386719 184.148438 145.488281 185.078125 145.007812 185.109375 C 143.753906 184.65625 143.289062 183.121094 141.960938 182.492188 C 141.386719 183.785156 142.382812 184.316406 142.746094 185.03125 C 143.152344 185.828125 143.722656 186.535156 144.175781 187.308594 C 144.597656 188.042969 145.425781 188.613281 145.242188 189.804688 C 143.492188 189.429688 143.59375 187.4375 142.390625 186.667969 C 141.230469 185.925781 140.917969 184.351562 139.460938 183.535156 C 138.949219 185.699219 141.121094 186.453125 141.410156 188.09375 C 139.332031 188.457031 138.710938 186.339844 137.378906 185.480469 C 136.699219 186.582031 137.464844 187.070312 137.878906 187.648438 C 138.257812 188.175781 138.613281 188.6875 138.375 189.402344 C 137.5625 189.929688 137.234375 188.59375 136.480469 188.886719 C 136.417969 188.914062 136.367188 188.957031 136.324219 189.007812 C 136.28125 189.0625 136.253906 189.121094 136.238281 189.1875 C 136.226562 189.257812 136.230469 189.320312 136.25 189.386719 C 136.265625 189.453125 136.300781 189.511719 136.347656 189.558594 C 137.835938 191.796875 139.324219 194.03125 140.816406 196.261719 C 141.445312 197.214844 142.230469 198.097656 142.339844 199.304688 C 142.339844 199.566406 142.234375 199.777344 142.03125 199.9375 C 141.800781 200.023438 141.589844 199.988281 141.398438 199.839844 C 140.203125 198.050781 139.058594 196.226562 137.863281 194.4375 C 137.296875 193.59375 136.648438 192.804688 136.035156 191.992188 C 133.429688 192.386719 133.199219 189.476562 131.449219 188.695312 C 131.042969 188.886719 130.96875 189.160156 131.203125 189.535156 C 131.808594 190.515625 132.402344 191.496094 132.949219 192.402344 C 132.710938 193.390625 132.179688 192.675781 131.816406 192.765625 C 131.449219 192.855469 131.128906 192.976562 130.832031 193.082031 C 128.128906 190.3125 128.128906 190.3125 127.054688 190.601562 C 127.175781 191.980469 128.675781 192.550781 128.949219 193.851562 C 128.898438 194.675781 128.144531 193.957031 127.910156 194.289062 C 127.730469 194.605469 127.582031 194.941406 127.464844 195.289062 C 126.71875 195.429688 126.464844 194.667969 125.894531 194.445312 C 125.796875 194.601562 125.578125 194.792969 125.609375 194.921875 C 125.78125 195.585938 126.589844 196.167969 125.753906 197.066406 C 124.492188 195.617188 123.730469 193.808594 122.355469 192.574219 C 121.046875 193.289062 123.136719 194.859375 121.265625 195.277344 C 119.933594 195.699219 118.9375 194.324219 117.382812 194.011719 C 118.144531 196.644531 120.097656 198.226562 121.15625 200.308594 C 120.773438 200.984375 120.3125 200.769531 120.003906 200.359375 C 118.773438 198.726562 117.601562 197.046875 116.378906 195.414062 C 116.082031 195.019531 115.683594 194.613281 115.101562 195.070312 C 114.890625 195.972656 116.210938 196.382812 115.867188 197.347656 C 115.589844 197.546875 115.589844 197.546875 113.300781 195.585938 C 112.332031 195.996094 111.40625 196.898438 110.367188 195.585938 C 110.007812 196.988281 111.234375 197.359375 111.234375 198.25 C 111.023438 198.328125 110.714844 198.539062 110.589844 198.460938 C 110.050781 198.132812 109.609375 197.597656 109.039062 197.382812 C 108.664062 197.238281 108.109375 197.632812 107.667969 197.566406 C 106.777344 197.429688 106.675781 196.132812 105.675781 196.070312 C 104.917969 196.515625 106.242188 197.183594 105.507812 197.636719 C 104.664062 197.621094 104.574219 196.410156 103.675781 196.492188 C 103.015625 197.097656 104.421875 197.847656 103.542969 198.441406 C 102.121094 198.097656 101.828125 196.3125 100.382812 195.914062 C 100.5 197.960938 100.5 197.960938 105.226562 204.242188 C 104.863281 204.785156 104.332031 204.808594 103.976562 204.367188 C 103.179688 203.386719 102.480469 202.320312 101.699219 201.226562 L 99.824219 201.695312 L 98.195312 199.40625 C 97.550781 200.445312 98.355469 200.777344 98.605469 201.289062 C 98.816406 201.730469 99.238281 202.105469 98.96875 202.6875 C 98.226562 202.878906 98.101562 201.960938 97.386719 201.84375 C 96.703125 202.265625 96.585938 203.132812 96.160156 203.800781 C 96.519531 205.523438 98.082031 206.472656 98.824219 207.945312 C 98.890625 208.070312 98.699219 208.363281 98.574219 208.535156 C 98.457031 208.605469 98.335938 208.613281 98.214844 208.550781 C 97.769531 208.109375 97.335938 207.652344 96.921875 207.179688 C 96.082031 206.230469 95.601562 204.972656 94.417969 204.289062 C 93.261719 205.554688 95.0625 206.785156 94.445312 208.023438 C 93.9375 208.394531 93.515625 207.851562 93.042969 207.894531 C 93.148438 206.746094 92.410156 206.03125 91.710938 205.304688 C 91.457031 205.039062 91.15625 204.847656 90.921875 205.410156 C 91.496094 206.347656 92.085938 207.289062 93.179688 207.777344 Z M 139.992188 180.582031 C 138.304688 178.921875 137.574219 176.894531 135.703125 175.859375 C 135 176.703125 135.492188 177.316406 135.941406 177.96875 C 136.335938 178.539062 137.1875 178.957031 136.609375 179.996094 C 135.417969 179.90625 135.324219 178.222656 134.132812 178.179688 C 133.683594 178.730469 134.265625 179.105469 134.34375 179.5625 C 134.417969 180.019531 134.113281 180.195312 133.660156 180.0625 C 133.328125 179.96875 132.992188 179.890625 132.671875 179.8125 C 132.460938 180.222656 132.347656 180.625 132.089844 180.878906 C 131.621094 181.34375 131.371094 181.90625 131.339844 182.5625 C 131.324219 182.6875 131.269531 182.785156 131.167969 182.859375 C 130.859375 183.011719 130.324219 182.589844 130.203125 183.113281 C 129.972656 184.082031 129.03125 183.964844 128.457031 184.390625 C 128.339844 184.460938 128.257812 184.554688 128.199219 184.671875 C 128.140625 184.882812 128.039062 185.1875 128.140625 185.304688 C 128.269531 185.46875 128.625 185.632812 128.789062 185.566406 C 131.394531 184.53125 134 183.484375 136.585938 182.378906 C 137.613281 181.933594 138.59375 181.324219 139.992188 180.582031 Z M 36.539062 238.863281 C 36.777344 240.253906 36.769531 240.257812 37.832031 241.199219 C 38.03125 241.375 38.214844 241.296875 38.433594 240.800781 C 37.714844 240.316406 37.640625 239.15625 36.539062 238.863281 Z M 36.539062 238.863281 " fill-opacity="1" fill-rule="nonzero"/></g><path fill="#ffffff" d="M 116.144531 246.246094 C 114.789062 246.175781 114.65625 244.550781 113.425781 244.25 L 112.746094 245.347656 C 111.632812 245.175781 111.289062 244.023438 110.375 243.523438 C 109.84375 244.769531 111.585938 245.339844 111.28125 246.632812 C 110.367188 246.726562 110.125 245.367188 109.203125 245.554688 C 108.539062 245.925781 108.929688 246.398438 109.078125 246.820312 C 109.222656 247.238281 109.097656 247.75 108.789062 247.785156 C 107.242188 247.960938 108.367188 248.824219 108.324219 249.378906 C 108.324219 249.492188 108.292969 249.609375 108.273438 249.722656 C 107.832031 250.300781 106.96875 249.644531 106.539062 250.351562 C 106.476562 251.707031 108.160156 252.167969 108.320312 253.394531 C 108.207031 253.503906 108.082031 253.597656 107.949219 253.683594 C 107.25 253.132812 106.566406 252.566406 105.867188 251.996094 C 105.148438 252.277344 105.414062 252.734375 105.734375 253.09375 C 106.578125 254.050781 107.492188 254.949219 108.320312 255.917969 C 108.574219 256.21875 108.394531 256.605469 108.027344 256.828125 C 106.785156 256.257812 106.355469 254.636719 104.890625 254.339844 C 104.144531 255.121094 105.621094 255.652344 105.054688 256.445312 C 104.019531 256.359375 103.71875 255.050781 102.699219 254.921875 C 102.699219 256.140625 102.699219 256.140625 104.285156 258.082031 C 103.125 258.785156 102.71875 257.066406 101.691406 257.3125 C 101.164062 258.421875 102.589844 258.882812 102.71875 259.660156 C 102.027344 260.4375 101.5 259.214844 100.933594 259.808594 C 101.027344 261.351562 103.054688 261.914062 102.941406 263.601562 C 101.972656 263.910156 101.78125 262.789062 101.0625 262.734375 L 100.492188 264.292969 C 98.671875 263.425781 98.394531 261.019531 96.410156 260.402344 C 95.359375 262.089844 97.527344 262.757812 97.585938 264.0625 C 96.375 263.78125 96.375 263.78125 94.339844 262.09375 C 93.308594 262.914062 94.953125 263.566406 94.46875 264.355469 C 94.328125 264.652344 94.128906 264.667969 93.859375 264.4375 C 93.28125 263.941406 92.695312 263.453125 92.117188 262.964844 C 91.121094 263.082031 91.742188 263.976562 91.207031 264.554688 C 90.558594 264.960938 89.90625 263.394531 89.039062 264.195312 C 88.78125 264.902344 89.617188 265.203125 89.660156 265.878906 C 88.1875 265.667969 87.183594 266.390625 86.371094 267.5625 L 88.453125 270.191406 C 88.203125 270.742188 87.933594 270.746094 87.609375 270.453125 C 86.597656 269.546875 85.683594 268.511719 84.296875 267.761719 C 84.164062 269.214844 85.652344 269.410156 85.671875 270.585938 C 85.539062 270.816406 85.167969 270.859375 84.863281 270.605469 C 84.085938 269.953125 83.355469 269.242188 82.671875 268.617188 C 81.929688 268.601562 81.730469 268.949219 81.582031 269.515625 C 81.410156 270.191406 80.84375 269.871094 80.398438 269.789062 C 79.726562 271.03125 81.558594 271.351562 81.40625 272.359375 C 81.085938 272.710938 81.085938 272.710938 78.070312 270.464844 C 77.617188 270.800781 77.382812 271.253906 77.761719 271.730469 C 78.800781 273.023438 79.894531 274.273438 80.964844 275.539062 C 81.210938 275.832031 81.410156 276.144531 81.035156 276.726562 C 79.222656 275.8125 78.1875 273.988281 76.613281 272.804688 C 76.019531 273.132812 76.226562 273.582031 76.425781 274.03125 C 77.058594 275.441406 78.085938 276.558594 79.105469 277.511719 C 78.949219 278.144531 78.769531 278.375 78.300781 278.125 C 77.835938 277.878906 77.386719 277.671875 76.851562 277.859375 C 76.933594 276.402344 75.800781 275.820312 74.667969 274.507812 C 75.347656 276.492188 75.347656 276.492188 76.945312 277.773438 C 76.753906 278.324219 76.34375 278.726562 75.828125 278.390625 C 74.984375 277.835938 74.257812 277.125 73.496094 276.472656 C 73.046875 276.804688 73.199219 277.167969 73.4375 277.457031 C 74.734375 279.042969 76.054688 280.605469 77.355469 282.183594 C 77.660156 282.558594 77.914062 282.972656 78.179688 283.351562 C 77.546875 283.96875 77.0625 283.609375 76.730469 283.285156 C 75.816406 282.390625 74.976562 281.425781 74.121094 280.476562 C 73.460938 279.75 72.882812 278.917969 71.804688 278.648438 C 71.804688 279.960938 71.804688 279.960938 74.121094 282.6875 C 73.84375 283.351562 73.40625 283.222656 73.011719 282.855469 C 72.355469 282.25 71.757812 281.59375 71.113281 280.976562 C 70.914062 280.8125 70.695312 280.671875 70.46875 280.554688 C 69.867188 280.945312 70.074219 281.429688 70.441406 281.769531 C 71.011719 282.25 71.601562 282.699219 72.21875 283.117188 C 71.214844 284.589844 70.421875 282.878906 69.496094 283.65625 C 70.574219 284.867188 71.667969 286.058594 72.714844 287.292969 C 73.132812 287.796875 73.34375 288.382812 72.679688 288.9375 C 71.03125 288.058594 70.492188 286.105469 68.96875 285.121094 C 68.855469 286.070312 68.855469 286.070312 69.574219 287.203125 C 69.691406 287.945312 68.855469 287.714844 68.644531 288.132812 C 68.484375 288.460938 68.296875 288.777344 68.0625 289.199219 L 65.230469 287.054688 C 65.535156 288.339844 65.535156 288.339844 66.578125 289.683594 C 65.21875 290.027344 64.679688 288.417969 63.511719 288.628906 C 63.09375 289.324219 63.066406 289.332031 63.582031 290.460938 C 63.371094 290.558594 63.148438 290.769531 62.976562 290.730469 C 62.492188 290.585938 62.019531 290.414062 61.554688 290.210938 C 60.730469 291.09375 59.996094 291.976562 59.152344 292.738281 C 58.519531 293.300781 57.773438 293.402344 57.175781 292.585938 C 57.191406 292.34375 57.113281 292.019531 57.238281 291.863281 C 62.945312 284.796875 68.660156 277.742188 74.386719 270.695312 C 77.671875 266.632812 81.632812 263.53125 86.621094 261.789062 C 88.660156 261.070312 90.597656 260.046875 92.609375 259.234375 C 96.046875 257.839844 98.65625 255.375 100.90625 252.574219 C 104.625 247.972656 107.453125 242.800781 109.6875 237.324219 C 111.28125 233.421875 112.675781 229.4375 114.140625 225.480469 C 114.363281 224.886719 114.492188 224.257812 114.667969 223.648438 C 115.804688 219.71875 118.1875 216.574219 121.039062 213.765625 C 121.714844 213.15625 122.492188 212.734375 123.371094 212.5 C 126.742188 211.5 129.636719 209.644531 132.488281 207.6875 C 132.792969 207.453125 133.121094 207.265625 133.480469 207.125 C 133.671875 207.0625 133.96875 207.183594 134.171875 207.300781 C 134.554688 207.511719 134.589844 207.910156 134.472656 208.292969 C 134.375 208.527344 134.246094 208.742188 134.089844 208.945312 C 133.496094 209.839844 132.136719 210.226562 132.453125 211.738281 C 132.632812 212.632812 131.433594 213.367188 131.898438 214.4375 L 130.347656 213.480469 C 129.851562 214.816406 131.550781 215.558594 131.460938 216.910156 C 129.75 216.523438 129.617188 214.703125 128.328125 214.171875 C 127.292969 214.722656 129.046875 215.527344 128.015625 216.148438 L 125.980469 214.886719 C 125.679688 216.054688 127.386719 216.515625 126.613281 217.640625 C 125.5 217.515625 125.269531 216.191406 124.273438 215.914062 C 124.089844 215.976562 123.957031 216.097656 123.875 216.269531 C 123.792969 216.441406 123.785156 216.621094 123.851562 216.800781 C 124.25 217.730469 124.742188 218.617188 125.195312 219.507812 C 125.0625 219.863281 124.902344 219.90625 124.648438 219.75 C 123.789062 219.222656 123.289062 218.214844 122.035156 217.886719 C 122 219.300781 123.878906 219.703125 123.585938 221.191406 C 122.300781 221.421875 122.226562 219.542969 121.046875 219.648438 C 120.566406 220.238281 121.113281 220.597656 121.40625 220.929688 C 122.671875 222.371094 123.992188 223.761719 125.25 225.207031 C 125.511719 225.511719 125.320312 225.894531 124.828125 226.167969 L 119.808594 221.058594 C 119.292969 221.480469 119.375 221.851562 119.617188 222.152344 C 120.34375 223.046875 121.109375 223.90625 121.84375 224.792969 C 122.078125 225.078125 122.300781 225.394531 122.082031 225.828125 C 122.027344 225.886719 121.90625 226.070312 121.871094 226.050781 C 120.261719 225.421875 119.714844 223.523438 117.949219 222.820312 C 117.316406 224.714844 119.234375 225.394531 119.707031 226.742188 L 118.867188 227.433594 C 118.808594 228.765625 120.589844 229.175781 120.539062 230.660156 C 118.855469 230.882812 118.507812 228.886719 117.171875 228.71875 C 116.296875 230.277344 118.78125 230.695312 118.113281 232.199219 L 116.398438 231.03125 C 115.875 232.222656 117 232.695312 117.238281 233.527344 L 116.117188 234.550781 C 117.152344 236.234375 118.195312 237.941406 119.234375 239.632812 C 118.027344 240.558594 117.929688 239.347656 117.433594 238.957031 C 116.777344 238.910156 116.964844 239.714844 116.378906 239.917969 L 113.511719 237.039062 C 112.457031 238.078125 113.707031 238.722656 113.722656 239.617188 L 112.605469 240.546875 C 113.632812 241.996094 114.65625 243.453125 115.695312 244.902344 C 116.003906 245.324219 116.246094 245.746094 116.117188 246.300781 Z M 116.144531 246.246094 " fill-opacity="1" fill-rule="nonzero"/><path fill="#ffffff" d="M 227.582031 276.855469 C 226.378906 276.875 226.109375 275.554688 225.078125 275.78125 C 225.035156 276.902344 226.515625 277.117188 226.464844 278.214844 C 226.238281 278.269531 225.929688 278.449219 225.796875 278.363281 C 224.773438 277.691406 223.96875 276.675781 222.550781 276.117188 C 222.582031 277.777344 224.386719 278.085938 224.382812 279.4375 C 223.703125 279.96875 223.246094 279.296875 222.753906 279.0625 C 222.179688 278.789062 221.675781 278.378906 221.09375 277.996094 C 220.9375 278.378906 220.867188 278.769531 220.648438 279.035156 C 220.207031 279.578125 219.109375 279.34375 219.042969 280.367188 C 217.671875 281 216.304688 281.652344 214.917969 282.246094 C 214.769531 282.3125 214.417969 282.132812 214.289062 281.964844 C 214.15625 281.796875 214.078125 281.414062 214.171875 281.304688 C 215.515625 279.773438 216.886719 278.261719 218.277344 276.773438 C 221.609375 273.222656 224.847656 269.59375 227.542969 265.53125 C 229.164062 263.097656 231.261719 261.367188 234.015625 260.375 C 235.332031 259.902344 236.582031 259.238281 237.910156 258.78125 C 239.109375 258.34375 240.34375 258.027344 241.605469 257.828125 C 244.265625 257.460938 246.910156 257.0625 249.476562 256.25 C 249.6875 256.167969 249.898438 256.167969 250.109375 256.246094 C 250.320312 256.324219 250.480469 256.460938 250.589844 256.660156 C 250.777344 257.726562 249.535156 258.136719 249.164062 259.011719 C 249.253906 260.066406 250.710938 260.890625 249.664062 262.128906 C 248.449219 261.707031 248.34375 260.230469 247.265625 259.707031 C 247.054688 259.613281 246.753906 259.539062 246.582031 259.628906 C 246.398438 259.789062 246.3125 259.992188 246.332031 260.238281 C 246.40625 260.824219 247.113281 261.304688 246.601562 261.996094 C 245.320312 261.9375 245.160156 259.867188 243.421875 260.351562 C 244.824219 263.058594 248.136719 264.144531 249.007812 267.152344 C 249.027344 267.214844 248.851562 267.339844 248.742188 267.457031 C 247.144531 266.007812 245.730469 264.335938 243.867188 263.265625 C 242.65625 263.777344 244.289062 264.664062 243.480469 265.175781 C 242.980469 265.269531 243.605469 265.539062 243.199219 265.226562 C 241.683594 264.0625 240.789062 262.234375 239.058594 261.277344 C 238.347656 261.648438 238.769531 262.042969 239.011719 262.429688 C 239.472656 263.183594 240.410156 263.589844 240.59375 264.535156 C 240.625 264.710938 240.382812 264.941406 240.28125 265.144531 C 239.046875 264.566406 238.597656 262.972656 237.058594 262.695312 C 236.863281 263.785156 237.84375 264.191406 238.308594 264.863281 C 238.730469 265.464844 239.214844 266.019531 240.011719 267.015625 C 237.40625 266.238281 236.554688 263.855469 234.410156 263.128906 C 233.820312 264.539062 235.59375 264.933594 235.464844 266.015625 C 234.5625 266.292969 234.257812 265.191406 233.292969 265.152344 C 233.171875 266.207031 233.054688 267.273438 232.933594 268.3125 C 231.757812 268.566406 231.523438 267.222656 230.617188 267.160156 C 230.296875 267.3125 230.25 267.492188 230.449219 267.734375 C 230.925781 268.332031 231.394531 268.9375 231.839844 269.503906 C 231.878906 270.304688 230.679688 270.050781 230.800781 270.832031 C 230.875 271.316406 231.234375 271.886719 231.082031 272.261719 C 230.78125 273.003906 231.164062 274.347656 229.609375 274.027344 C 230.03125 275.574219 231.652344 276.054688 231.910156 277.53125 C 230.773438 277.640625 230.308594 276.761719 229.65625 276.242188 C 228.957031 275.683594 228.292969 275.085938 227.667969 274.445312 C 227.0625 273.835938 226.613281 273.050781 225.703125 272.816406 C 225.617188 272.925781 225.46875 273.027344 225.476562 273.128906 C 225.539062 274.628906 227.414062 275.066406 227.5625 276.855469 Z M 227.582031 276.855469 " fill-opacity="1" fill-rule="nonzero"/><path fill="#ffffff" d="M 268.722656 139.503906 C 269.664062 139.828125 270.03125 140.703125 270.46875 141.457031 C 275.738281 150.527344 281.90625 159.019531 287.359375 167.96875 C 290.671875 173.402344 295.390625 177.132812 300.839844 180.140625 C 302.628906 181.125 304.339844 182.246094 306.054688 183.359375 C 308.238281 184.785156 309.96875 186.632812 311.242188 188.910156 C 312.871094 191.707031 313.9375 194.707031 314.441406 197.90625 C 315.242188 202.957031 316.402344 207.921875 317.921875 212.804688 C 319.398438 217.589844 321.8125 221.988281 324.601562 226.128906 C 326.382812 228.769531 328.5 231.183594 330.5 233.679688 C 332.585938 236.277344 334.292969 239.136719 335.878906 242.035156 C 337.777344 245.503906 339.371094 249.140625 341.097656 252.699219 C 340.296875 253.253906 340.03125 253.246094 339.707031 252.644531 C 338.183594 249.835938 336.621094 247.046875 335.171875 244.199219 C 333.539062 241.003906 331.601562 238.007812 329.359375 235.203125 C 325.9375 230.914062 322.660156 226.507812 319.972656 221.683594 C 317.328125 216.933594 315.800781 211.8125 314.628906 206.566406 C 313.789062 202.832031 313.109375 199.066406 312.355469 195.316406 C 311.511719 191.121094 309.316406 187.804688 305.910156 185.214844 C 303.660156 183.5 301.140625 182.253906 298.75 180.792969 C 296.679688 179.527344 294.644531 178.25 292.75 176.695312 C 290.777344 175.042969 289.082031 173.136719 287.671875 170.980469 C 284.316406 166.003906 280.988281 161.003906 277.773438 155.933594 C 274.699219 151.074219 271.789062 146.109375 268.800781 141.195312 C 268.484375 140.644531 268.128906 140.097656 268.738281 139.503906 Z M 268.722656 139.503906 " fill-opacity="1" fill-rule="nonzero"/><path fill="#ffffff" d="M 167.414062 165.949219 C 166.765625 165.648438 166.703125 165.15625 166.921875 164.699219 C 167.460938 163.542969 168.0625 162.417969 168.71875 161.328125 C 169.542969 160.011719 170.03125 158.566406 170.519531 157.113281 C 172.4375 151.441406 174.363281 145.769531 176.796875 140.292969 C 177.515625 138.675781 177.960938 136.921875 179.113281 135.5 C 179.757812 134.703125 180.359375 133.914062 181.222656 133.308594 C 184.953125 130.644531 188.660156 127.949219 192.386719 125.273438 C 192.605469 125.160156 192.835938 125.074219 193.078125 125.019531 C 193.597656 125.292969 193.289062 125.636719 193.136719 125.933594 C 192.46875 127.195312 191.574219 128.265625 190.449219 129.148438 C 188.667969 130.578125 186.914062 132.097656 184.9375 133.210938 C 181.378906 135.210938 179.117188 138.214844 177.949219 141.953125 C 177.027344 144.890625 175.734375 147.652344 174.625 150.496094 C 172.871094 155 171.214844 159.554688 168.875 163.8125 C 168.460938 164.574219 168.191406 165.464844 167.414062 165.949219 Z M 167.414062 165.949219 " fill-opacity="1" fill-rule="nonzero"/><path fill="#ffffff" d="M 340.136719 245.109375 C 339.875 244.832031 339.519531 244.601562 339.363281 244.265625 C 336.6875 238.726562 333.089844 233.734375 330.007812 228.425781 C 327.246094 223.675781 324.421875 218.964844 321.691406 214.199219 C 321.152344 213.257812 320.402344 212.339844 320.402344 211.144531 C 320.710938 211.070312 321.015625 210.898438 321.132812 210.980469 C 321.449219 211.207031 321.707031 211.488281 321.898438 211.824219 C 324.460938 216.535156 327.761719 220.792969 330.113281 225.664062 C 331.652344 228.863281 333.90625 231.722656 335.820312 234.742188 C 337.8125 237.875 339.257812 241.273438 340.414062 244.785156 C 340.414062 244.851562 340.246094 244.980469 340.140625 245.109375 Z M 340.136719 245.109375 " fill-opacity="1" fill-rule="nonzero"/><path fill="#ffffff" d="M 191.523438 222.386719 C 191.882812 221.894531 192.226562 221.675781 192.59375 221.851562 C 193.0625 222.0625 193.476562 222.347656 193.832031 222.714844 C 196.804688 226.039062 199.828125 229.304688 202.316406 233.039062 C 204.214844 235.898438 206.445312 238.546875 208.519531 241.296875 C 208.980469 241.90625 209.5625 242.46875 209.847656 243.15625 C 210.246094 244.097656 211.71875 244.703125 210.847656 246.074219 C 209.519531 246.027344 209.449219 244.785156 208.867188 244.019531 C 207.242188 241.890625 205.566406 239.804688 203.957031 237.660156 C 202.351562 235.511719 200.773438 233.363281 199.246094 231.171875 C 197.769531 229.0625 195.921875 227.3125 194.199219 225.441406 C 193.265625 224.429688 192.21875 223.511719 191.523438 222.386719 Z M 191.523438 222.386719 " fill-opacity="1" fill-rule="nonzero"/><path fill="#ffffff" d="M 279.613281 127.457031 C 278.457031 126.085938 277.296875 124.8125 276.457031 123.28125 C 275.402344 121.382812 274.363281 119.46875 273.164062 117.664062 C 270.480469 113.628906 267.6875 109.660156 264.945312 105.65625 C 264.5 105.039062 264.101562 104.390625 263.75 103.710938 C 263.59375 103.394531 263.773438 102.996094 264.136719 102.78125 C 266.921875 104.828125 275.367188 117.976562 279.09375 124.835938 C 279.515625 125.589844 280.125 126.347656 279.621094 127.457031 Z M 279.613281 127.457031 " fill-opacity="1" fill-rule="nonzero"/><path fill="#ffffff" d="M 255.261719 216.191406 C 255.722656 215.464844 256.195312 215.4375 256.582031 215.898438 C 257.480469 216.976562 258.367188 218.066406 259.175781 219.214844 C 262.632812 224.136719 265.992188 229.113281 268.761719 234.472656 C 269.230469 235.386719 269.628906 236.328125 269.960938 237.300781 C 270.050781 237.546875 269.753906 237.929688 269.523438 238.578125 C 265.121094 230.613281 260.191406 223.347656 255.261719 216.191406 Z M 255.261719 216.191406 " fill-opacity="1" fill-rule="nonzero"/><path fill="#ffffff" d="M 281.742188 170.039062 C 280.285156 167.894531 278.75 165.859375 277.457031 163.679688 C 275.503906 160.382812 273.546875 157.089844 271.273438 154 C 271.109375 153.800781 271.007812 153.578125 270.96875 153.320312 C 270.960938 153.066406 271.054688 152.855469 271.25 152.691406 C 271.480469 152.589844 271.703125 152.609375 271.914062 152.75 C 273.898438 155.078125 275.859375 157.433594 277.332031 160.140625 C 278.800781 162.847656 280.761719 165.226562 281.867188 168.117188 C 282.097656 168.699219 282.457031 169.273438 281.761719 170.039062 Z M 281.742188 170.039062 " fill-opacity="1" fill-rule="nonzero"/><path fill="#ffffff" d="M 116.113281 246.277344 C 116.703125 246.207031 117.066406 246.585938 117.359375 246.984375 C 118.179688 248.105469 118.964844 249.257812 119.761719 250.398438 C 119.503906 250.566406 119.207031 250.84375 119.128906 250.792969 C 118.058594 250.050781 116.621094 247.828125 116.140625 246.246094 Z M 116.113281 246.277344 " fill-opacity="1" fill-rule="nonzero"/><path fill="#ffffff" d="M 153.640625 152.800781 C 153.246094 152.167969 152.941406 151.539062 153.09375 150.761719 C 155.425781 152.964844 155.425781 152.964844 155.855469 154.339844 C 155.707031 154.550781 155.496094 154.566406 155.257812 154.339844 C 154.710938 153.832031 154.179688 153.3125 153.640625 152.800781 Z M 153.640625 152.800781 " fill-opacity="1" fill-rule="nonzero"/><path fill="#ffffff" d="M 250.648438 80.976562 C 250.886719 81.035156 251.207031 81.015625 251.339844 81.164062 C 252.171875 82.105469 252.957031 83.085938 254.078125 84.449219 C 251.722656 83.082031 251.675781 83.03125 250.722656 80.898438 Z M 250.648438 80.976562 " fill-opacity="1" fill-rule="nonzero"/><path fill="#ffffff" d="M 316.058594 263.167969 C 317.207031 263.183594 317.792969 263.933594 318.238281 264.855469 C 318.265625 264.910156 318.15625 265.066406 318.082031 265.136719 C 318.007812 265.203125 317.871094 265.3125 317.8125 265.285156 C 316.9375 264.832031 316.019531 264.40625 316.039062 263.191406 Z M 316.058594 263.167969 " fill-opacity="1" fill-rule="nonzero"/></svg>