<svg xmlns="http://www.w3.org/2000/svg" xmlns:xlink="http://www.w3.org/1999/xlink" width="3000" zoomAndPan="magnify" viewBox="0 0 2250 1499.999933" height="2000" preserveAspectRatio="xMidYMid meet" version="1.0"><path fill="#ffffff" d="M 367.9375 928.328125 C 366.890625 932.402344 364.136719 934.1875 360.546875 932.058594 C 356.292969 929.519531 352.574219 925.917969 348.375 923.179688 C 347.753906 922.78125 345.695312 924.597656 343.894531 925.632812 L 354.109375 940.429688 L 349.667969 946.316406 C 356.378906 960.984375 370.09375 971.257812 375.769531 986.648438 C 375.953125 987.128906 375.214844 987.96875 374.90625 988.632812 C 374.210938 989.019531 373.132812 989.882812 372.890625 989.699219 C 359.414062 978.988281 352.746094 962.433594 340.503906 950.757812 C 335.808594 953.28125 338.078125 956.433594 338.628906 959.355469 C 339.820312 965.824219 348.0625 969.582031 345.722656 977.796875 C 338.628906 979.214844 338.316406 972.304688 335.082031 969.371094 C 331.351562 965.964844 329.253906 960.859375 323.917969 958.957031 C 319.292969 960.234375 315.550781 962.902344 318.753906 967.867188 C 323.335938 974.960938 329.011719 981.285156 334.148438 987.855469 C 332.445312 990.789062 326.472656 989.796875 327.4375 994.222656 C 329.296875 1002.609375 325.265625 1000.027344 321.367188 997.914062 C 319.4375 996.863281 317.832031 996.664062 317.109375 998.335938 C 316.585938 999.757812 316.1875 1001.914062 316.898438 1002.863281 C 323.988281 1012.410156 331.734375 1021.589844 336.660156 1031.972656 C 333.507812 1037.734375 330.984375 1034.953125 328.601562 1032.738281 C 326.21875 1030.527344 324.796875 1026.910156 320.640625 1027.222656 C 316.628906 1015.035156 316.628906 1015.035156 302.269531 1003.882812 C 306.527344 1017.191406 306.527344 1017.191406 321.125 1026.78125 L 313.378906 1039.433594 C 308.996094 1041.675781 306.285156 1039.433594 303.746094 1037.195312 C 298.070312 1032.101562 292.539062 1026.710938 286.722656 1021.730469 C 286.210938 1021.289062 283.886719 1022.964844 282.199219 1023.773438 C 295.945312 1046.285156 314.03125 1065.890625 325.890625 1089.539062 C 324.644531 1092.378906 322.714844 1093.03125 320.34375 1091.074219 C 311.519531 1083.738281 306.980469 1073.183594 300.484375 1064.117188 C 293.488281 1054.402344 286.566406 1044.785156 276.367188 1037.292969 C 274.4375 1050.0625 274.4375 1050.0625 297.886719 1075.964844 C 295.277344 1079.980469 292.410156 1078.53125 289.773438 1076.164062 C 283.742188 1070.730469 277.828125 1065.167969 271.53125 1059.351562 C 268.4375 1066.886719 274.367188 1069.695312 276.59375 1073.863281 C 280.394531 1080.957031 278.011719 1082.476562 271.132812 1080.886719 C 270.394531 1087.371094 265.230469 1087 259.882812 1087.683594 C 266.394531 1101.867188 278.992188 1111.800781 285.417969 1124.652344 C 282.835938 1129.050781 280.269531 1128.4375 278.621094 1126.480469 C 268.671875 1114.59375 258.832031 1102.605469 249.101562 1090.519531 C 247.527344 1088.574219 246.691406 1086.050781 244.988281 1082.761719 C 240.617188 1091.273438 240.617188 1091.273438 258.621094 1116.636719 C 257.203125 1119.304688 254.945312 1120.054688 252.777344 1118.054688 C 246.503906 1112.378906 240.492188 1106.324219 233.78125 1099.855469 C 234.148438 1108.605469 234.148438 1108.605469 251.710938 1127.53125 C 249.769531 1130.140625 247.457031 1129.671875 245.300781 1128.027344 C 240.164062 1124.15625 236.789062 1117.769531 230.019531 1116.351562 C 226.261719 1121.003906 229.582031 1123.445312 231.539062 1125.914062 C 234.757812 1129.902344 238.460938 1133.503906 241.953125 1137.261719 C 238.335938 1143.761719 242.730469 1148.230469 245.851562 1153.066406 C 246.066406 1153.378906 245.484375 1154.484375 245.015625 1154.882812 C 244.546875 1155.28125 243.371094 1156.03125 242.875 1155.820312 C 240.535156 1154.949219 238.359375 1153.773438 236.347656 1152.300781 C 227.835938 1145.207031 219.324219 1137.816406 211.578125 1131.105469 C 203.945312 1132.625 210.160156 1145.929688 195.691406 1139.417969 L 205.125 1153.421875 C 203.917969 1154.1875 202.285156 1155.890625 201.578125 1155.5625 C 197.09375 1153.222656 192.824219 1150.46875 188.3125 1147.734375 C 177.050781 1155.960938 164.964844 1161.71875 150.917969 1163.875 C 143.457031 1165.039062 136.535156 1169.410156 129.214844 1171.90625 C 125.582031 1173.140625 122.703125 1171.195312 120.800781 1167.992188 C 119.90625 1164.828125 121.90625 1162.742188 124.136719 1161.761719 C 131.996094 1158.285156 139.824219 1154.398438 148.082031 1152.242188 C 160.253906 1149.066406 170.085938 1142.3125 178.910156 1134.058594 C 189.546875 1124.027344 200.1875 1114.027344 209.066406 1102.179688 C 225.566406 1080.09375 242.164062 1058.203125 256.050781 1034.171875 C 270.238281 1009.628906 285.773438 985.824219 298.03125 960.402344 C 296.683594 954.21875 292.15625 952.84375 287.035156 952.246094 C 283.445312 956.332031 291.09375 959.722656 287.632812 963.78125 C 286.210938 964.40625 284.183594 966.050781 283.289062 965.582031 C 275.117188 961.324219 266.777344 962.746094 258.605469 964.746094 C 252.066406 966.40625 245.839844 969.113281 241.339844 970.675781 C 231.566406 970.675781 228.503906 962.164062 222.007812 960.84375 C 218.8125 962.746094 218.273438 964.957031 220.246094 967.226562 C 225.269531 973.042969 232.871094 976.363281 236.449219 983.824219 C 235.410156 989.03125 232.191406 991.699219 227.695312 988.082031 C 221.679688 983.328125 216.558594 977.441406 211.523438 972.476562 C 207.566406 972.621094 203.675781 973.191406 199.847656 974.191406 C 196.019531 975.191406 192.34375 976.597656 188.824219 978.40625 C 183.035156 977.1875 179.660156 970.617188 173.757812 970.84375 C 172.339844 972.035156 171.121094 972.660156 171.164062 973.171875 C 171.773438 979.78125 178.355469 982.546875 180.808594 987.953125 C 181.320312 989.101562 180.339844 991.046875 179.757812 992.519531 C 179.488281 993.214844 178.339844 994.195312 177.902344 994.066406 C 175.417969 993.386719 173.09375 992.066406 170.59375 991.585938 C 165.585938 990.632812 160.421875 989.570312 156.28125 994.023438 C 156.4375 1002.394531 163.375 1004.976562 168.792969 1009.003906 C 170.9375 1010.59375 171.628906 1013.0625 169.035156 1015.433594 C 168.816406 1015.660156 168.574219 1015.859375 168.316406 1016.042969 C 168.058594 1016.222656 167.785156 1016.375 167.496094 1016.5 C 167.207031 1016.625 166.90625 1016.722656 166.597656 1016.792969 C 166.292969 1016.859375 165.980469 1016.898438 165.664062 1016.90625 C 165.347656 1016.914062 165.035156 1016.894531 164.726562 1016.839844 C 164.414062 1016.785156 164.113281 1016.703125 163.816406 1016.59375 C 163.523438 1016.480469 163.242188 1016.339844 162.972656 1016.175781 C 162.707031 1016.007812 162.457031 1015.816406 162.226562 1015.601562 C 160.222656 1013.980469 158.332031 1012.242188 156.550781 1010.382812 C 150.351562 1004.4375 144.28125 998.335938 137.894531 992.605469 C 137.667969 992.351562 137.414062 992.128906 137.132812 991.929688 C 136.851562 991.734375 136.554688 991.570312 136.238281 991.441406 C 135.921875 991.3125 135.59375 991.222656 135.253906 991.167969 C 134.917969 991.113281 134.578125 991.097656 134.234375 991.121094 C 133.894531 991.144531 133.558594 991.203125 133.234375 991.300781 C 132.90625 991.398438 132.59375 991.535156 132.296875 991.703125 C 131.996094 991.871094 131.722656 992.074219 131.472656 992.304688 C 131.21875 992.535156 130.996094 992.792969 130.804688 993.074219 C 131.355469 1000.453125 140.351562 1002.195312 142.023438 1009.078125 C 141.65625 1015.332031 134.832031 1015.746094 131.910156 1019.800781 C 128.875 1025.375 139.117188 1030.414062 132.546875 1036.128906 C 127.695312 1036.570312 125.453125 1032.257812 121.921875 1030.242188 C 120.175781 1031.363281 119.597656 1033.078125 121.058594 1034.613281 C 126.460938 1040.128906 132.40625 1045.207031 137.441406 1050.984375 C 139.144531 1052.898438 137.257812 1055.648438 134.277344 1057.339844 C 126.675781 1056.515625 122.929688 1048.683594 116.730469 1045.054688 C 112.234375 1049.464844 120.789062 1052.699219 116.914062 1056.839844 C 110.53125 1062.230469 107.15625 1051.023438 101.039062 1053.734375 C 99.125 1058.585938 101.496094 1064.699219 95.75 1068.773438 C 91.59375 1071.707031 95.265625 1079.171875 89.863281 1082.261719 C 84.882812 1082.191406 82.554688 1078.332031 79.71875 1075.171875 C 76.882812 1072.007812 74.269531 1069.199219 67.488281 1068.332031 C 73.164062 1082.519531 82.171875 1091.3125 90.839844 1099.65625 C 90.457031 1101.9375 90.640625 1103.8125 89.820312 1104.945312 C 88.996094 1106.082031 87.066406 1106.804688 85.632812 1107.683594 C 63.433594 1081.085938 63.433594 1081.085938 55.558594 1080.730469 C 53.914062 1086.988281 67.023438 1090.234375 59.050781 1097.753906 C 53.277344 1096.335938 50.539062 1086.164062 42.027344 1091.058594 C 43.160156 1100.167969 51.957031 1103.699219 53.828125 1111.429688 C 43.429688 1122.976562 43.429688 1122.976562 24.292969 1110.847656 C 22.234375 1116.453125 27.953125 1117.375 29.742188 1120.296875 C 31.953125 1123.914062 31.160156 1126.550781 27.585938 1129.601562 L 14.023438 1118.464844 C 10.914062 1119.886719 11.441406 1122.4375 13 1124.253906 C 18.605469 1130.722656 24.761719 1136.753906 30.125 1143.40625 C 31.542969 1145.109375 29.910156 1148.042969 26.066406 1149.519531 C 23.328125 1147.136719 20.121094 1144.398438 16.945312 1141.617188 C 14.449219 1139.449219 12.207031 1136.738281 8.304688 1137.589844 C 7.441406 1144.683594 7.441406 1144.683594 13.980469 1155.109375 C 14.066406 1160.515625 7.070312 1159.875 6.234375 1163.621094 C 9.371094 1180.261719 28.082031 1186.164062 30.789062 1202.449219 C 30.902344 1203.085938 30.023438 1203.867188 29.117188 1205.46875 C 17.511719 1202.25 13.511719 1191.285156 6.773438 1183.226562 C -0.320312 1174.714844 -5.1875 1164.203125 -15.597656 1157.152344 C -22.863281 1159.324219 -27.273438 1166.21875 -33.726562 1169.917969 C -41.929688 1168.839844 -44.976562 1159.4375 -52.171875 1157.664062 C -55.375 1159.28125 -57.121094 1161.480469 -55.757812 1163.933594 C -51.886719 1170.914062 -44.707031 1174.5 -39.035156 1179.652344 C -35.003906 1183.324219 -37.402344 1187.324219 -41.871094 1189.824219 C -48.550781 1190.589844 -50.382812 1181.3125 -57.292969 1182.503906 C -57.375 1176.984375 -60.878906 1173.351562 -64.554688 1169.976562 C -66.527344 1168.144531 -69.421875 1167.410156 -70.667969 1170.414062 C -71.058594 1171.515625 -71.199219 1172.644531 -71.085938 1173.804688 C -70.976562 1174.96875 -70.625 1176.050781 -70.03125 1177.054688 C -69.671875 1177.570312 -69.273438 1178.054688 -68.839844 1178.507812 C -68.410156 1178.960938 -67.945312 1179.378906 -67.445312 1179.761719 C -66.949219 1180.148438 -66.425781 1180.492188 -65.878906 1180.792969 C -65.328125 1181.097656 -64.761719 1181.359375 -64.171875 1181.578125 C -63.582031 1181.792969 -62.980469 1181.964844 -62.367188 1182.089844 C -61.753906 1182.21875 -61.132812 1182.296875 -60.503906 1182.328125 C -59.878906 1182.359375 -59.253906 1182.34375 -58.628906 1182.28125 C -58.003906 1182.214844 -57.386719 1182.105469 -56.78125 1181.949219 C -58.199219 1192.972656 -67.832031 1196.390625 -75.761719 1202.136719 C -79.847656 1197.878906 -83.90625 1193.496094 -88.074219 1189.253906 C -89.792969 1187.523438 -95.167969 1188.148438 -94.941406 1189.878906 C -94.714844 1191.609375 -94.742188 1193.339844 -93.820312 1194.277344 C -89.082031 1199.144531 -84.089844 1203.738281 -79.492188 1208.121094 C -83.054688 1223.429688 -83.066406 1223.429688 -74.414062 1233.65625 C -73.183594 1234.855469 -72.0625 1236.144531 -71.050781 1237.53125 C -70.335938 1239.160156 -69.808594 1240.847656 -69.464844 1242.59375 L -75.136719 1247.519531 C -79.195312 1242.550781 -82.867188 1237.785156 -86.871094 1233.332031 C -88.53125 1231.472656 -91.253906 1228.566406 -92.8125 1228.949219 C -104.164062 1231.785156 -111.253906 1224.066406 -118.09375 1215.527344 C -122.832031 1224.621094 -117.214844 1226.082031 -115.058594 1229.0625 C -113.554688 1231.117188 -111.566406 1232.820312 -109.921875 1234.734375 C -108.277344 1236.652344 -108.914062 1241.472656 -110.714844 1241.585938 C -112.222656 1241.84375 -113.699219 1241.726562 -115.144531 1241.234375 C -120.460938 1238.566406 -122.859375 1231.800781 -129.46875 1230.835938 C -131.882812 1231.542969 -132.308594 1232.777344 -130.550781 1234.507812 L -94.898438 1270.925781 C -94.65625 1275.75 -96.828125 1277.890625 -100.574219 1278.828125 C -111.511719 1273.777344 -113.140625 1258.1875 -126.40625 1255.816406 C -130.351562 1258.652344 -123.414062 1264.640625 -132.5625 1267.164062 C -138.71875 1267.546875 -140.847656 1256.597656 -148.679688 1255.945312 C -151.515625 1256.910156 -153.757812 1259.503906 -152.550781 1261.617188 C -150.976562 1264.355469 -147.472656 1265.875 -144.960938 1268.171875 C -141.371094 1271.40625 -139.289062 1276.558594 -143.542969 1279.125 C -151.160156 1283.75 -141.003906 1292.046875 -147.21875 1294.730469 C -152.890625 1297.15625 -157.703125 1300.019531 -161.089844 1304.902344 C -165.25 1310.859375 -168.410156 1317.554688 -175.519531 1321.667969 L -163.304688 1339.105469 C -163.871094 1340.640625 -164.652344 1342.058594 -165.644531 1343.359375 C -169.148438 1346.691406 -172.027344 1343.996094 -174.15625 1341.53125 C -178.910156 1335.628906 -181.675781 1328.011719 -188.554688 1323.796875 C -194.910156 1326.152344 -188.386719 1333.726562 -195.109375 1336.917969 L -204.628906 1330.324219 C -208.332031 1333.96875 -204.800781 1336.4375 -203.210938 1339.160156 C -201.792969 1341.628906 -201.453125 1344.097656 -203.890625 1345.855469 C -204.546875 1346.273438 -205.257812 1346.523438 -206.03125 1346.601562 C -206.800781 1346.683594 -207.550781 1346.585938 -208.273438 1346.308594 C -218.914062 1339.457031 -227.625 1341.003906 -234.902344 1351.515625 C -236.152344 1353.347656 -238.617188 1354.355469 -240.675781 1355.773438 C -241.242188 1353.742188 -242.546875 1351.714844 -241.980469 1350.695312 C -239.945312 1346.875 -237.535156 1343.304688 -234.761719 1339.984375 C -210.644531 1311.824219 -191.632812 1279.792969 -166.753906 1252.214844 C -159.117188 1243.972656 -152.402344 1235.039062 -146.609375 1225.414062 C -127.894531 1193.296875 -100.488281 1170.089844 -70.953125 1148.808594 C -53.386719 1136.375 -35.183594 1124.953125 -16.351562 1114.535156 C -8.265625 1109.984375 -0.445312 1105.015625 7.113281 1099.636719 C 14.667969 1094.253906 21.921875 1088.492188 28.867188 1082.339844 C 35.816406 1076.191406 42.417969 1069.691406 48.675781 1062.84375 C 54.933594 1055.996094 60.8125 1048.835938 66.3125 1041.363281 C 77.546875 1026.15625 89.066406 1011.152344 100.871094 996.351562 C 120.730469 971.46875 145.527344 953.792969 176.214844 944.175781 C 200.953125 936.585938 226.195312 931.464844 251.9375 928.8125 C 269.882812 926.824219 287.816406 924.726562 305.847656 923.007812 C 307.777344 922.90625 309.671875 922.566406 311.519531 921.992188 C 313.367188 921.421875 315.117188 920.628906 316.769531 919.621094 C 318.425781 918.613281 319.929688 917.421875 321.285156 916.039062 C 322.640625 914.65625 323.808594 913.132812 324.785156 911.460938 C 332.078125 899.785156 340.320312 888.679688 347.285156 876.820312 C 361.9375 851.851562 384.863281 837.097656 410.085938 825.378906 C 413.980469 823.46875 418.054688 822.074219 422.304688 821.199219 C 426.554688 820.324219 430.847656 819.996094 435.179688 820.214844 C 442.898438 820.796875 450.671875 820.414062 458.433594 820.484375 C 482.804688 820.710938 506.113281 814.257812 529.648438 809.136719 C 535.945312 807.71875 540.214844 803.660156 544.714844 799.617188 C 568.351562 778.140625 589.867188 754.714844 609.261719 729.339844 C 625.601562 708.246094 642.328125 687.433594 659.222656 666.765625 C 671.226562 652.058594 681.867188 636.425781 691.144531 619.863281 C 704.664062 595.890625 720.394531 573.175781 734.382812 549.457031 C 765.011719 497.523438 795.382812 445.445312 819.5 389.933594 C 827.003906 372.597656 836.523438 356.074219 845.816406 339.546875 C 854.78125 323.601562 867.492188 310.703125 881.28125 298.746094 C 894.21875 287.300781 908.125 277.183594 923 268.402344 C 945.300781 255.445312 967.421875 242.15625 989.363281 228.539062 C 996.640625 224.027344 1002.96875 218.011719 1009.808594 212.792969 C 1024.164062 201.855469 1038.578125 191.015625 1052.917969 180.078125 C 1067.523438 169.214844 1080.453125 156.625 1091.703125 142.316406 C 1098.511719 133.464844 1106.257812 125.292969 1113.890625 117.105469 C 1127.566406 102.4375 1143.171875 90.507812 1162.125 83.257812 C 1168.5 80.617188 1174.679688 77.574219 1180.664062 74.136719 C 1198.78125 64.148438 1217.882812 56.695312 1237.976562 51.777344 C 1267.101562 44.828125 1296.140625 36.34375 1323.464844 23.136719 C 1346.160156 12.128906 1371.371094 9.347656 1395.5 3.277344 C 1408.097656 0.0703125 1421.320312 2.992188 1433.804688 6.597656 C 1444.03125 9.546875 1452.132812 16.78125 1458.304688 24.953125 C 1480.078125 53.792969 1503.441406 81.5 1521.53125 113.035156 C 1537.800781 141.40625 1552.527344 170.644531 1570.203125 198.265625 C 1579.878906 213.386719 1586.828125 230.183594 1596.476562 245.519531 C 1634.664062 306.003906 1668.945312 368.628906 1699.324219 433.386719 C 1712.09375 460.835938 1729.328125 485.59375 1742.578125 512.644531 C 1750.125 528.050781 1758.679688 542.988281 1766.285156 558.367188 C 1772.511719 570.964844 1781.890625 581.191406 1791.039062 591.335938 C 1807.183594 609.109375 1823.46875 626.546875 1844.179688 639.824219 C 1875.390625 659.8125 1905.507812 681.488281 1932.136719 707.578125 C 1933.324219 708.832031 1934.574219 710.019531 1935.894531 711.136719 C 1979.742188 745.566406 2007.890625 791.589844 2031.777344 840.785156 C 2035.921875 849.296875 2040.445312 857.667969 2044.871094 866.050781 C 2056.191406 887.363281 2065.964844 909.363281 2074.195312 932.046875 C 2090.777344 978.207031 2108.625 1023.902344 2125.933594 1069.792969 C 2127.894531 1074.578125 2129.585938 1079.460938 2131.011719 1084.433594 C 2138.828125 1115.445312 2156.234375 1140.695312 2177.824219 1163.449219 C 2180.179688 1165.933594 2183.074219 1168.203125 2184.578125 1171.152344 C 2195.21875 1191.824219 2205.585938 1212.648438 2215.914062 1233.472656 C 2216.601562 1235.101562 2216.75 1236.773438 2216.355469 1238.496094 C 2216.195312 1239.308594 2215.890625 1240.066406 2215.445312 1240.765625 C 2215 1241.464844 2214.441406 1242.0625 2213.773438 1242.550781 C 2213.042969 1242.890625 2212.273438 1243.046875 2211.46875 1243.027344 C 2210.664062 1243.007812 2209.90625 1242.8125 2209.191406 1242.4375 C 2204 1238.820312 2202.269531 1232.777344 2199.472656 1227.5 C 2189.386719 1208.492188 2179.214844 1189.523438 2165.894531 1172.515625 C 2161.113281 1166.414062 2156.09375 1160.511719 2151.269531 1154.457031 C 2137.734375 1137.433594 2127.152344 1118.992188 2122.089844 1097.511719 C 2120.925781 1092.5625 2118.328125 1087.964844 2116.527344 1083.15625 C 2111.421875 1069.453125 2105.832031 1055.90625 2101.433594 1042.015625 C 2090.082031 1005.925781 2075.898438 970.914062 2061.925781 935.761719 C 2051.441406 909.332031 2039.679688 883.441406 2026.898438 858.304688 C 2009.789062 824.640625 1990.695312 791.730469 1968.011719 761.285156 C 1956.109375 745.3125 1939.996094 733.382812 1925.75 719.636719 C 1897.675781 692.539062 1864.550781 672.226562 1833.542969 649.074219 C 1810.105469 631.582031 1786.484375 614.117188 1769.53125 589.578125 C 1765.632812 583.902344 1761.644531 578.226562 1758.296875 572.269531 C 1738.992188 537.726562 1719.582031 503.238281 1700.785156 468.414062 C 1690.175781 448.722656 1680.683594 428.449219 1670.726562 408.40625 C 1654.625 376.019531 1636.921875 344.566406 1618.621094 313.359375 C 1596.886719 276.273438 1575.679688 238.867188 1554.542969 201.414062 C 1537.617188 171.425781 1521.148438 141.164062 1504.464844 111.035156 C 1503.289062 108.691406 1501.964844 106.433594 1500.492188 104.269531 C 1484.574219 82.847656 1468.730469 61.355469 1452.5 40.175781 C 1448.941406 35.523438 1445.039062 30.640625 1438.925781 28.824219 C 1438.242188 29.339844 1437.59375 29.890625 1436.980469 30.484375 C 1440.230469 35.378906 1443.605469 40.203125 1446.839844 44.871094 C 1444.484375 48.132812 1442.316406 47.707031 1440.101562 45.59375 C 1430.878906 36.839844 1423.234375 26.300781 1411.730469 20.058594 C 1411.105469 21.066406 1410.125 22.101562 1410.3125 22.425781 C 1413.773438 28.300781 1417.402344 34.074219 1421.914062 41.410156 L 1416.242188 45.183594 C 1416.382812 46.742188 1416.027344 48.601562 1416.765625 49.765625 C 1419.972656 54.828125 1423.433594 59.695312 1426.894531 64.632812 C 1427.402344 65.324219 1427.828125 66.066406 1428.167969 66.855469 C 1428.507812 67.644531 1428.757812 68.460938 1428.910156 69.304688 C 1429.066406 70.152344 1429.125 71.003906 1429.085938 71.863281 C 1429.046875 72.71875 1428.914062 73.5625 1428.683594 74.390625 L 1429.207031 73.882812 C 1421.730469 71.980469 1419.175781 64.871094 1414.90625 59.78125 C 1410.636719 54.6875 1407.304688 48.261719 1400.90625 44.375 L 1395.230469 52.160156 C 1385.839844 45.992188 1383.585938 33.09375 1372.875 28.273438 C 1372.335938 28.03125 1371.453125 28.726562 1370.304688 29.109375 C 1368.390625 33.945312 1372.929688 36.445312 1374.875 39.621094 C 1377.894531 44.558594 1376.730469 49.550781 1376.574219 54.644531 C 1376.460938 58.191406 1371.667969 59.9375 1368.632812 58.050781 C 1359.550781 52.375 1354.234375 43.496094 1348.160156 35.210938 C 1347.574219 34.707031 1346.902344 34.375 1346.148438 34.21875 C 1345.390625 34.058594 1344.644531 34.089844 1343.90625 34.316406 C 1342.796875 34.910156 1341.507812 37.523438 1341.960938 38.316406 C 1345.734375 45.027344 1349.820312 51.550781 1353.933594 58.050781 C 1356.617188 62.304688 1361.425781 65.226562 1361.285156 71.042969 C 1353.394531 69.015625 1352.386719 68.105469 1343.152344 57.410156 C 1338.160156 51.621094 1334.9375 44.203125 1327.917969 40.386719 C 1324.867188 40.8125 1321.816406 43.039062 1322.953125 45.226562 C 1326.851562 52.816406 1331.703125 59.90625 1336.214844 67.183594 C 1337.917969 69.9375 1341.011719 72.136719 1339.253906 77.414062 C 1326.699219 71.839844 1323.519531 56.6875 1311.632812 50.347656 C 1309.007812 59 1319.265625 62.105469 1318.726562 68.703125 C 1318.3125 74.378906 1315.148438 79.78125 1315.617188 85.953125 C 1316.113281 92.605469 1319.875 97.1875 1324.128906 101.375 C 1338.5 115.332031 1348.726562 132.382812 1359.738281 148.828125 C 1361.808594 151.90625 1364.789062 155.664062 1362.574219 160.089844 C 1361.730469 160.464844 1360.851562 160.691406 1359.9375 160.769531 C 1359.105469 160.667969 1358.414062 160.296875 1357.863281 159.664062 C 1348.515625 147.308594 1340.414062 133.730469 1329.648438 122.78125 C 1310.496094 103.019531 1295.886719 79.386719 1276.449219 59.808594 C 1276.011719 59.382812 1274.777344 59.523438 1273.996094 59.722656 C 1272.882812 60.234375 1271.835938 60.855469 1270.859375 61.597656 C 1275.117188 76.648438 1292.28125 85.285156 1294.410156 104.367188 C 1279.558594 98.097656 1277.613281 81.753906 1265.65625 76.066406 C 1261.3125 80.632812 1268.691406 83.839844 1265.894531 88.421875 L 1256.605469 90.265625 C 1254.488281 91.328125 1255.101562 92.535156 1255.484375 94.523438 C 1257.453125 104.523438 1263.484375 112.835938 1268.5625 122.722656 C 1260.261719 123.476562 1259.085938 117.703125 1256.207031 114.355469 C 1252.84375 110.4375 1249.949219 106.125 1246.660156 102.152344 C 1243.367188 98.183594 1239.90625 94.292969 1236.316406 90.5625 C 1232.726562 86.832031 1229.890625 82.605469 1224.597656 81.144531 C 1219.449219 88.449219 1227.066406 92.136719 1228.699219 97.375 C 1230.332031 102.609375 1238.191406 105.386719 1235.792969 112.820312 C 1231.4375 113.914062 1230.65625 109.742188 1228.371094 107.914062 C 1225.023438 105.261719 1222.046875 102.070312 1218.441406 99.800781 C 1215.859375 98.152344 1213.390625 94.988281 1208.511719 97.273438 L 1215.605469 111.21875 C 1213.621094 113.332031 1212.441406 112.933594 1210.808594 111.332031 C 1205.265625 105.941406 1199.703125 100.550781 1193.902344 95.445312 C 1193.246094 94.875 1191.0625 96.097656 1188.054688 96.863281 C 1197.984375 111.046875 1207.691406 124.894531 1217.433594 138.667969 C 1219.394531 141.507812 1222.101562 143.847656 1221.691406 147.675781 C 1221.429688 148.527344 1220.914062 149.175781 1220.144531 149.621094 C 1219.632812 149.960938 1218.386719 150.117188 1218.160156 149.820312 C 1212.925781 143.109375 1207.832031 136.300781 1202.554688 129.589844 C 1199.347656 125.476562 1193.488281 125.050781 1191.050781 127.519531 C 1186.042969 132.582031 1180.167969 132.867188 1174.167969 134.769531 C 1165.457031 137.519531 1163.414062 127.007812 1156.40625 127.902344 C 1155.824219 128.539062 1154.988281 129.09375 1154.734375 129.832031 C 1154.460938 130.6875 1154.523438 131.519531 1154.917969 132.328125 C 1163.273438 146.273438 1171.683594 160.175781 1179.855469 173.710938 C 1177.871094 178.078125 1175.488281 176.40625 1174.011719 174.617188 C 1169.074219 168.644531 1164.28125 162.53125 1159.824219 156.175781 C 1154.957031 148.972656 1149.050781 142.753906 1142.105469 137.519531 C 1138.460938 140.710938 1140.859375 143.519531 1142.703125 146.1875 C 1146.605469 151.863281 1150.660156 157.339844 1154.617188 162.886719 C 1147.824219 170.914062 1146.886719 159.140625 1138.816406 163.679688 L 1135.566406 167.355469 C 1128.160156 160.472656 1120.785156 153.59375 1111.449219 144.910156 C 1114.570312 154.714844 1114.8125 155.097656 1122.203125 162.601562 C 1127.042969 167.523438 1132.289062 172.105469 1136.601562 177.441406 C 1140.800781 182.914062 1144.613281 188.640625 1148.050781 194.621094 C 1151.425781 200.167969 1157.386719 205.230469 1152.023438 214.152344 C 1139.75 195.882812 1130.277344 176.0625 1111.222656 164.289062 C 1106.117188 167.125 1107.519531 171.609375 1109.59375 174.886719 C 1113.253906 180.6875 1118.105469 185.726562 1122.046875 191.371094 C 1127.453125 199.089844 1132.488281 207.074219 1137.652344 214.835938 L 1129.480469 226.4375 C 1133.90625 244.738281 1143.9375 260.941406 1152.390625 277.679688 C 1170.648438 313.796875 1189.898438 349.40625 1204.511719 387.253906 C 1208.851562 398.488281 1214.300781 409.300781 1219.5625 420.152344 C 1228.984375 439.585938 1235.566406 460.058594 1242.007812 480.570312 C 1253.113281 515.90625 1259.992188 552.265625 1267.273438 588.511719 C 1268.742188 597.050781 1269.132812 605.636719 1268.449219 614.273438 C 1267.46875 632.574219 1270.734375 650.308594 1274.335938 668.027344 C 1279.300781 692.484375 1293.148438 712.316406 1309.148438 730.53125 C 1319.347656 742.148438 1330.9375 752.617188 1342.457031 762.972656 C 1352.046875 771.597656 1362.417969 779.332031 1372.492188 787.417969 C 1392.636719 803.601562 1412.695312 819.917969 1433.023438 835.878906 C 1446.585938 846.515625 1460.386719 856.714844 1471.976562 869.738281 C 1481.285156 880.207031 1488.875 891.175781 1493.542969 904.539062 C 1498.632812 919.179688 1503.742188 933.746094 1508.109375 948.65625 C 1517.0625 979.226562 1527.503906 1009.261719 1544.996094 1036.398438 C 1555.734375 1053.011719 1564.074219 1071.199219 1575.054688 1087.625 C 1597.527344 1121.261719 1621.0625 1154.199219 1644.183594 1187.410156 C 1646.59375 1190.871094 1649.148438 1194.25 1652.808594 1199.296875 C 1641.277344 1198.988281 1633.515625 1196.460938 1627.785156 1188.089844 C 1608.890625 1160.328125 1589.027344 1133.191406 1570.726562 1105.046875 C 1553.847656 1079.113281 1537.773438 1052.554688 1522.792969 1025.503906 C 1515 1011.0625 1509.042969 995.902344 1504.917969 980.023438 C 1499.058594 958.429688 1491.484375 937.308594 1484.832031 915.929688 C 1478.175781 894.550781 1464.96875 877.925781 1447.832031 864.105469 C 1432.425781 851.652344 1416.75 839.550781 1401.1875 827.222656 C 1383.625 813.378906 1365.824219 799.816406 1348.574219 785.601562 C 1324.582031 765.839844 1301.375 745.171875 1283.941406 719.097656 C 1276.847656 708.527344 1264.222656 705.832031 1255.738281 697.40625 C 1255.027344 696.710938 1252.304688 697.035156 1251.367188 697.859375 C 1250.804688 698.4375 1250.410156 699.109375 1250.183594 699.882812 C 1249.957031 700.660156 1249.925781 701.441406 1250.09375 702.230469 C 1251.757812 705.246094 1253.605469 708.144531 1255.640625 710.925781 C 1257.058594 713.054688 1258.476562 715.179688 1256.476562 718.019531 C 1251.140625 720.300781 1250.035156 711.054688 1244.53125 713.136719 C 1244.347656 713.253906 1244.179688 713.394531 1244.027344 713.550781 C 1243.875 713.707031 1243.742188 713.878906 1243.628906 714.066406 C 1243.515625 714.253906 1243.425781 714.449219 1243.359375 714.65625 C 1243.292969 714.863281 1243.25 715.078125 1243.234375 715.296875 C 1243.214844 715.511719 1243.222656 715.730469 1243.253906 715.945312 C 1243.289062 716.160156 1243.34375 716.371094 1243.425781 716.574219 C 1243.503906 716.777344 1243.605469 716.96875 1243.730469 717.148438 C 1243.855469 717.328125 1244 717.488281 1244.160156 717.636719 C 1251.453125 726.148438 1259.128906 734.347656 1265.996094 743.171875 C 1269.457031 747.625 1274.507812 751.910156 1272.648438 760.023438 C 1265.652344 759.328125 1264.449219 752.589844 1260.703125 748.902344 C 1256.566406 744.515625 1252.152344 740.425781 1247.46875 736.628906 C 1242.714844 733.070312 1237.28125 730.429688 1231.863281 727.253906 C 1232.132812 737.367188 1232.132812 737.367188 1246.175781 757.128906 C 1245.011719 761.042969 1242.925781 759.144531 1240.957031 757.964844 C 1234.671875 754.25 1231.734375 746.164062 1224.03125 743.78125 C 1221.195312 749.640625 1226.03125 752.222656 1227.324219 755.9375 C 1228.371094 758.945312 1232.003906 761.074219 1230.300781 765.242188 C 1220.925781 763.117188 1217.632812 752.40625 1207.816406 749.496094 C 1202.140625 763.386719 1223.324219 767.472656 1219.164062 780.324219 C 1208.921875 778.410156 1206.3125 764.71875 1193.445312 764.164062 C 1199.902344 775.984375 1210.921875 783.074219 1216.699219 793.132812 C 1215.050781 796.410156 1213.859375 796.851562 1212.441406 795.601562 C 1203.71875 787.671875 1191.757812 784.804688 1181.488281 770.605469 C 1184.324219 789.472656 1197.476562 795.246094 1200.398438 806.949219 C 1194.722656 811.660156 1185.644531 810.46875 1181.105469 818.441406 C 1192.453125 834.046875 1203.914062 849.976562 1215.335938 865.9375 C 1215.589844 866.292969 1214.796875 867.355469 1214.144531 868.988281 C 1202.597656 865.199219 1199.332031 853.863281 1192.652344 845.820312 C 1185.558594 837.308594 1178.210938 829.011719 1169.855469 819.320312 C 1168.960938 834.101562 1172.28125 845.679688 1179.941406 856.035156 C 1174.449219 858.050781 1169.429688 858.40625 1167.867188 864.859375 L 1152.832031 851.75 C 1149.851562 853.667969 1149.695312 856.007812 1151.070312 858.289062 C 1153.910156 863.140625 1159.699219 866.800781 1155.710938 874.121094 C 1154.773438 875.867188 1158.082031 879.980469 1159.554688 882.933594 C 1162.476562 888.777344 1168.664062 892.863281 1169.402344 900.054688 C 1163.003906 902.070312 1161.96875 894.140625 1156.972656 894.378906 C 1153.996094 896.480469 1156.136719 898.933594 1156.378906 901.316406 C 1156.535156 902.734375 1156.734375 904.863281 1155.910156 905.714844 C 1153.808594 907.886719 1151.441406 907.132812 1149.484375 905.019531 C 1145.695312 900.863281 1144.617188 893.898438 1137.453125 893.261719 C 1136.714844 893.941406 1135.425781 894.792969 1135.539062 895.074219 C 1137.46875 899.8125 1139.566406 904.480469 1141.867188 909.671875 C 1139.609375 911.289062 1136.714844 912.695312 1134.773438 914.949219 C 1132.828125 917.207031 1133.355469 921.078125 1129.664062 923.007812 C 1124.289062 925.84375 1127.210938 936.085938 1118.316406 936.316406 C 1114.429688 941.988281 1110.257812 947.410156 1106.742188 953.265625 C 1102.726562 959.964844 1095.917969 960.601562 1089.40625 962.304688 C 1085.757812 958.359375 1087.21875 954.132812 1089.503906 950.542969 C 1101.222656 932.101562 1106.527344 911.289062 1113.335938 890.960938 C 1119.125 873.839844 1125.566406 856.914062 1131.777344 839.890625 C 1133.199219 835.847656 1135.679688 832.003906 1136.390625 827.832031 C 1140.445312 804.058594 1155.242188 785.542969 1167.019531 765.667969 C 1171.273438 758.460938 1178.535156 752.902344 1184.75 747 C 1189.730469 742.246094 1195.132812 737.933594 1200.453125 733.550781 C 1231.835938 707.703125 1244.429688 672.890625 1248.132812 633.835938 C 1248.375 631.269531 1248.390625 628.660156 1248.871094 626.121094 C 1255.835938 589.578125 1247.976562 554.453125 1239.847656 519.070312 C 1231.722656 483.691406 1217.648438 450.4375 1202.964844 417.3125 C 1190.4375 388.941406 1179.785156 359.816406 1165.515625 332.195312 C 1160.761719 323.046875 1156.308594 313.753906 1151.683594 304.503906 C 1138.515625 278.347656 1125.140625 252.300781 1112.300781 225.984375 C 1108.046875 217.261719 1102.625 209.910156 1094.695312 204.421875 C 1089.546875 206.90625 1092.171875 211.714844 1091.136719 215.445312 C 1090.101562 219.175781 1087.363281 216.863281 1084.894531 216.167969 C 1081.289062 223.332031 1088.851562 226.4375 1090.910156 231.488281 C 1093.164062 237.0625 1096.042969 242.398438 1098.695312 247.816406 C 1100.980469 252.457031 1103.335938 257.066406 1105.664062 261.675781 C 1108.371094 267.066406 1111.222656 272.402344 1113.761719 277.878906 C 1116.144531 283.054688 1121.039062 287.808594 1116.601562 295.78125 C 1110.542969 290.617188 1107.152344 283.992188 1103.265625 278.035156 C 1099.007812 271.578125 1095.945312 264.371094 1092.382812 257.476562 C 1089.234375 251.363281 1086.199219 245.191406 1082.980469 239.121094 C 1079.332031 232.285156 1076.054688 225.160156 1071.628906 218.820312 C 1067.542969 212.917969 1066.648438 204.238281 1058.523438 201.457031 C 1055.316406 205.132812 1056.292969 208.40625 1057.785156 211.601562 C 1060.335938 217.074219 1063.105469 222.453125 1065.601562 227.941406 C 1067.34375 231.785156 1065.601562 234.582031 1062.167969 236.285156 C 1058.324219 238.214844 1055.457031 235.84375 1053.65625 232.964844 C 1051.855469 230.085938 1051.285156 226.394531 1049.398438 223.644531 C 1047.71875 221.722656 1045.644531 220.441406 1043.171875 219.800781 C 1041.425781 219.230469 1040.109375 225.234375 1040.617188 228.707031 C 1041.3125 233.558594 1047.230469 237.023438 1044.121094 243.078125 C 1035.980469 243.390625 1036.503906 232.210938 1028.746094 231.730469 C 1027.949219 232.398438 1026.246094 233.148438 1025.824219 234.328125 C 1024.886719 236.921875 1024.757812 236.597656 1016.855469 244.101562 C 1013.890625 246.9375 1011.933594 250.824219 1007.167969 252.613281 C 1012.84375 263.179688 1020.304688 272.472656 1023.652344 283.992188 C 1017.976562 288.53125 1015 280.601562 1010.074219 281.042969 C 1003.804688 281.59375 1001.648438 276.089844 998.457031 272.21875 C 995.265625 268.34375 992.046875 264.472656 988.597656 260.300781 C 985.050781 265.820312 984.996094 267.734375 987.421875 277.054688 C 981.746094 279.011719 980.03125 271.636719 974.171875 271.949219 C 973.632812 284.089844 984.03125 292.816406 986.851562 307.894531 C 974.242188 297.425781 971.828125 283.167969 960.125 277.382812 C 954.578125 283.253906 966 287.792969 960.636719 294.53125 C 954.679688 292.40625 952.410156 284.007812 945.203125 283.664062 C 943.058594 288.515625 938.902344 291.382812 934.109375 294.601562 L 961.445312 335.503906 C 954.238281 336.507812 954.238281 336.523438 946.523438 326.109375 C 943.003906 321.371094 938.945312 317.03125 934.859375 312.179688 L 927.765625 320.820312 C 920.148438 320.945312 920.035156 312.308594 914.757812 309.65625 C 907.523438 313.03125 909.226562 322.707031 902.914062 326.605469 C 900.648438 325.347656 898.3125 324.242188 895.90625 323.289062 C 893.523438 322.492188 890.230469 325.246094 891.039062 327.105469 C 893.152344 331.714844 895.523438 336.210938 897.792969 340.75 C 890.996094 346.964844 890.996094 346.964844 887.863281 357.207031 C 883.167969 353.179688 878.726562 349.136719 874 345.476562 C 873.289062 345.050781 872.515625 344.808594 871.6875 344.746094 C 870.859375 344.683594 870.0625 344.808594 869.292969 345.121094 C 869.011719 345.273438 868.75 345.449219 868.503906 345.65625 C 868.257812 345.859375 868.039062 346.089844 867.839844 346.339844 C 867.644531 346.589844 867.472656 346.855469 867.332031 347.144531 C 867.1875 347.429688 867.074219 347.726562 866.992188 348.035156 C 866.910156 348.34375 866.863281 348.65625 866.84375 348.972656 C 866.828125 349.292969 866.84375 349.609375 866.890625 349.925781 C 866.9375 350.242188 867.015625 350.546875 867.128906 350.847656 C 867.238281 351.148438 867.378906 351.433594 867.546875 351.703125 C 869.875 356.285156 872.46875 360.726562 875.050781 365.421875 C 871.078125 365.648438 875.886719 367.902344 872.964844 367.777344 C 866.511719 367.476562 866.101562 357.492188 858.78125 359.816406 C 858.226562 360.484375 857.09375 361.335938 857.234375 361.804688 C 859.648438 369.957031 860.796875 378.28125 860.679688 386.785156 C 860.679688 389.847656 863.261719 393.097656 865.164062 395.921875 C 871.390625 405.214844 877.929688 414.277344 884.117188 423.597656 C 885.535156 425.65625 886.015625 428.464844 882.699219 430.449219 C 875.734375 428.308594 874.1875 421.003906 870.226562 415.753906 C 866.113281 410.261719 861.84375 404.859375 857.460938 399.59375 C 853.320312 394.660156 850.738281 387.878906 842.054688 385.339844 C 841.417969 395.085938 846.992188 400.785156 850.566406 407.015625 C 853.929688 412.875 858.253906 418.152344 862.609375 424.335938 L 851.007812 431.144531 C 841.6875 428.011719 839.542969 416.25 829.910156 413.425781 C 828.777344 423.144531 828.777344 423.144531 858.285156 469.207031 C 856.3125 474.074219 853.714844 472.667969 851.121094 469.832031 C 847.84375 466.257812 846.933594 460.496094 841.261719 459.132812 L 837.019531 466.015625 C 830.167969 464.851562 829.542969 457.714844 825.839844 453.6875 C 821.882812 449.347656 818.832031 444.195312 815.355469 439.359375 C 812.234375 441.03125 808.957031 443.074219 810.972656 447.191406 C 814.648438 454.75 818.847656 462.058594 822.632812 469.09375 C 821.484375 470.511719 820.960938 471.179688 820.421875 471.832031 L 805.441406 458.324219 C 803 460.285156 801.554688 462.792969 802.871094 465.0625 C 805.441406 469.492188 810.121094 473.109375 811.382812 477.832031 C 813.085938 483.988281 808.292969 481.25 805.367188 480.554688 C 805 480.46875 804.304688 481.71875 802.984375 483.25 C 820.320312 508.898438 842.835938 531.808594 854.550781 563.828125 C 845.574219 562.507812 844.367188 556.152344 841.273438 551.984375 C 837.683594 547.144531 834.464844 542.054688 831.089844 537.058594 C 828.25 532.804688 825.414062 528.363281 822.421875 524.191406 C 818.859375 519.328125 815.03125 514.671875 811.46875 510.105469 C 803.027344 512.84375 813.371094 519.339844 807.296875 523.070312 C 798.050781 518.121094 795.296875 506.046875 785.4375 498.332031 C 784.839844 510.984375 793.949219 516.773438 796.53125 525.425781 C 788.699219 522.589844 788.699219 522.589844 778.585938 512.019531 C 775.023438 514.714844 775.75 517.992188 777.890625 520.914062 C 787.496094 534.007812 797.253906 546.988281 806.476562 559.359375 C 805.058594 564.113281 802.320312 563.6875 800.644531 561.871094 C 796.007812 556.820312 791.722656 551.429688 787.507812 546.011719 C 783.296875 540.589844 780.019531 534.773438 773.4375 531.980469 C 769.464844 535.8125 772.628906 540.335938 771.832031 544.378906 C 770.8125 549.558594 772.855469 553.925781 775.507812 558.125 L 775.507812 568.582031 C 766.640625 568.878906 764.710938 560.308594 758 557.035156 C 755.929688 565.121094 763.945312 569.035156 765.09375 575.660156 C 765.734375 580.867188 758 579.914062 757.761719 584.667969 C 768.855469 601.863281 768.855469 601.863281 768.996094 612.203125 C 756.726562 602.019531 752.128906 585.574219 738.167969 577.21875 C 736.75 585.546875 736.75 585.546875 745.007812 603.238281 C 743.589844 608.914062 740.140625 604.5 737.261719 605.066406 C 732.792969 610.175781 745.007812 615.183594 738.140625 620.671875 C 730.324219 618.542969 731.230469 607.011719 722.410156 605.90625 C 721.882812 606.796875 720.988281 607.71875 721.132812 608.203125 C 729.332031 628.972656 745.902344 644.804688 755.476562 664.296875 C 754.257812 665.855469 753.261719 667.132812 753.234375 667.132812 C 736.394531 654.820312 730.308594 633.597656 714.933594 619.765625 C 710.378906 626.261719 710.378906 626.261719 718.152344 646.71875 C 710.789062 649.726562 710.320312 638.546875 703.683594 639.808594 C 699.425781 643.171875 704.277344 645.230469 705 647.910156 C 705.953125 651.398438 716.648438 658.691406 701.808594 656.421875 C 701.441406 656.421875 699.765625 659.5 700.222656 660.308594 C 702.675781 664.777344 705.796875 668.890625 708.222656 673.359375 C 708.761719 674.339844 707.414062 676.324219 706.917969 677.84375 C 698.746094 676.523438 697.144531 664.039062 685.90625 665.726562 C 687.242188 675.132812 697.171875 678.90625 698.589844 687.320312 C 691.949219 687.007812 691.949219 687.007812 678.855469 676.636719 C 678.132812 677.019531 676.773438 677.515625 676.8125 677.785156 C 678.234375 687.191406 687.453125 692.921875 688.164062 703.589844 C 678.6875 706.144531 677.707031 694.414062 670.375 693.320312 C 670.046875 693.71875 668.332031 694.851562 668.429688 695.816406 C 668.96875 701.347656 674.898438 706.117188 669.917969 712.667969 C 668.882812 714.089844 671.339844 718.953125 673.210938 721.492188 C 678.234375 728.34375 683.808594 734.800781 689.636719 742.007812 C 702.40625 738.089844 713.855469 732.386719 725.105469 726.316406 C 740.835938 717.804688 756.796875 715.519531 774.753906 718.527344 C 804.347656 723.453125 834.167969 728.8125 864.382812 726.6875 C 883.136719 725.367188 895.59375 733.425781 904.886719 748.71875 C 928.265625 787.148438 948.210938 827.054688 958.464844 871.230469 C 959.246094 874.5625 961.132812 877.65625 961.800781 881.003906 C 967.476562 909.574219 984.753906 930.753906 1005.777344 949.351562 C 1034.773438 975.070312 1064.125 1000.421875 1090.625 1028.792969 C 1115.945312 1055.75 1140.007812 1084.007812 1164.394531 1111.867188 C 1168.339844 1116.464844 1171.726562 1121.445312 1174.550781 1126.808594 C 1186.425781 1148.78125 1203.191406 1167.648438 1213.152344 1190.164062 C 1219.777344 1189.921875 1223.71875 1186.488281 1228.03125 1183.765625 C 1236.03125 1178.714844 1243.921875 1173.449219 1252.148438 1168.855469 C 1289.230469 1148.226562 1276.09375 1153.066406 1318.070312 1150.851562 C 1337.957031 1149.570312 1357.667969 1150.910156 1377.199219 1154.867188 C 1383.882812 1156.285156 1390.917969 1156.199219 1397.796875 1156.753906 L 1469.890625 1162.429688 C 1473.324219 1162.699219 1476.785156 1162.925781 1480.191406 1163.40625 C 1503.273438 1166.628906 1522.835938 1176.175781 1537.632812 1194.789062 C 1551.023438 1211.65625 1565.535156 1227.683594 1578.21875 1245.046875 C 1589.566406 1260.441406 1604.179688 1267.535156 1622.621094 1266.113281 C 1643.175781 1264.46875 1663.972656 1262.894531 1684.019531 1258.410156 C 1710.992188 1252.261719 1738.3125 1249.5 1765.972656 1250.128906 C 1794.34375 1250.851562 1822.902344 1248.382812 1851.089844 1254.199219 C 1856.140625 1255.234375 1861.5 1255.433594 1866.226562 1257.292969 C 1888.652344 1266.113281 1911.308594 1274.5 1933.113281 1284.726562 C 1957.230469 1296.078125 1980.496094 1309.269531 2004.1875 1321.613281 C 2031.691406 1335.796875 2058.960938 1350.480469 2087.644531 1362.523438 C 2099.644531 1367.492188 2111.023438 1373.621094 2121.773438 1380.914062 C 2132.523438 1388.203125 2142.425781 1396.507812 2151.480469 1405.820312 C 2165.371094 1420.234375 2181.273438 1431.78125 2198.054688 1442.519531 C 2211.816406 1451.359375 2225.078125 1460.960938 2238.742188 1469.984375 C 2243.988281 1473.460938 2247.960938 1477.660156 2249.734375 1483.773438 C 2247.40625 1487.660156 2244.171875 1486.128906 2241.039062 1485.191406 C 2227.5625 1481.191406 2216.285156 1473.078125 2205.21875 1465.003906 C 2181.585938 1447.769531 2156.886719 1431.964844 2136.101562 1410.886719 C 2129.960938 1404.792969 2123.3125 1399.316406 2116.160156 1394.453125 C 2109.003906 1389.589844 2101.46875 1385.417969 2093.542969 1381.945312 C 2055.058594 1364.554688 2017.707031 1344.960938 1980.765625 1324.535156 C 1977.742188 1322.859375 1974.550781 1321.425781 1971.132812 1323.851562 C 1969.332031 1330.039062 1979.417969 1332.082031 1975.84375 1339.953125 L 1959.898438 1327.996094 L 1954.621094 1336.011719 C 1938.902344 1325.613281 1929.339844 1308.320312 1913.253906 1298.375 L 1907.75 1304.164062 C 1902.683594 1302.234375 1899.320312 1294.714844 1892.03125 1299.90625 C 1888.882812 1302.164062 1885.574219 1299.90625 1882.640625 1298.003906 C 1879.191406 1295.691406 1875.546875 1293.578125 1872.367188 1291.566406 C 1868.011719 1294.402344 1870.539062 1298.316406 1869.347656 1301.3125 L 1869.203125 1301.4375 C 1858.722656 1299.808594 1855.472656 1289.394531 1848.09375 1283.960938 C 1844.207031 1281.125 1841.667969 1275.777344 1835.527344 1277.4375 C 1834.875 1278.058594 1833.667969 1278.980469 1833.753906 1279.152344 C 1837.796875 1285.988281 1841.9375 1292.769531 1847.046875 1301.140625 C 1836.476562 1300.375 1832.066406 1289.453125 1822.714844 1291.210938 C 1818.007812 1285.820312 1813.664062 1279.988281 1804.699219 1275.167969 C 1813.453125 1287.636719 1813.453125 1287.636719 1823.339844 1290.488281 L 1821.511719 1299.621094 C 1816.84375 1301.425781 1814.347656 1298.714844 1811.992188 1296.601562 C 1804.898438 1290.273438 1798.160156 1283.648438 1791.167969 1277.265625 C 1789.011719 1275.292969 1785.875 1275.125 1784.371094 1277.378906 C 1783.40625 1278.796875 1784.625 1281.734375 1784.867188 1284.117188 C 1784.371094 1284.429688 1783.320312 1285.535156 1782.953125 1285.253906 C 1777.746094 1282.414062 1772.753906 1279.195312 1767.433594 1276.65625 C 1765.007812 1275.714844 1762.523438 1275.496094 1759.972656 1276.003906 C 1756.453125 1276.570312 1757.574219 1279.605469 1757.402344 1282.074219 C 1756.933594 1288.96875 1749.699219 1290.046875 1745.0625 1294.261719 L 1761.09375 1311.441406 C 1759.671875 1313.070312 1758.566406 1314.277344 1758.511719 1314.277344 C 1747.160156 1305.480469 1735.8125 1296.601562 1724.648438 1287.75 C 1711.269531 1289.453125 1698.160156 1295.734375 1684.8125 1286.332031 C 1687.378906 1293.90625 1692.53125 1298.089844 1696.445312 1303.15625 C 1700.019531 1307.78125 1706.601562 1309.835938 1707.792969 1316.519531 C 1698.6875 1314.914062 1698.660156 1314.929688 1689.992188 1307.070312 C 1684.316406 1301.894531 1678.640625 1296.644531 1672.824219 1291.265625 C 1666.953125 1296.117188 1676.246094 1302.105469 1670.273438 1306.53125 C 1665.179688 1310.277344 1675.945312 1315.511719 1669.292969 1320.148438 C 1659.988281 1315.652344 1654.371094 1306.503906 1646.382812 1300.203125 C 1641.359375 1296.246094 1636.878906 1297.679688 1633.175781 1302.277344 C 1632.070312 1305.339844 1634.082031 1307.253906 1635.785156 1308.886719 C 1647.617188 1320.234375 1655.730469 1334.890625 1668.824219 1345.132812 C 1693.300781 1364.226562 1718.363281 1382.46875 1744.011719 1399.863281 C 1769.746094 1417.210938 1795.265625 1434.886719 1820.234375 1453.300781 C 1838.335938 1466.652344 1854.011719 1482.964844 1867.929688 1500.554688 C 1884.042969 1520.925781 1902.230469 1539.269531 1920.003906 1558.066406 C 1926.433594 1564.863281 1932.941406 1571.488281 1936.5625 1579.175781 C 1934.25 1583.574219 1932.007812 1582.878906 1929.46875 1582.382812 C 1920.160156 1580.566406 1914.957031 1573.316406 1909.222656 1567.046875 C 1887.703125 1543.496094 1865.941406 1520.132812 1845.285156 1495.847656 C 1827.171875 1474.566406 1805.296875 1457.785156 1782.371094 1442.691406 C 1746.394531 1418.984375 1711.441406 1393.917969 1676.414062 1368.824219 C 1669.355469 1363.820312 1662.847656 1358.179688 1656.894531 1351.898438 C 1627.429688 1320.460938 1595.992188 1290.898438 1570.542969 1255.757812 C 1560.820312 1242.578125 1550.417969 1229.957031 1539.332031 1217.898438 C 1534.171875 1212.222656 1530.636719 1201.609375 1519.105469 1206.886719 C 1514.578125 1202.957031 1510.082031 1199 1505.515625 1195.15625 C 1503.441406 1193.410156 1500.804688 1192.164062 1498.71875 1194.503906 C 1496.632812 1196.84375 1499.554688 1198.757812 1500.308594 1200.886719 C 1500.542969 1201.902344 1500.699219 1202.925781 1500.777344 1203.964844 C 1495.300781 1206.804688 1494.730469 1200.53125 1491.839844 1198.914062 C 1488.957031 1197.136719 1486.175781 1195.210938 1483.496094 1193.140625 C 1480.871094 1197.539062 1478.703125 1201.199219 1476.121094 1205.511719 C 1482.589844 1214.222656 1489.269531 1223.046875 1495.65625 1232.082031 C 1496.265625 1232.949219 1495.457031 1235.542969 1494.476562 1236.523438 C 1493.804688 1236.820312 1493.101562 1236.933594 1492.371094 1236.863281 C 1491.640625 1236.796875 1490.96875 1236.554688 1490.363281 1236.140625 C 1480.175781 1224.535156 1470.359375 1212.605469 1460.0625 1201.101562 C 1454.742188 1195.460938 1449.144531 1190.117188 1443.265625 1185.070312 C 1442.230469 1184.148438 1440.199219 1184.347656 1437.335938 1183.765625 C 1438.3125 1190.332031 1443.71875 1193.59375 1446.203125 1198.40625 C 1448.882812 1203.625 1454.214844 1207.484375 1454.429688 1214.007812 C 1451.691406 1218.09375 1450.171875 1214.378906 1448.910156 1212.960938 C 1440.996094 1203.878906 1433.304688 1194.515625 1425.40625 1185.464844 C 1423.164062 1182.898438 1420.128906 1180.742188 1416.566406 1183.496094 C 1413.730469 1185.664062 1415.886719 1188.007812 1416.851562 1190.191406 C 1417.941406 1192.617188 1418.425781 1194.929688 1416.027344 1197.070312 L 1405.644531 1189.679688 C 1399.96875 1198.191406 1395.601562 1199.609375 1390.039062 1194.417969 C 1383.894531 1188.601562 1379.425781 1180.613281 1369.3125 1179.351562 L 1362.21875 1192.007812 C 1366.078125 1201.679688 1374.886719 1206.5625 1380.546875 1214.023438 C 1382.152344 1216.152344 1383.058594 1218.464844 1381.074219 1220.789062 C 1378.761719 1223.527344 1375.996094 1222.207031 1374.546875 1220.265625 C 1364.417969 1206.164062 1351.253906 1194.984375 1338.984375 1182.941406 C 1336.929688 1181.207031 1334.78125 1179.609375 1332.527344 1178.148438 C 1332.089844 1190.558594 1345.296875 1194.546875 1346.488281 1204.703125 C 1344.8125 1207.425781 1342.359375 1207.652344 1340.371094 1205.695312 C 1336.117188 1201.441406 1332.316406 1196.730469 1328.058594 1192.488281 C 1323.804688 1188.246094 1319.320312 1189.199219 1315.660156 1195.324219 C 1314.511719 1197.242188 1315.050781 1200.164062 1312.101562 1201.128906 L 1302.085938 1194.871094 L 1296.75 1201.527344 L 1272.421875 1178.828125 C 1268.164062 1182.160156 1271.003906 1184.828125 1272.804688 1187.339844 C 1278.378906 1194.644531 1285.371094 1200.957031 1291.046875 1212.972656 C 1274.632812 1205.101562 1268.648438 1190.515625 1255.808594 1184.191406 C 1252.363281 1186.007812 1247.480469 1186.855469 1251.722656 1192.816406 C 1257.710938 1201.199219 1263.355469 1209.839844 1269.398438 1218.746094 C 1268.648438 1225.316406 1267.894531 1231.996094 1267.03125 1239.628906 C 1250.21875 1233.132812 1242.234375 1215.625 1225.449219 1209.371094 C 1235.378906 1225.925781 1235.378906 1225.925781 1235.804688 1236.324219 C 1230.953125 1238.507812 1228.714844 1233.882812 1224.246094 1231.882812 C 1220.824219 1238.734375 1229.253906 1241.8125 1229.125 1247.035156 C 1227.707031 1247.246094 1225.492188 1248.183594 1224.742188 1247.53125 C 1217.777344 1241.542969 1212.042969 1234.070312 1203.136719 1229.089844 C 1205.375 1240.707031 1205.589844 1240.4375 1216.429688 1252.921875 C 1221.734375 1258.992188 1229.988281 1263.179688 1232.03125 1274.742188 C 1219.546875 1269.40625 1213.464844 1259.875 1205.078125 1253.320312 C 1204.484375 1253.488281 1203.277344 1253.675781 1203.277344 1253.902344 C 1203.148438 1256.949219 1203.191406 1260 1203.191406 1263.136719 C 1195.359375 1265.40625 1196.296875 1257.261719 1192.863281 1254.410156 C 1188.90625 1251.132812 1185.601562 1247.089844 1180.324219 1245.898438 C 1177.074219 1247.164062 1177.699219 1249.277344 1178.777344 1251.703125 C 1179.757812 1253.886719 1181.800781 1256.140625 1178.777344 1258.921875 L 1167.726562 1252.609375 C 1165.472656 1256.296875 1166.40625 1258.425781 1168.066406 1260.554688 C 1176.578125 1271.375 1185.089844 1282.226562 1193.601562 1293.113281 C 1196.4375 1296.785156 1197.859375 1300.503906 1193.433594 1304.871094 C 1181.417969 1299.027344 1179.246094 1283.492188 1167.285156 1277.605469 C 1163.796875 1280.640625 1167.5 1286.429688 1162.082031 1289.566406 C 1153.101562 1284.742188 1148.773438 1274.769531 1141.425781 1267.886719 C 1139.269531 1265.875 1136.785156 1266.996094 1134.929688 1269.136719 C 1135.054688 1277.847656 1146.589844 1282.203125 1143.921875 1292.105469 C 1126.742188 1291.226562 1126.898438 1290.6875 1113.109375 1279.335938 C 1110.273438 1277.066406 1107.125 1276.214844 1104.03125 1281.621094 C 1112.867188 1297.125 1129.566406 1307.851562 1136.984375 1325.085938 C 1134.503906 1327.5 1131.976562 1328.039062 1129.890625 1325.753906 C 1123.59375 1318.660156 1117.535156 1311.398438 1111.351562 1304.21875 C 1108.128906 1300.488281 1105.675781 1295.90625 1100.554688 1294.160156 C 1098.640625 1304.515625 1108.78125 1310.277344 1110.089844 1319.382812 C 1108.203125 1321.726562 1106.003906 1322.660156 1103.761719 1320.050781 C 1098.226562 1313.609375 1093.007812 1306.871094 1085.320312 1303.027344 C 1079.644531 1308.703125 1091.832031 1314.007812 1084.964844 1319.496094 C 1075.855469 1313.824219 1071.472656 1302.390625 1060.324219 1298.359375 C 1055.855469 1306.175781 1065.570312 1308.730469 1065.074219 1315.257812 C 1056.804688 1318.800781 1053.640625 1304.828125 1044.234375 1309.441406 C 1046.390625 1315.824219 1050.832031 1320.6875 1055.796875 1324.902344 C 1076.324219 1342.351562 1092.328125 1363.84375 1109.421875 1384.371094 C 1112.683594 1388.285156 1115.960938 1392.699219 1110.726562 1398.558594 C 1089.703125 1380.710938 1077.601562 1354.339844 1054.28125 1338.804688 C 1046.761719 1344.324219 1060.847656 1348.734375 1052.761719 1355.132812 C 1045.46875 1354.351562 1044.503906 1344.605469 1038.761719 1340.578125 C 1032.601562 1336.25 1026.390625 1332.066406 1018.132812 1326.390625 C 1019.550781 1337.160156 1027.609375 1340.847656 1029.90625 1348.195312 C 1028.488281 1354.578125 1018.375 1353.871094 1017.992188 1363.359375 L 992.613281 1340.832031 C 988.597656 1344.804688 992.867188 1346.820312 994.8125 1348.992188 C 1005.011719 1360.339844 1016.6875 1370.566406 1025.226562 1382.964844 C 1024.554688 1384.03125 1023.808594 1385.039062 1022.984375 1385.988281 C 1005.292969 1377.007812 995.945312 1357.617188 978 1349.246094 C 973.488281 1351.730469 974.367188 1354.921875 976.582031 1357.757812 C 982 1364.4375 987.746094 1370.878906 993.292969 1377.476562 C 995.378906 1379.972656 998.484375 1382.074219 997.238281 1386.1875 C 992.34375 1388.742188 990.257812 1383.351562 986.613281 1382.355469 L 980.566406 1387.71875 L 955.742188 1366.582031 C 952.90625 1369.25 952.90625 1371.574219 954.878906 1373.84375 C 958.804688 1378.371094 962.835938 1382.839844 966.894531 1387.40625 C 963.886719 1394.671875 966.425781 1404.871094 954.90625 1407.054688 C 955.105469 1417.097656 965.445312 1422.09375 967.148438 1431.554688 C 963.601562 1436.109375 961.785156 1431.070312 959.914062 1429.722656 C 952.960938 1424.757812 951.144531 1414.671875 942.109375 1411.550781 C 937.085938 1414.714844 941.484375 1417.113281 943.046875 1419.085938 C 945.671875 1422.390625 948.351562 1425.3125 946.28125 1431.382812 C 934.449219 1423.070312 926.84375 1412.574219 917.496094 1403.976562 C 913.9375 1400.714844 911.582031 1402.839844 909.3125 1406.34375 C 909.550781 1412.898438 915.59375 1415.625 919.242188 1419.976562 C 922.886719 1424.332031 926.800781 1428.773438 931.371094 1434.050781 C 921.441406 1432.988281 921.441406 1432.988281 899.960938 1416.585938 C 899.421875 1423.042969 904.714844 1425.027344 907.3125 1428.589844 C 909.679688 1431.796875 913.054688 1434.519531 912.859375 1439.527344 C 901.933594 1440.804688 898.671875 1427.582031 887.875 1427.015625 C 883.847656 1435.101562 893.167969 1438.179688 894.839844 1444.179688 C 887.902344 1448.632812 884.34375 1441.34375 879.121094 1439.613281 C 873.265625 1442.972656 880.980469 1446.40625 878.128906 1450.449219 C 873.988281 1453.289062 869.71875 1446.195312 864.652344 1448.519531 C 851.699219 1462.265625 838.777344 1476.042969 825.726562 1489.660156 C 824.660156 1490.753906 822.632812 1490.910156 821.085938 1491.492188 C 818.503906 1490.382812 816.832031 1488.214844 817.441406 1485.675781 C 818.140625 1482.15625 819.539062 1478.9375 821.640625 1476.027344 C 835.996094 1457.742188 850.113281 1439.371094 867.433594 1423.539062 C 883.285156 1409.023438 898.542969 1393.828125 913.210938 1377.960938 C 924.324219 1365.871094 936.324219 1354.746094 949.21875 1344.582031 C 962.113281 1334.417969 975.738281 1325.347656 990.085938 1317.371094 C 1020.21875 1300.644531 1050.207031 1283.707031 1081.714844 1269.503906 C 1114.75 1254.707031 1146.84375 1238.089844 1177.996094 1219.65625 C 1188.464844 1213.425781 1197.175781 1205.46875 1206.070312 1196.175781 C 1195.191406 1184.828125 1187.628906 1172.289062 1180.066406 1159.859375 C 1156.574219 1121.386719 1126.601562 1088.066406 1096.371094 1055.039062 C 1063.742188 1019.417969 1028.359375 986.5625 992.273438 954.5 C 981.816406 945.210938 973.332031 934.5 965.132812 923.417969 C 962.292969 919.609375 959.882812 915.542969 957.902344 911.222656 C 955.917969 906.902344 954.410156 902.425781 953.375 897.785156 C 947.230469 870.832031 937.894531 844.914062 927.839844 819.277344 C 919.0625 796.5 907.636719 775.132812 893.5625 755.1875 C 887.664062 751.570312 884.613281 758.886719 880.230469 755.371094 C 876.964844 752.746094 873.503906 750.375 869.773438 747.625 C 864.582031 757.1875 876.300781 761.582031 874.128906 769.230469 C 873.136719 771.171875 872.015625 770.890625 869.988281 769.742188 C 861.476562 764.890625 855.800781 757.300781 849.585938 750.148438 C 849.394531 749.886719 849.175781 749.644531 848.9375 749.425781 C 848.695312 749.210938 848.429688 749.019531 848.148438 748.855469 C 847.867188 748.691406 847.574219 748.558594 847.261719 748.453125 C 846.953125 748.351562 846.636719 748.28125 846.3125 748.242188 C 845.988281 748.207031 845.664062 748.203125 845.339844 748.234375 C 845.015625 748.261719 844.699219 748.324219 844.386719 748.421875 C 844.074219 748.515625 843.777344 748.644531 843.492188 748.800781 C 843.207031 748.957031 842.941406 749.144531 842.691406 749.355469 C 842.183594 757.867188 852.382812 762.238281 851.871094 771.515625 C 844.109375 771.316406 843.019531 764.082031 838.960938 760.40625 C 835.203125 756.988281 832.378906 752.519531 826.195312 753.144531 C 819.199219 753.824219 816.84375 746.050781 811.070312 744.21875 C 806.816406 746.660156 800.714844 745.425781 797.820312 751.9375 C 804.304688 762.265625 811.101562 773.03125 817.796875 783.871094 C 818.007812 784.238281 817.128906 785.289062 816.136719 787.246094 C 808.929688 783.769531 806.121094 776.410156 801.722656 770.832031 C 796.359375 764.039062 791.636719 756.648438 782.375 754.773438 C 772.246094 752.761719 768.03125 743.171875 762.042969 737.75 C 755.53125 739.085938 754.710938 748.078125 747.589844 744.503906 C 745.515625 748.660156 744.75 754.730469 737.742188 749.992188 C 736.011719 759.230469 747.84375 762.621094 744.835938 771.402344 C 738.382812 773.160156 737.742188 765.285156 733.035156 764.5625 C 729.472656 766.09375 732.039062 774.875 725.488281 771.769531 C 719.953125 769.160156 720.636719 775.414062 717.386719 775.628906 C 708.945312 772.578125 705.808594 762.25 696.886719 758.007812 C 693.015625 766.71875 699.722656 770.292969 702.164062 775.117188 C 704.902344 780.464844 708.734375 785.230469 711.78125 790.4375 C 714.621094 795.402344 720.210938 799.234375 718.960938 807.261719 C 707.199219 804.738281 707.882812 791.304688 699.78125 786.125 C 691.964844 781.148438 689.851562 770.519531 680.035156 765.046875 C 676.585938 779.601562 691.210938 784.679688 693.171875 795.730469 C 679.183594 798.183594 674.984375 783.925781 666.03125 778.125 C 661.4375 785.558594 666.601562 788.851562 669.378906 792.738281 C 671.949219 796.296875 674.34375 799.730469 672.726562 804.554688 C 667.253906 808.085938 665.039062 799.09375 659.960938 801.078125 C 659.753906 801.171875 659.5625 801.289062 659.386719 801.425781 C 659.207031 801.566406 659.050781 801.722656 658.910156 801.898438 C 658.769531 802.078125 658.652344 802.269531 658.558594 802.472656 C 658.464844 802.675781 658.394531 802.890625 658.351562 803.109375 C 658.308594 803.332031 658.289062 803.554688 658.300781 803.78125 C 658.308594 804.007812 658.34375 804.226562 658.40625 804.445312 C 658.46875 804.660156 658.558594 804.867188 658.667969 805.0625 C 658.78125 805.257812 658.914062 805.4375 659.066406 805.605469 C 669.089844 820.660156 679.121094 835.707031 689.15625 850.742188 C 693.410156 857.15625 698.703125 863.113281 699.425781 871.242188 C 699.425781 872.074219 699.242188 872.863281 698.875 873.613281 C 698.507812 874.359375 697.996094 874.988281 697.339844 875.5 C 696.621094 875.765625 695.882812 875.835938 695.125 875.71875 C 694.371094 875.601562 693.6875 875.304688 693.085938 874.832031 C 685.027344 862.789062 677.339844 850.503906 669.28125 838.457031 C 665.480469 832.785156 661.09375 827.464844 656.96875 821.972656 C 639.417969 824.65625 637.871094 805.050781 626.082031 799.773438 C 623.359375 801.078125 622.847656 802.910156 624.4375 805.449219 C 628.496094 812.03125 632.496094 818.65625 636.199219 824.742188 C 634.59375 831.410156 631.007812 826.597656 628.550781 827.195312 C 626.097656 827.789062 623.941406 828.613281 621.925781 829.324219 C 603.726562 810.667969 603.726562 810.667969 596.492188 812.625 C 597.3125 821.917969 607.402344 825.746094 609.257812 834.5 C 608.917969 840.0625 603.839844 835.222656 602.265625 837.453125 C 601.035156 839.597656 600.03125 841.84375 599.257812 844.191406 C 594.234375 845.140625 592.535156 840.003906 588.6875 838.515625 C 588.023438 839.566406 586.546875 840.855469 586.761719 841.707031 C 587.921875 846.191406 593.355469 850.121094 587.738281 856.164062 C 579.226562 846.402344 574.121094 834.21875 564.855469 825.917969 C 556.03125 830.726562 570.105469 841.28125 557.523438 844.105469 C 548.542969 846.941406 541.832031 837.691406 531.363281 835.59375 C 536.484375 853.3125 549.632812 863.964844 556.769531 877.980469 C 554.203125 882.535156 551.097656 881.101562 549.011719 878.335938 C 540.726562 867.339844 532.839844 856.035156 524.597656 845.027344 C 522.597656 842.359375 519.929688 839.648438 516 842.714844 C 514.582031 848.800781 523.476562 851.550781 521.164062 858.050781 C 519.277344 859.382812 519.277344 859.382812 503.882812 846.191406 C 497.34375 848.941406 491.117188 855.027344 484.121094 846.191406 C 481.695312 855.636719 489.96875 858.121094 489.96875 864.136719 C 488.550781 864.660156 486.464844 866.066406 485.613281 865.554688 C 481.980469 863.339844 479.015625 859.722656 475.1875 858.277344 C 472.644531 857.3125 468.914062 859.980469 465.949219 859.523438 C 459.933594 858.601562 459.269531 849.878906 452.53125 849.453125 C 447.410156 852.460938 456.332031 856.945312 451.394531 860.007812 C 445.722656 859.878906 445.109375 851.738281 439.054688 852.289062 C 434.597656 856.375 444.089844 861.410156 438.160156 865.414062 C 428.597656 863.101562 426.613281 851.070312 416.878906 848.390625 C 417.675781 862.191406 417.675781 862.191406 449.507812 904.480469 C 447.039062 908.140625 443.480469 908.28125 441.082031 905.332031 C 435.707031 898.707031 431.011719 891.527344 425.734375 884.167969 L 413.105469 887.332031 L 402.140625 871.910156 C 397.800781 878.917969 403.234375 881.144531 404.90625 884.605469 C 406.324219 887.558594 409.164062 890.082031 407.347656 893.996094 C 402.367188 895.300781 401.515625 889.117188 396.707031 888.324219 C 392.097656 891.160156 391.304688 897.019531 388.4375 901.515625 C 390.878906 913.121094 401.375 919.503906 406.398438 929.40625 C 406.824219 930.257812 405.53125 932.242188 404.695312 933.378906 C 404.328125 933.605469 403.929688 933.726562 403.496094 933.75 C 403.066406 933.773438 402.65625 933.691406 402.269531 933.507812 C 399.277344 930.527344 396.367188 927.449219 393.585938 924.269531 C 387.914062 917.871094 384.691406 909.402344 376.707031 904.808594 C 368.917969 913.320312 381.058594 921.605469 376.890625 929.929688 C 373.472656 932.441406 370.648438 928.78125 367.457031 929.066406 C 368.164062 921.347656 363.199219 916.523438 358.476562 911.632812 C 356.757812 909.84375 354.746094 908.566406 353.171875 912.355469 C 357.027344 918.652344 361.015625 925.007812 368.363281 928.285156 Z M 683.609375 745.15625 C 672.261719 733.976562 667.324219 720.316406 654.726562 713.351562 C 649.988281 719.027344 653.308594 723.167969 656.34375 727.539062 C 658.996094 731.398438 664.742188 734.207031 660.828125 741.199219 C 652.8125 740.589844 652.171875 729.269531 644.15625 728.972656 C 641.136719 732.671875 645.066406 735.210938 645.578125 738.292969 C 646.085938 741.371094 644.015625 742.546875 640.980469 741.652344 C 638.738281 741.027344 636.46875 740.503906 634.328125 739.964844 C 632.910156 742.730469 632.128906 745.425781 630.398438 747.144531 C 628.878906 748.65625 627.6875 750.390625 626.816406 752.347656 C 625.945312 754.304688 625.453125 756.351562 625.347656 758.492188 C 625.253906 759.328125 624.867188 759.988281 624.183594 760.476562 C 622.125 761.5 618.507812 758.675781 617.6875 762.179688 C 616.140625 768.707031 609.800781 767.925781 605.925781 770.804688 C 605.160156 771.261719 604.585938 771.890625 604.195312 772.691406 C 603.796875 774.113281 603.132812 776.152344 603.796875 776.949219 C 604.679688 778.054688 607.0625 779.160156 608.183594 778.722656 C 625.730469 771.742188 643.277344 764.707031 660.671875 757.242188 C 667.609375 754.25 674.203125 750.136719 683.609375 745.15625 Z M -13.058594 1137.632812 C -11.457031 1146.980469 -11.5 1147.023438 -4.347656 1153.351562 C -3 1154.542969 -1.78125 1154.003906 -0.292969 1150.683594 C -5.144531 1147.40625 -5.640625 1139.605469 -13.058594 1137.632812 Z M -13.058594 1137.632812 " fill-opacity="1" fill-rule="nonzero"/><path fill="#ffffff" d="M 523.023438 1187.355469 C 513.902344 1186.871094 512.992188 1175.921875 504.707031 1173.90625 L 500.140625 1181.296875 C 492.636719 1180.132812 490.324219 1172.386719 484.167969 1168.996094 C 480.589844 1177.394531 492.324219 1181.242188 490.28125 1189.9375 C 484.109375 1190.574219 482.476562 1181.425781 476.277344 1182.6875 C 471.796875 1185.183594 474.433594 1188.363281 475.425781 1191.199219 C 476.421875 1194.035156 475.570312 1197.46875 473.5 1197.710938 C 463.085938 1198.902344 470.660156 1204.703125 470.363281 1208.449219 C 470.363281 1209.214844 470.136719 1209.980469 470.023438 1210.746094 C 467.058594 1214.648438 461.226562 1210.238281 458.347656 1215.003906 C 457.90625 1224.125 469.257812 1227.230469 470.320312 1235.472656 C 469.558594 1236.207031 468.734375 1236.855469 467.839844 1237.417969 C 463.128906 1233.730469 458.519531 1229.914062 453.808594 1226.070312 C 448.96875 1227.957031 450.773438 1231.035156 452.914062 1233.460938 C 458.589844 1239.914062 464.757812 1245.945312 470.320312 1252.484375 C 472.039062 1254.496094 470.84375 1257.109375 468.363281 1258.613281 C 459.992188 1254.753906 457.113281 1243.84375 447.238281 1241.84375 C 442.203125 1247.121094 452.164062 1250.679688 448.332031 1256.03125 C 441.367188 1255.449219 439.339844 1246.636719 432.472656 1245.757812 C 432.472656 1253.972656 432.472656 1253.972656 443.167969 1267.039062 C 435.351562 1271.789062 432.613281 1260.199219 425.707031 1261.859375 C 422.144531 1269.335938 431.734375 1272.441406 432.613281 1277.664062 C 427.945312 1282.914062 424.398438 1274.671875 420.582031 1278.671875 C 421.207031 1289.054688 434.882812 1292.855469 434.101562 1304.207031 C 427.59375 1306.304688 426.285156 1298.757812 421.464844 1298.390625 L 417.617188 1308.875 C 405.363281 1303.027344 403.503906 1286.84375 390.140625 1282.6875 C 383.046875 1294.035156 397.644531 1298.53125 398.042969 1307.328125 C 389.886719 1305.441406 389.886719 1305.441406 376.179688 1294.0625 C 369.230469 1299.582031 380.308594 1303.992188 377.0625 1309.300781 C 376.097656 1311.285156 374.761719 1311.414062 372.945312 1309.851562 C 369.058594 1306.519531 365.117188 1303.226562 361.230469 1299.921875 C 354.503906 1300.730469 358.703125 1306.746094 355.101562 1310.632812 C 350.71875 1313.371094 346.320312 1302.816406 340.488281 1308.207031 C 338.757812 1312.972656 344.375 1315 344.671875 1319.554688 C 334.742188 1318.136719 327.992188 1322.988281 322.527344 1330.90625 L 336.546875 1348.59375 C 334.871094 1352.3125 333.054688 1352.339844 330.871094 1350.355469 C 324.0625 1344.253906 317.890625 1337.273438 308.542969 1332.238281 C 307.660156 1342.011719 317.691406 1343.332031 317.804688 1351.246094 C 316.910156 1352.808594 314.414062 1353.105469 312.371094 1351.390625 C 307.136719 1346.992188 302.214844 1342.210938 297.617188 1337.996094 C 292.609375 1337.898438 291.261719 1340.238281 290.269531 1344.054688 C 289.105469 1348.609375 285.289062 1346.4375 282.3125 1345.898438 C 277.773438 1354.242188 290.113281 1356.410156 289.09375 1363.207031 C 286.921875 1365.574219 286.921875 1365.574219 266.636719 1350.4375 C 263.570312 1352.695312 261.984375 1355.746094 264.535156 1358.949219 C 271.53125 1367.660156 278.90625 1376.074219 286.113281 1384.613281 C 287.773438 1386.585938 289.121094 1388.683594 286.59375 1392.613281 C 274.382812 1386.457031 267.414062 1374.171875 256.804688 1366.183594 C 252.816406 1368.398438 254.207031 1371.421875 255.542969 1374.457031 C 259.796875 1383.960938 266.722656 1391.480469 273.585938 1397.90625 C 272.550781 1402.160156 271.332031 1403.695312 268.183594 1402.035156 C 265.03125 1400.375 262.011719 1398.984375 258.421875 1400.230469 C 258.976562 1390.414062 251.328125 1386.515625 243.710938 1377.664062 C 248.277344 1391.027344 248.277344 1391.027344 259.046875 1399.664062 C 257.753906 1403.351562 254.988281 1406.078125 251.511719 1403.808594 C 245.839844 1400.078125 240.957031 1395.296875 235.808594 1390.898438 C 232.789062 1393.125 233.824219 1395.566406 235.425781 1397.535156 C 244.152344 1408.203125 253.046875 1418.71875 261.796875 1429.355469 C 263.855469 1431.867188 265.570312 1434.675781 267.359375 1437.214844 C 263.101562 1441.386719 259.839844 1438.960938 257.597656 1436.761719 C 251.457031 1430.761719 245.796875 1424.25 240.023438 1417.867188 C 235.582031 1412.957031 231.679688 1407.355469 224.417969 1405.539062 C 224.417969 1414.390625 224.417969 1414.390625 240.023438 1432.746094 C 238.164062 1437.230469 235.214844 1436.351562 232.546875 1433.882812 C 228.148438 1429.8125 224.105469 1425.371094 219.777344 1421.214844 C 218.421875 1420.125 216.96875 1419.179688 215.421875 1418.375 C 211.378906 1421.015625 212.785156 1424.277344 215.253906 1426.5625 C 219.082031 1429.804688 223.074219 1432.828125 227.226562 1435.640625 C 220.460938 1445.570312 215.125 1434.023438 208.882812 1439.257812 C 216.132812 1447.417969 223.496094 1455.460938 230.546875 1463.757812 C 233.382812 1467.164062 234.800781 1471.105469 230.320312 1474.824219 C 219.226562 1468.921875 215.578125 1455.773438 205.324219 1449.148438 C 204.570312 1455.53125 204.570312 1455.53125 209.410156 1463.148438 C 210.203125 1468.140625 204.558594 1466.609375 203.152344 1469.417969 C 202.058594 1471.617188 200.8125 1473.746094 199.238281 1476.597656 L 180.15625 1462.15625 C 182.199219 1470.808594 182.199219 1470.808594 189.222656 1479.859375 C 180.085938 1482.171875 176.453125 1471.347656 168.59375 1472.765625 C 165.757812 1477.449219 165.574219 1477.492188 169.0625 1485.09375 C 167.644531 1485.761719 166.140625 1487.179688 164.992188 1486.910156 C 161.722656 1485.949219 158.523438 1484.785156 155.402344 1483.421875 C 149.839844 1489.351562 144.917969 1495.308594 139.230469 1500.445312 C 134.972656 1504.21875 129.953125 1504.898438 125.910156 1499.410156 C 126.023438 1497.761719 125.496094 1495.59375 126.347656 1494.542969 C 164.765625 1446.960938 203.25 1399.441406 241.808594 1351.984375 C 263.941406 1324.636719 290.625 1303.753906 324.203125 1292.019531 C 337.949219 1287.183594 350.972656 1280.289062 364.519531 1274.8125 C 387.6875 1265.421875 405.25 1248.824219 420.414062 1229.957031 C 445.4375 1198.960938 464.503906 1164.148438 479.542969 1127.261719 C 490.265625 1100.976562 499.65625 1074.148438 509.53125 1047.507812 C 511.019531 1043.507812 511.886719 1039.28125 513.078125 1035.164062 C 520.738281 1008.707031 536.769531 987.527344 555.976562 968.605469 C 560.53125 964.511719 565.765625 961.675781 571.679688 960.09375 C 594.378906 953.367188 613.871094 940.871094 633.078125 927.691406 C 635.128906 926.117188 637.359375 924.847656 639.761719 923.890625 C 641.066406 923.464844 643.050781 924.285156 644.414062 925.066406 C 647.007812 926.484375 647.25 929.179688 646.457031 931.75 C 645.785156 933.328125 644.921875 934.796875 643.859375 936.144531 C 639.875 942.175781 630.722656 944.785156 632.835938 954.972656 C 634.070312 960.972656 625.984375 965.9375 629.121094 973.128906 L 618.664062 966.703125 C 615.332031 975.699219 626.78125 980.675781 626.171875 989.796875 C 614.652344 987.175781 613.757812 974.929688 605.0625 971.355469 C 598.109375 975.058594 609.898438 980.464844 602.960938 984.664062 L 589.257812 976.152344 C 587.242188 984.039062 598.71875 987.132812 593.511719 994.707031 C 586.039062 993.871094 584.460938 984.945312 577.753906 983.089844 C 577.460938 983.1875 577.183594 983.316406 576.917969 983.472656 C 576.65625 983.628906 576.40625 983.808594 576.179688 984.011719 C 575.949219 984.214844 575.742188 984.441406 575.558594 984.6875 C 575.375 984.933594 575.214844 985.195312 575.085938 985.472656 C 574.953125 985.75 574.847656 986.039062 574.773438 986.335938 C 574.699219 986.632812 574.65625 986.9375 574.640625 987.242188 C 574.625 987.550781 574.640625 987.855469 574.6875 988.160156 C 574.734375 988.460938 574.808594 988.757812 574.914062 989.046875 C 577.597656 995.304688 580.929688 1001.273438 583.980469 1007.277344 C 583.085938 1009.6875 582.007812 1009.972656 580.277344 1008.921875 C 574.503906 1005.375 571.140625 998.578125 562.6875 996.367188 C 562.460938 1005.898438 575.113281 1008.59375 573.140625 1018.609375 C 564.488281 1020.171875 563.976562 1007.53125 556.035156 1008.242188 C 552.8125 1012.199219 556.488281 1014.609375 558.460938 1016.867188 C 566.972656 1026.570312 575.878906 1035.917969 584.335938 1045.664062 C 586.109375 1047.707031 584.816406 1050.289062 581.496094 1052.132812 L 547.691406 1017.730469 C 544.214844 1020.566406 544.785156 1023.066406 546.414062 1025.09375 C 551.296875 1031.121094 556.460938 1036.898438 561.394531 1042.867188 C 562.96875 1044.785156 564.472656 1046.925781 563.011719 1049.847656 C 562.644531 1050.246094 561.835938 1051.464844 561.59375 1051.351562 C 550.742188 1047.097656 547.066406 1034.328125 535.164062 1029.589844 C 530.910156 1042.359375 543.820312 1046.910156 547.027344 1056.003906 L 541.351562 1060.660156 C 540.96875 1069.636719 552.96875 1072.375 552.628906 1082.378906 C 541.28125 1083.882812 538.925781 1070.433594 529.929688 1069.3125 C 524.058594 1079.808594 540.769531 1082.632812 536.285156 1092.761719 L 524.726562 1084.886719 C 521.207031 1092.917969 528.78125 1096.09375 530.398438 1101.683594 L 522.839844 1108.578125 C 529.804688 1119.929688 536.839844 1131.417969 543.820312 1142.8125 C 535.691406 1149.039062 535.050781 1140.882812 531.703125 1138.257812 C 527.292969 1137.945312 528.554688 1143.351562 524.609375 1144.738281 L 505.289062 1125.332031 C 498.195312 1132.328125 506.609375 1136.683594 506.707031 1142.695312 L 499.191406 1148.96875 C 506.113281 1158.714844 512.992188 1168.542969 520 1178.289062 C 522.085938 1181.128906 523.71875 1183.964844 522.839844 1187.722656 Z M 523.023438 1187.355469 " fill-opacity="1" fill-rule="nonzero"/><path fill="#ffffff" d="M 1273.472656 1393.480469 C 1265.371094 1393.59375 1263.539062 1384.726562 1256.605469 1386.246094 C 1256.320312 1393.792969 1266.292969 1395.222656 1265.9375 1402.617188 C 1264.421875 1403 1262.347656 1404.203125 1261.457031 1403.621094 C 1254.5625 1399.113281 1249.128906 1392.273438 1239.59375 1388.5 C 1239.792969 1399.679688 1251.9375 1401.765625 1251.921875 1410.871094 C 1247.339844 1414.445312 1244.277344 1409.90625 1240.941406 1408.332031 C 1237.082031 1406.503906 1233.691406 1403.722656 1229.761719 1401.15625 C 1228.714844 1403.738281 1228.246094 1406.359375 1226.769531 1408.164062 C 1223.804688 1411.808594 1216.398438 1410.234375 1215.960938 1417.128906 C 1206.726562 1421.382812 1197.519531 1425.765625 1188.199219 1429.78125 C 1187.175781 1430.222656 1184.820312 1429 1183.941406 1427.882812 C 1183.0625 1426.761719 1182.523438 1424.179688 1183.148438 1423.425781 C 1192.21875 1413.128906 1201.433594 1402.957031 1210.796875 1392.914062 C 1233.238281 1369.007812 1255.058594 1344.578125 1273.214844 1317.214844 C 1284.109375 1300.828125 1298.253906 1289.167969 1316.78125 1282.5 C 1325.660156 1279.296875 1334.089844 1274.828125 1343.011719 1271.761719 C 1351.101562 1268.820312 1359.402344 1266.683594 1367.90625 1265.351562 C 1385.8125 1262.867188 1403.613281 1260.171875 1420.90625 1254.710938 C 1421.246094 1254.578125 1421.597656 1254.480469 1421.953125 1254.414062 C 1422.3125 1254.34375 1422.675781 1254.308594 1423.039062 1254.304688 C 1423.402344 1254.304688 1423.765625 1254.335938 1424.125 1254.398438 C 1424.480469 1254.460938 1424.832031 1254.554688 1425.175781 1254.679688 C 1425.515625 1254.808594 1425.84375 1254.960938 1426.15625 1255.148438 C 1426.472656 1255.335938 1426.765625 1255.546875 1427.042969 1255.785156 C 1427.316406 1256.023438 1427.570312 1256.285156 1427.796875 1256.570312 C 1428.023438 1256.855469 1428.226562 1257.15625 1428.398438 1257.476562 C 1429.675781 1264.65625 1421.304688 1267.40625 1418.808594 1273.308594 C 1419.402344 1280.402344 1429.21875 1285.960938 1422.183594 1294.289062 C 1414 1291.453125 1413.277344 1281.523438 1406.027344 1278.003906 C 1404.609375 1277.351562 1402.566406 1276.855469 1401.429688 1277.464844 C 1400.835938 1277.976562 1400.390625 1278.59375 1400.09375 1279.320312 C 1399.796875 1280.046875 1399.679688 1280.796875 1399.742188 1281.578125 C 1400.222656 1285.507812 1405.003906 1288.742188 1401.558594 1293.410156 C 1392.917969 1293.011719 1391.839844 1279.066406 1380.136719 1282.332031 C 1389.570312 1300.558594 1411.886719 1307.867188 1417.746094 1328.125 C 1417.871094 1328.5625 1416.695312 1329.386719 1415.972656 1330.195312 C 1405.203125 1320.421875 1395.671875 1309.15625 1383.144531 1301.964844 C 1374.988281 1305.410156 1385.980469 1311.382812 1380.535156 1314.832031 C 1377.171875 1315.441406 1381.386719 1317.273438 1378.648438 1315.171875 C 1368.433594 1307.3125 1362.417969 1295 1350.742188 1288.574219 C 1345.976562 1291.054688 1348.8125 1293.722656 1350.429688 1296.332031 C 1353.550781 1301.398438 1359.863281 1304.136719 1361.085938 1310.519531 C 1361.3125 1311.695312 1359.667969 1313.242188 1358.984375 1314.617188 C 1350.6875 1310.71875 1347.636719 1299.992188 1337.28125 1298.121094 C 1335.960938 1305.453125 1342.570312 1308.179688 1345.691406 1312.71875 C 1348.53125 1316.773438 1351.808594 1320.492188 1357.167969 1327.203125 C 1339.621094 1321.96875 1333.890625 1305.921875 1319.449219 1301.042969 C 1315.476562 1310.535156 1327.40625 1313.1875 1326.542969 1320.464844 C 1320.46875 1322.335938 1318.425781 1314.917969 1311.929688 1314.660156 C 1311.121094 1321.753906 1310.3125 1328.945312 1309.519531 1335.941406 C 1301.589844 1337.644531 1300.011719 1328.605469 1293.914062 1328.195312 C 1291.742188 1329.203125 1291.445312 1330.421875 1292.765625 1332.054688 C 1295.984375 1336.066406 1299.132812 1340.140625 1302.140625 1343.957031 C 1302.398438 1349.359375 1294.339844 1347.644531 1295.132812 1352.90625 C 1295.644531 1356.183594 1298.070312 1360 1297.046875 1362.527344 C 1295.003906 1367.546875 1297.585938 1376.585938 1287.117188 1374.429688 C 1289.957031 1384.839844 1300.863281 1388.089844 1302.609375 1398.035156 C 1294.949219 1398.757812 1291.828125 1392.839844 1287.429688 1389.351562 C 1282.722656 1385.585938 1278.261719 1381.554688 1274.039062 1377.25 C 1269.96875 1373.136719 1266.945312 1367.84375 1260.804688 1366.285156 C 1260.234375 1367.023438 1259.242188 1367.703125 1259.285156 1368.371094 C 1259.710938 1378.472656 1272.335938 1381.421875 1273.328125 1393.464844 Z M 1273.472656 1393.480469 " fill-opacity="1" fill-rule="nonzero"/><path fill="#ffffff" d="M 1550.527344 468.511719 C 1556.855469 470.710938 1559.335938 476.597656 1562.289062 481.664062 C 1597.753906 542.75 1639.289062 599.949219 1676.019531 660.195312 C 1698.332031 696.796875 1730.109375 721.921875 1766.808594 742.179688 C 1778.839844 748.816406 1790.359375 756.363281 1801.921875 763.855469 C 1809.167969 768.578125 1815.742188 774.101562 1821.648438 780.421875 C 1827.554688 786.738281 1832.621094 793.671875 1836.847656 801.222656 C 1842.28125 810.566406 1846.8125 820.332031 1850.4375 830.515625 C 1854.0625 840.699219 1856.71875 851.132812 1858.410156 861.808594 C 1863.800781 895.820312 1871.613281 929.269531 1881.84375 962.148438 C 1891.773438 994.367188 1908.046875 1023.988281 1926.816406 1051.863281 C 1938.800781 1069.652344 1953.058594 1085.910156 1966.535156 1102.707031 C 1980.59375 1120.210938 1992.070312 1139.460938 2002.769531 1158.980469 C 2015.535156 1182.332031 2026.289062 1206.832031 2037.90625 1230.808594 C 2032.503906 1234.523438 2030.730469 1234.496094 2028.53125 1230.421875 C 2018.289062 1211.511719 2007.746094 1192.730469 1998 1173.566406 C 1987.003906 1152.046875 1973.953125 1131.855469 1958.847656 1112.992188 C 1935.808594 1084.09375 1913.734375 1054.414062 1895.648438 1021.929688 C 1877.832031 989.953125 1867.558594 955.46875 1859.671875 920.128906 C 1853.996094 894.992188 1849.429688 869.625 1844.335938 844.375 C 1838.664062 816.117188 1823.894531 793.789062 1800.957031 776.351562 C 1785.789062 764.804688 1768.824219 756.40625 1752.722656 746.5625 C 1738.777344 738.050781 1725.085938 729.4375 1712.320312 718.984375 C 1699.027344 707.839844 1687.632812 695.011719 1678.132812 680.496094 C 1655.53125 646.972656 1633.105469 613.3125 1611.457031 579.152344 C 1590.757812 546.4375 1571.152344 513.015625 1551.050781 479.917969 C 1548.925781 476.203125 1546.511719 472.527344 1550.625 468.511719 Z M 1550.527344 468.511719 " fill-opacity="1" fill-rule="nonzero"/><path fill="#ffffff" d="M 868.269531 646.621094 C 863.914062 644.589844 863.492188 641.273438 864.980469 638.179688 C 868.609375 630.398438 872.644531 622.832031 877.082031 615.480469 C 882.628906 606.613281 885.90625 596.898438 889.195312 587.109375 C 902.105469 548.90625 915.070312 510.714844 931.46875 473.832031 C 936.308594 462.9375 939.316406 451.132812 947.074219 441.558594 C 951.417969 436.195312 955.460938 430.875 961.261719 426.792969 C 986.398438 408.859375 1011.367188 390.703125 1036.449219 372.683594 C 1037.925781 371.917969 1039.476562 371.34375 1041.101562 370.96875 C 1044.605469 372.8125 1042.519531 375.125 1041.5 377.140625 C 1039.277344 381.339844 1036.644531 385.265625 1033.597656 388.910156 C 1030.546875 392.554688 1027.152344 395.84375 1023.410156 398.773438 C 1011.425781 408.40625 999.59375 418.632812 986.285156 426.136719 C 962.324219 439.617188 947.105469 459.832031 939.214844 485.023438 C 933.03125 504.800781 924.304688 523.398438 916.84375 542.550781 C 905.027344 572.867188 893.890625 603.550781 878.128906 632.207031 C 875.320312 637.355469 873.519531 643.34375 868.269531 646.621094 Z M 868.269531 646.621094 " fill-opacity="1" fill-rule="nonzero"/><path fill="#ffffff" d="M 2031.4375 1179.695312 C 2029.664062 1177.820312 2027.28125 1176.273438 2026.230469 1174.019531 C 2008.203125 1136.695312 1983.972656 1103.089844 1963.214844 1067.324219 C 1944.632812 1035.351562 1925.59375 1003.628906 1907.222656 971.527344 C 1903.59375 965.183594 1898.542969 959 1898.542969 950.96875 C 1900.613281 950.460938 1902.65625 949.296875 1903.449219 949.863281 C 1905.589844 951.375 1907.3125 953.265625 1908.613281 955.539062 C 1925.878906 987.273438 1948.09375 1015.941406 1963.941406 1048.742188 C 1974.308594 1070.289062 1989.476562 1089.539062 2002.371094 1109.871094 C 2015.777344 1130.980469 2025.507812 1153.847656 2033.296875 1177.496094 C 2033.296875 1177.964844 2032.160156 1178.8125 2031.453125 1179.695312 Z M 2031.4375 1179.695312 " fill-opacity="1" fill-rule="nonzero"/><path fill="#ffffff" d="M 1030.632812 1026.683594 C 1033.058594 1023.363281 1035.371094 1021.886719 1037.851562 1023.078125 C 1041.003906 1024.480469 1043.785156 1026.414062 1046.195312 1028.878906 C 1066.195312 1051.253906 1086.566406 1073.253906 1103.335938 1098.394531 C 1116.105469 1117.65625 1131.125 1135.503906 1145.101562 1154.003906 C 1148.207031 1158.117188 1152.109375 1161.917969 1154.050781 1166.542969 C 1156.734375 1172.871094 1166.632812 1176.957031 1160.777344 1186.175781 C 1151.839844 1185.878906 1151.355469 1177.507812 1147.425781 1172.34375 C 1136.488281 1158.003906 1125.195312 1143.972656 1114.371094 1129.515625 C 1103.550781 1115.0625 1092.921875 1100.59375 1082.636719 1085.824219 C 1072.707031 1071.636719 1060.253906 1059.847656 1048.664062 1047.238281 C 1042.378906 1040.429688 1035.328125 1034.257812 1030.632812 1026.683594 Z M 1030.632812 1026.683594 " fill-opacity="1" fill-rule="nonzero"/><path fill="#ffffff" d="M 1623.871094 387.382812 C 1616.082031 378.148438 1608.265625 369.59375 1602.589844 359.265625 C 1595.496094 346.496094 1588.503906 333.585938 1580.417969 321.445312 C 1562.34375 294.277344 1543.53125 267.535156 1525.089844 240.582031 C 1522.074219 236.417969 1519.386719 232.054688 1517.019531 227.488281 C 1515.96875 225.347656 1517.175781 222.679688 1519.628906 221.234375 C 1538.382812 235.007812 1595.269531 323.558594 1620.351562 369.75 C 1623.1875 374.8125 1627.300781 379.921875 1623.898438 387.382812 Z M 1623.871094 387.382812 " fill-opacity="1" fill-rule="nonzero"/><path fill="#ffffff" d="M 1459.878906 984.960938 C 1462.96875 980.066406 1466.160156 979.882812 1468.757812 982.988281 C 1474.816406 990.238281 1480.789062 997.585938 1486.222656 1005.304688 C 1509.5 1038.441406 1532.128906 1071.976562 1550.78125 1108.054688 C 1553.933594 1114.207031 1556.628906 1120.550781 1558.867188 1127.089844 C 1559.449219 1128.765625 1557.449219 1131.347656 1555.902344 1135.703125 C 1526.253906 1082.078125 1493.058594 1033.152344 1459.863281 984.960938 Z M 1459.878906 984.960938 " fill-opacity="1" fill-rule="nonzero"/><path fill="#ffffff" d="M 1638.199219 674.15625 C 1628.378906 659.714844 1618.039062 645.996094 1609.34375 631.3125 C 1596.179688 609.113281 1583.011719 586.953125 1567.691406 566.140625 C 1566.582031 564.808594 1565.898438 563.285156 1565.636719 561.574219 C 1565.613281 560.757812 1565.765625 559.976562 1566.101562 559.230469 C 1566.433594 558.484375 1566.914062 557.847656 1567.535156 557.316406 C 1568.265625 557 1569.027344 556.875 1569.820312 556.945312 C 1570.613281 557.015625 1571.34375 557.273438 1572.003906 557.714844 C 1585.382812 573.40625 1598.589844 589.265625 1608.492188 607.496094 C 1618.394531 625.722656 1631.585938 641.738281 1639.035156 661.203125 C 1640.59375 665.132812 1643.007812 668.992188 1638.324219 674.15625 Z M 1638.199219 674.15625 " fill-opacity="1" fill-rule="nonzero"/><path fill="#ffffff" d="M 522.808594 1187.554688 C 526.78125 1187.070312 529.222656 1189.625 531.195312 1192.320312 C 536.738281 1199.867188 542.003906 1207.625 547.378906 1215.316406 C 545.636719 1216.449219 543.632812 1218.292969 543.125 1217.953125 C 535.902344 1212.960938 526.242188 1197.992188 522.992188 1187.355469 Z M 522.808594 1187.554688 " fill-opacity="1" fill-rule="nonzero"/><path fill="#ffffff" d="M 775.523438 558.070312 C 772.867188 553.8125 770.828125 549.558594 771.847656 544.324219 C 787.550781 559.175781 787.550781 559.175781 790.445312 568.441406 C 789.453125 569.859375 788.035156 569.957031 786.417969 568.441406 C 782.742188 565.007812 779.152344 561.515625 775.523438 558.070312 Z M 775.523438 558.070312 " fill-opacity="1" fill-rule="nonzero"/><path fill="#ffffff" d="M 1428.808594 74.378906 C 1430.398438 74.773438 1432.570312 74.648438 1433.460938 75.640625 C 1439.050781 81.996094 1444.359375 88.59375 1451.90625 97.757812 C 1436.03125 88.5625 1435.71875 88.222656 1429.304688 73.867188 Z M 1428.808594 74.378906 " fill-opacity="1" fill-rule="nonzero"/><path fill="#ffffff" d="M 1869.289062 1301.3125 C 1877.023438 1301.398438 1880.964844 1306.460938 1883.972656 1312.660156 C 1884.15625 1313.042969 1883.40625 1314.078125 1882.910156 1314.546875 C 1882.414062 1315.015625 1881.492188 1315.738281 1881.09375 1315.554688 C 1875.207031 1312.503906 1869.035156 1309.625 1869.148438 1301.46875 Z M 1869.289062 1301.3125 " fill-opacity="1" fill-rule="nonzero"/></svg>