<svg xmlns="http://www.w3.org/2000/svg" viewBox="0 0 44 55" x="0px" y="0px"><title>Монтажная область 74</title><g><path d="M39.73975,21.32763a1.00027,1.00027,0,0,0-1.4126-.06689L35.95605,23.416a8.56008,8.56008,0,0,1-13.09863-1.93018A10.5604,10.5604,0,0,0,6.69824,19.10546L4.32715,21.26074a1,1,0,1,0,1.3457,1.47949L8.044,20.585a8.56021,8.56021,0,0,1,13.09863,1.93018,10.52215,10.52215,0,0,0,7.51611,5.01416,10.68013,10.68013,0,0,0,1.55274.11377,10.51728,10.51728,0,0,0,7.09033-2.74756l2.37109-2.15527A.99985.99985,0,0,0,39.73975,21.32763Z"/></g><text x="0" y="59" fill="#000000" font-size="5px" font-weight="bold" font-family="'Helvetica Neue', Helvetica, Arial-Unicode, Arial, Sans-serif">Created by Chintuza</text><text x="0" y="64" fill="#000000" font-size="5px" font-weight="bold" font-family="'Helvetica Neue', Helvetica, Arial-Unicode, Arial, Sans-serif">from the Noun Project</text></svg>