<svg xmlns="http://www.w3.org/2000/svg" xmlns:xlink="http://www.w3.org/1999/xlink" width="160" zoomAndPan="magnify" viewBox="0 0 120 30.000001" height="40" preserveAspectRatio="xMidYMid meet" version="1.0"><defs><filter x="0%" y="0%" width="100%" height="100%" id="7eef384a8a"><feColorMatrix values="0 0 0 0 1 0 0 0 0 1 0 0 0 0 1 0 0 0 1 0" color-interpolation-filters="sRGB"/></filter><g/><clipPath id="53c3b9575f"><path d="M 69 0 L 107.46875 0 L 107.46875 29.03125 L 69 29.03125 Z M 69 0 " clip-rule="nonzero"/></clipPath><clipPath id="bce4f98f29"><path d="M 78.890625 13.222656 C 75.621094 14.050781 72.386719 14.691406 69.007812 14.253906 C 69.203125 13.175781 69.734375 12.210938 70.363281 11.34375 C 71.390625 9.9375 72.804688 8.769531 74.105469 7.609375 C 74.824219 6.960938 75.621094 6.300781 76.160156 5.515625 C 76.417969 5.136719 76.679688 4.710938 76.734375 4.261719 C 76.773438 3.929688 76.765625 3.542969 76.570312 3.246094 C 76.410156 3.007812 76.03125 2.859375 75.757812 2.890625 C 75.378906 2.9375 75 3.132812 74.730469 3.425781 C 74.304688 3.882812 74.089844 4.5 73.894531 5.074219 C 72.851562 5.058594 71.800781 5.027344 70.757812 4.988281 C 71.097656 4.121094 71.5 3.277344 72.09375 2.558594 C 72.566406 1.980469 73.160156 1.492188 73.804688 1.128906 C 74.539062 0.71875 75.386719 0.488281 76.214844 0.417969 C 76.941406 0.355469 77.761719 0.308594 78.425781 0.648438 C 78.914062 0.898438 79.300781 1.382812 79.496094 1.894531 C 79.734375 2.503906 79.78125 3.210938 79.6875 3.859375 C 79.570312 4.703125 79.238281 5.476562 78.804688 6.195312 C 78.171875 7.238281 77.238281 8.128906 76.339844 8.96875 C 75.867188 9.394531 75.386719 9.820312 74.933594 10.269531 C 74.636719 10.570312 74.359375 10.886719 74.074219 11.207031 C 75.738281 10.988281 77.382812 10.65625 79.023438 10.300781 C 78.976562 11.28125 78.921875 12.25 78.890625 13.222656 Z M 80.707031 6.535156 C 80.886719 4.832031 81.234375 2.867188 82.355469 1.476562 C 83.183594 0.457031 84.460938 0 85.726562 0.015625 C 86.324219 0.0234375 86.972656 0.0703125 87.523438 0.324219 C 87.960938 0.527344 88.378906 0.765625 88.726562 1.121094 C 89.015625 1.421875 89.269531 1.761719 89.46875 2.132812 C 89.664062 2.511719 89.8125 2.921875 89.910156 3.332031 C 90.121094 4.207031 90.25 5.097656 90.25 5.992188 C 90.25 7.484375 90.074219 9.21875 89.039062 10.417969 C 88.070312 11.539062 86.429688 11.886719 85.054688 12.070312 C 84.273438 12.171875 83.414062 12.265625 82.632812 12.015625 C 82.046875 11.824219 81.527344 11.40625 81.203125 10.886719 C 80.878906 10.363281 80.761719 9.734375 80.679688 9.140625 C 80.570312 8.296875 80.609375 7.394531 80.707031 6.535156 Z M 83.777344 6.179688 C 83.703125 7.121094 83.570312 8.296875 83.964844 9.171875 C 84.164062 9.597656 84.613281 9.898438 85.09375 9.835938 C 85.394531 9.796875 85.773438 9.621094 85.992188 9.402344 C 86.285156 9.101562 86.484375 8.707031 86.59375 8.304688 C 86.792969 7.585938 86.839844 6.8125 86.871094 6.078125 C 86.910156 5.121094 86.972656 3.976562 86.609375 3.070312 C 86.429688 2.613281 86 2.289062 85.511719 2.28125 C 84.984375 2.265625 84.566406 2.691406 84.359375 3.132812 C 83.925781 4.042969 83.855469 5.179688 83.777344 6.179688 Z M 91.652344 3.308594 C 91.628906 2.785156 91.730469 2.265625 91.921875 1.769531 C 92.085938 1.335938 92.417969 0.90625 92.84375 0.679688 C 93.304688 0.433594 93.855469 0.355469 94.367188 0.425781 C 95.222656 0.535156 95.996094 0.964844 96.554688 1.617188 C 97.179688 2.351562 97.574219 3.285156 97.683594 4.230469 C 97.777344 5.035156 97.777344 5.96875 97.164062 6.589844 C 96.5625 7.207031 95.671875 7.152344 94.9375 6.984375 C 94.3125 6.84375 93.730469 6.582031 93.183594 6.210938 C 92.710938 5.886719 92.292969 5.414062 92.054688 4.902344 C 91.828125 4.390625 91.675781 3.851562 91.652344 3.308594 Z M 93.808594 3.574219 C 93.847656 4.089844 93.925781 4.671875 94.226562 5.128906 C 94.375 5.359375 94.582031 5.5 94.84375 5.558594 C 95.101562 5.605469 95.292969 5.542969 95.402344 5.359375 C 95.65625 4.910156 95.601562 4.347656 95.5625 3.867188 C 95.511719 3.324219 95.394531 2.746094 95.09375 2.273438 C 94.953125 2.050781 94.753906 1.917969 94.511719 1.886719 C 94.265625 1.855469 94.09375 1.933594 93.980469 2.117188 C 93.753906 2.566406 93.769531 3.101562 93.808594 3.574219 Z M 100.40625 1.351562 C 100.921875 1.445312 101.433594 1.53125 101.945312 1.625 C 100.839844 6.332031 99.332031 10.664062 96.746094 14.769531 C 96.167969 14.53125 95.59375 14.296875 95.015625 14.058594 C 96.277344 12.09375 97.4375 10.070312 98.339844 7.902344 C 99.222656 5.785156 99.839844 3.574219 100.40625 1.351562 Z M 100.550781 12.234375 C 100.542969 11.621094 100.582031 10.980469 100.800781 10.386719 C 100.976562 9.90625 101.308594 9.449219 101.789062 9.21875 C 102.347656 8.953125 102.941406 8.933594 103.523438 8.992188 C 104.496094 9.085938 105.492188 9.496094 106.21875 10.191406 C 106.984375 10.917969 107.464844 11.902344 107.558594 12.953125 C 107.652344 14.011719 107.355469 15.101562 106.660156 15.914062 C 105.988281 16.695312 104.960938 17.074219 103.953125 16.957031 C 103.265625 16.875 102.585938 16.558594 102.089844 16.085938 C 101.582031 15.605469 101.1875 14.972656 100.960938 14.3125 C 100.722656 13.65625 100.566406 12.9375 100.550781 12.234375 Z M 102.957031 12.789062 C 102.988281 13.425781 103.042969 14.128906 103.359375 14.714844 C 103.507812 14.988281 103.722656 15.148438 104.023438 15.179688 C 104.324219 15.210938 104.550781 15.109375 104.703125 14.871094 C 105.023438 14.3125 105.03125 13.625 104.992188 13.023438 C 104.953125 12.402344 104.84375 11.683594 104.464844 11.136719 C 104.28125 10.878906 104.046875 10.742188 103.761719 10.703125 C 103.476562 10.671875 103.273438 10.765625 103.164062 10.996094 C 102.878906 11.53125 102.925781 12.21875 102.957031 12.789062 Z M 69.851562 22.292969 C 69.621094 20.785156 69.875 19.308594 71.066406 18.226562 C 72.289062 17.128906 73.964844 16.640625 75.527344 16.371094 C 77.035156 16.109375 78.753906 16 80.003906 17.105469 C 81.367188 18.320312 81.707031 20.324219 81.808594 22.039062 C 81.898438 23.355469 81.90625 24.808594 81.453125 26.070312 C 81.140625 26.949219 80.671875 27.761719 79.867188 28.289062 C 79.023438 28.84375 78.003906 28.914062 77.058594 28.828125 C 75.96875 28.722656 74.878906 28.417969 73.894531 27.878906 C 72.90625 27.34375 72.054688 26.554688 71.359375 25.675781 C 70.59375 24.699219 70.03125 23.507812 69.851562 22.292969 Z M 73.539062 22.65625 C 73.65625 23.539062 73.925781 24.539062 74.578125 25.21875 C 75.070312 25.726562 75.730469 26.046875 76.425781 26.089844 C 77.042969 26.128906 77.691406 25.875 78.011719 25.332031 C 78.519531 24.46875 78.382812 23.253906 78.304688 22.316406 C 78.226562 21.429688 78.085938 20.40625 77.453125 19.726562 C 76.996094 19.238281 76.277344 19.070312 75.621094 19.15625 C 74.980469 19.246094 74.3125 19.550781 73.925781 20.089844 C 73.402344 20.832031 73.425781 21.816406 73.539062 22.65625 Z M 83.507812 14.800781 C 85.046875 14.523438 86.625 14.296875 88.1875 14.375 C 89.789062 14.453125 91.351562 14.855469 92.867188 15.359375 C 92.859375 16.324219 92.867188 17.277344 92.875 18.242188 C 91.0625 17.777344 89.222656 17.414062 87.335938 17.445312 C 87.359375 18.328125 87.375 19.203125 87.398438 20.089844 C 88.984375 20.074219 90.539062 20.238281 92.101562 20.5 C 92.109375 21.453125 92.121094 22.410156 92.128906 23.363281 C 90.578125 23.238281 89.039062 23.191406 87.484375 23.191406 C 87.539062 25.140625 87.589844 27.082031 87.605469 29.03125 C 86.46875 29.023438 85.324219 29.015625 84.1875 29 C 83.855469 24.265625 83.585938 19.535156 83.507812 14.800781 Z M 94.890625 16.101562 C 97.960938 17.308594 101 18.660156 104.324219 18.953125 C 104.28125 19.617188 104.25 20.277344 104.226562 20.941406 C 102.308594 20.847656 100.460938 20.453125 98.609375 19.945312 C 98.609375 20.578125 98.609375 21.203125 98.609375 21.832031 C 100.179688 22.125 101.742188 22.347656 103.335938 22.410156 C 103.3125 22.984375 103.28125 23.5625 103.234375 24.128906 C 101.679688 24.1875 100.125 24.121094 98.574219 24.003906 C 98.519531 25.527344 98.394531 27.035156 98.15625 28.535156 C 96.988281 28.644531 95.8125 28.738281 94.644531 28.8125 C 95.054688 24.589844 94.851562 20.339844 94.890625 16.101562 Z M 94.890625 16.101562 " clip-rule="nonzero"/></clipPath><clipPath id="d7eee4b3cc"><path d="M 17.960938 0 L 46.996094 0 L 46.996094 29.03125 L 17.960938 29.03125 Z M 17.960938 0 " clip-rule="nonzero"/></clipPath><clipPath id="00c032c57d"><path d="M 29.246094 9.980469 L 32 9.980469 L 32 18.691406 L 29.246094 18.691406 Z M 29.246094 9.980469 " clip-rule="nonzero"/></clipPath><clipPath id="8072357dde"><path d="M 33 9.980469 L 36.503906 9.980469 L 36.503906 18.691406 L 33 18.691406 Z M 33 9.980469 " clip-rule="nonzero"/></clipPath><clipPath id="59f5eb8ca1"><path d="M 30 17 L 36 17 L 36 18.691406 L 30 18.691406 Z M 30 17 " clip-rule="nonzero"/></clipPath><clipPath id="ad40741362"><path d="M 26 18 L 40 18 L 40 24 L 26 24 Z M 26 18 " clip-rule="nonzero"/></clipPath><clipPath id="3f82e8e725"><path d="M 25.15625 19.382812 L 40.320312 17.84375 L 40.832031 22.902344 L 25.667969 24.4375 Z M 25.15625 19.382812 " clip-rule="nonzero"/></clipPath><clipPath id="1d3f205043"><path d="M 25.15625 19.382812 L 40.320312 17.84375 L 40.832031 22.902344 L 25.667969 24.4375 Z M 25.15625 19.382812 " clip-rule="nonzero"/></clipPath><clipPath id="9175afa2a8"><path d="M 25 19 L 28 19 L 28 21 L 25 21 Z M 25 19 " clip-rule="nonzero"/></clipPath><clipPath id="3e6eeeaba1"><path d="M 25.15625 19.382812 L 40.320312 17.84375 L 40.832031 22.902344 L 25.667969 24.4375 Z M 25.15625 19.382812 " clip-rule="nonzero"/></clipPath><clipPath id="6a1a7d6354"><path d="M 25.15625 19.382812 L 40.320312 17.84375 L 40.832031 22.902344 L 25.667969 24.4375 Z M 25.15625 19.382812 " clip-rule="nonzero"/></clipPath><clipPath id="bd6107d1cf"><path d="M 38 18 L 41 18 L 41 20 L 38 20 Z M 38 18 " clip-rule="nonzero"/></clipPath><clipPath id="45435ba317"><path d="M 25.15625 19.382812 L 40.320312 17.84375 L 40.832031 22.902344 L 25.667969 24.4375 Z M 25.15625 19.382812 " clip-rule="nonzero"/></clipPath><clipPath id="5e9867e319"><path d="M 25.15625 19.382812 L 40.320312 17.84375 L 40.832031 22.902344 L 25.667969 24.4375 Z M 25.15625 19.382812 " clip-rule="nonzero"/></clipPath><mask id="4e7d671ff0"><g filter="url(#7eef384a8a)"><rect x="-12" width="144" fill="#000000" y="-3" height="36.000001" fill-opacity="0.59"/></g></mask><clipPath id="9c2341f53b"><path d="M 0.242188 1.035156 L 26.714844 1.035156 L 26.714844 8.800781 L 0.242188 8.800781 Z M 0.242188 1.035156 " clip-rule="nonzero"/></clipPath><clipPath id="13fc425f34"><rect x="0" width="27" y="0" height="9"/></clipPath><clipPath id="2394af7c71"><path d="M 38 16 L 43 16 L 43 19 L 38 19 Z M 38 16 " clip-rule="nonzero"/></clipPath><clipPath id="e622a3d365"><path d="M 39.183594 15.695312 L 42.855469 18.039062 L 42.074219 19.261719 L 38.402344 16.917969 Z M 39.183594 15.695312 " clip-rule="nonzero"/></clipPath><clipPath id="91869c5065"><path d="M 39.183594 15.695312 L 42.855469 18.039062 L 42.074219 19.261719 L 38.402344 16.917969 Z M 39.183594 15.695312 " clip-rule="nonzero"/></clipPath><clipPath id="0b47b5d3ab"><path d="M 40 18 L 41 18 L 41 19 L 40 19 Z M 40 18 " clip-rule="nonzero"/></clipPath><clipPath id="16db78b4ab"><path d="M 39.183594 15.695312 L 42.855469 18.039062 L 42.074219 19.261719 L 38.402344 16.917969 Z M 39.183594 15.695312 " clip-rule="nonzero"/></clipPath><clipPath id="aeaefd07db"><path d="M 39.183594 15.695312 L 42.855469 18.039062 L 42.074219 19.261719 L 38.402344 16.917969 Z M 39.183594 15.695312 " clip-rule="nonzero"/></clipPath><clipPath id="cfc8861402"><path d="M 40 17 L 41 17 L 41 18 L 40 18 Z M 40 17 " clip-rule="nonzero"/></clipPath><clipPath id="60c7f1254e"><path d="M 39.183594 15.695312 L 42.855469 18.039062 L 42.074219 19.261719 L 38.402344 16.917969 Z M 39.183594 15.695312 " clip-rule="nonzero"/></clipPath><clipPath id="716a79cbc0"><path d="M 39.183594 15.695312 L 42.855469 18.039062 L 42.074219 19.261719 L 38.402344 16.917969 Z M 39.183594 15.695312 " clip-rule="nonzero"/></clipPath><clipPath id="24c07df776"><path d="M 39 16 L 40 16 L 40 17 L 39 17 Z M 39 16 " clip-rule="nonzero"/></clipPath><clipPath id="93465b2ee2"><path d="M 39.183594 15.695312 L 42.855469 18.039062 L 42.074219 19.261719 L 38.402344 16.917969 Z M 39.183594 15.695312 " clip-rule="nonzero"/></clipPath><clipPath id="14908e4eac"><path d="M 39.183594 15.695312 L 42.855469 18.039062 L 42.074219 19.261719 L 38.402344 16.917969 Z M 39.183594 15.695312 " clip-rule="nonzero"/></clipPath><clipPath id="2b05ff781c"><path d="M 39 17 L 40 17 L 40 18 L 39 18 Z M 39 17 " clip-rule="nonzero"/></clipPath><clipPath id="669a3b92d7"><path d="M 39.183594 15.695312 L 42.855469 18.039062 L 42.074219 19.261719 L 38.402344 16.917969 Z M 39.183594 15.695312 " clip-rule="nonzero"/></clipPath><clipPath id="fdf3f1e2a3"><path d="M 39.183594 15.695312 L 42.855469 18.039062 L 42.074219 19.261719 L 38.402344 16.917969 Z M 39.183594 15.695312 " clip-rule="nonzero"/></clipPath><clipPath id="88c7241e7b"><path d="M 39 17 L 41 17 L 41 18 L 39 18 Z M 39 17 " clip-rule="nonzero"/></clipPath><clipPath id="a8e9b292c3"><path d="M 39.183594 15.695312 L 42.855469 18.039062 L 42.074219 19.261719 L 38.402344 16.917969 Z M 39.183594 15.695312 " clip-rule="nonzero"/></clipPath><clipPath id="282046ff2f"><path d="M 39.183594 15.695312 L 42.855469 18.039062 L 42.074219 19.261719 L 38.402344 16.917969 Z M 39.183594 15.695312 " clip-rule="nonzero"/></clipPath><clipPath id="7e8de9891e"><path d="M 40 17 L 41 17 L 41 18 L 40 18 Z M 40 17 " clip-rule="nonzero"/></clipPath><clipPath id="c292546f9b"><path d="M 39.183594 15.695312 L 42.855469 18.039062 L 42.074219 19.261719 L 38.402344 16.917969 Z M 39.183594 15.695312 " clip-rule="nonzero"/></clipPath><clipPath id="20c2b51619"><path d="M 39.183594 15.695312 L 42.855469 18.039062 L 42.074219 19.261719 L 38.402344 16.917969 Z M 39.183594 15.695312 " clip-rule="nonzero"/></clipPath><clipPath id="602264c9fb"><path d="M 39 17 L 40 17 L 40 18 L 39 18 Z M 39 17 " clip-rule="nonzero"/></clipPath><clipPath id="dfe47c2041"><path d="M 39.183594 15.695312 L 42.855469 18.039062 L 42.074219 19.261719 L 38.402344 16.917969 Z M 39.183594 15.695312 " clip-rule="nonzero"/></clipPath><clipPath id="4a2116f3e7"><path d="M 39.183594 15.695312 L 42.855469 18.039062 L 42.074219 19.261719 L 38.402344 16.917969 Z M 39.183594 15.695312 " clip-rule="nonzero"/></clipPath><clipPath id="de3b63ebe9"><path d="M 40 17 L 41 17 L 41 18 L 40 18 Z M 40 17 " clip-rule="nonzero"/></clipPath><clipPath id="dd807a8367"><path d="M 39.183594 15.695312 L 42.855469 18.039062 L 42.074219 19.261719 L 38.402344 16.917969 Z M 39.183594 15.695312 " clip-rule="nonzero"/></clipPath><clipPath id="197046083c"><path d="M 39.183594 15.695312 L 42.855469 18.039062 L 42.074219 19.261719 L 38.402344 16.917969 Z M 39.183594 15.695312 " clip-rule="nonzero"/></clipPath><clipPath id="131c2a646c"><path d="M 39 17 L 40 17 L 40 18 L 39 18 Z M 39 17 " clip-rule="nonzero"/></clipPath><clipPath id="7333fee4cd"><path d="M 39.183594 15.695312 L 42.855469 18.039062 L 42.074219 19.261719 L 38.402344 16.917969 Z M 39.183594 15.695312 " clip-rule="nonzero"/></clipPath><clipPath id="96055c971e"><path d="M 39.183594 15.695312 L 42.855469 18.039062 L 42.074219 19.261719 L 38.402344 16.917969 Z M 39.183594 15.695312 " clip-rule="nonzero"/></clipPath></defs><g clip-path="url(#53c3b9575f)"><g clip-path="url(#bce4f98f29)"><path fill="#5a3e71" d="M 69.007812 0 L 69.007812 29.03125 L 107.46875 29.03125 L 107.46875 0 Z M 69.007812 0 " fill-opacity="1" fill-rule="nonzero"/></g></g><g clip-path="url(#d7eee4b3cc)"><path fill="#5a3e71" d="M 32.476562 0 C 24.46875 0 17.960938 6.507812 17.960938 14.515625 C 17.960938 22.523438 24.46875 29.03125 32.476562 29.03125 C 40.488281 29.03125 46.996094 22.523438 46.996094 14.515625 C 46.996094 6.507812 40.488281 0 32.476562 0 Z M 32.476562 0.632812 C 40.15625 0.632812 46.363281 6.839844 46.363281 14.515625 C 46.363281 22.191406 40.15625 28.402344 32.476562 28.402344 C 24.800781 28.402344 18.59375 22.191406 18.59375 14.515625 C 18.59375 6.839844 24.800781 0.632812 32.476562 0.632812 Z M 32.476562 0.632812 " fill-opacity="1" fill-rule="nonzero"/></g><g clip-path="url(#00c032c57d)"><path fill="#5a3e71" d="M 30.714844 18.730469 C 30.722656 18.730469 30.730469 18.730469 30.734375 18.730469 C 30.808594 18.730469 30.871094 18.679688 30.878906 18.605469 C 30.890625 18.527344 30.835938 18.453125 30.757812 18.441406 C 30.265625 18.371094 29.882812 18.105469 29.730469 17.730469 C 29.523438 17.21875 29.742188 16.53125 30.359375 15.746094 C 31.296875 14.554688 31.605469 12.128906 31.773438 10.148438 C 31.78125 10.070312 31.722656 10 31.640625 9.992188 C 31.5625 9.984375 31.492188 10.042969 31.484375 10.125 C 31.320312 12.0625 31.019531 14.433594 30.128906 15.566406 C 29.261719 16.667969 29.289062 17.410156 29.460938 17.839844 C 29.648438 18.3125 30.121094 18.644531 30.714844 18.730469 Z M 30.714844 18.730469 " fill-opacity="1" fill-rule="nonzero"/></g><g clip-path="url(#8072357dde)"><path fill="#5a3e71" d="M 35.964844 17.730469 C 35.816406 18.105469 35.433594 18.371094 34.941406 18.441406 C 34.859375 18.453125 34.804688 18.527344 34.816406 18.605469 C 34.828125 18.679688 34.890625 18.730469 34.960938 18.730469 C 34.96875 18.730469 34.976562 18.730469 34.980469 18.730469 C 35.578125 18.644531 36.046875 18.3125 36.238281 17.839844 C 36.410156 17.410156 36.433594 16.667969 35.566406 15.566406 C 34.679688 14.433594 34.378906 12.0625 34.214844 10.125 C 34.207031 10.042969 34.136719 9.984375 34.054688 9.992188 C 33.976562 10 33.914062 10.070312 33.921875 10.148438 C 34.089844 12.128906 34.402344 14.554688 35.339844 15.746094 C 35.957031 16.53125 36.171875 17.21875 35.964844 17.730469 Z M 35.964844 17.730469 " fill-opacity="1" fill-rule="nonzero"/></g><g clip-path="url(#59f5eb8ca1)"><path fill="#5a3e71" d="M 30.515625 17.511719 C 30.4375 17.511719 30.371094 17.578125 30.371094 17.65625 C 30.371094 17.738281 30.4375 17.804688 30.515625 17.804688 C 31.003906 17.804688 31.253906 18.0625 31.542969 18.367188 C 31.847656 18.683594 32.195312 19.042969 32.847656 19.042969 C 33.503906 19.042969 33.847656 18.683594 34.152344 18.367188 C 34.441406 18.0625 34.691406 17.804688 35.179688 17.804688 C 35.261719 17.804688 35.324219 17.738281 35.324219 17.65625 C 35.324219 17.578125 35.261719 17.511719 35.179688 17.511719 C 34.570312 17.511719 34.234375 17.859375 33.941406 18.164062 C 33.652344 18.464844 33.378906 18.75 32.847656 18.75 C 32.320312 18.75 32.046875 18.464844 31.753906 18.164062 C 31.460938 17.859375 31.128906 17.511719 30.515625 17.511719 Z M 30.515625 17.511719 " fill-opacity="1" fill-rule="nonzero"/></g><g clip-path="url(#ad40741362)"><g clip-path="url(#3f82e8e725)"><g clip-path="url(#1d3f205043)"><path fill="#5a3e71" d="M 38.953125 18.679688 C 38.175781 19.683594 37.257812 20.460938 36.234375 21.019531 C 35.210938 21.578125 34.097656 21.910156 32.957031 22.03125 C 31.8125 22.144531 30.652344 22.039062 29.539062 21.695312 C 28.429688 21.355469 27.371094 20.777344 26.410156 19.949219 C 26.371094 19.914062 26.332031 19.914062 26.292969 19.945312 C 26.25 19.976562 26.242188 20.011719 26.261719 20.058594 C 26.820312 21.25 27.875 22.210938 29.097656 22.800781 C 30.328125 23.398438 31.738281 23.625 33.105469 23.488281 C 34.46875 23.351562 35.804688 22.84375 36.890625 22.011719 C 37.96875 21.1875 38.8125 20.035156 39.117188 18.757812 C 39.128906 18.707031 39.113281 18.671875 39.066406 18.652344 C 39.023438 18.628906 38.984375 18.636719 38.953125 18.679688 Z M 38.953125 18.679688 " fill-opacity="1" fill-rule="nonzero"/></g></g></g><g clip-path="url(#9175afa2a8)"><g clip-path="url(#3e6eeeaba1)"><g clip-path="url(#6a1a7d6354)"><path fill="#5a3e71" d="M 26.789062 19.65625 C 26.875 19.628906 26.960938 19.605469 27.050781 19.558594 L 27.066406 19.554688 C 27.101562 19.535156 27.121094 19.507812 27.121094 19.464844 C 27.121094 19.425781 27.101562 19.394531 27.066406 19.378906 C 26.96875 19.335938 26.871094 19.300781 26.769531 19.28125 C 26.664062 19.269531 26.558594 19.25 26.449219 19.261719 C 26.234375 19.273438 26.015625 19.351562 25.824219 19.476562 C 25.628906 19.601562 25.484375 19.773438 25.390625 19.984375 C 25.300781 20.1875 25.265625 20.402344 25.3125 20.625 C 25.320312 20.664062 25.34375 20.6875 25.382812 20.699219 C 25.425781 20.707031 25.457031 20.695312 25.480469 20.664062 L 25.492188 20.648438 C 25.609375 20.503906 25.710938 20.367188 25.820312 20.253906 C 25.921875 20.144531 26.03125 20.046875 26.15625 19.960938 C 26.273438 19.882812 26.402344 19.808594 26.554688 19.75 C 26.625 19.710938 26.710938 19.691406 26.789062 19.65625 Z M 26.789062 19.65625 " fill-opacity="1" fill-rule="nonzero"/></g></g></g><g clip-path="url(#bd6107d1cf)"><g clip-path="url(#45435ba317)"><g clip-path="url(#5e9867e319)"><path fill="#5a3e71" d="M 39.945312 18.511719 C 39.8125 18.324219 39.636719 18.183594 39.421875 18.097656 C 39.207031 18.015625 38.976562 17.980469 38.761719 18.015625 C 38.65625 18.023438 38.554688 18.066406 38.457031 18.097656 C 38.359375 18.136719 38.269531 18.191406 38.1875 18.25 C 38.152344 18.277344 38.140625 18.308594 38.148438 18.347656 C 38.15625 18.390625 38.179688 18.414062 38.21875 18.425781 L 38.234375 18.429688 C 38.332031 18.453125 38.421875 18.457031 38.511719 18.46875 C 38.597656 18.488281 38.683594 18.492188 38.761719 18.515625 C 38.917969 18.539062 39.058594 18.589844 39.191406 18.640625 C 39.332031 18.699219 39.457031 18.773438 39.578125 18.859375 C 39.707031 18.949219 39.835938 19.0625 39.976562 19.183594 L 39.992188 19.195312 C 40.023438 19.21875 40.058594 19.226562 40.09375 19.207031 C 40.132812 19.191406 40.148438 19.160156 40.152344 19.121094 C 40.152344 18.894531 40.074219 18.691406 39.945312 18.511719 Z M 39.945312 18.511719 " fill-opacity="1" fill-rule="nonzero"/></g></g></g><g mask="url(#4e7d671ff0)"><g transform="matrix(1, 0, 0, 1, 19, 3)"><g clip-path="url(#13fc425f34)"><g clip-path="url(#9c2341f53b)"><path fill="#5a3e71" d="M 0.242188 1.035156 L 26.710938 1.035156 L 26.710938 8.800781 L 0.242188 8.800781 Z M 0.242188 1.035156 " fill-opacity="1" fill-rule="nonzero"/></g></g></g></g><g fill="#5a3e71" fill-opacity="1"><g transform="translate(24.329755, 9.75392)"><g><path d="M 0.828125 -0.078125 C 0.554688 -0.109375 0.363281 -0.203125 0.25 -0.359375 C 0.132812 -0.515625 0.078125 -0.742188 0.078125 -1.046875 L 0.078125 -1.171875 L 0.828125 -1.171875 L 0.828125 -1.078125 C 0.828125 -0.859375 0.890625 -0.75 1.015625 -0.75 C 1.078125 -0.75 1.125 -0.769531 1.15625 -0.8125 C 1.1875 -0.851562 1.203125 -0.910156 1.203125 -0.984375 C 1.203125 -1.035156 1.160156 -1.109375 1.078125 -1.203125 L 0.453125 -1.828125 C 0.222656 -2.046875 0.109375 -2.289062 0.109375 -2.5625 C 0.109375 -2.769531 0.175781 -2.941406 0.3125 -3.078125 C 0.445312 -3.222656 0.617188 -3.316406 0.828125 -3.359375 L 0.828125 -3.609375 L 1.203125 -3.609375 L 1.203125 -3.359375 C 1.441406 -3.328125 1.625 -3.222656 1.75 -3.046875 C 1.882812 -2.878906 1.953125 -2.65625 1.953125 -2.375 L 1.1875 -2.375 L 1.171875 -2.5625 C 1.171875 -2.601562 1.148438 -2.632812 1.109375 -2.65625 C 1.078125 -2.6875 1.039062 -2.703125 1 -2.703125 C 0.945312 -2.703125 0.898438 -2.6875 0.859375 -2.65625 C 0.828125 -2.632812 0.8125 -2.597656 0.8125 -2.546875 C 0.8125 -2.472656 0.882812 -2.363281 1.03125 -2.21875 L 1.640625 -1.625 C 1.734375 -1.53125 1.804688 -1.421875 1.859375 -1.296875 C 1.921875 -1.171875 1.953125 -1.035156 1.953125 -0.890625 C 1.953125 -0.660156 1.878906 -0.472656 1.734375 -0.328125 C 1.597656 -0.179688 1.421875 -0.0976562 1.203125 -0.078125 L 1.203125 0.25 L 0.828125 0.25 Z M 0.828125 -0.078125 "/></g></g></g><g fill="#5a3e71" fill-opacity="1"><g transform="translate(28.819962, 9.75392)"><g><path d="M 1.984375 0.34375 C 1.628906 0.34375 1.3125 0.269531 1.03125 0.125 C 0.757812 -0.0078125 0.539062 -0.222656 0.375 -0.515625 C 0.21875 -0.816406 0.140625 -1.203125 0.140625 -1.671875 C 0.140625 -2.117188 0.210938 -2.503906 0.359375 -2.828125 C 0.503906 -3.148438 0.71875 -3.394531 1 -3.5625 C 1.28125 -3.726562 1.613281 -3.8125 2 -3.8125 C 2.539062 -3.8125 2.957031 -3.644531 3.25 -3.3125 C 3.539062 -2.976562 3.6875 -2.507812 3.6875 -1.90625 C 3.6875 -1.46875 3.617188 -1.140625 3.484375 -0.921875 C 3.347656 -0.703125 3.140625 -0.59375 2.859375 -0.59375 C 2.660156 -0.59375 2.507812 -0.628906 2.40625 -0.703125 C 2.300781 -0.785156 2.222656 -0.90625 2.171875 -1.0625 C 2.140625 -0.914062 2.085938 -0.800781 2.015625 -0.71875 C 1.941406 -0.644531 1.851562 -0.609375 1.75 -0.609375 C 1.539062 -0.609375 1.378906 -0.707031 1.265625 -0.90625 C 1.148438 -1.113281 1.09375 -1.367188 1.09375 -1.671875 C 1.09375 -2.003906 1.140625 -2.273438 1.234375 -2.484375 C 1.335938 -2.691406 1.5 -2.796875 1.71875 -2.796875 C 1.8125 -2.796875 1.890625 -2.769531 1.953125 -2.71875 C 2.023438 -2.664062 2.09375 -2.59375 2.15625 -2.5 L 2.234375 -2.78125 L 2.734375 -2.78125 L 2.734375 -1.390625 C 2.734375 -1.191406 2.796875 -1.09375 2.921875 -1.09375 C 3.003906 -1.09375 3.0625 -1.15625 3.09375 -1.28125 C 3.132812 -1.40625 3.15625 -1.609375 3.15625 -1.890625 C 3.15625 -2.347656 3.066406 -2.695312 2.890625 -2.9375 C 2.722656 -3.175781 2.441406 -3.296875 2.046875 -3.296875 C 1.628906 -3.296875 1.304688 -3.15625 1.078125 -2.875 C 0.859375 -2.601562 0.75 -2.203125 0.75 -1.671875 C 0.75 -1.179688 0.859375 -0.804688 1.078125 -0.546875 C 1.304688 -0.296875 1.617188 -0.171875 2.015625 -0.171875 C 2.140625 -0.171875 2.328125 -0.1875 2.578125 -0.21875 L 2.640625 0.265625 C 2.390625 0.316406 2.171875 0.34375 1.984375 0.34375 Z M 1.9375 -1.140625 C 2 -1.140625 2.039062 -1.171875 2.0625 -1.234375 C 2.09375 -1.296875 2.109375 -1.375 2.109375 -1.46875 L 2.109375 -2.3125 C 2.015625 -2.3125 1.941406 -2.289062 1.890625 -2.25 C 1.847656 -2.21875 1.816406 -2.15625 1.796875 -2.0625 C 1.773438 -1.976562 1.765625 -1.851562 1.765625 -1.6875 C 1.765625 -1.53125 1.773438 -1.398438 1.796875 -1.296875 C 1.828125 -1.191406 1.875 -1.140625 1.9375 -1.140625 Z M 1.9375 -1.140625 "/></g></g></g><g fill="#5a3e71" fill-opacity="1"><g transform="translate(35.081583, 9.75392)"><g><path d="M 0.125 0 L 0.125 -3.78125 L 0.859375 -3.78125 L 0.859375 0 Z M -0.453125 -3.984375 L 0.0625 -4.859375 L 0.9375 -4.859375 L 1.453125 -3.984375 L 0.6875 -3.984375 L 0.5 -4.59375 L 0.3125 -3.984375 Z M -0.453125 -3.984375 "/></g></g></g><g fill="#5a3e71" fill-opacity="1"><g transform="translate(38.536262, 9.75392)"><g><path d="M 1.265625 -1.0625 C 1.253906 -0.96875 1.222656 -0.882812 1.171875 -0.8125 C 1.117188 -0.738281 1.054688 -0.675781 0.984375 -0.625 L 1.984375 -0.625 L 1.984375 0 L 0.09375 0 L 0.09375 -0.609375 C 0.207031 -0.671875 0.289062 -0.734375 0.34375 -0.796875 C 0.40625 -0.867188 0.441406 -0.957031 0.453125 -1.0625 L 0.0625 -1.0625 L 0.0625 -1.453125 L 0.453125 -1.453125 C 0.453125 -1.515625 0.441406 -1.597656 0.421875 -1.703125 L 0.0625 -1.703125 L 0.0625 -2.09375 L 0.359375 -2.09375 C 0.347656 -2.125 0.328125 -2.203125 0.296875 -2.328125 C 0.273438 -2.453125 0.265625 -2.554688 0.265625 -2.640625 C 0.265625 -2.910156 0.34375 -3.113281 0.5 -3.25 C 0.65625 -3.382812 0.878906 -3.453125 1.171875 -3.453125 C 1.460938 -3.453125 1.675781 -3.363281 1.8125 -3.1875 C 1.945312 -3.007812 2.015625 -2.753906 2.015625 -2.421875 L 1.328125 -2.421875 C 1.328125 -2.554688 1.316406 -2.65625 1.296875 -2.71875 C 1.285156 -2.789062 1.25 -2.828125 1.1875 -2.828125 C 1.144531 -2.828125 1.113281 -2.8125 1.09375 -2.78125 C 1.082031 -2.757812 1.070312 -2.726562 1.0625 -2.6875 C 1.0625 -2.644531 1.0625 -2.597656 1.0625 -2.546875 C 1.0625 -2.492188 1.066406 -2.425781 1.078125 -2.34375 C 1.097656 -2.269531 1.117188 -2.1875 1.140625 -2.09375 L 1.75 -2.09375 L 1.75 -1.703125 L 1.21875 -1.703125 L 1.265625 -1.453125 L 1.75 -1.453125 L 1.75 -1.0625 Z M 1.265625 -1.0625 "/></g></g></g><g clip-path="url(#2394af7c71)"><g clip-path="url(#e622a3d365)"><g clip-path="url(#91869c5065)"><path fill="#5a3e71" d="M 40.34375 17.921875 C 40.34375 17.921875 40.339844 17.921875 40.339844 17.921875 C 40.347656 17.898438 40.324219 17.902344 40.316406 17.894531 C 40.292969 17.882812 40.265625 17.875 40.242188 17.863281 C 40.210938 17.847656 40.179688 17.832031 40.148438 17.816406 C 40.136719 17.8125 40.128906 17.804688 40.117188 17.800781 C 40.097656 17.792969 40.078125 17.785156 40.058594 17.773438 C 40.050781 17.769531 40.046875 17.765625 40.035156 17.773438 C 40.035156 17.769531 40.03125 17.761719 40.03125 17.757812 C 40.023438 17.753906 40.011719 17.75 40 17.746094 C 39.976562 17.730469 39.953125 17.714844 39.925781 17.699219 C 39.851562 17.65625 39.777344 17.609375 39.703125 17.5625 C 39.695312 17.5625 39.691406 17.554688 39.6875 17.554688 C 39.683594 17.554688 39.675781 17.5625 39.675781 17.566406 C 39.671875 17.570312 39.675781 17.578125 39.675781 17.585938 C 39.664062 17.578125 39.660156 17.570312 39.652344 17.566406 C 39.644531 17.5625 39.640625 17.554688 39.632812 17.554688 C 39.621094 17.550781 39.613281 17.542969 39.605469 17.535156 C 39.601562 17.53125 39.59375 17.527344 39.585938 17.523438 C 39.574219 17.515625 39.566406 17.503906 39.554688 17.496094 C 39.550781 17.492188 39.542969 17.492188 39.539062 17.488281 C 39.539062 17.480469 39.539062 17.46875 39.539062 17.457031 C 39.53125 17.464844 39.523438 17.46875 39.519531 17.472656 C 39.515625 17.472656 39.519531 17.476562 39.519531 17.476562 C 39.496094 17.460938 39.476562 17.445312 39.453125 17.429688 C 39.453125 17.429688 39.457031 17.425781 39.457031 17.425781 C 39.453125 17.425781 39.449219 17.429688 39.445312 17.425781 C 39.429688 17.410156 39.410156 17.394531 39.390625 17.382812 C 39.378906 17.371094 39.367188 17.367188 39.355469 17.359375 C 39.351562 17.355469 39.351562 17.351562 39.347656 17.347656 C 39.34375 17.34375 39.339844 17.34375 39.335938 17.339844 C 39.335938 17.339844 39.332031 17.339844 39.332031 17.339844 C 39.324219 17.328125 39.3125 17.320312 39.300781 17.308594 C 39.300781 17.308594 39.296875 17.304688 39.296875 17.304688 C 39.28125 17.292969 39.261719 17.28125 39.25 17.273438 C 39.246094 17.269531 39.246094 17.261719 39.246094 17.257812 C 39.230469 17.261719 39.21875 17.253906 39.207031 17.238281 C 39.199219 17.226562 39.1875 17.222656 39.179688 17.214844 C 39.152344 17.195312 39.128906 17.175781 39.105469 17.15625 C 39.089844 17.140625 39.074219 17.128906 39.058594 17.113281 C 39.054688 17.109375 39.050781 17.101562 39.046875 17.09375 C 39.046875 17.09375 39.050781 17.089844 39.054688 17.085938 L 39.050781 17.082031 C 39.046875 17.085938 39.042969 17.089844 39.039062 17.089844 C 39.035156 17.085938 39.027344 17.082031 39.019531 17.078125 C 39.015625 17.070312 39.007812 17.0625 39.011719 17.054688 C 39.015625 17.042969 39.003906 17.042969 39.003906 17.035156 L 38.992188 17.050781 C 38.992188 17.046875 38.996094 17.042969 38.996094 17.042969 C 38.96875 17.03125 38.957031 17.003906 38.933594 16.988281 C 38.9375 16.988281 38.941406 16.984375 38.945312 16.980469 C 38.9375 16.976562 38.929688 16.964844 38.917969 16.980469 C 38.921875 16.960938 38.917969 16.953125 38.902344 16.945312 C 38.894531 16.945312 38.890625 16.929688 38.886719 16.925781 C 38.859375 16.894531 38.835938 16.867188 38.8125 16.839844 C 38.78125 16.808594 38.761719 16.769531 38.746094 16.730469 C 38.730469 16.695312 38.722656 16.652344 38.714844 16.613281 C 38.710938 16.585938 38.710938 16.558594 38.710938 16.53125 C 38.710938 16.519531 38.710938 16.507812 38.722656 16.503906 C 38.71875 16.492188 38.722656 16.460938 38.734375 16.449219 C 38.742188 16.4375 38.757812 16.425781 38.753906 16.410156 C 38.753906 16.398438 38.761719 16.398438 38.769531 16.394531 C 38.773438 16.390625 38.777344 16.382812 38.777344 16.378906 C 38.785156 16.371094 38.789062 16.363281 38.792969 16.355469 C 38.796875 16.359375 38.800781 16.359375 38.800781 16.363281 C 38.804688 16.363281 38.804688 16.359375 38.804688 16.359375 C 38.804688 16.355469 38.800781 16.355469 38.800781 16.351562 L 38.816406 16.328125 C 38.820312 16.328125 38.828125 16.328125 38.832031 16.328125 C 38.832031 16.324219 38.832031 16.320312 38.835938 16.320312 C 38.835938 16.316406 38.832031 16.316406 38.832031 16.316406 C 38.839844 16.308594 38.851562 16.304688 38.859375 16.296875 C 38.871094 16.28125 38.886719 16.273438 38.894531 16.28125 C 38.914062 16.265625 38.9375 16.253906 38.960938 16.253906 C 38.96875 16.242188 38.992188 16.253906 38.992188 16.234375 C 38.992188 16.234375 38.996094 16.234375 39 16.234375 C 39.019531 16.226562 39.042969 16.21875 39.066406 16.210938 C 39.117188 16.1875 39.171875 16.195312 39.226562 16.1875 C 39.261719 16.183594 39.296875 16.175781 39.332031 16.179688 C 39.410156 16.191406 39.488281 16.203125 39.566406 16.214844 C 39.585938 16.21875 39.605469 16.230469 39.625 16.230469 C 39.660156 16.226562 39.695312 16.242188 39.726562 16.25 C 39.753906 16.253906 39.78125 16.265625 39.808594 16.273438 C 39.84375 16.28125 39.875 16.300781 39.882812 16.34375 C 39.878906 16.339844 39.875 16.339844 39.875 16.339844 C 39.859375 16.308594 39.828125 16.296875 39.796875 16.289062 C 39.75 16.273438 39.699219 16.261719 39.652344 16.25 C 39.625 16.242188 39.597656 16.242188 39.570312 16.238281 C 39.554688 16.234375 39.535156 16.230469 39.515625 16.226562 C 39.496094 16.226562 39.476562 16.222656 39.453125 16.222656 C 39.429688 16.21875 39.40625 16.21875 39.382812 16.214844 C 39.382812 16.214844 39.378906 16.21875 39.375 16.21875 C 39.351562 16.210938 39.328125 16.210938 39.304688 16.214844 C 39.300781 16.214844 39.296875 16.214844 39.292969 16.214844 C 39.28125 16.214844 39.269531 16.214844 39.257812 16.21875 C 39.246094 16.21875 39.242188 16.214844 39.246094 16.203125 C 39.242188 16.210938 39.230469 16.21875 39.238281 16.230469 L 39.199219 16.238281 C 39.203125 16.234375 39.203125 16.230469 39.207031 16.222656 C 39.1875 16.230469 39.167969 16.222656 39.148438 16.230469 C 39.136719 16.234375 39.113281 16.242188 39.09375 16.230469 C 39.089844 16.25 39.078125 16.257812 39.054688 16.265625 C 39.035156 16.273438 39.011719 16.289062 38.992188 16.300781 C 38.988281 16.292969 38.988281 16.289062 38.988281 16.28125 C 38.976562 16.289062 38.972656 16.292969 38.964844 16.296875 C 38.964844 16.300781 38.964844 16.300781 38.964844 16.300781 C 38.96875 16.300781 38.972656 16.300781 38.976562 16.300781 L 38.980469 16.304688 C 38.960938 16.3125 38.941406 16.324219 38.921875 16.332031 C 38.898438 16.339844 38.878906 16.355469 38.863281 16.375 C 38.855469 16.382812 38.84375 16.386719 38.839844 16.394531 C 38.832031 16.402344 38.828125 16.414062 38.824219 16.425781 C 38.816406 16.441406 38.808594 16.453125 38.804688 16.46875 C 38.785156 16.5 38.789062 16.535156 38.796875 16.570312 C 38.796875 16.578125 38.796875 16.589844 38.800781 16.601562 C 38.800781 16.613281 38.808594 16.625 38.8125 16.636719 C 38.820312 16.660156 38.824219 16.683594 38.832031 16.707031 C 38.839844 16.722656 38.851562 16.734375 38.859375 16.746094 C 38.867188 16.757812 38.875 16.769531 38.882812 16.777344 C 38.886719 16.78125 38.890625 16.78125 38.894531 16.785156 C 38.925781 16.828125 38.96875 16.867188 39.007812 16.902344 C 39.03125 16.925781 39.054688 16.949219 39.078125 16.96875 C 39.097656 16.988281 39.113281 17.003906 39.132812 17.023438 C 39.164062 17.046875 39.199219 17.074219 39.230469 17.097656 C 39.273438 17.128906 39.3125 17.164062 39.355469 17.195312 C 39.382812 17.21875 39.414062 17.238281 39.441406 17.257812 C 39.488281 17.292969 39.53125 17.324219 39.578125 17.359375 C 39.597656 17.371094 39.617188 17.378906 39.636719 17.394531 C 39.648438 17.402344 39.664062 17.414062 39.675781 17.421875 C 39.699219 17.4375 39.722656 17.449219 39.742188 17.464844 C 39.761719 17.476562 39.78125 17.492188 39.800781 17.503906 C 39.816406 17.515625 39.832031 17.523438 39.851562 17.535156 C 39.886719 17.554688 39.921875 17.578125 39.957031 17.597656 C 39.984375 17.613281 40.015625 17.628906 40.042969 17.644531 C 40.074219 17.660156 40.105469 17.679688 40.136719 17.695312 C 40.167969 17.710938 40.199219 17.722656 40.230469 17.738281 C 40.257812 17.75 40.285156 17.765625 40.3125 17.777344 C 40.355469 17.796875 40.398438 17.8125 40.4375 17.832031 C 40.480469 17.847656 40.519531 17.867188 40.558594 17.882812 C 40.585938 17.894531 40.613281 17.90625 40.640625 17.914062 C 40.660156 17.921875 40.675781 17.933594 40.695312 17.941406 C 40.707031 17.945312 40.722656 17.945312 40.734375 17.949219 C 40.746094 17.953125 40.757812 17.960938 40.769531 17.96875 C 40.769531 17.96875 40.773438 17.96875 40.773438 17.96875 C 40.789062 17.976562 40.804688 17.980469 40.820312 17.988281 C 40.832031 17.992188 40.839844 17.996094 40.851562 18.003906 C 40.855469 18.003906 40.859375 18.003906 40.867188 18.007812 C 40.878906 18.011719 40.894531 18.019531 40.90625 18.023438 C 40.917969 18.023438 40.921875 18.039062 40.9375 18.035156 C 40.949219 18.03125 40.960938 18.042969 40.972656 18.050781 C 40.980469 18.050781 40.984375 18.054688 40.992188 18.058594 C 41.003906 18.0625 41.015625 18.070312 41.027344 18.074219 C 41.035156 18.078125 41.042969 18.078125 41.050781 18.082031 C 41.066406 18.085938 41.082031 18.09375 41.097656 18.097656 C 41.097656 18.101562 41.101562 18.101562 41.101562 18.105469 C 41.117188 18.105469 41.132812 18.109375 41.148438 18.113281 C 41.152344 18.113281 41.15625 18.113281 41.15625 18.117188 C 41.167969 18.128906 41.1875 18.128906 41.203125 18.132812 C 41.21875 18.140625 41.230469 18.148438 41.246094 18.15625 C 41.25 18.160156 41.257812 18.15625 41.261719 18.15625 C 41.269531 18.164062 41.285156 18.152344 41.285156 18.171875 C 41.289062 18.171875 41.296875 18.167969 41.304688 18.171875 C 41.332031 18.179688 41.359375 18.1875 41.386719 18.195312 C 41.40625 18.203125 41.425781 18.210938 41.449219 18.21875 C 41.441406 18.21875 41.4375 18.21875 41.4375 18.21875 C 41.472656 18.222656 41.507812 18.234375 41.542969 18.253906 C 41.546875 18.25 41.566406 18.253906 41.574219 18.265625 C 41.574219 18.269531 41.578125 18.269531 41.578125 18.273438 C 41.582031 18.269531 41.582031 18.265625 41.582031 18.265625 C 41.589844 18.265625 41.597656 18.269531 41.605469 18.269531 C 41.605469 18.273438 41.605469 18.277344 41.601562 18.28125 C 41.617188 18.273438 41.625 18.273438 41.628906 18.28125 C 41.636719 18.285156 41.640625 18.285156 41.644531 18.289062 C 41.648438 18.296875 41.648438 18.296875 41.65625 18.292969 C 41.660156 18.289062 41.664062 18.289062 41.667969 18.300781 C 41.667969 18.300781 41.671875 18.304688 41.675781 18.304688 C 41.683594 18.304688 41.6875 18.300781 41.695312 18.304688 C 41.699219 18.304688 41.699219 18.308594 41.703125 18.3125 C 41.71875 18.3125 41.734375 18.316406 41.75 18.316406 C 41.746094 18.320312 41.746094 18.320312 41.742188 18.324219 C 41.746094 18.324219 41.75 18.328125 41.75 18.324219 C 41.757812 18.320312 41.765625 18.320312 41.773438 18.328125 C 41.777344 18.332031 41.789062 18.34375 41.796875 18.332031 C 41.800781 18.332031 41.804688 18.332031 41.804688 18.332031 C 41.808594 18.332031 41.8125 18.335938 41.816406 18.339844 L 41.820312 18.335938 C 41.824219 18.339844 41.824219 18.34375 41.824219 18.34375 C 41.832031 18.34375 41.835938 18.339844 41.839844 18.339844 C 41.859375 18.34375 41.878906 18.351562 41.898438 18.355469 C 41.90625 18.355469 41.914062 18.351562 41.917969 18.351562 C 41.941406 18.355469 41.96875 18.359375 41.992188 18.359375 C 42.011719 18.359375 42.03125 18.363281 42.050781 18.363281 C 42.074219 18.359375 42.097656 18.355469 42.121094 18.351562 C 42.183594 18.335938 42.230469 18.296875 42.253906 18.238281 C 42.265625 18.21875 42.253906 18.195312 42.242188 18.171875 C 42.230469 18.148438 42.21875 18.121094 42.203125 18.097656 C 42.191406 18.082031 42.179688 18.066406 42.167969 18.054688 C 42.160156 18.042969 42.152344 18.035156 42.148438 18.027344 C 42.132812 18.007812 42.121094 17.992188 42.105469 17.976562 C 42.074219 17.9375 42.046875 17.902344 42.015625 17.863281 C 41.992188 17.835938 41.964844 17.804688 41.941406 17.777344 C 41.921875 17.757812 41.902344 17.734375 41.882812 17.714844 C 41.875 17.707031 41.859375 17.699219 41.847656 17.6875 C 41.839844 17.679688 41.832031 17.675781 41.828125 17.667969 C 41.816406 17.65625 41.808594 17.648438 41.800781 17.640625 C 41.769531 17.613281 41.738281 17.585938 41.710938 17.558594 C 41.679688 17.535156 41.652344 17.511719 41.621094 17.488281 C 41.621094 17.488281 41.621094 17.488281 41.621094 17.484375 C 41.582031 17.449219 41.539062 17.421875 41.5 17.386719 C 41.480469 17.371094 41.464844 17.359375 41.445312 17.34375 C 41.445312 17.34375 41.441406 17.339844 41.441406 17.339844 C 41.4375 17.335938 41.433594 17.332031 41.429688 17.328125 C 41.421875 17.324219 41.417969 17.320312 41.410156 17.316406 C 41.382812 17.292969 41.351562 17.273438 41.324219 17.253906 C 41.3125 17.246094 41.304688 17.230469 41.304688 17.230469 C 41.289062 17.238281 41.285156 17.21875 41.277344 17.21875 C 41.269531 17.21875 41.265625 17.210938 41.261719 17.207031 C 41.257812 17.207031 41.257812 17.203125 41.253906 17.195312 C 41.222656 17.195312 41.203125 17.167969 41.175781 17.152344 C 41.140625 17.128906 41.105469 17.105469 41.070312 17.082031 C 41.058594 17.074219 41.042969 17.070312 41.03125 17.058594 C 41.027344 17.058594 41.023438 17.050781 41.019531 17.046875 C 41.015625 17.046875 41.007812 17.046875 41.003906 17.042969 C 40.976562 17.023438 40.949219 17.003906 40.917969 16.988281 C 40.894531 16.972656 40.867188 16.960938 40.839844 16.945312 C 40.828125 16.9375 40.816406 16.929688 40.800781 16.917969 C 40.792969 16.914062 40.785156 16.914062 40.777344 16.910156 C 40.769531 16.90625 40.765625 16.902344 40.757812 16.898438 C 40.746094 16.902344 40.738281 16.898438 40.738281 16.886719 C 40.734375 16.882812 40.726562 16.886719 40.722656 16.882812 C 40.710938 16.875 40.695312 16.867188 40.679688 16.859375 C 40.660156 16.847656 40.636719 16.835938 40.613281 16.824219 C 40.59375 16.8125 40.574219 16.804688 40.554688 16.796875 C 40.546875 16.792969 40.542969 16.789062 40.539062 16.78125 C 40.539062 16.78125 40.535156 16.777344 40.535156 16.777344 C 40.53125 16.777344 40.53125 16.78125 40.527344 16.785156 C 40.519531 16.777344 40.507812 16.769531 40.496094 16.761719 C 40.496094 16.761719 40.492188 16.761719 40.492188 16.761719 C 40.480469 16.761719 40.46875 16.757812 40.464844 16.746094 C 40.464844 16.746094 40.460938 16.746094 40.457031 16.746094 C 40.445312 16.75 40.421875 16.734375 40.421875 16.726562 C 40.414062 16.726562 40.40625 16.726562 40.402344 16.722656 C 40.398438 16.722656 40.394531 16.71875 40.390625 16.710938 C 40.378906 16.722656 40.367188 16.707031 40.355469 16.699219 C 40.332031 16.695312 40.3125 16.679688 40.289062 16.671875 C 40.257812 16.660156 40.226562 16.644531 40.195312 16.632812 C 40.164062 16.621094 40.128906 16.605469 40.09375 16.59375 C 40.074219 16.585938 40.058594 16.582031 40.042969 16.574219 C 40.039062 16.570312 40.035156 16.566406 40.03125 16.5625 C 40.011719 16.566406 39.933594 16.539062 39.921875 16.527344 C 39.910156 16.523438 39.902344 16.527344 39.894531 16.523438 C 39.828125 16.507812 39.757812 16.488281 39.691406 16.46875 C 39.667969 16.460938 39.644531 16.457031 39.621094 16.449219 C 39.574219 16.433594 39.53125 16.433594 39.484375 16.425781 C 39.453125 16.417969 39.421875 16.414062 39.390625 16.410156 C 39.386719 16.40625 39.386719 16.402344 39.386719 16.402344 C 39.394531 16.398438 39.398438 16.398438 39.402344 16.398438 C 39.410156 16.394531 39.417969 16.394531 39.421875 16.394531 C 39.402344 16.386719 39.402344 16.355469 39.378906 16.355469 C 39.375 16.355469 39.371094 16.347656 39.367188 16.34375 C 39.371094 16.34375 39.375 16.339844 39.375 16.335938 C 39.40625 16.3125 39.441406 16.316406 39.476562 16.320312 C 39.519531 16.324219 39.558594 16.335938 39.601562 16.34375 C 39.621094 16.347656 39.644531 16.34375 39.664062 16.347656 C 39.683594 16.351562 39.707031 16.355469 39.730469 16.359375 C 39.753906 16.363281 39.777344 16.371094 39.800781 16.375 C 39.824219 16.382812 39.851562 16.382812 39.871094 16.394531 C 39.902344 16.410156 39.933594 16.417969 39.964844 16.421875 C 39.972656 16.421875 39.980469 16.425781 39.988281 16.429688 C 39.996094 16.429688 40.003906 16.429688 40.011719 16.433594 C 40.050781 16.441406 40.089844 16.453125 40.128906 16.46875 C 40.160156 16.476562 40.191406 16.488281 40.222656 16.5 C 40.234375 16.503906 40.246094 16.507812 40.261719 16.511719 C 40.265625 16.515625 40.269531 16.519531 40.273438 16.523438 C 40.285156 16.519531 40.296875 16.523438 40.300781 16.539062 C 40.3125 16.53125 40.34375 16.546875 40.347656 16.554688 C 40.355469 16.558594 40.363281 16.554688 40.367188 16.558594 C 40.394531 16.570312 40.421875 16.582031 40.449219 16.59375 C 40.460938 16.601562 40.476562 16.597656 40.480469 16.613281 C 40.503906 16.609375 40.523438 16.628906 40.542969 16.636719 C 40.546875 16.636719 40.554688 16.644531 40.5625 16.652344 C 40.566406 16.648438 40.570312 16.652344 40.574219 16.65625 C 40.574219 16.660156 40.578125 16.65625 40.582031 16.660156 C 40.589844 16.660156 40.597656 16.664062 40.601562 16.671875 C 40.609375 16.671875 40.621094 16.671875 40.625 16.675781 C 40.644531 16.683594 40.65625 16.695312 40.671875 16.703125 C 40.675781 16.703125 40.675781 16.703125 40.679688 16.703125 C 40.683594 16.707031 40.691406 16.710938 40.695312 16.714844 C 40.703125 16.71875 40.707031 16.730469 40.722656 16.71875 C 40.722656 16.726562 40.722656 16.730469 40.722656 16.730469 C 40.722656 16.734375 40.722656 16.734375 40.722656 16.734375 C 40.734375 16.726562 40.746094 16.734375 40.75 16.738281 C 40.753906 16.75 40.761719 16.746094 40.769531 16.75 C 40.773438 16.75 40.777344 16.753906 40.78125 16.757812 C 40.78125 16.757812 40.777344 16.761719 40.777344 16.761719 C 40.789062 16.765625 40.804688 16.765625 40.8125 16.769531 C 40.828125 16.785156 40.855469 16.78125 40.863281 16.800781 C 40.863281 16.804688 40.871094 16.804688 40.871094 16.804688 C 40.878906 16.804688 40.890625 16.804688 40.890625 16.816406 C 40.890625 16.816406 40.894531 16.820312 40.898438 16.820312 C 40.90625 16.824219 40.914062 16.820312 40.917969 16.824219 C 40.949219 16.839844 40.980469 16.859375 41.011719 16.875 C 41.039062 16.890625 41.066406 16.90625 41.089844 16.925781 C 41.097656 16.933594 41.109375 16.933594 41.117188 16.941406 C 41.132812 16.957031 41.160156 16.957031 41.175781 16.980469 C 41.179688 16.984375 41.195312 16.984375 41.199219 16.992188 C 41.207031 17.007812 41.21875 17.007812 41.230469 17.015625 C 41.242188 17.019531 41.253906 17.027344 41.265625 17.035156 C 41.277344 17.050781 41.300781 17.054688 41.3125 17.070312 C 41.320312 17.078125 41.332031 17.082031 41.339844 17.089844 C 41.367188 17.105469 41.394531 17.121094 41.421875 17.140625 C 41.441406 17.15625 41.464844 17.171875 41.488281 17.1875 C 41.511719 17.207031 41.539062 17.230469 41.566406 17.25 C 41.585938 17.265625 41.605469 17.277344 41.625 17.292969 C 41.628906 17.296875 41.628906 17.300781 41.632812 17.304688 C 41.632812 17.304688 41.636719 17.308594 41.636719 17.308594 C 41.664062 17.316406 41.679688 17.335938 41.699219 17.355469 C 41.710938 17.367188 41.726562 17.375 41.738281 17.386719 C 41.75 17.398438 41.761719 17.40625 41.773438 17.417969 C 41.785156 17.425781 41.792969 17.433594 41.800781 17.441406 C 41.816406 17.453125 41.828125 17.464844 41.84375 17.476562 C 41.847656 17.484375 41.859375 17.488281 41.867188 17.496094 C 41.890625 17.515625 41.910156 17.535156 41.933594 17.558594 C 41.953125 17.574219 41.96875 17.589844 41.984375 17.605469 C 42 17.617188 42.019531 17.632812 42.03125 17.648438 C 42.070312 17.6875 42.105469 17.726562 42.140625 17.769531 C 42.171875 17.804688 42.199219 17.847656 42.234375 17.886719 C 42.289062 17.941406 42.332031 18.003906 42.367188 18.074219 C 42.390625 18.113281 42.402344 18.15625 42.40625 18.203125 C 42.410156 18.242188 42.398438 18.273438 42.382812 18.304688 C 42.371094 18.324219 42.351562 18.34375 42.335938 18.363281 C 42.320312 18.386719 42.304688 18.410156 42.28125 18.429688 C 42.261719 18.445312 42.238281 18.457031 42.214844 18.46875 C 42.191406 18.480469 42.167969 18.492188 42.144531 18.496094 C 42.117188 18.503906 42.082031 18.503906 42.050781 18.507812 C 42.039062 18.511719 42.027344 18.511719 42.011719 18.511719 C 41.992188 18.511719 41.972656 18.511719 41.953125 18.511719 C 41.914062 18.507812 41.871094 18.5 41.832031 18.492188 C 41.820312 18.492188 41.808594 18.496094 41.796875 18.492188 C 41.765625 18.488281 41.738281 18.480469 41.707031 18.472656 C 41.707031 18.472656 41.703125 18.46875 41.703125 18.464844 C 41.679688 18.476562 41.660156 18.460938 41.636719 18.457031 C 41.617188 18.457031 41.601562 18.449219 41.582031 18.441406 C 41.546875 18.429688 41.511719 18.417969 41.476562 18.40625 C 41.46875 18.40625 41.46875 18.394531 41.460938 18.394531 C 41.441406 18.390625 41.421875 18.378906 41.402344 18.371094 C 41.398438 18.371094 41.398438 18.371094 41.394531 18.371094 C 41.382812 18.367188 41.371094 18.371094 41.363281 18.359375 C 41.359375 18.355469 41.351562 18.359375 41.34375 18.355469 C 41.328125 18.351562 41.3125 18.347656 41.304688 18.347656 C 41.296875 18.34375 41.296875 18.339844 41.292969 18.339844 C 41.269531 18.332031 41.25 18.328125 41.230469 18.320312 C 41.222656 18.320312 41.207031 18.320312 41.210938 18.304688 C 41.210938 18.304688 41.199219 18.300781 41.195312 18.300781 C 41.171875 18.308594 41.152344 18.296875 41.132812 18.289062 C 41.117188 18.28125 41.105469 18.273438 41.089844 18.265625 C 41.074219 18.261719 41.0625 18.257812 41.046875 18.253906 C 41.039062 18.253906 41.03125 18.25 41.023438 18.246094 C 41.015625 18.242188 41.007812 18.230469 41.003906 18.234375 C 40.988281 18.238281 40.980469 18.222656 40.96875 18.21875 C 40.960938 18.214844 40.957031 18.210938 40.953125 18.210938 C 40.949219 18.210938 40.941406 18.210938 40.9375 18.210938 C 40.921875 18.203125 40.914062 18.191406 40.894531 18.191406 C 40.890625 18.191406 40.886719 18.183594 40.878906 18.179688 C 40.878906 18.179688 40.875 18.179688 40.871094 18.179688 C 40.871094 18.179688 40.863281 18.179688 40.863281 18.175781 C 40.859375 18.167969 40.855469 18.164062 40.84375 18.164062 C 40.832031 18.164062 40.820312 18.15625 40.808594 18.152344 C 40.804688 18.152344 40.808594 18.144531 40.804688 18.144531 L 40.777344 18.132812 C 40.777344 18.128906 40.777344 18.125 40.777344 18.125 C 40.785156 18.125 40.792969 18.128906 40.804688 18.128906 C 40.804688 18.128906 40.808594 18.125 40.808594 18.121094 C 40.8125 18.125 40.8125 18.136719 40.8125 18.136719 C 40.824219 18.140625 40.835938 18.140625 40.847656 18.144531 C 40.847656 18.144531 40.847656 18.148438 40.847656 18.152344 C 40.851562 18.152344 40.859375 18.148438 40.863281 18.148438 C 40.863281 18.152344 40.863281 18.15625 40.863281 18.160156 C 40.867188 18.160156 40.871094 18.160156 40.878906 18.15625 C 40.878906 18.160156 40.878906 18.160156 40.882812 18.164062 C 40.890625 18.160156 40.898438 18.152344 40.902344 18.148438 C 40.902344 18.15625 40.902344 18.164062 40.898438 18.171875 C 40.898438 18.171875 40.902344 18.171875 40.902344 18.171875 C 40.90625 18.167969 40.914062 18.164062 40.914062 18.160156 C 40.914062 18.152344 40.90625 18.144531 40.902344 18.144531 C 40.882812 18.136719 40.863281 18.132812 40.84375 18.125 C 40.84375 18.125 40.84375 18.121094 40.84375 18.117188 C 40.84375 18.117188 40.84375 18.117188 40.839844 18.117188 C 40.835938 18.117188 40.832031 18.117188 40.828125 18.113281 C 40.828125 18.113281 40.828125 18.109375 40.828125 18.109375 C 40.8125 18.105469 40.796875 18.101562 40.78125 18.09375 C 40.773438 18.089844 40.769531 18.089844 40.761719 18.085938 C 40.742188 18.078125 40.722656 18.070312 40.699219 18.058594 C 40.699219 18.0625 40.695312 18.0625 40.691406 18.066406 C 40.691406 18.0625 40.691406 18.054688 40.6875 18.050781 C 40.683594 18.050781 40.679688 18.054688 40.675781 18.054688 C 40.675781 18.050781 40.671875 18.046875 40.667969 18.039062 C 40.667969 18.046875 40.667969 18.050781 40.667969 18.054688 C 40.664062 18.054688 40.664062 18.054688 40.664062 18.054688 C 40.660156 18.050781 40.660156 18.046875 40.660156 18.042969 C 40.652344 18.039062 40.640625 18.035156 40.632812 18.03125 C 40.632812 18.035156 40.628906 18.039062 40.628906 18.046875 C 40.628906 18.039062 40.628906 18.035156 40.628906 18.03125 C 40.621094 18.027344 40.617188 18.023438 40.613281 18.023438 C 40.609375 18.019531 40.605469 18.019531 40.601562 18.019531 C 40.59375 18.015625 40.585938 18.015625 40.582031 18.011719 C 40.574219 18 40.570312 18 40.558594 18.007812 C 40.558594 18.003906 40.558594 18.003906 40.558594 18 C 40.558594 18 40.558594 18 40.558594 18.003906 C 40.550781 17.996094 40.542969 17.992188 40.535156 17.988281 C 40.527344 17.984375 40.519531 17.988281 40.507812 17.988281 C 40.507812 17.984375 40.507812 17.980469 40.503906 17.972656 C 40.5 17.976562 40.496094 17.980469 40.492188 17.984375 C 40.492188 17.980469 40.488281 17.980469 40.488281 17.976562 C 40.480469 17.980469 40.476562 17.984375 40.476562 17.984375 C 40.484375 17.992188 40.488281 17.996094 40.496094 18 C 40.5 18 40.503906 18 40.507812 17.996094 C 40.511719 18.003906 40.511719 18.007812 40.523438 18.007812 C 40.53125 18.011719 40.539062 18.011719 40.546875 18.015625 C 40.550781 18.019531 40.550781 18.03125 40.542969 18.039062 C 40.535156 18.035156 40.527344 18.035156 40.519531 18.03125 C 40.519531 18.03125 40.515625 18.03125 40.511719 18.03125 C 40.511719 18.019531 40.503906 18.015625 40.492188 18.019531 C 40.492188 18.023438 40.488281 18.011719 40.480469 18.007812 C 40.46875 18.015625 40.453125 18.003906 40.441406 17.996094 C 40.421875 17.992188 40.402344 17.988281 40.390625 17.976562 C 40.371094 17.957031 40.34375 17.96875 40.328125 17.945312 C 40.320312 17.9375 40.308594 17.933594 40.296875 17.929688 C 40.292969 17.925781 40.289062 17.914062 40.289062 17.90625 C 40.300781 17.917969 40.308594 17.917969 40.320312 17.917969 C 40.324219 17.917969 40.328125 17.921875 40.332031 17.921875 C 40.335938 17.921875 40.339844 17.921875 40.34375 17.921875 C 40.347656 17.9375 40.351562 17.9375 40.351562 17.941406 C 40.355469 17.929688 40.355469 17.921875 40.359375 17.910156 C 40.351562 17.914062 40.347656 17.917969 40.34375 17.921875 Z M 40.949219 18.171875 C 40.945312 18.164062 40.929688 18.152344 40.921875 18.15625 C 40.921875 18.160156 40.914062 18.167969 40.917969 18.171875 C 40.921875 18.175781 40.929688 18.179688 40.933594 18.179688 C 40.941406 18.183594 40.949219 18.191406 40.957031 18.195312 C 40.953125 18.1875 40.949219 18.183594 40.945312 18.179688 C 40.945312 18.175781 40.949219 18.171875 40.949219 18.171875 C 40.960938 18.195312 40.976562 18.210938 41.007812 18.210938 C 41.007812 18.214844 41.011719 18.21875 41.011719 18.226562 L 41.03125 18.199219 C 41.023438 18.199219 41.015625 18.195312 41.007812 18.195312 C 41.015625 18.179688 40.996094 18.1875 40.992188 18.179688 C 40.984375 18.171875 40.976562 18.171875 40.96875 18.183594 C 40.964844 18.175781 40.960938 18.171875 40.953125 18.167969 C 40.953125 18.167969 40.949219 18.167969 40.949219 18.171875 Z M 40.464844 16.734375 C 40.46875 16.734375 40.472656 16.734375 40.476562 16.730469 C 40.484375 16.738281 40.496094 16.746094 40.503906 16.753906 C 40.503906 16.757812 40.507812 16.753906 40.511719 16.753906 C 40.523438 16.75 40.53125 16.753906 40.53125 16.765625 C 40.535156 16.765625 40.542969 16.769531 40.546875 16.769531 C 40.554688 16.773438 40.5625 16.777344 40.570312 16.78125 C 40.582031 16.789062 40.589844 16.792969 40.601562 16.796875 C 40.605469 16.800781 40.613281 16.800781 40.621094 16.800781 C 40.617188 16.796875 40.617188 16.792969 40.613281 16.789062 C 40.613281 16.785156 40.617188 16.785156 40.613281 16.785156 C 40.609375 16.78125 40.605469 16.773438 40.601562 16.773438 C 40.585938 16.78125 40.578125 16.769531 40.574219 16.757812 C 40.566406 16.761719 40.5625 16.761719 40.5625 16.761719 C 40.550781 16.753906 40.539062 16.746094 40.53125 16.738281 C 40.53125 16.742188 40.527344 16.746094 40.527344 16.75 C 40.511719 16.734375 40.503906 16.714844 40.480469 16.722656 C 40.480469 16.710938 40.46875 16.707031 40.453125 16.710938 C 40.453125 16.710938 40.457031 16.707031 40.453125 16.707031 C 40.441406 16.699219 40.425781 16.691406 40.410156 16.683594 C 40.402344 16.675781 40.402344 16.683594 40.398438 16.691406 C 40.398438 16.695312 40.398438 16.703125 40.402344 16.703125 C 40.414062 16.710938 40.429688 16.707031 40.4375 16.722656 C 40.4375 16.726562 40.441406 16.722656 40.441406 16.722656 C 40.449219 16.726562 40.457031 16.730469 40.464844 16.734375 Z M 41.402344 18.359375 C 41.410156 18.359375 41.417969 18.363281 41.425781 18.367188 C 41.433594 18.367188 41.4375 18.367188 41.441406 18.371094 C 41.449219 18.371094 41.453125 18.378906 41.457031 18.378906 C 41.476562 18.382812 41.496094 18.390625 41.515625 18.398438 C 41.519531 18.398438 41.523438 18.398438 41.527344 18.398438 C 41.527344 18.394531 41.523438 18.390625 41.523438 18.386719 C 41.523438 18.382812 41.519531 18.378906 41.519531 18.375 C 41.515625 18.367188 41.511719 18.367188 41.503906 18.371094 C 41.503906 18.375 41.5 18.375 41.496094 18.375 C 41.496094 18.371094 41.496094 18.367188 41.496094 18.367188 C 41.488281 18.363281 41.480469 18.359375 41.472656 18.355469 C 41.46875 18.359375 41.464844 18.363281 41.460938 18.363281 C 41.460938 18.363281 41.460938 18.359375 41.460938 18.359375 C 41.460938 18.355469 41.457031 18.351562 41.453125 18.347656 C 41.441406 18.34375 41.429688 18.34375 41.414062 18.339844 C 41.414062 18.339844 41.410156 18.34375 41.40625 18.347656 C 41.402344 18.339844 41.398438 18.332031 41.398438 18.328125 C 41.386719 18.328125 41.378906 18.328125 41.371094 18.328125 C 41.367188 18.335938 41.367188 18.339844 41.363281 18.34375 C 41.371094 18.34375 41.378906 18.34375 41.390625 18.339844 C 41.394531 18.347656 41.394531 18.351562 41.394531 18.355469 C 41.394531 18.355469 41.402344 18.351562 41.40625 18.347656 C 41.40625 18.351562 41.40625 18.351562 41.40625 18.351562 Z M 40.832031 16.902344 C 40.832031 16.898438 40.832031 16.894531 40.832031 16.886719 C 40.824219 16.890625 40.816406 16.894531 40.808594 16.898438 C 40.808594 16.890625 40.808594 16.886719 40.808594 16.878906 C 40.804688 16.882812 40.800781 16.882812 40.800781 16.886719 C 40.796875 16.863281 40.789062 16.878906 40.777344 16.882812 C 40.78125 16.875 40.78125 16.871094 40.785156 16.867188 C 40.785156 16.867188 40.785156 16.863281 40.785156 16.863281 C 40.757812 16.867188 40.742188 16.855469 40.730469 16.832031 C 40.726562 16.839844 40.726562 16.839844 40.726562 16.839844 C 40.722656 16.847656 40.71875 16.851562 40.714844 16.859375 C 40.71875 16.859375 40.726562 16.863281 40.730469 16.863281 C 40.734375 16.863281 40.738281 16.867188 40.738281 16.867188 C 40.757812 16.882812 40.785156 16.886719 40.800781 16.90625 C 40.800781 16.90625 40.804688 16.90625 40.808594 16.90625 C 40.808594 16.90625 40.808594 16.90625 40.8125 16.902344 C 40.8125 16.90625 40.816406 16.90625 40.816406 16.90625 C 40.824219 16.917969 40.835938 16.914062 40.847656 16.914062 C 40.839844 16.910156 40.835938 16.90625 40.832031 16.902344 Z M 41.09375 17.042969 C 41.085938 17.042969 41.082031 17.042969 41.074219 17.042969 C 41.074219 17.039062 41.074219 17.039062 41.074219 17.035156 C 41.070312 17.035156 41.0625 17.035156 41.0625 17.03125 C 41.058594 17.015625 41.046875 17.019531 41.039062 17.023438 C 41.027344 17.011719 41.019531 17.003906 41.011719 16.992188 C 41.007812 17 41.003906 17.003906 40.996094 17.015625 C 41.007812 17.011719 41.003906 17.042969 41.019531 17.023438 C 41.039062 17.027344 41.039062 17.046875 41.058594 17.046875 C 41.070312 17.050781 41.082031 17.054688 41.09375 17.042969 Z M 40.875 16.933594 C 40.886719 16.941406 40.898438 16.945312 40.90625 16.953125 C 40.914062 16.964844 40.917969 16.976562 40.933594 16.96875 C 40.933594 16.96875 40.933594 16.972656 40.933594 16.972656 C 40.933594 16.984375 40.945312 16.980469 40.949219 16.984375 C 40.953125 16.984375 40.957031 16.984375 40.960938 16.980469 C 40.960938 16.980469 40.960938 16.972656 40.960938 16.972656 C 40.957031 16.96875 40.957031 16.953125 40.941406 16.964844 C 40.941406 16.964844 40.9375 16.957031 40.933594 16.953125 C 40.925781 16.949219 40.921875 16.945312 40.914062 16.941406 C 40.914062 16.941406 40.90625 16.941406 40.902344 16.9375 C 40.898438 16.921875 40.890625 16.925781 40.875 16.933594 Z M 39.519531 16.414062 C 39.554688 16.421875 39.589844 16.429688 39.625 16.433594 L 39.625 16.425781 C 39.617188 16.421875 39.605469 16.417969 39.59375 16.410156 C 39.589844 16.410156 39.582031 16.410156 39.578125 16.40625 C 39.570312 16.40625 39.558594 16.402344 39.554688 16.40625 C 39.542969 16.414062 39.535156 16.40625 39.527344 16.402344 Z M 40.484375 17.972656 C 40.484375 17.972656 40.484375 17.96875 40.484375 17.96875 C 40.472656 17.964844 40.460938 17.964844 40.457031 17.960938 C 40.449219 17.949219 40.441406 17.953125 40.4375 17.953125 C 40.433594 17.953125 40.425781 17.957031 40.425781 17.960938 C 40.421875 17.964844 40.425781 17.972656 40.425781 17.976562 C 40.429688 17.972656 40.433594 17.972656 40.441406 17.96875 C 40.441406 17.972656 40.445312 17.980469 40.445312 17.988281 C 40.457031 17.980469 40.472656 17.976562 40.484375 17.972656 Z M 39.960938 16.515625 C 39.960938 16.503906 39.933594 16.492188 39.921875 16.492188 C 39.917969 16.496094 39.914062 16.5 39.910156 16.503906 C 39.914062 16.507812 39.917969 16.515625 39.925781 16.519531 C 39.9375 16.523438 39.949219 16.523438 39.960938 16.515625 Z M 40.695312 16.84375 C 40.695312 16.84375 40.695312 16.839844 40.695312 16.835938 C 40.695312 16.820312 40.683594 16.8125 40.675781 16.816406 C 40.664062 16.820312 40.664062 16.8125 40.664062 16.808594 C 40.65625 16.804688 40.648438 16.804688 40.640625 16.804688 L 40.636719 16.8125 C 40.65625 16.824219 40.675781 16.835938 40.695312 16.84375 Z M 40.398438 17.941406 C 40.40625 17.949219 40.414062 17.953125 40.421875 17.960938 C 40.425781 17.957031 40.429688 17.953125 40.429688 17.949219 C 40.410156 17.941406 40.386719 17.929688 40.363281 17.921875 C 40.367188 17.933594 40.375 17.949219 40.382812 17.960938 C 40.390625 17.953125 40.394531 17.949219 40.398438 17.941406 Z M 42.199219 18.066406 C 42.203125 18.066406 42.203125 18.066406 42.207031 18.066406 C 42.210938 18.054688 42.195312 18.023438 42.171875 18.007812 C 42.175781 18.023438 42.179688 18.039062 42.183594 18.054688 C 42.191406 18.054688 42.195312 18.054688 42.199219 18.050781 C 42.199219 18.058594 42.199219 18.0625 42.199219 18.066406 Z M 38.84375 16.769531 C 38.828125 16.742188 38.8125 16.714844 38.796875 16.683594 C 38.804688 16.730469 38.824219 16.761719 38.84375 16.769531 Z M 41.304688 18.292969 C 41.296875 18.292969 41.289062 18.289062 41.285156 18.289062 C 41.28125 18.296875 41.277344 18.304688 41.273438 18.3125 C 41.285156 18.3125 41.296875 18.3125 41.308594 18.3125 C 41.308594 18.308594 41.304688 18.300781 41.304688 18.292969 Z M 41.351562 18.328125 C 41.347656 18.320312 41.34375 18.316406 41.339844 18.308594 C 41.335938 18.3125 41.328125 18.316406 41.324219 18.316406 C 41.324219 18.316406 41.324219 18.316406 41.320312 18.316406 C 41.324219 18.3125 41.324219 18.308594 41.328125 18.304688 C 41.328125 18.304688 41.324219 18.304688 41.324219 18.300781 L 41.316406 18.316406 L 41.34375 18.335938 C 41.34375 18.335938 41.347656 18.332031 41.351562 18.328125 Z M 41.273438 18.3125 C 41.269531 18.300781 41.269531 18.289062 41.265625 18.285156 C 41.25 18.277344 41.253906 18.300781 41.246094 18.304688 C 41.253906 18.304688 41.261719 18.308594 41.273438 18.3125 Z M 39.652344 17.53125 C 39.644531 17.546875 39.652344 17.554688 39.671875 17.554688 C 39.664062 17.546875 39.660156 17.539062 39.652344 17.53125 Z M 39.761719 17.511719 C 39.761719 17.515625 39.761719 17.515625 39.757812 17.515625 C 39.761719 17.519531 39.765625 17.523438 39.765625 17.523438 C 39.773438 17.527344 39.78125 17.53125 39.789062 17.535156 C 39.796875 17.539062 39.804688 17.542969 39.816406 17.550781 L 39.816406 17.546875 Z M 41.039062 18.234375 C 41.046875 18.226562 41.058594 18.21875 41.054688 18.21875 C 41.054688 18.210938 41.046875 18.203125 41.039062 18.195312 C 41.039062 18.210938 41.039062 18.21875 41.039062 18.234375 Z M 40.980469 16.976562 C 40.976562 16.976562 40.976562 16.972656 40.976562 16.972656 C 40.96875 16.976562 40.964844 16.984375 40.957031 16.988281 C 40.964844 16.992188 40.972656 16.996094 40.980469 17 C 40.980469 16.992188 40.980469 16.984375 40.980469 16.976562 Z M 41.929688 18.476562 C 41.941406 18.488281 41.945312 18.492188 41.964844 18.480469 C 41.953125 18.472656 41.941406 18.472656 41.929688 18.476562 Z M 41.84375 17.648438 L 41.851562 17.636719 C 41.851562 17.636719 41.851562 17.636719 41.851562 17.632812 C 41.847656 17.636719 41.84375 17.636719 41.84375 17.636719 C 41.839844 17.628906 41.839844 17.621094 41.835938 17.613281 C 41.824219 17.628906 41.828125 17.636719 41.84375 17.648438 Z M 41.125 18.253906 C 41.117188 18.242188 41.109375 18.234375 41.101562 18.226562 C 41.089844 18.242188 41.109375 18.246094 41.113281 18.253906 C 41.113281 18.257812 41.121094 18.253906 41.125 18.253906 Z M 40.066406 16.539062 C 40.050781 16.539062 40.042969 16.542969 40.027344 16.542969 C 40.039062 16.550781 40.046875 16.554688 40.058594 16.558594 C 40.058594 16.554688 40.0625 16.546875 40.066406 16.539062 Z M 41.707031 18.453125 C 41.703125 18.441406 41.699219 18.433594 41.695312 18.425781 C 41.6875 18.429688 41.683594 18.433594 41.679688 18.441406 C 41.6875 18.445312 41.695312 18.445312 41.707031 18.453125 Z M 41.78125 17.582031 C 41.78125 17.582031 41.777344 17.582031 41.777344 17.582031 C 41.785156 17.59375 41.792969 17.601562 41.804688 17.613281 C 41.808594 17.589844 41.792969 17.589844 41.78125 17.582031 Z M 41.25 18.285156 C 41.234375 18.285156 41.226562 18.28125 41.21875 18.28125 L 41.21875 18.285156 C 41.226562 18.289062 41.230469 18.296875 41.238281 18.300781 C 41.242188 18.296875 41.242188 18.292969 41.25 18.285156 Z M 41.25 18.285156 " fill-opacity="1" fill-rule="nonzero"/></g></g></g><g clip-path="url(#0b47b5d3ab)"><g clip-path="url(#16db78b4ab)"><g clip-path="url(#aeaefd07db)"><path fill="#5a3e71" d="M 40.777344 18.125 C 40.777344 18.128906 40.777344 18.128906 40.777344 18.132812 C 40.761719 18.140625 40.753906 18.125 40.746094 18.125 C 40.738281 18.121094 40.730469 18.117188 40.722656 18.117188 C 40.71875 18.113281 40.714844 18.117188 40.714844 18.113281 C 40.703125 18.097656 40.683594 18.097656 40.667969 18.09375 C 40.65625 18.089844 40.65625 18.074219 40.664062 18.066406 C 40.664062 18.070312 40.664062 18.074219 40.667969 18.078125 C 40.683594 18.082031 40.699219 18.085938 40.710938 18.085938 C 40.71875 18.09375 40.726562 18.09375 40.730469 18.097656 C 40.734375 18.101562 40.742188 18.101562 40.746094 18.105469 C 40.746094 18.105469 40.75 18.109375 40.75 18.109375 C 40.761719 18.105469 40.769531 18.113281 40.777344 18.125 Z M 40.777344 18.125 " fill-opacity="1" fill-rule="nonzero"/><path fill="#5a3e71" d="M 40.628906 18.046875 C 40.632812 18.054688 40.640625 18.0625 40.648438 18.066406 C 40.65625 18.070312 40.648438 18.074219 40.648438 18.078125 C 40.648438 18.078125 40.644531 18.078125 40.640625 18.074219 C 40.640625 18.074219 40.636719 18.078125 40.632812 18.078125 C 40.625 18.078125 40.617188 18.074219 40.609375 18.066406 C 40.609375 18.0625 40.601562 18.054688 40.601562 18.058594 C 40.589844 18.0625 40.582031 18.058594 40.574219 18.050781 C 40.574219 18.046875 40.566406 18.046875 40.566406 18.046875 C 40.558594 18.042969 40.554688 18.039062 40.546875 18.035156 C 40.558594 18.03125 40.5625 18.027344 40.5625 18.023438 C 40.570312 18.027344 40.578125 18.03125 40.582031 18.035156 C 40.589844 18.035156 40.597656 18.039062 40.601562 18.042969 C 40.609375 18.058594 40.617188 18.050781 40.628906 18.046875 Z M 40.628906 18.046875 " fill-opacity="1" fill-rule="nonzero"/></g></g></g><g clip-path="url(#cfc8861402)"><g clip-path="url(#60c7f1254e)"><g clip-path="url(#716a79cbc0)"><path fill="#5a3e71" d="M 40.121094 17.84375 C 40.132812 17.832031 40.144531 17.835938 40.152344 17.855469 C 40.15625 17.851562 40.15625 17.847656 40.160156 17.84375 C 40.171875 17.851562 40.179688 17.863281 40.191406 17.871094 C 40.191406 17.871094 40.195312 17.871094 40.195312 17.871094 C 40.203125 17.875 40.210938 17.875 40.21875 17.878906 C 40.21875 17.878906 40.21875 17.882812 40.21875 17.886719 C 40.21875 17.886719 40.210938 17.890625 40.210938 17.886719 C 40.199219 17.882812 40.191406 17.878906 40.179688 17.875 C 40.175781 17.871094 40.171875 17.871094 40.171875 17.871094 C 40.164062 17.871094 40.15625 17.871094 40.152344 17.859375 C 40.144531 17.851562 40.132812 17.851562 40.121094 17.847656 Z M 40.121094 17.84375 " fill-opacity="1" fill-rule="nonzero"/></g></g></g><g clip-path="url(#24c07df776)"><g clip-path="url(#93465b2ee2)"><g clip-path="url(#14908e4eac)"><path fill="#5a3e71" d="M 39.292969 16.214844 C 39.296875 16.214844 39.300781 16.214844 39.304688 16.214844 C 39.328125 16.214844 39.351562 16.21875 39.375 16.21875 C 39.382812 16.230469 39.371094 16.226562 39.367188 16.226562 C 39.339844 16.226562 39.308594 16.226562 39.28125 16.226562 C 39.269531 16.226562 39.257812 16.226562 39.246094 16.226562 C 39.261719 16.222656 39.277344 16.21875 39.292969 16.214844 Z M 39.292969 16.214844 " fill-opacity="1" fill-rule="nonzero"/><path fill="#5a3e71" d="M 39.199219 16.238281 C 39.164062 16.242188 39.128906 16.246094 39.09375 16.25 C 39.09375 16.246094 39.097656 16.242188 39.101562 16.242188 C 39.128906 16.238281 39.160156 16.234375 39.1875 16.230469 C 39.191406 16.230469 39.195312 16.234375 39.199219 16.238281 Z M 39.199219 16.238281 " fill-opacity="1" fill-rule="nonzero"/></g></g></g><g clip-path="url(#2b05ff781c)"><g clip-path="url(#669a3b92d7)"><g clip-path="url(#fdf3f1e2a3)"><path fill="#5a3e71" d="M 39.992188 17.773438 C 39.988281 17.773438 39.988281 17.777344 39.988281 17.777344 C 39.988281 17.777344 39.984375 17.777344 39.984375 17.777344 C 39.972656 17.769531 39.960938 17.757812 39.949219 17.757812 C 39.945312 17.753906 39.945312 17.75 39.941406 17.75 C 39.949219 17.746094 39.949219 17.742188 39.953125 17.742188 C 39.957031 17.742188 39.964844 17.746094 39.964844 17.746094 C 39.96875 17.761719 39.984375 17.757812 39.988281 17.765625 C 39.992188 17.769531 39.992188 17.769531 39.992188 17.773438 Z M 39.992188 17.773438 " fill-opacity="1" fill-rule="nonzero"/></g></g></g><g clip-path="url(#88c7241e7b)"><g clip-path="url(#a8e9b292c3)"><g clip-path="url(#282046ff2f)"><path fill="#5a3e71" d="M 39.992188 17.773438 C 39.992188 17.769531 39.992188 17.769531 39.988281 17.765625 C 39.992188 17.765625 39.992188 17.761719 39.996094 17.757812 C 40.003906 17.773438 40.007812 17.777344 40.019531 17.765625 C 40.023438 17.773438 40.027344 17.777344 40.035156 17.78125 C 40.011719 17.808594 40.007812 17.777344 39.996094 17.777344 C 39.992188 17.773438 39.992188 17.773438 39.992188 17.773438 Z M 39.992188 17.773438 " fill-opacity="1" fill-rule="nonzero"/></g></g></g><g clip-path="url(#7e8de9891e)"><g clip-path="url(#c292546f9b)"><g clip-path="url(#20c2b51619)"><path fill="#5a3e71" d="M 40.089844 17.828125 C 40.074219 17.824219 40.066406 17.816406 40.050781 17.8125 C 40.070312 17.796875 40.082031 17.800781 40.089844 17.828125 Z M 40.089844 17.828125 " fill-opacity="1" fill-rule="nonzero"/></g></g></g><g clip-path="url(#602264c9fb)"><g clip-path="url(#dfe47c2041)"><g clip-path="url(#4a2116f3e7)"><path fill="#5a3e71" d="M 39.738281 17.59375 C 39.734375 17.605469 39.726562 17.613281 39.742188 17.613281 C 39.742188 17.613281 39.742188 17.621094 39.746094 17.625 C 39.734375 17.621094 39.726562 17.617188 39.71875 17.613281 C 39.714844 17.613281 39.714844 17.609375 39.710938 17.605469 C 39.714844 17.601562 39.71875 17.601562 39.71875 17.597656 C 39.722656 17.597656 39.730469 17.597656 39.738281 17.59375 Z M 39.738281 17.59375 " fill-opacity="1" fill-rule="nonzero"/></g></g></g><g clip-path="url(#de3b63ebe9)"><g clip-path="url(#dd807a8367)"><g clip-path="url(#197046083c)"><path fill="#5a3e71" d="M 40.242188 17.882812 C 40.242188 17.886719 40.246094 17.894531 40.246094 17.894531 C 40.257812 17.898438 40.265625 17.902344 40.273438 17.90625 L 40.273438 17.910156 C 40.269531 17.910156 40.261719 17.914062 40.261719 17.914062 C 40.25 17.90625 40.234375 17.902344 40.242188 17.882812 Z M 40.242188 17.882812 " fill-opacity="1" fill-rule="nonzero"/></g></g></g><g clip-path="url(#131c2a646c)"><g clip-path="url(#7333fee4cd)"><g clip-path="url(#96055c971e)"><path fill="#5a3e71" d="M 39.894531 17.710938 C 39.898438 17.710938 39.902344 17.714844 39.90625 17.710938 C 39.910156 17.710938 39.910156 17.707031 39.914062 17.703125 C 39.914062 17.707031 39.917969 17.710938 39.917969 17.714844 C 39.914062 17.71875 39.914062 17.722656 39.910156 17.726562 C 39.902344 17.726562 39.886719 17.730469 39.886719 17.710938 C 39.890625 17.710938 39.890625 17.710938 39.894531 17.710938 Z M 39.894531 17.710938 " fill-opacity="1" fill-rule="nonzero"/><path fill="#5a3e71" d="M 39.894531 17.710938 C 39.890625 17.710938 39.890625 17.710938 39.886719 17.710938 C 39.871094 17.722656 39.875 17.703125 39.871094 17.699219 C 39.882812 17.691406 39.886719 17.691406 39.894531 17.710938 Z M 39.894531 17.710938 " fill-opacity="1" fill-rule="nonzero"/><path fill="#5a3e71" d="M 39.832031 17.679688 C 39.832031 17.679688 39.832031 17.675781 39.832031 17.675781 C 39.835938 17.675781 39.835938 17.675781 39.839844 17.675781 C 39.847656 17.683594 39.855469 17.691406 39.867188 17.695312 C 39.863281 17.699219 39.863281 17.699219 39.863281 17.703125 C 39.851562 17.695312 39.839844 17.6875 39.832031 17.679688 Z M 39.832031 17.679688 " fill-opacity="1" fill-rule="nonzero"/><path fill="#5a3e71" d="M 39.765625 17.621094 L 39.777344 17.640625 C 39.773438 17.640625 39.765625 17.644531 39.765625 17.644531 C 39.761719 17.640625 39.757812 17.632812 39.757812 17.628906 Z M 39.765625 17.621094 " fill-opacity="1" fill-rule="nonzero"/><path fill="#5a3e71" d="M 39.832031 17.679688 L 39.796875 17.660156 C 39.796875 17.65625 39.800781 17.65625 39.800781 17.65625 C 39.808594 17.660156 39.820312 17.664062 39.832031 17.667969 C 39.832031 17.671875 39.832031 17.675781 39.832031 17.679688 Z M 39.832031 17.679688 " fill-opacity="1" fill-rule="nonzero"/></g></g></g></svg>