<svg xmlns="http://www.w3.org/2000/svg" xmlns:xlink="http://www.w3.org/1999/xlink" width="160" zoomAndPan="magnify" viewBox="0 0 120 30.000001" height="40" preserveAspectRatio="xMidYMid meet" version="1.0"><defs><filter x="0%" y="0%" width="100%" height="100%" id="e373b9375a"><feColorMatrix values="0 0 0 0 1 0 0 0 0 1 0 0 0 0 1 0 0 0 1 0" color-interpolation-filters="sRGB"/></filter><g/><clipPath id="b560471c38"><path d="M 69 0 L 107.46875 0 L 107.46875 29.03125 L 69 29.03125 Z M 69 0 " clip-rule="nonzero"/></clipPath><clipPath id="9fb58f9878"><path d="M 78.890625 13.222656 C 75.621094 14.050781 72.386719 14.691406 69.007812 14.253906 C 69.203125 13.175781 69.734375 12.210938 70.363281 11.34375 C 71.390625 9.9375 72.804688 8.769531 74.105469 7.609375 C 74.824219 6.960938 75.621094 6.300781 76.160156 5.515625 C 76.417969 5.136719 76.679688 4.710938 76.734375 4.261719 C 76.773438 3.929688 76.765625 3.542969 76.570312 3.246094 C 76.410156 3.007812 76.03125 2.859375 75.757812 2.890625 C 75.378906 2.9375 75 3.132812 74.730469 3.425781 C 74.304688 3.882812 74.089844 4.5 73.894531 5.074219 C 72.851562 5.058594 71.800781 5.027344 70.757812 4.988281 C 71.097656 4.121094 71.5 3.277344 72.09375 2.558594 C 72.566406 1.980469 73.160156 1.492188 73.804688 1.128906 C 74.539062 0.71875 75.386719 0.488281 76.214844 0.417969 C 76.941406 0.355469 77.761719 0.308594 78.425781 0.648438 C 78.914062 0.898438 79.300781 1.382812 79.496094 1.894531 C 79.734375 2.503906 79.78125 3.210938 79.6875 3.859375 C 79.570312 4.703125 79.238281 5.476562 78.804688 6.195312 C 78.171875 7.238281 77.238281 8.128906 76.339844 8.96875 C 75.867188 9.394531 75.386719 9.820312 74.933594 10.269531 C 74.636719 10.570312 74.359375 10.886719 74.074219 11.207031 C 75.738281 10.988281 77.382812 10.65625 79.023438 10.300781 C 78.976562 11.28125 78.921875 12.25 78.890625 13.222656 Z M 80.707031 6.535156 C 80.886719 4.832031 81.234375 2.867188 82.355469 1.476562 C 83.183594 0.457031 84.460938 0 85.726562 0.015625 C 86.324219 0.0234375 86.972656 0.0703125 87.523438 0.324219 C 87.960938 0.527344 88.378906 0.765625 88.726562 1.121094 C 89.015625 1.421875 89.269531 1.761719 89.46875 2.132812 C 89.664062 2.511719 89.8125 2.921875 89.910156 3.332031 C 90.121094 4.207031 90.25 5.097656 90.25 5.992188 C 90.25 7.484375 90.074219 9.21875 89.039062 10.417969 C 88.070312 11.539062 86.429688 11.886719 85.054688 12.070312 C 84.273438 12.171875 83.414062 12.265625 82.632812 12.015625 C 82.046875 11.824219 81.527344 11.40625 81.203125 10.886719 C 80.878906 10.363281 80.761719 9.734375 80.679688 9.140625 C 80.570312 8.296875 80.609375 7.394531 80.707031 6.535156 Z M 83.777344 6.179688 C 83.703125 7.121094 83.570312 8.296875 83.964844 9.171875 C 84.164062 9.597656 84.613281 9.898438 85.09375 9.835938 C 85.394531 9.796875 85.773438 9.621094 85.992188 9.402344 C 86.285156 9.101562 86.484375 8.707031 86.59375 8.304688 C 86.792969 7.585938 86.839844 6.8125 86.871094 6.078125 C 86.910156 5.121094 86.972656 3.976562 86.609375 3.070312 C 86.429688 2.613281 86 2.289062 85.511719 2.28125 C 84.984375 2.265625 84.566406 2.691406 84.359375 3.132812 C 83.925781 4.042969 83.855469 5.179688 83.777344 6.179688 Z M 91.652344 3.308594 C 91.628906 2.785156 91.730469 2.265625 91.921875 1.769531 C 92.085938 1.335938 92.417969 0.90625 92.84375 0.679688 C 93.304688 0.433594 93.855469 0.355469 94.367188 0.425781 C 95.222656 0.535156 95.996094 0.964844 96.554688 1.617188 C 97.179688 2.351562 97.574219 3.285156 97.683594 4.230469 C 97.777344 5.035156 97.777344 5.96875 97.164062 6.589844 C 96.5625 7.207031 95.671875 7.152344 94.9375 6.984375 C 94.3125 6.84375 93.730469 6.582031 93.183594 6.210938 C 92.710938 5.886719 92.292969 5.414062 92.054688 4.902344 C 91.828125 4.390625 91.675781 3.851562 91.652344 3.308594 Z M 93.808594 3.574219 C 93.847656 4.089844 93.925781 4.671875 94.226562 5.128906 C 94.375 5.359375 94.582031 5.5 94.84375 5.558594 C 95.101562 5.605469 95.292969 5.542969 95.402344 5.359375 C 95.65625 4.910156 95.601562 4.347656 95.5625 3.867188 C 95.511719 3.324219 95.394531 2.746094 95.09375 2.273438 C 94.953125 2.050781 94.753906 1.917969 94.511719 1.886719 C 94.265625 1.855469 94.09375 1.933594 93.980469 2.117188 C 93.753906 2.566406 93.769531 3.101562 93.808594 3.574219 Z M 100.40625 1.351562 C 100.921875 1.445312 101.433594 1.53125 101.945312 1.625 C 100.839844 6.332031 99.332031 10.664062 96.746094 14.769531 C 96.167969 14.53125 95.59375 14.296875 95.015625 14.058594 C 96.277344 12.09375 97.4375 10.070312 98.339844 7.902344 C 99.222656 5.785156 99.839844 3.574219 100.40625 1.351562 Z M 100.550781 12.234375 C 100.542969 11.621094 100.582031 10.980469 100.800781 10.386719 C 100.976562 9.90625 101.308594 9.449219 101.789062 9.21875 C 102.347656 8.953125 102.941406 8.933594 103.523438 8.992188 C 104.496094 9.085938 105.492188 9.496094 106.21875 10.191406 C 106.984375 10.917969 107.464844 11.902344 107.558594 12.953125 C 107.652344 14.011719 107.355469 15.101562 106.660156 15.914062 C 105.988281 16.695312 104.960938 17.074219 103.953125 16.957031 C 103.265625 16.875 102.585938 16.558594 102.089844 16.085938 C 101.582031 15.605469 101.1875 14.972656 100.960938 14.3125 C 100.722656 13.65625 100.566406 12.9375 100.550781 12.234375 Z M 102.957031 12.789062 C 102.988281 13.425781 103.042969 14.128906 103.359375 14.714844 C 103.507812 14.988281 103.722656 15.148438 104.023438 15.179688 C 104.324219 15.210938 104.550781 15.109375 104.703125 14.871094 C 105.023438 14.3125 105.03125 13.625 104.992188 13.023438 C 104.953125 12.402344 104.84375 11.683594 104.464844 11.136719 C 104.28125 10.878906 104.046875 10.742188 103.761719 10.703125 C 103.476562 10.671875 103.273438 10.765625 103.164062 10.996094 C 102.878906 11.53125 102.925781 12.21875 102.957031 12.789062 Z M 69.851562 22.292969 C 69.621094 20.785156 69.875 19.308594 71.066406 18.226562 C 72.289062 17.128906 73.964844 16.640625 75.527344 16.371094 C 77.035156 16.109375 78.753906 16 80.003906 17.105469 C 81.367188 18.320312 81.707031 20.324219 81.808594 22.039062 C 81.898438 23.355469 81.90625 24.808594 81.453125 26.070312 C 81.140625 26.949219 80.671875 27.761719 79.867188 28.289062 C 79.023438 28.84375 78.003906 28.914062 77.058594 28.828125 C 75.96875 28.722656 74.878906 28.417969 73.894531 27.878906 C 72.90625 27.34375 72.054688 26.554688 71.359375 25.675781 C 70.59375 24.699219 70.03125 23.507812 69.851562 22.292969 Z M 73.539062 22.65625 C 73.65625 23.539062 73.925781 24.539062 74.578125 25.21875 C 75.070312 25.726562 75.730469 26.046875 76.425781 26.089844 C 77.042969 26.128906 77.691406 25.875 78.011719 25.332031 C 78.519531 24.46875 78.382812 23.253906 78.304688 22.316406 C 78.226562 21.429688 78.085938 20.40625 77.453125 19.726562 C 76.996094 19.238281 76.277344 19.070312 75.621094 19.15625 C 74.980469 19.246094 74.3125 19.550781 73.925781 20.089844 C 73.402344 20.832031 73.425781 21.816406 73.539062 22.65625 Z M 83.507812 14.800781 C 85.046875 14.523438 86.625 14.296875 88.1875 14.375 C 89.789062 14.453125 91.351562 14.855469 92.867188 15.359375 C 92.859375 16.324219 92.867188 17.277344 92.875 18.242188 C 91.0625 17.777344 89.222656 17.414062 87.335938 17.445312 C 87.359375 18.328125 87.375 19.203125 87.398438 20.089844 C 88.984375 20.074219 90.539062 20.238281 92.101562 20.5 C 92.109375 21.453125 92.121094 22.410156 92.128906 23.363281 C 90.578125 23.238281 89.039062 23.191406 87.484375 23.191406 C 87.539062 25.140625 87.589844 27.082031 87.605469 29.03125 C 86.46875 29.023438 85.324219 29.015625 84.1875 29 C 83.855469 24.265625 83.585938 19.535156 83.507812 14.800781 Z M 94.890625 16.101562 C 97.960938 17.308594 101 18.660156 104.324219 18.953125 C 104.28125 19.617188 104.25 20.277344 104.226562 20.941406 C 102.308594 20.847656 100.460938 20.453125 98.609375 19.945312 C 98.609375 20.578125 98.609375 21.203125 98.609375 21.832031 C 100.179688 22.125 101.742188 22.347656 103.335938 22.410156 C 103.3125 22.984375 103.28125 23.5625 103.234375 24.128906 C 101.679688 24.1875 100.125 24.121094 98.574219 24.003906 C 98.519531 25.527344 98.394531 27.035156 98.15625 28.535156 C 96.988281 28.644531 95.8125 28.738281 94.644531 28.8125 C 95.054688 24.589844 94.851562 20.339844 94.890625 16.101562 Z M 94.890625 16.101562 " clip-rule="nonzero"/></clipPath><linearGradient x1="247.366965" gradientTransform="matrix(0.0789349, 0, 0, 0.0789349, 68.580751, -5.541228)" y1="67.005687" x2="252.306496" gradientUnits="userSpaceOnUse" y2="441.172808" id="41870d72ce"><stop stop-opacity="1" stop-color="rgb(36.727905%, 26.332092%, 48.358154%)" offset="0"/><stop stop-opacity="1" stop-color="rgb(36.78894%, 26.419067%, 48.532104%)" offset="0.015625"/><stop stop-opacity="1" stop-color="rgb(36.911011%, 26.594543%, 48.881531%)" offset="0.0171881"/><stop stop-opacity="1" stop-color="rgb(36.973572%, 26.683044%, 49.057007%)" offset="0.03125"/><stop stop-opacity="1" stop-color="rgb(37.034607%, 26.77002%, 49.230957%)" offset="0.046875"/><stop stop-opacity="1" stop-color="rgb(37.158203%, 26.94397%, 49.580383%)" offset="0.0625"/><stop stop-opacity="1" stop-color="rgb(37.280273%, 27.119446%, 49.92981%)" offset="0.078125"/><stop stop-opacity="1" stop-color="rgb(37.40387%, 27.294922%, 50.280762%)" offset="0.09375"/><stop stop-opacity="1" stop-color="rgb(37.52594%, 27.470398%, 50.630188%)" offset="0.109375"/><stop stop-opacity="1" stop-color="rgb(37.649536%, 27.644348%, 50.979614%)" offset="0.125"/><stop stop-opacity="1" stop-color="rgb(37.773132%, 27.819824%, 51.329041%)" offset="0.140625"/><stop stop-opacity="1" stop-color="rgb(37.895203%, 27.9953%, 51.678467%)" offset="0.15625"/><stop stop-opacity="1" stop-color="rgb(38.018799%, 28.170776%, 52.027893%)" offset="0.171875"/><stop stop-opacity="1" stop-color="rgb(38.142395%, 28.346252%, 52.377319%)" offset="0.1875"/><stop stop-opacity="1" stop-color="rgb(38.264465%, 28.520203%, 52.728271%)" offset="0.203125"/><stop stop-opacity="1" stop-color="rgb(38.388062%, 28.695679%, 53.077698%)" offset="0.21875"/><stop stop-opacity="1" stop-color="rgb(38.510132%, 28.871155%, 53.427124%)" offset="0.234375"/><stop stop-opacity="1" stop-color="rgb(38.633728%, 29.046631%, 53.77655%)" offset="0.25"/><stop stop-opacity="1" stop-color="rgb(38.757324%, 29.220581%, 54.125977%)" offset="0.265625"/><stop stop-opacity="1" stop-color="rgb(38.879395%, 29.396057%, 54.475403%)" offset="0.28125"/><stop stop-opacity="1" stop-color="rgb(39.002991%, 29.571533%, 54.824829%)" offset="0.296875"/><stop stop-opacity="1" stop-color="rgb(39.126587%, 29.747009%, 55.174255%)" offset="0.3125"/><stop stop-opacity="1" stop-color="rgb(39.248657%, 29.920959%, 55.525208%)" offset="0.328125"/><stop stop-opacity="1" stop-color="rgb(39.372253%, 30.096436%, 55.874634%)" offset="0.34375"/><stop stop-opacity="1" stop-color="rgb(39.494324%, 30.271912%, 56.22406%)" offset="0.359375"/><stop stop-opacity="1" stop-color="rgb(39.61792%, 30.447388%, 56.573486%)" offset="0.375"/><stop stop-opacity="1" stop-color="rgb(39.741516%, 30.622864%, 56.922913%)" offset="0.390625"/><stop stop-opacity="1" stop-color="rgb(39.863586%, 30.796814%, 57.272339%)" offset="0.40625"/><stop stop-opacity="1" stop-color="rgb(39.987183%, 30.97229%, 57.621765%)" offset="0.421875"/><stop stop-opacity="1" stop-color="rgb(40.110779%, 31.147766%, 57.971191%)" offset="0.4375"/><stop stop-opacity="1" stop-color="rgb(40.232849%, 31.323242%, 58.322144%)" offset="0.453125"/><stop stop-opacity="1" stop-color="rgb(40.356445%, 31.497192%, 58.67157%)" offset="0.46875"/><stop stop-opacity="1" stop-color="rgb(40.478516%, 31.672668%, 59.020996%)" offset="0.484375"/><stop stop-opacity="1" stop-color="rgb(40.602112%, 31.848145%, 59.370422%)" offset="0.5"/><stop stop-opacity="1" stop-color="rgb(40.725708%, 32.023621%, 59.719849%)" offset="0.515625"/><stop stop-opacity="1" stop-color="rgb(40.847778%, 32.197571%, 60.069275%)" offset="0.53125"/><stop stop-opacity="1" stop-color="rgb(40.971375%, 32.373047%, 60.418701%)" offset="0.546875"/><stop stop-opacity="1" stop-color="rgb(41.094971%, 32.548523%, 60.768127%)" offset="0.5625"/><stop stop-opacity="1" stop-color="rgb(41.217041%, 32.723999%, 61.11908%)" offset="0.578125"/><stop stop-opacity="1" stop-color="rgb(41.340637%, 32.899475%, 61.468506%)" offset="0.59375"/><stop stop-opacity="1" stop-color="rgb(41.462708%, 33.073425%, 61.817932%)" offset="0.609375"/><stop stop-opacity="1" stop-color="rgb(41.586304%, 33.248901%, 62.167358%)" offset="0.625"/><stop stop-opacity="1" stop-color="rgb(41.7099%, 33.424377%, 62.516785%)" offset="0.640625"/><stop stop-opacity="1" stop-color="rgb(41.83197%, 33.599854%, 62.866211%)" offset="0.65625"/><stop stop-opacity="1" stop-color="rgb(41.955566%, 33.773804%, 63.215637%)" offset="0.671875"/><stop stop-opacity="1" stop-color="rgb(42.079163%, 33.94928%, 63.565063%)" offset="0.6875"/><stop stop-opacity="1" stop-color="rgb(42.201233%, 34.124756%, 63.916016%)" offset="0.703125"/><stop stop-opacity="1" stop-color="rgb(42.324829%, 34.300232%, 64.265442%)" offset="0.71875"/><stop stop-opacity="1" stop-color="rgb(42.448425%, 34.474182%, 64.614868%)" offset="0.734375"/><stop stop-opacity="1" stop-color="rgb(42.570496%, 34.649658%, 64.964294%)" offset="0.75"/><stop stop-opacity="1" stop-color="rgb(42.694092%, 34.825134%, 65.313721%)" offset="0.765625"/><stop stop-opacity="1" stop-color="rgb(42.816162%, 35.00061%, 65.663147%)" offset="0.78125"/><stop stop-opacity="1" stop-color="rgb(42.939758%, 35.176086%, 66.012573%)" offset="0.796875"/><stop stop-opacity="1" stop-color="rgb(43.063354%, 35.350037%, 66.362%)" offset="0.8125"/><stop stop-opacity="1" stop-color="rgb(43.185425%, 35.525513%, 66.712952%)" offset="0.828125"/><stop stop-opacity="1" stop-color="rgb(43.309021%, 35.700989%, 67.062378%)" offset="0.84375"/><stop stop-opacity="1" stop-color="rgb(43.432617%, 35.876465%, 67.411804%)" offset="0.859375"/><stop stop-opacity="1" stop-color="rgb(43.554688%, 36.050415%, 67.76123%)" offset="0.875"/><stop stop-opacity="1" stop-color="rgb(43.678284%, 36.225891%, 68.110657%)" offset="0.890625"/><stop stop-opacity="1" stop-color="rgb(43.800354%, 36.401367%, 68.460083%)" offset="0.90625"/><stop stop-opacity="1" stop-color="rgb(43.92395%, 36.576843%, 68.809509%)" offset="0.921875"/><stop stop-opacity="1" stop-color="rgb(44.047546%, 36.750793%, 69.158936%)" offset="0.9375"/><stop stop-opacity="1" stop-color="rgb(44.169617%, 36.92627%, 69.509888%)" offset="0.953125"/><stop stop-opacity="1" stop-color="rgb(44.293213%, 37.101746%, 69.859314%)" offset="0.96875"/><stop stop-opacity="1" stop-color="rgb(44.416809%, 37.277222%, 70.20874%)" offset="0.982812"/><stop stop-opacity="1" stop-color="rgb(44.477844%, 37.365723%, 70.384216%)" offset="0.984375"/><stop stop-opacity="1" stop-color="rgb(44.538879%, 37.452698%, 70.558167%)" offset="1"/></linearGradient><clipPath id="958daf2469"><path d="M 13.546875 0 L 42.582031 0 L 42.582031 29.03125 L 13.546875 29.03125 Z M 13.546875 0 " clip-rule="nonzero"/></clipPath><clipPath id="47efe417db"><path d="M 24.453125 9.980469 L 27 9.980469 L 27 18.691406 L 24.453125 18.691406 Z M 24.453125 9.980469 " clip-rule="nonzero"/></clipPath><clipPath id="e867c508ce"><path d="M 29 9.980469 L 31.710938 9.980469 L 31.710938 18.691406 L 29 18.691406 Z M 29 9.980469 " clip-rule="nonzero"/></clipPath><clipPath id="f9e36dd016"><path d="M 25 17 L 31 17 L 31 18.691406 L 25 18.691406 Z M 25 17 " clip-rule="nonzero"/></clipPath><mask id="90fac398c6"><g filter="url(#e373b9375a)"><rect x="-12" width="144" fill="#000000" y="-3" height="36.000001" fill-opacity="0.59"/></g></mask><clipPath id="9d94245d81"><path d="M 0.75 1.035156 L 19.378906 1.035156 L 19.378906 8.800781 L 0.75 8.800781 Z M 0.75 1.035156 " clip-rule="nonzero"/></clipPath><clipPath id="f94c0ca0e0"><rect x="0" width="20" y="0" height="9"/></clipPath><clipPath id="f9761c417c"><path d="M 21 19 L 35 19 L 35 24 L 21 24 Z M 21 19 " clip-rule="nonzero"/></clipPath><clipPath id="9180208371"><path d="M 20.363281 19.816406 L 35.527344 18.28125 L 36.039062 23.335938 L 20.875 24.871094 Z M 20.363281 19.816406 " clip-rule="nonzero"/></clipPath><clipPath id="f501931ebe"><path d="M 20.363281 19.816406 L 35.527344 18.28125 L 36.039062 23.335938 L 20.875 24.871094 Z M 20.363281 19.816406 " clip-rule="nonzero"/></clipPath><clipPath id="dc17701629"><path d="M 20 19 L 23 19 L 23 22 L 20 22 Z M 20 19 " clip-rule="nonzero"/></clipPath><clipPath id="3a2f612ecc"><path d="M 20.363281 19.816406 L 35.527344 18.28125 L 36.039062 23.335938 L 20.875 24.871094 Z M 20.363281 19.816406 " clip-rule="nonzero"/></clipPath><clipPath id="a885b56626"><path d="M 20.363281 19.816406 L 35.527344 18.28125 L 36.039062 23.335938 L 20.875 24.871094 Z M 20.363281 19.816406 " clip-rule="nonzero"/></clipPath><clipPath id="0e7a2e0a8d"><path d="M 33 18 L 36 18 L 36 20 L 33 20 Z M 33 18 " clip-rule="nonzero"/></clipPath><clipPath id="dddbd9cfd5"><path d="M 20.363281 19.816406 L 35.527344 18.28125 L 36.039062 23.335938 L 20.875 24.871094 Z M 20.363281 19.816406 " clip-rule="nonzero"/></clipPath><clipPath id="bded4c52a9"><path d="M 20.363281 19.816406 L 35.527344 18.28125 L 36.039062 23.335938 L 20.875 24.871094 Z M 20.363281 19.816406 " clip-rule="nonzero"/></clipPath><clipPath id="f2cedb2519"><path d="M 33 16 L 38 16 L 38 19 L 33 19 Z M 33 16 " clip-rule="nonzero"/></clipPath><clipPath id="5da2c5a1da"><path d="M 34.4375 15.695312 L 38.105469 18.039062 L 37.324219 19.261719 L 33.65625 16.917969 Z M 34.4375 15.695312 " clip-rule="nonzero"/></clipPath><clipPath id="2779e8fde4"><path d="M 34.4375 15.695312 L 38.105469 18.039062 L 37.324219 19.261719 L 33.65625 16.917969 Z M 34.4375 15.695312 " clip-rule="nonzero"/></clipPath><clipPath id="693140e49d"><path d="M 35 18 L 37 18 L 37 19 L 35 19 Z M 35 18 " clip-rule="nonzero"/></clipPath><clipPath id="735ab0eac2"><path d="M 34.4375 15.695312 L 38.105469 18.039062 L 37.324219 19.261719 L 33.65625 16.917969 Z M 34.4375 15.695312 " clip-rule="nonzero"/></clipPath><clipPath id="6d3ca67686"><path d="M 34.4375 15.695312 L 38.105469 18.039062 L 37.324219 19.261719 L 33.65625 16.917969 Z M 34.4375 15.695312 " clip-rule="nonzero"/></clipPath><clipPath id="a7c72bbf77"><path d="M 35 18 L 36 18 L 36 19 L 35 19 Z M 35 18 " clip-rule="nonzero"/></clipPath><clipPath id="66fda9967d"><path d="M 34.4375 15.695312 L 38.105469 18.039062 L 37.324219 19.261719 L 33.65625 16.917969 Z M 34.4375 15.695312 " clip-rule="nonzero"/></clipPath><clipPath id="d54cfc4ac1"><path d="M 34.4375 15.695312 L 38.105469 18.039062 L 37.324219 19.261719 L 33.65625 16.917969 Z M 34.4375 15.695312 " clip-rule="nonzero"/></clipPath><clipPath id="41da8c098a"><path d="M 35 17 L 36 17 L 36 18 L 35 18 Z M 35 17 " clip-rule="nonzero"/></clipPath><clipPath id="8b2338e450"><path d="M 34.4375 15.695312 L 38.105469 18.039062 L 37.324219 19.261719 L 33.65625 16.917969 Z M 34.4375 15.695312 " clip-rule="nonzero"/></clipPath><clipPath id="fab0ca593f"><path d="M 34.4375 15.695312 L 38.105469 18.039062 L 37.324219 19.261719 L 33.65625 16.917969 Z M 34.4375 15.695312 " clip-rule="nonzero"/></clipPath><clipPath id="92c8fa93fc"><path d="M 34 16 L 35 16 L 35 17 L 34 17 Z M 34 16 " clip-rule="nonzero"/></clipPath><clipPath id="75c1b9ad4d"><path d="M 34.4375 15.695312 L 38.105469 18.039062 L 37.324219 19.261719 L 33.65625 16.917969 Z M 34.4375 15.695312 " clip-rule="nonzero"/></clipPath><clipPath id="3a500a6e5b"><path d="M 34.4375 15.695312 L 38.105469 18.039062 L 37.324219 19.261719 L 33.65625 16.917969 Z M 34.4375 15.695312 " clip-rule="nonzero"/></clipPath><clipPath id="843bea8f46"><path d="M 35 17 L 36 17 L 36 18 L 35 18 Z M 35 17 " clip-rule="nonzero"/></clipPath><clipPath id="52a724f68b"><path d="M 34.4375 15.695312 L 38.105469 18.039062 L 37.324219 19.261719 L 33.65625 16.917969 Z M 34.4375 15.695312 " clip-rule="nonzero"/></clipPath><clipPath id="a75cd69da9"><path d="M 34.4375 15.695312 L 38.105469 18.039062 L 37.324219 19.261719 L 33.65625 16.917969 Z M 34.4375 15.695312 " clip-rule="nonzero"/></clipPath><clipPath id="ea8c95aa12"><path d="M 34 17 L 35 17 L 35 18 L 34 18 Z M 34 17 " clip-rule="nonzero"/></clipPath><clipPath id="628d084e8e"><path d="M 34.4375 15.695312 L 38.105469 18.039062 L 37.324219 19.261719 L 33.65625 16.917969 Z M 34.4375 15.695312 " clip-rule="nonzero"/></clipPath><clipPath id="e172930ae6"><path d="M 34.4375 15.695312 L 38.105469 18.039062 L 37.324219 19.261719 L 33.65625 16.917969 Z M 34.4375 15.695312 " clip-rule="nonzero"/></clipPath><clipPath id="a2611b4343"><path d="M 35 17 L 36 17 L 36 18 L 35 18 Z M 35 17 " clip-rule="nonzero"/></clipPath><clipPath id="ba44884781"><path d="M 34.4375 15.695312 L 38.105469 18.039062 L 37.324219 19.261719 L 33.65625 16.917969 Z M 34.4375 15.695312 " clip-rule="nonzero"/></clipPath><clipPath id="c12ca881dd"><path d="M 34.4375 15.695312 L 38.105469 18.039062 L 37.324219 19.261719 L 33.65625 16.917969 Z M 34.4375 15.695312 " clip-rule="nonzero"/></clipPath></defs><g clip-path="url(#b560471c38)"><g clip-path="url(#9fb58f9878)"><path fill="url(#41870d72ce)" d="M 69.007812 0 L 69.007812 29.03125 L 107.46875 29.03125 L 107.46875 0 Z M 69.007812 0 " fill-rule="nonzero"/></g></g><g clip-path="url(#958daf2469)"><path fill="#5a3e71" d="M 28.066406 0 C 20.054688 0 13.546875 6.507812 13.546875 14.515625 C 13.546875 22.523438 20.054688 29.03125 28.066406 29.03125 C 36.074219 29.03125 42.582031 22.523438 42.582031 14.515625 C 42.582031 6.507812 36.074219 0 28.066406 0 Z M 28.066406 0.632812 C 35.742188 0.632812 41.949219 6.839844 41.949219 14.515625 C 41.949219 22.191406 35.742188 28.402344 28.066406 28.402344 C 20.386719 28.402344 14.179688 22.191406 14.179688 14.515625 C 14.179688 6.839844 20.386719 0.632812 28.066406 0.632812 Z M 28.066406 0.632812 " fill-opacity="1" fill-rule="nonzero"/></g><g clip-path="url(#47efe417db)"><path fill="#5a3e71" d="M 25.921875 18.730469 C 25.929688 18.730469 25.9375 18.730469 25.941406 18.730469 C 26.015625 18.730469 26.078125 18.679688 26.085938 18.605469 C 26.097656 18.527344 26.042969 18.453125 25.964844 18.441406 C 25.472656 18.371094 25.089844 18.105469 24.9375 17.730469 C 24.730469 17.21875 24.949219 16.53125 25.566406 15.746094 C 26.503906 14.554688 26.8125 12.128906 26.980469 10.148438 C 26.988281 10.070312 26.929688 10 26.847656 9.992188 C 26.769531 9.984375 26.699219 10.042969 26.691406 10.125 C 26.527344 12.0625 26.226562 14.433594 25.335938 15.566406 C 24.46875 16.667969 24.496094 17.410156 24.667969 17.839844 C 24.855469 18.3125 25.328125 18.644531 25.921875 18.730469 Z M 25.921875 18.730469 " fill-opacity="1" fill-rule="nonzero"/></g><g clip-path="url(#e867c508ce)"><path fill="#5a3e71" d="M 31.171875 17.730469 C 31.023438 18.105469 30.640625 18.371094 30.148438 18.441406 C 30.066406 18.453125 30.011719 18.527344 30.023438 18.605469 C 30.035156 18.679688 30.097656 18.730469 30.167969 18.730469 C 30.175781 18.730469 30.183594 18.730469 30.1875 18.730469 C 30.785156 18.644531 31.253906 18.3125 31.445312 17.839844 C 31.617188 17.410156 31.640625 16.667969 30.773438 15.566406 C 29.886719 14.433594 29.585938 12.0625 29.421875 10.125 C 29.414062 10.042969 29.34375 9.984375 29.261719 9.992188 C 29.183594 10 29.121094 10.070312 29.128906 10.148438 C 29.296875 12.128906 29.609375 14.554688 30.546875 15.746094 C 31.164062 16.53125 31.378906 17.21875 31.171875 17.730469 Z M 31.171875 17.730469 " fill-opacity="1" fill-rule="nonzero"/></g><g clip-path="url(#f9e36dd016)"><path fill="#5a3e71" d="M 25.722656 17.511719 C 25.644531 17.511719 25.578125 17.578125 25.578125 17.65625 C 25.578125 17.738281 25.644531 17.804688 25.722656 17.804688 C 26.210938 17.804688 26.460938 18.0625 26.75 18.367188 C 27.054688 18.683594 27.402344 19.042969 28.054688 19.042969 C 28.710938 19.042969 29.054688 18.683594 29.359375 18.367188 C 29.648438 18.0625 29.898438 17.804688 30.386719 17.804688 C 30.46875 17.804688 30.53125 17.738281 30.53125 17.65625 C 30.53125 17.578125 30.46875 17.511719 30.386719 17.511719 C 29.777344 17.511719 29.441406 17.859375 29.148438 18.164062 C 28.859375 18.464844 28.585938 18.75 28.054688 18.75 C 27.527344 18.75 27.253906 18.464844 26.960938 18.164062 C 26.667969 17.859375 26.335938 17.511719 25.722656 17.511719 Z M 25.722656 17.511719 " fill-opacity="1" fill-rule="nonzero"/></g><g mask="url(#90fac398c6)"><g transform="matrix(1, 0, 0, 1, 18, 3)"><g clip-path="url(#f94c0ca0e0)"><g clip-path="url(#9d94245d81)"><path fill="#8c85ff" d="M 0.75 1.035156 L 19.367188 1.035156 L 19.367188 8.800781 L 0.75 8.800781 Z M 0.75 1.035156 " fill-opacity="1" fill-rule="nonzero"/></g></g></g></g><g clip-path="url(#f9761c417c)"><g clip-path="url(#9180208371)"><g clip-path="url(#f501931ebe)"><path fill="#5a3e71" d="M 34.160156 19.117188 C 33.382812 20.121094 32.464844 20.898438 31.441406 21.457031 C 30.417969 22.015625 29.304688 22.347656 28.164062 22.46875 C 27.019531 22.578125 25.859375 22.476562 24.746094 22.132812 C 23.636719 21.789062 22.578125 21.214844 21.617188 20.386719 C 21.578125 20.351562 21.539062 20.351562 21.5 20.382812 C 21.457031 20.410156 21.449219 20.449219 21.46875 20.496094 C 22.027344 21.683594 23.082031 22.648438 24.304688 23.238281 C 25.535156 23.832031 26.945312 24.0625 28.3125 23.925781 C 29.675781 23.789062 31.011719 23.277344 32.097656 22.449219 C 33.175781 21.625 34.019531 20.472656 34.324219 19.195312 C 34.335938 19.144531 34.320312 19.109375 34.273438 19.085938 C 34.226562 19.066406 34.191406 19.074219 34.160156 19.113281 Z M 34.160156 19.117188 " fill-opacity="1" fill-rule="nonzero"/></g></g></g><g clip-path="url(#dc17701629)"><g clip-path="url(#3a2f612ecc)"><g clip-path="url(#a885b56626)"><path fill="#5a3e71" d="M 21.996094 20.09375 C 22.082031 20.0625 22.167969 20.039062 22.257812 19.996094 L 22.273438 19.992188 C 22.308594 19.972656 22.328125 19.945312 22.328125 19.902344 C 22.328125 19.859375 22.308594 19.832031 22.273438 19.8125 C 22.175781 19.769531 22.078125 19.738281 21.976562 19.714844 C 21.871094 19.707031 21.765625 19.683594 21.65625 19.699219 C 21.441406 19.707031 21.222656 19.789062 21.03125 19.910156 C 20.835938 20.039062 20.691406 20.210938 20.597656 20.421875 C 20.507812 20.625 20.472656 20.839844 20.519531 21.058594 C 20.527344 21.101562 20.550781 21.125 20.589844 21.132812 C 20.632812 21.144531 20.664062 21.132812 20.6875 21.101562 L 20.699219 21.085938 C 20.816406 20.941406 20.917969 20.800781 21.027344 20.691406 C 21.128906 20.582031 21.238281 20.484375 21.363281 20.398438 C 21.480469 20.320312 21.609375 20.242188 21.761719 20.1875 C 21.832031 20.148438 21.914062 20.128906 21.996094 20.09375 Z M 21.996094 20.09375 " fill-opacity="1" fill-rule="nonzero"/></g></g></g><g clip-path="url(#0e7a2e0a8d)"><g clip-path="url(#dddbd9cfd5)"><g clip-path="url(#bded4c52a9)"><path fill="#5a3e71" d="M 35.152344 18.949219 C 35.019531 18.757812 34.84375 18.621094 34.628906 18.535156 C 34.414062 18.453125 34.183594 18.417969 33.96875 18.453125 C 33.863281 18.460938 33.761719 18.503906 33.664062 18.53125 C 33.566406 18.574219 33.476562 18.625 33.390625 18.6875 C 33.359375 18.710938 33.347656 18.746094 33.355469 18.785156 C 33.363281 18.824219 33.386719 18.851562 33.425781 18.859375 L 33.441406 18.863281 C 33.539062 18.890625 33.628906 18.894531 33.71875 18.90625 C 33.804688 18.925781 33.890625 18.929688 33.96875 18.949219 C 34.125 18.976562 34.265625 19.027344 34.398438 19.078125 C 34.535156 19.136719 34.664062 19.210938 34.785156 19.296875 C 34.914062 19.386719 35.042969 19.5 35.183594 19.617188 L 35.199219 19.632812 C 35.230469 19.65625 35.265625 19.660156 35.300781 19.644531 C 35.339844 19.628906 35.355469 19.597656 35.359375 19.558594 C 35.359375 19.332031 35.28125 19.128906 35.152344 18.949219 Z M 35.152344 18.949219 " fill-opacity="1" fill-rule="nonzero"/></g></g></g><g fill="#5a3e71" fill-opacity="1"><g transform="translate(20.404681, 9.642923)"><g><path d="M 0.78125 -0.078125 C 0.53125 -0.0976562 0.347656 -0.179688 0.234375 -0.328125 C 0.128906 -0.484375 0.078125 -0.703125 0.078125 -0.984375 L 0.078125 -1.09375 L 0.78125 -1.09375 L 0.78125 -1.015625 C 0.78125 -0.804688 0.835938 -0.703125 0.953125 -0.703125 C 1.015625 -0.703125 1.054688 -0.722656 1.078125 -0.765625 C 1.109375 -0.804688 1.125 -0.859375 1.125 -0.921875 C 1.125 -0.972656 1.082031 -1.039062 1 -1.125 L 0.421875 -1.71875 C 0.210938 -1.925781 0.109375 -2.15625 0.109375 -2.40625 C 0.109375 -2.601562 0.171875 -2.765625 0.296875 -2.890625 C 0.421875 -3.023438 0.582031 -3.113281 0.78125 -3.15625 L 0.78125 -3.390625 L 1.125 -3.390625 L 1.125 -3.15625 C 1.351562 -3.125 1.523438 -3.03125 1.640625 -2.875 C 1.765625 -2.71875 1.828125 -2.503906 1.828125 -2.234375 L 1.109375 -2.234375 L 1.109375 -2.40625 C 1.097656 -2.4375 1.078125 -2.46875 1.046875 -2.5 C 1.015625 -2.53125 0.976562 -2.546875 0.9375 -2.546875 C 0.894531 -2.546875 0.851562 -2.53125 0.8125 -2.5 C 0.78125 -2.46875 0.765625 -2.429688 0.765625 -2.390625 C 0.765625 -2.328125 0.832031 -2.226562 0.96875 -2.09375 L 1.53125 -1.53125 C 1.625 -1.445312 1.695312 -1.34375 1.75 -1.21875 C 1.8125 -1.101562 1.84375 -0.976562 1.84375 -0.84375 C 1.84375 -0.625 1.773438 -0.445312 1.640625 -0.3125 C 1.503906 -0.175781 1.332031 -0.0976562 1.125 -0.078125 L 1.125 0.234375 L 0.78125 0.234375 Z M 0.78125 -0.078125 "/></g></g></g><g fill="#5a3e71" fill-opacity="1"><g transform="translate(24.623433, 9.642923)"><g><path d="M 1.859375 0.3125 C 1.523438 0.3125 1.226562 0.242188 0.96875 0.109375 C 0.707031 -0.015625 0.5 -0.21875 0.34375 -0.5 C 0.195312 -0.78125 0.125 -1.132812 0.125 -1.5625 C 0.125 -1.988281 0.191406 -2.351562 0.328125 -2.65625 C 0.472656 -2.957031 0.675781 -3.1875 0.9375 -3.34375 C 1.195312 -3.507812 1.507812 -3.59375 1.875 -3.59375 C 2.394531 -3.59375 2.789062 -3.429688 3.0625 -3.109375 C 3.332031 -2.796875 3.46875 -2.351562 3.46875 -1.78125 C 3.46875 -1.382812 3.40625 -1.082031 3.28125 -0.875 C 3.15625 -0.664062 2.957031 -0.5625 2.6875 -0.5625 C 2.5 -0.5625 2.351562 -0.597656 2.25 -0.671875 C 2.15625 -0.742188 2.082031 -0.851562 2.03125 -1 C 2.007812 -0.863281 1.960938 -0.757812 1.890625 -0.6875 C 1.828125 -0.613281 1.742188 -0.578125 1.640625 -0.578125 C 1.453125 -0.578125 1.300781 -0.671875 1.1875 -0.859375 C 1.082031 -1.054688 1.03125 -1.289062 1.03125 -1.5625 C 1.03125 -1.882812 1.070312 -2.140625 1.15625 -2.328125 C 1.25 -2.523438 1.398438 -2.625 1.609375 -2.625 C 1.703125 -2.625 1.78125 -2.597656 1.84375 -2.546875 C 1.90625 -2.503906 1.96875 -2.4375 2.03125 -2.34375 L 2.109375 -2.609375 L 2.5625 -2.609375 L 2.5625 -1.3125 C 2.5625 -1.113281 2.617188 -1.015625 2.734375 -1.015625 C 2.828125 -1.015625 2.890625 -1.078125 2.921875 -1.203125 C 2.953125 -1.328125 2.96875 -1.515625 2.96875 -1.765625 C 2.96875 -2.203125 2.882812 -2.535156 2.71875 -2.765625 C 2.5625 -2.992188 2.296875 -3.109375 1.921875 -3.109375 C 1.523438 -3.109375 1.222656 -2.972656 1.015625 -2.703125 C 0.804688 -2.441406 0.703125 -2.0625 0.703125 -1.5625 C 0.703125 -1.101562 0.804688 -0.753906 1.015625 -0.515625 C 1.234375 -0.273438 1.523438 -0.15625 1.890625 -0.15625 C 2.003906 -0.15625 2.179688 -0.171875 2.421875 -0.203125 L 2.484375 0.25 C 2.242188 0.289062 2.035156 0.3125 1.859375 0.3125 Z M 1.828125 -1.078125 C 1.878906 -1.078125 1.914062 -1.101562 1.9375 -1.15625 C 1.96875 -1.21875 1.984375 -1.289062 1.984375 -1.375 L 1.984375 -2.171875 C 1.898438 -2.171875 1.832031 -2.148438 1.78125 -2.109375 C 1.738281 -2.078125 1.707031 -2.019531 1.6875 -1.9375 C 1.664062 -1.851562 1.65625 -1.734375 1.65625 -1.578125 C 1.65625 -1.441406 1.664062 -1.320312 1.6875 -1.21875 C 1.71875 -1.125 1.765625 -1.078125 1.828125 -1.078125 Z M 1.828125 -1.078125 "/></g></g></g><g fill="#5a3e71" fill-opacity="1"><g transform="translate(30.506508, 9.642923)"><g><path d="M 0.125 0 L 0.125 -3.5625 L 0.8125 -3.5625 L 0.8125 0 Z M -0.4375 -3.75 L 0.046875 -4.5625 L 0.875 -4.5625 L 1.359375 -3.75 L 0.640625 -3.75 L 0.46875 -4.328125 L 0.296875 -3.75 Z M -0.4375 -3.75 "/></g></g></g><g fill="#5a3e71" fill-opacity="1"><g transform="translate(33.752335, 9.642923)"><g><path d="M 1.203125 -1 C 1.179688 -0.90625 1.144531 -0.820312 1.09375 -0.75 C 1.050781 -0.6875 0.992188 -0.632812 0.921875 -0.59375 L 1.875 -0.59375 L 1.875 0 L 0.09375 0 L 0.09375 -0.5625 C 0.195312 -0.632812 0.273438 -0.695312 0.328125 -0.75 C 0.378906 -0.8125 0.414062 -0.894531 0.4375 -1 L 0.0625 -1 L 0.0625 -1.359375 L 0.4375 -1.359375 C 0.425781 -1.421875 0.410156 -1.503906 0.390625 -1.609375 L 0.0625 -1.609375 L 0.0625 -1.96875 L 0.328125 -1.96875 C 0.328125 -2 0.3125 -2.070312 0.28125 -2.1875 C 0.257812 -2.300781 0.25 -2.394531 0.25 -2.46875 C 0.25 -2.738281 0.320312 -2.9375 0.46875 -3.0625 C 0.625 -3.1875 0.832031 -3.25 1.09375 -3.25 C 1.375 -3.25 1.578125 -3.164062 1.703125 -3 C 1.828125 -2.832031 1.890625 -2.585938 1.890625 -2.265625 L 1.234375 -2.265625 C 1.234375 -2.398438 1.226562 -2.5 1.21875 -2.5625 C 1.207031 -2.625 1.171875 -2.65625 1.109375 -2.65625 C 1.078125 -2.65625 1.050781 -2.640625 1.03125 -2.609375 C 1.007812 -2.585938 1 -2.554688 1 -2.515625 C 1 -2.472656 1 -2.429688 1 -2.390625 C 1 -2.347656 1.003906 -2.285156 1.015625 -2.203125 C 1.035156 -2.128906 1.050781 -2.050781 1.0625 -1.96875 L 1.640625 -1.96875 L 1.640625 -1.609375 L 1.15625 -1.609375 L 1.1875 -1.359375 L 1.640625 -1.359375 L 1.640625 -1 Z M 1.203125 -1 "/></g></g></g><g clip-path="url(#f2cedb2519)"><g clip-path="url(#5da2c5a1da)"><g clip-path="url(#2779e8fde4)"><path fill="#5a3e71" d="M 35.59375 17.921875 C 35.601562 17.898438 35.578125 17.902344 35.570312 17.894531 C 35.546875 17.882812 35.519531 17.875 35.496094 17.863281 C 35.460938 17.847656 35.429688 17.832031 35.398438 17.816406 C 35.390625 17.8125 35.378906 17.804688 35.371094 17.800781 C 35.351562 17.792969 35.328125 17.785156 35.3125 17.773438 C 35.300781 17.769531 35.296875 17.765625 35.289062 17.773438 C 35.285156 17.769531 35.285156 17.761719 35.28125 17.757812 C 35.273438 17.753906 35.265625 17.75 35.253906 17.746094 C 35.230469 17.730469 35.203125 17.714844 35.179688 17.699219 C 35.105469 17.65625 35.027344 17.609375 34.953125 17.5625 C 34.949219 17.5625 34.945312 17.554688 34.9375 17.554688 C 34.933594 17.554688 34.929688 17.5625 34.929688 17.566406 C 34.925781 17.570312 34.925781 17.578125 34.925781 17.585938 C 34.917969 17.578125 34.910156 17.570312 34.902344 17.566406 C 34.898438 17.5625 34.890625 17.554688 34.886719 17.554688 C 34.871094 17.550781 34.867188 17.542969 34.855469 17.535156 C 34.851562 17.53125 34.84375 17.527344 34.839844 17.523438 C 34.828125 17.515625 34.816406 17.503906 34.804688 17.496094 C 34.800781 17.492188 34.792969 17.492188 34.789062 17.488281 C 34.789062 17.480469 34.792969 17.46875 34.792969 17.457031 C 34.78125 17.464844 34.777344 17.46875 34.769531 17.472656 C 34.769531 17.472656 34.769531 17.476562 34.773438 17.476562 C 34.773438 17.476562 34.773438 17.476562 34.769531 17.476562 C 34.75 17.460938 34.726562 17.445312 34.707031 17.429688 C 34.707031 17.429688 34.707031 17.425781 34.707031 17.425781 C 34.707031 17.425781 34.699219 17.429688 34.699219 17.425781 C 34.679688 17.410156 34.664062 17.394531 34.644531 17.382812 C 34.632812 17.371094 34.621094 17.367188 34.609375 17.359375 C 34.605469 17.355469 34.601562 17.351562 34.597656 17.347656 C 34.597656 17.34375 34.59375 17.34375 34.589844 17.339844 C 34.585938 17.339844 34.585938 17.339844 34.585938 17.339844 C 34.574219 17.328125 34.566406 17.320312 34.554688 17.308594 C 34.550781 17.308594 34.550781 17.304688 34.546875 17.304688 C 34.53125 17.292969 34.515625 17.28125 34.5 17.273438 C 34.5 17.269531 34.5 17.261719 34.5 17.257812 C 34.480469 17.261719 34.472656 17.253906 34.460938 17.238281 C 34.453125 17.226562 34.441406 17.222656 34.429688 17.214844 C 34.40625 17.195312 34.382812 17.175781 34.355469 17.15625 C 34.339844 17.140625 34.324219 17.128906 34.3125 17.113281 C 34.304688 17.109375 34.304688 17.101562 34.300781 17.09375 C 34.300781 17.09375 34.304688 17.089844 34.304688 17.085938 L 34.304688 17.082031 C 34.300781 17.085938 34.296875 17.089844 34.292969 17.089844 C 34.285156 17.085938 34.277344 17.082031 34.273438 17.078125 C 34.269531 17.070312 34.261719 17.0625 34.261719 17.054688 C 34.269531 17.042969 34.257812 17.042969 34.253906 17.035156 L 34.246094 17.050781 C 34.246094 17.046875 34.246094 17.042969 34.246094 17.042969 C 34.21875 17.03125 34.207031 17.003906 34.1875 16.988281 C 34.191406 16.988281 34.191406 16.984375 34.195312 16.980469 C 34.1875 16.976562 34.183594 16.964844 34.167969 16.980469 C 34.171875 16.960938 34.167969 16.953125 34.15625 16.945312 C 34.148438 16.945312 34.144531 16.929688 34.136719 16.925781 C 34.113281 16.894531 34.089844 16.867188 34.066406 16.839844 C 34.035156 16.808594 34.015625 16.769531 33.996094 16.730469 C 33.980469 16.695312 33.976562 16.652344 33.96875 16.613281 C 33.964844 16.585938 33.964844 16.558594 33.960938 16.53125 C 33.960938 16.519531 33.960938 16.507812 33.972656 16.503906 C 33.96875 16.492188 33.976562 16.460938 33.984375 16.449219 C 33.996094 16.4375 34.007812 16.425781 34.007812 16.410156 C 34.007812 16.398438 34.015625 16.398438 34.019531 16.394531 C 34.023438 16.390625 34.027344 16.382812 34.03125 16.378906 C 34.035156 16.371094 34.039062 16.363281 34.046875 16.355469 C 34.046875 16.359375 34.050781 16.359375 34.054688 16.363281 C 34.054688 16.363281 34.058594 16.359375 34.058594 16.359375 C 34.054688 16.355469 34.054688 16.355469 34.054688 16.351562 L 34.070312 16.328125 C 34.074219 16.328125 34.078125 16.328125 34.085938 16.328125 C 34.085938 16.324219 34.085938 16.320312 34.085938 16.320312 C 34.085938 16.316406 34.085938 16.316406 34.082031 16.316406 C 34.09375 16.308594 34.101562 16.304688 34.113281 16.296875 C 34.125 16.28125 34.136719 16.273438 34.148438 16.28125 C 34.167969 16.265625 34.1875 16.253906 34.214844 16.253906 C 34.21875 16.242188 34.242188 16.253906 34.246094 16.234375 C 34.246094 16.234375 34.25 16.234375 34.25 16.234375 C 34.273438 16.226562 34.296875 16.21875 34.320312 16.210938 C 34.371094 16.1875 34.425781 16.195312 34.480469 16.1875 C 34.515625 16.183594 34.550781 16.175781 34.585938 16.179688 C 34.664062 16.191406 34.742188 16.203125 34.820312 16.214844 C 34.839844 16.21875 34.859375 16.230469 34.875 16.230469 C 34.914062 16.226562 34.945312 16.242188 34.980469 16.25 C 35.007812 16.253906 35.035156 16.265625 35.0625 16.273438 C 35.097656 16.28125 35.128906 16.300781 35.136719 16.34375 C 35.132812 16.339844 35.128906 16.339844 35.125 16.339844 C 35.109375 16.308594 35.082031 16.296875 35.050781 16.289062 C 35.003906 16.273438 34.953125 16.261719 34.902344 16.25 C 34.878906 16.242188 34.851562 16.242188 34.824219 16.238281 C 34.804688 16.234375 34.785156 16.230469 34.769531 16.226562 C 34.746094 16.226562 34.726562 16.222656 34.707031 16.222656 C 34.683594 16.21875 34.660156 16.21875 34.636719 16.214844 C 34.632812 16.214844 34.628906 16.21875 34.628906 16.21875 C 34.605469 16.210938 34.582031 16.210938 34.558594 16.214844 C 34.554688 16.214844 34.550781 16.214844 34.542969 16.214844 C 34.53125 16.214844 34.519531 16.214844 34.511719 16.21875 C 34.496094 16.21875 34.496094 16.214844 34.5 16.203125 C 34.496094 16.210938 34.484375 16.21875 34.488281 16.230469 L 34.453125 16.238281 C 34.453125 16.234375 34.457031 16.230469 34.460938 16.222656 C 34.441406 16.230469 34.421875 16.222656 34.402344 16.230469 C 34.386719 16.234375 34.367188 16.242188 34.347656 16.230469 C 34.34375 16.25 34.332031 16.257812 34.308594 16.265625 C 34.285156 16.273438 34.265625 16.289062 34.246094 16.300781 C 34.242188 16.292969 34.242188 16.289062 34.238281 16.28125 C 34.230469 16.289062 34.222656 16.292969 34.214844 16.296875 C 34.214844 16.300781 34.21875 16.300781 34.21875 16.300781 C 34.222656 16.300781 34.226562 16.300781 34.230469 16.300781 L 34.230469 16.304688 C 34.210938 16.3125 34.195312 16.324219 34.175781 16.332031 C 34.152344 16.339844 34.132812 16.355469 34.113281 16.375 C 34.105469 16.382812 34.097656 16.386719 34.089844 16.394531 C 34.085938 16.402344 34.082031 16.414062 34.074219 16.425781 C 34.066406 16.441406 34.0625 16.453125 34.054688 16.46875 C 34.039062 16.5 34.042969 16.535156 34.046875 16.570312 C 34.050781 16.578125 34.050781 16.589844 34.050781 16.601562 C 34.054688 16.613281 34.058594 16.625 34.0625 16.636719 C 34.070312 16.660156 34.074219 16.683594 34.085938 16.707031 C 34.089844 16.722656 34.105469 16.734375 34.113281 16.746094 C 34.121094 16.757812 34.128906 16.769531 34.136719 16.777344 C 34.140625 16.78125 34.144531 16.78125 34.144531 16.785156 C 34.179688 16.828125 34.21875 16.867188 34.257812 16.902344 C 34.285156 16.925781 34.308594 16.949219 34.332031 16.96875 C 34.351562 16.988281 34.367188 17.003906 34.386719 17.023438 C 34.417969 17.046875 34.449219 17.074219 34.484375 17.097656 C 34.523438 17.128906 34.566406 17.164062 34.609375 17.195312 C 34.636719 17.21875 34.664062 17.238281 34.695312 17.257812 C 34.738281 17.292969 34.785156 17.324219 34.828125 17.359375 C 34.847656 17.371094 34.867188 17.378906 34.886719 17.394531 C 34.902344 17.402344 34.914062 17.414062 34.929688 17.421875 C 34.949219 17.4375 34.972656 17.449219 34.996094 17.464844 C 35.015625 17.476562 35.03125 17.492188 35.050781 17.503906 C 35.066406 17.515625 35.085938 17.523438 35.101562 17.535156 C 35.136719 17.554688 35.171875 17.578125 35.210938 17.597656 C 35.238281 17.613281 35.265625 17.628906 35.296875 17.644531 C 35.328125 17.660156 35.355469 17.679688 35.390625 17.695312 C 35.417969 17.710938 35.449219 17.722656 35.480469 17.738281 C 35.507812 17.75 35.535156 17.765625 35.566406 17.777344 C 35.605469 17.796875 35.648438 17.8125 35.691406 17.832031 C 35.730469 17.847656 35.769531 17.867188 35.8125 17.882812 C 35.839844 17.894531 35.867188 17.90625 35.894531 17.914062 C 35.914062 17.921875 35.929688 17.933594 35.949219 17.941406 C 35.960938 17.945312 35.976562 17.945312 35.988281 17.949219 C 36 17.953125 36.011719 17.960938 36.023438 17.96875 C 36.023438 17.96875 36.023438 17.96875 36.027344 17.96875 C 36.042969 17.976562 36.058594 17.980469 36.074219 17.988281 C 36.082031 17.992188 36.09375 17.996094 36.101562 18.003906 C 36.109375 18.003906 36.113281 18.003906 36.117188 18.007812 C 36.132812 18.011719 36.144531 18.019531 36.160156 18.023438 C 36.171875 18.023438 36.175781 18.039062 36.191406 18.035156 C 36.199219 18.03125 36.214844 18.042969 36.226562 18.050781 C 36.230469 18.050781 36.238281 18.054688 36.246094 18.058594 C 36.257812 18.0625 36.269531 18.070312 36.28125 18.074219 C 36.289062 18.078125 36.296875 18.078125 36.304688 18.082031 C 36.320312 18.085938 36.335938 18.09375 36.351562 18.097656 C 36.351562 18.101562 36.351562 18.101562 36.355469 18.105469 C 36.371094 18.105469 36.386719 18.109375 36.402344 18.113281 C 36.402344 18.113281 36.40625 18.113281 36.410156 18.117188 C 36.421875 18.128906 36.4375 18.128906 36.453125 18.132812 C 36.46875 18.140625 36.484375 18.148438 36.5 18.15625 C 36.503906 18.160156 36.511719 18.15625 36.515625 18.15625 C 36.519531 18.164062 36.539062 18.152344 36.535156 18.171875 C 36.542969 18.171875 36.550781 18.167969 36.554688 18.171875 C 36.582031 18.179688 36.609375 18.1875 36.636719 18.195312 C 36.65625 18.203125 36.679688 18.210938 36.703125 18.21875 C 36.695312 18.21875 36.691406 18.21875 36.6875 18.21875 C 36.726562 18.222656 36.761719 18.234375 36.792969 18.253906 C 36.800781 18.25 36.816406 18.253906 36.824219 18.265625 C 36.828125 18.269531 36.828125 18.269531 36.832031 18.273438 C 36.832031 18.269531 36.832031 18.265625 36.835938 18.265625 C 36.84375 18.265625 36.847656 18.269531 36.855469 18.269531 C 36.855469 18.273438 36.855469 18.277344 36.855469 18.28125 C 36.867188 18.273438 36.878906 18.273438 36.878906 18.28125 C 36.886719 18.285156 36.894531 18.285156 36.894531 18.289062 C 36.898438 18.296875 36.898438 18.296875 36.90625 18.292969 C 36.914062 18.289062 36.917969 18.289062 36.917969 18.300781 C 36.917969 18.300781 36.925781 18.304688 36.929688 18.304688 C 36.933594 18.304688 36.941406 18.300781 36.949219 18.304688 C 36.949219 18.304688 36.953125 18.308594 36.953125 18.3125 C 36.96875 18.3125 36.984375 18.316406 37 18.316406 C 37 18.320312 36.996094 18.320312 36.992188 18.324219 C 36.996094 18.324219 37 18.328125 37.003906 18.324219 C 37.011719 18.320312 37.015625 18.320312 37.027344 18.328125 C 37.03125 18.332031 37.039062 18.34375 37.050781 18.332031 C 37.050781 18.332031 37.054688 18.332031 37.058594 18.332031 C 37.0625 18.332031 37.066406 18.335938 37.070312 18.339844 L 37.074219 18.335938 C 37.074219 18.339844 37.078125 18.34375 37.078125 18.34375 C 37.082031 18.34375 37.089844 18.339844 37.09375 18.339844 C 37.113281 18.34375 37.132812 18.351562 37.152344 18.355469 C 37.160156 18.355469 37.164062 18.351562 37.171875 18.351562 C 37.195312 18.355469 37.21875 18.359375 37.246094 18.359375 C 37.261719 18.359375 37.28125 18.363281 37.300781 18.363281 C 37.324219 18.359375 37.351562 18.355469 37.375 18.351562 C 37.4375 18.335938 37.480469 18.296875 37.507812 18.238281 C 37.515625 18.21875 37.507812 18.195312 37.496094 18.171875 C 37.480469 18.148438 37.46875 18.121094 37.453125 18.097656 C 37.445312 18.082031 37.429688 18.066406 37.417969 18.054688 C 37.410156 18.042969 37.40625 18.035156 37.398438 18.027344 C 37.386719 18.007812 37.371094 17.992188 37.359375 17.976562 C 37.328125 17.9375 37.296875 17.902344 37.269531 17.863281 C 37.242188 17.835938 37.21875 17.804688 37.195312 17.777344 C 37.175781 17.757812 37.15625 17.734375 37.136719 17.714844 C 37.125 17.707031 37.113281 17.699219 37.101562 17.6875 C 37.09375 17.679688 37.085938 17.675781 37.078125 17.667969 C 37.070312 17.65625 37.0625 17.648438 37.054688 17.640625 C 37.023438 17.613281 36.992188 17.585938 36.960938 17.558594 C 36.933594 17.535156 36.902344 17.511719 36.875 17.488281 C 36.875 17.488281 36.871094 17.488281 36.871094 17.484375 C 36.835938 17.449219 36.789062 17.421875 36.75 17.386719 C 36.734375 17.371094 36.714844 17.359375 36.699219 17.34375 C 36.695312 17.34375 36.695312 17.339844 36.691406 17.339844 C 36.691406 17.335938 36.6875 17.332031 36.679688 17.328125 C 36.675781 17.324219 36.667969 17.320312 36.664062 17.316406 C 36.632812 17.292969 36.605469 17.273438 36.574219 17.253906 C 36.566406 17.246094 36.554688 17.230469 36.554688 17.230469 C 36.539062 17.238281 36.539062 17.21875 36.527344 17.21875 C 36.523438 17.21875 36.519531 17.210938 36.515625 17.207031 C 36.511719 17.207031 36.507812 17.203125 36.507812 17.195312 C 36.472656 17.195312 36.453125 17.167969 36.429688 17.152344 C 36.390625 17.128906 36.359375 17.105469 36.324219 17.082031 C 36.308594 17.074219 36.296875 17.070312 36.285156 17.058594 C 36.28125 17.058594 36.277344 17.050781 36.273438 17.046875 C 36.269531 17.046875 36.261719 17.046875 36.257812 17.042969 C 36.226562 17.023438 36.199219 17.003906 36.171875 16.988281 C 36.148438 16.972656 36.117188 16.960938 36.09375 16.945312 C 36.078125 16.9375 36.066406 16.929688 36.054688 16.917969 C 36.046875 16.914062 36.039062 16.914062 36.03125 16.910156 C 36.023438 16.90625 36.019531 16.902344 36.011719 16.898438 C 36 16.902344 35.992188 16.898438 35.992188 16.886719 C 35.984375 16.882812 35.980469 16.886719 35.976562 16.882812 C 35.960938 16.875 35.949219 16.867188 35.933594 16.859375 C 35.910156 16.847656 35.890625 16.835938 35.867188 16.824219 C 35.847656 16.8125 35.824219 16.804688 35.804688 16.796875 C 35.800781 16.792969 35.796875 16.789062 35.792969 16.78125 C 35.789062 16.78125 35.789062 16.777344 35.785156 16.777344 C 35.785156 16.777344 35.785156 16.78125 35.78125 16.785156 C 35.769531 16.777344 35.761719 16.769531 35.75 16.761719 C 35.75 16.761719 35.746094 16.761719 35.742188 16.761719 C 35.730469 16.761719 35.722656 16.757812 35.714844 16.746094 C 35.714844 16.746094 35.710938 16.746094 35.710938 16.746094 C 35.699219 16.75 35.675781 16.734375 35.675781 16.726562 C 35.667969 16.726562 35.660156 16.726562 35.65625 16.722656 C 35.652344 16.722656 35.648438 16.71875 35.644531 16.710938 C 35.628906 16.722656 35.621094 16.707031 35.605469 16.699219 C 35.582031 16.695312 35.5625 16.679688 35.542969 16.671875 C 35.511719 16.660156 35.480469 16.644531 35.449219 16.632812 C 35.414062 16.621094 35.378906 16.605469 35.34375 16.59375 C 35.328125 16.585938 35.3125 16.582031 35.296875 16.574219 C 35.289062 16.570312 35.285156 16.566406 35.28125 16.5625 C 35.265625 16.566406 35.1875 16.539062 35.171875 16.527344 C 35.160156 16.523438 35.152344 16.527344 35.144531 16.523438 C 35.078125 16.507812 35.011719 16.488281 34.945312 16.46875 C 34.921875 16.460938 34.894531 16.457031 34.871094 16.449219 C 34.828125 16.433594 34.78125 16.433594 34.738281 16.425781 C 34.707031 16.417969 34.671875 16.414062 34.640625 16.410156 C 34.640625 16.40625 34.640625 16.402344 34.640625 16.402344 C 34.644531 16.398438 34.652344 16.398438 34.65625 16.398438 C 34.664062 16.394531 34.667969 16.394531 34.675781 16.394531 C 34.65625 16.386719 34.65625 16.355469 34.628906 16.355469 C 34.625 16.355469 34.621094 16.347656 34.621094 16.34375 C 34.621094 16.34375 34.625 16.339844 34.628906 16.335938 C 34.660156 16.3125 34.695312 16.316406 34.726562 16.320312 C 34.769531 16.324219 34.8125 16.335938 34.855469 16.34375 C 34.875 16.347656 34.894531 16.34375 34.914062 16.347656 C 34.9375 16.351562 34.960938 16.355469 34.980469 16.359375 C 35.007812 16.363281 35.03125 16.371094 35.054688 16.375 C 35.078125 16.382812 35.105469 16.382812 35.125 16.394531 C 35.15625 16.410156 35.183594 16.417969 35.214844 16.421875 C 35.226562 16.421875 35.234375 16.425781 35.242188 16.429688 C 35.25 16.429688 35.257812 16.429688 35.261719 16.433594 C 35.300781 16.441406 35.339844 16.453125 35.378906 16.46875 C 35.410156 16.476562 35.441406 16.488281 35.472656 16.5 C 35.488281 16.503906 35.5 16.507812 35.511719 16.511719 C 35.519531 16.515625 35.519531 16.519531 35.527344 16.523438 C 35.535156 16.519531 35.546875 16.523438 35.554688 16.539062 C 35.566406 16.53125 35.597656 16.546875 35.601562 16.554688 C 35.605469 16.558594 35.613281 16.554688 35.621094 16.558594 C 35.648438 16.570312 35.675781 16.582031 35.699219 16.59375 C 35.710938 16.601562 35.730469 16.597656 35.734375 16.613281 C 35.757812 16.609375 35.773438 16.628906 35.792969 16.636719 C 35.800781 16.636719 35.804688 16.644531 35.8125 16.652344 C 35.816406 16.648438 35.820312 16.652344 35.828125 16.65625 C 35.828125 16.660156 35.832031 16.65625 35.832031 16.660156 C 35.839844 16.660156 35.847656 16.664062 35.855469 16.671875 C 35.863281 16.671875 35.871094 16.671875 35.878906 16.675781 C 35.894531 16.683594 35.910156 16.695312 35.925781 16.703125 C 35.925781 16.703125 35.929688 16.703125 35.929688 16.703125 C 35.9375 16.707031 35.941406 16.710938 35.945312 16.714844 C 35.953125 16.71875 35.960938 16.730469 35.972656 16.71875 C 35.972656 16.726562 35.972656 16.730469 35.972656 16.730469 C 35.972656 16.734375 35.976562 16.734375 35.976562 16.734375 C 35.984375 16.726562 36 16.734375 36 16.738281 C 36.007812 16.75 36.015625 16.746094 36.023438 16.75 C 36.027344 16.75 36.03125 16.753906 36.035156 16.757812 C 36.03125 16.757812 36.03125 16.761719 36.03125 16.761719 C 36.042969 16.765625 36.054688 16.765625 36.066406 16.769531 C 36.082031 16.785156 36.105469 16.78125 36.117188 16.800781 C 36.117188 16.804688 36.121094 16.804688 36.125 16.804688 C 36.132812 16.804688 36.140625 16.804688 36.144531 16.816406 C 36.144531 16.816406 36.148438 16.820312 36.152344 16.820312 C 36.15625 16.824219 36.164062 16.820312 36.167969 16.824219 C 36.203125 16.839844 36.234375 16.859375 36.265625 16.875 C 36.289062 16.890625 36.316406 16.90625 36.34375 16.925781 C 36.351562 16.933594 36.363281 16.933594 36.367188 16.941406 C 36.382812 16.957031 36.410156 16.957031 36.425781 16.980469 C 36.429688 16.984375 36.449219 16.984375 36.453125 16.992188 C 36.457031 17.007812 36.472656 17.007812 36.480469 17.015625 C 36.492188 17.019531 36.507812 17.027344 36.515625 17.035156 C 36.53125 17.050781 36.550781 17.054688 36.566406 17.070312 C 36.570312 17.078125 36.585938 17.082031 36.59375 17.089844 C 36.621094 17.105469 36.648438 17.121094 36.671875 17.140625 C 36.695312 17.15625 36.71875 17.171875 36.738281 17.1875 C 36.765625 17.207031 36.792969 17.230469 36.820312 17.25 C 36.835938 17.265625 36.855469 17.277344 36.875 17.292969 C 36.878906 17.296875 36.882812 17.300781 36.882812 17.304688 C 36.886719 17.304688 36.886719 17.308594 36.890625 17.308594 C 36.917969 17.316406 36.933594 17.335938 36.953125 17.355469 C 36.964844 17.367188 36.980469 17.375 36.992188 17.386719 C 37 17.398438 37.015625 17.40625 37.027344 17.417969 C 37.035156 17.425781 37.046875 17.433594 37.054688 17.441406 C 37.066406 17.453125 37.082031 17.464844 37.09375 17.476562 C 37.101562 17.484375 37.109375 17.488281 37.117188 17.496094 C 37.140625 17.515625 37.164062 17.535156 37.1875 17.558594 C 37.203125 17.574219 37.222656 17.589844 37.238281 17.605469 C 37.253906 17.617188 37.269531 17.632812 37.285156 17.648438 C 37.320312 17.6875 37.355469 17.726562 37.390625 17.769531 C 37.421875 17.804688 37.453125 17.847656 37.488281 17.886719 C 37.539062 17.941406 37.582031 18.003906 37.621094 18.074219 C 37.640625 18.113281 37.65625 18.15625 37.660156 18.203125 C 37.660156 18.242188 37.652344 18.273438 37.632812 18.304688 C 37.621094 18.324219 37.605469 18.34375 37.589844 18.363281 C 37.570312 18.386719 37.554688 18.410156 37.535156 18.429688 C 37.515625 18.445312 37.488281 18.457031 37.464844 18.46875 C 37.445312 18.480469 37.421875 18.492188 37.398438 18.496094 C 37.367188 18.503906 37.335938 18.503906 37.304688 18.507812 C 37.292969 18.511719 37.277344 18.511719 37.265625 18.511719 C 37.246094 18.511719 37.226562 18.511719 37.207031 18.511719 C 37.164062 18.507812 37.125 18.5 37.085938 18.492188 C 37.074219 18.492188 37.058594 18.496094 37.046875 18.492188 C 37.019531 18.488281 36.988281 18.480469 36.960938 18.472656 C 36.957031 18.472656 36.957031 18.46875 36.953125 18.464844 C 36.933594 18.476562 36.910156 18.460938 36.890625 18.457031 C 36.871094 18.457031 36.851562 18.449219 36.835938 18.441406 C 36.800781 18.429688 36.765625 18.417969 36.730469 18.40625 C 36.722656 18.40625 36.722656 18.394531 36.710938 18.394531 C 36.691406 18.390625 36.671875 18.378906 36.65625 18.371094 C 36.652344 18.371094 36.648438 18.371094 36.648438 18.371094 C 36.636719 18.367188 36.621094 18.371094 36.613281 18.359375 C 36.613281 18.355469 36.601562 18.359375 36.597656 18.355469 C 36.582031 18.351562 36.566406 18.347656 36.554688 18.347656 C 36.550781 18.34375 36.546875 18.339844 36.542969 18.339844 C 36.523438 18.332031 36.5 18.328125 36.480469 18.320312 C 36.472656 18.320312 36.460938 18.320312 36.460938 18.304688 C 36.460938 18.304688 36.453125 18.300781 36.449219 18.300781 C 36.425781 18.308594 36.40625 18.296875 36.386719 18.289062 C 36.371094 18.28125 36.355469 18.273438 36.339844 18.265625 C 36.328125 18.261719 36.3125 18.257812 36.300781 18.253906 C 36.289062 18.253906 36.28125 18.25 36.273438 18.246094 C 36.269531 18.242188 36.261719 18.230469 36.257812 18.234375 C 36.238281 18.238281 36.230469 18.222656 36.21875 18.21875 C 36.214844 18.214844 36.210938 18.210938 36.203125 18.210938 C 36.199219 18.210938 36.191406 18.210938 36.1875 18.210938 C 36.175781 18.203125 36.164062 18.191406 36.148438 18.191406 C 36.144531 18.191406 36.136719 18.183594 36.132812 18.179688 C 36.128906 18.179688 36.128906 18.179688 36.125 18.179688 C 36.121094 18.179688 36.117188 18.179688 36.117188 18.175781 C 36.113281 18.167969 36.105469 18.164062 36.097656 18.164062 C 36.085938 18.164062 36.070312 18.15625 36.058594 18.152344 C 36.058594 18.152344 36.058594 18.144531 36.054688 18.144531 L 36.027344 18.132812 C 36.027344 18.128906 36.027344 18.125 36.027344 18.125 C 36.039062 18.125 36.046875 18.128906 36.058594 18.128906 C 36.058594 18.128906 36.058594 18.125 36.0625 18.121094 C 36.0625 18.125 36.0625 18.136719 36.066406 18.136719 C 36.078125 18.140625 36.085938 18.140625 36.101562 18.144531 C 36.101562 18.144531 36.101562 18.148438 36.097656 18.152344 C 36.105469 18.152344 36.109375 18.148438 36.113281 18.148438 C 36.117188 18.152344 36.117188 18.15625 36.117188 18.160156 C 36.121094 18.160156 36.125 18.160156 36.128906 18.15625 C 36.128906 18.160156 36.132812 18.160156 36.132812 18.164062 C 36.140625 18.160156 36.148438 18.152344 36.15625 18.148438 C 36.15625 18.15625 36.152344 18.164062 36.152344 18.171875 C 36.160156 18.167969 36.167969 18.164062 36.167969 18.160156 C 36.167969 18.152344 36.160156 18.144531 36.15625 18.144531 C 36.136719 18.136719 36.117188 18.132812 36.097656 18.125 C 36.097656 18.125 36.097656 18.121094 36.097656 18.117188 C 36.097656 18.117188 36.09375 18.117188 36.09375 18.117188 C 36.089844 18.117188 36.085938 18.117188 36.082031 18.113281 C 36.082031 18.113281 36.082031 18.109375 36.082031 18.109375 C 36.0625 18.105469 36.046875 18.101562 36.03125 18.09375 C 36.027344 18.089844 36.023438 18.089844 36.015625 18.085938 C 35.996094 18.078125 35.976562 18.070312 35.953125 18.058594 C 35.949219 18.0625 35.949219 18.0625 35.945312 18.066406 C 35.945312 18.0625 35.941406 18.054688 35.941406 18.050781 C 35.9375 18.050781 35.933594 18.054688 35.929688 18.054688 C 35.925781 18.050781 35.925781 18.046875 35.921875 18.039062 C 35.921875 18.046875 35.917969 18.050781 35.917969 18.054688 C 35.917969 18.054688 35.917969 18.054688 35.914062 18.054688 C 35.914062 18.050781 35.914062 18.046875 35.910156 18.042969 C 35.902344 18.039062 35.894531 18.035156 35.886719 18.03125 C 35.886719 18.035156 35.882812 18.039062 35.882812 18.046875 C 35.878906 18.039062 35.878906 18.035156 35.878906 18.03125 C 35.875 18.027344 35.871094 18.023438 35.867188 18.023438 C 35.863281 18.019531 35.855469 18.019531 35.851562 18.019531 C 35.847656 18.015625 35.839844 18.015625 35.835938 18.011719 C 35.828125 18 35.820312 18 35.8125 18.007812 C 35.8125 18.003906 35.8125 18.003906 35.8125 18 C 35.8125 18 35.808594 18 35.808594 18.003906 C 35.800781 17.996094 35.796875 17.992188 35.789062 17.988281 C 35.78125 17.984375 35.769531 17.988281 35.761719 17.988281 C 35.761719 17.984375 35.757812 17.980469 35.757812 17.972656 C 35.753906 17.976562 35.75 17.980469 35.746094 17.984375 C 35.742188 17.980469 35.742188 17.980469 35.738281 17.976562 C 35.734375 17.980469 35.730469 17.984375 35.726562 17.984375 C 35.734375 17.992188 35.742188 17.996094 35.75 18 C 35.75 18 35.757812 18 35.761719 17.996094 C 35.761719 18.003906 35.765625 18.007812 35.773438 18.007812 C 35.78125 18.011719 35.789062 18.011719 35.796875 18.015625 C 35.804688 18.019531 35.800781 18.03125 35.796875 18.039062 C 35.785156 18.035156 35.78125 18.035156 35.773438 18.03125 C 35.769531 18.03125 35.765625 18.03125 35.765625 18.03125 C 35.761719 18.019531 35.757812 18.015625 35.746094 18.019531 C 35.746094 18.023438 35.738281 18.011719 35.734375 18.007812 C 35.71875 18.015625 35.707031 18.003906 35.691406 17.996094 C 35.675781 17.992188 35.652344 17.988281 35.640625 17.976562 C 35.625 17.957031 35.597656 17.96875 35.582031 17.945312 C 35.574219 17.9375 35.558594 17.933594 35.550781 17.929688 C 35.542969 17.925781 35.542969 17.914062 35.542969 17.90625 C 35.550781 17.917969 35.5625 17.917969 35.574219 17.917969 C 35.578125 17.917969 35.582031 17.921875 35.585938 17.921875 C 35.589844 17.921875 35.59375 17.921875 35.597656 17.921875 C 35.601562 17.9375 35.601562 17.9375 35.605469 17.941406 C 35.605469 17.929688 35.609375 17.921875 35.609375 17.910156 C 35.601562 17.914062 35.597656 17.917969 35.597656 17.921875 Z M 36.199219 18.171875 C 36.199219 18.164062 36.179688 18.152344 36.175781 18.15625 C 36.171875 18.160156 36.167969 18.167969 36.167969 18.171875 C 36.171875 18.175781 36.179688 18.179688 36.1875 18.179688 C 36.195312 18.183594 36.199219 18.191406 36.207031 18.195312 C 36.207031 18.1875 36.203125 18.183594 36.199219 18.179688 C 36.199219 18.175781 36.199219 18.171875 36.203125 18.171875 C 36.210938 18.195312 36.230469 18.210938 36.261719 18.210938 C 36.261719 18.214844 36.261719 18.21875 36.265625 18.226562 L 36.285156 18.199219 C 36.273438 18.199219 36.265625 18.195312 36.261719 18.195312 C 36.265625 18.179688 36.25 18.1875 36.246094 18.179688 C 36.238281 18.171875 36.226562 18.171875 36.222656 18.183594 C 36.214844 18.175781 36.210938 18.171875 36.207031 18.167969 C 36.207031 18.167969 36.203125 18.167969 36.199219 18.171875 Z M 35.71875 16.734375 C 35.71875 16.734375 35.722656 16.734375 35.726562 16.730469 C 35.738281 16.738281 35.746094 16.746094 35.753906 16.753906 C 35.757812 16.757812 35.761719 16.753906 35.765625 16.753906 C 35.777344 16.75 35.78125 16.753906 35.78125 16.765625 C 35.789062 16.765625 35.792969 16.769531 35.800781 16.769531 C 35.808594 16.773438 35.816406 16.777344 35.824219 16.78125 C 35.832031 16.789062 35.84375 16.792969 35.851562 16.796875 C 35.859375 16.800781 35.867188 16.800781 35.871094 16.800781 C 35.871094 16.796875 35.867188 16.792969 35.867188 16.789062 C 35.867188 16.785156 35.867188 16.785156 35.867188 16.785156 C 35.863281 16.78125 35.855469 16.773438 35.855469 16.773438 C 35.835938 16.78125 35.832031 16.769531 35.824219 16.757812 C 35.820312 16.761719 35.816406 16.761719 35.8125 16.761719 C 35.804688 16.753906 35.792969 16.746094 35.78125 16.738281 C 35.78125 16.742188 35.78125 16.746094 35.78125 16.75 C 35.765625 16.734375 35.753906 16.714844 35.730469 16.722656 C 35.730469 16.710938 35.722656 16.707031 35.707031 16.710938 C 35.707031 16.710938 35.707031 16.707031 35.707031 16.707031 C 35.691406 16.699219 35.679688 16.691406 35.664062 16.683594 C 35.652344 16.675781 35.652344 16.683594 35.652344 16.691406 C 35.652344 16.695312 35.652344 16.703125 35.652344 16.703125 C 35.664062 16.710938 35.683594 16.707031 35.691406 16.722656 C 35.691406 16.726562 35.695312 16.722656 35.695312 16.722656 C 35.703125 16.726562 35.710938 16.730469 35.71875 16.734375 Z M 36.652344 18.359375 C 36.664062 18.359375 36.671875 18.363281 36.679688 18.367188 C 36.683594 18.367188 36.691406 18.367188 36.695312 18.371094 C 36.699219 18.371094 36.703125 18.378906 36.710938 18.378906 C 36.730469 18.382812 36.75 18.390625 36.769531 18.398438 C 36.769531 18.398438 36.773438 18.398438 36.777344 18.398438 C 36.777344 18.394531 36.777344 18.390625 36.777344 18.386719 C 36.773438 18.382812 36.773438 18.378906 36.769531 18.375 C 36.769531 18.367188 36.765625 18.367188 36.757812 18.371094 C 36.753906 18.375 36.753906 18.375 36.746094 18.375 C 36.75 18.371094 36.75 18.367188 36.75 18.367188 C 36.742188 18.363281 36.734375 18.359375 36.726562 18.355469 C 36.722656 18.359375 36.71875 18.363281 36.710938 18.363281 C 36.714844 18.363281 36.714844 18.359375 36.714844 18.359375 C 36.710938 18.355469 36.710938 18.351562 36.703125 18.347656 C 36.695312 18.34375 36.679688 18.34375 36.667969 18.339844 C 36.667969 18.339844 36.664062 18.34375 36.65625 18.347656 C 36.65625 18.339844 36.652344 18.332031 36.652344 18.328125 C 36.640625 18.328125 36.632812 18.328125 36.621094 18.328125 C 36.621094 18.335938 36.617188 18.339844 36.617188 18.34375 C 36.625 18.34375 36.632812 18.34375 36.644531 18.339844 C 36.644531 18.347656 36.644531 18.351562 36.648438 18.355469 C 36.648438 18.355469 36.652344 18.351562 36.65625 18.347656 C 36.65625 18.351562 36.65625 18.351562 36.660156 18.351562 Z M 36.082031 16.902344 C 36.082031 16.898438 36.085938 16.894531 36.085938 16.886719 C 36.074219 16.890625 36.070312 16.894531 36.0625 16.898438 C 36.0625 16.890625 36.058594 16.886719 36.058594 16.878906 C 36.058594 16.882812 36.054688 16.882812 36.050781 16.886719 C 36.050781 16.863281 36.039062 16.878906 36.03125 16.882812 C 36.03125 16.875 36.035156 16.871094 36.035156 16.867188 C 36.035156 16.867188 36.039062 16.863281 36.039062 16.863281 C 36.011719 16.867188 35.992188 16.855469 35.980469 16.832031 C 35.980469 16.839844 35.980469 16.839844 35.976562 16.839844 C 35.976562 16.847656 35.96875 16.851562 35.964844 16.859375 C 35.972656 16.859375 35.976562 16.863281 35.984375 16.863281 C 35.988281 16.863281 35.988281 16.867188 35.992188 16.867188 C 36.007812 16.882812 36.035156 16.886719 36.050781 16.90625 C 36.054688 16.90625 36.058594 16.90625 36.0625 16.90625 C 36.0625 16.90625 36.0625 16.90625 36.0625 16.902344 C 36.066406 16.90625 36.070312 16.90625 36.070312 16.90625 C 36.078125 16.917969 36.085938 16.914062 36.101562 16.914062 C 36.09375 16.910156 36.089844 16.90625 36.082031 16.902344 Z M 36.347656 17.042969 C 36.339844 17.042969 36.332031 17.042969 36.328125 17.042969 C 36.328125 17.039062 36.328125 17.039062 36.328125 17.035156 C 36.324219 17.035156 36.316406 17.035156 36.316406 17.03125 C 36.308594 17.015625 36.296875 17.019531 36.289062 17.023438 C 36.28125 17.011719 36.273438 17.003906 36.265625 16.992188 C 36.257812 17 36.253906 17.003906 36.25 17.015625 C 36.261719 17.011719 36.257812 17.042969 36.273438 17.023438 C 36.289062 17.027344 36.289062 17.046875 36.3125 17.046875 C 36.324219 17.050781 36.332031 17.054688 36.347656 17.042969 Z M 36.128906 16.933594 C 36.140625 16.941406 36.148438 16.945312 36.15625 16.953125 C 36.164062 16.964844 36.167969 16.976562 36.183594 16.96875 C 36.1875 16.96875 36.1875 16.972656 36.1875 16.972656 C 36.183594 16.984375 36.199219 16.980469 36.203125 16.984375 C 36.203125 16.984375 36.210938 16.984375 36.210938 16.980469 C 36.214844 16.980469 36.214844 16.972656 36.214844 16.972656 C 36.207031 16.96875 36.210938 16.953125 36.195312 16.964844 C 36.195312 16.964844 36.1875 16.957031 36.183594 16.953125 C 36.179688 16.949219 36.175781 16.945312 36.167969 16.941406 C 36.164062 16.941406 36.15625 16.941406 36.15625 16.9375 C 36.148438 16.921875 36.140625 16.925781 36.128906 16.933594 Z M 34.769531 16.414062 C 34.808594 16.421875 34.84375 16.429688 34.878906 16.433594 L 34.878906 16.425781 C 34.867188 16.421875 34.859375 16.417969 34.847656 16.410156 C 34.839844 16.410156 34.835938 16.410156 34.828125 16.40625 C 34.820312 16.40625 34.808594 16.402344 34.804688 16.40625 C 34.792969 16.414062 34.789062 16.40625 34.777344 16.402344 Z M 35.734375 17.972656 C 35.734375 17.972656 35.734375 17.96875 35.734375 17.96875 C 35.726562 17.964844 35.714844 17.964844 35.710938 17.960938 C 35.703125 17.949219 35.695312 17.953125 35.6875 17.953125 C 35.6875 17.953125 35.679688 17.957031 35.675781 17.960938 C 35.675781 17.964844 35.675781 17.972656 35.675781 17.976562 C 35.683594 17.972656 35.6875 17.972656 35.691406 17.96875 C 35.695312 17.972656 35.695312 17.980469 35.699219 17.988281 C 35.710938 17.980469 35.722656 17.976562 35.734375 17.972656 Z M 35.214844 16.515625 C 35.210938 16.503906 35.1875 16.492188 35.175781 16.492188 C 35.171875 16.496094 35.167969 16.5 35.160156 16.503906 C 35.167969 16.507812 35.171875 16.515625 35.175781 16.519531 C 35.191406 16.523438 35.203125 16.523438 35.214844 16.515625 Z M 35.945312 16.84375 C 35.945312 16.84375 35.945312 16.839844 35.945312 16.835938 C 35.945312 16.820312 35.9375 16.8125 35.929688 16.816406 C 35.914062 16.820312 35.914062 16.8125 35.914062 16.808594 C 35.90625 16.804688 35.902344 16.804688 35.894531 16.804688 L 35.886719 16.8125 C 35.90625 16.824219 35.925781 16.835938 35.945312 16.84375 Z M 35.652344 17.941406 C 35.660156 17.949219 35.667969 17.953125 35.675781 17.960938 C 35.675781 17.957031 35.679688 17.953125 35.683594 17.949219 C 35.660156 17.941406 35.640625 17.929688 35.613281 17.921875 C 35.621094 17.933594 35.628906 17.949219 35.632812 17.960938 C 35.640625 17.953125 35.648438 17.949219 35.652344 17.941406 Z M 37.453125 18.066406 C 37.453125 18.066406 37.457031 18.066406 37.457031 18.066406 C 37.464844 18.054688 37.449219 18.023438 37.425781 18.007812 C 37.429688 18.023438 37.433594 18.039062 37.4375 18.054688 C 37.445312 18.054688 37.449219 18.054688 37.453125 18.050781 C 37.453125 18.058594 37.453125 18.0625 37.453125 18.066406 Z M 34.097656 16.769531 C 34.082031 16.742188 34.066406 16.714844 34.050781 16.683594 C 34.058594 16.730469 34.078125 16.761719 34.097656 16.769531 Z M 36.558594 18.292969 C 36.550781 18.292969 36.542969 18.289062 36.535156 18.289062 C 36.53125 18.296875 36.527344 18.304688 36.523438 18.3125 C 36.539062 18.3125 36.546875 18.3125 36.558594 18.3125 C 36.558594 18.308594 36.558594 18.300781 36.558594 18.292969 Z M 36.605469 18.328125 C 36.597656 18.320312 36.59375 18.316406 36.589844 18.308594 C 36.585938 18.3125 36.582031 18.316406 36.578125 18.316406 C 36.574219 18.316406 36.574219 18.316406 36.574219 18.316406 C 36.574219 18.3125 36.578125 18.308594 36.578125 18.304688 C 36.578125 18.304688 36.578125 18.304688 36.578125 18.300781 L 36.570312 18.316406 L 36.597656 18.335938 C 36.597656 18.335938 36.601562 18.332031 36.605469 18.328125 Z M 36.523438 18.3125 C 36.523438 18.300781 36.523438 18.289062 36.519531 18.285156 C 36.5 18.277344 36.507812 18.300781 36.496094 18.304688 C 36.503906 18.304688 36.511719 18.308594 36.523438 18.3125 Z M 34.902344 17.53125 C 34.898438 17.546875 34.90625 17.554688 34.925781 17.554688 C 34.917969 17.546875 34.910156 17.539062 34.902344 17.53125 Z M 35.015625 17.511719 C 35.011719 17.515625 35.011719 17.515625 35.011719 17.515625 C 35.015625 17.519531 35.015625 17.523438 35.019531 17.523438 C 35.027344 17.527344 35.035156 17.53125 35.042969 17.535156 C 35.050781 17.539062 35.058594 17.542969 35.066406 17.550781 L 35.070312 17.546875 Z M 36.292969 18.234375 C 36.300781 18.226562 36.308594 18.21875 36.308594 18.21875 C 36.304688 18.210938 36.296875 18.203125 36.289062 18.195312 C 36.292969 18.210938 36.292969 18.21875 36.292969 18.234375 Z M 36.230469 16.976562 C 36.230469 16.976562 36.230469 16.972656 36.226562 16.972656 C 36.222656 16.976562 36.214844 16.984375 36.207031 16.988281 C 36.21875 16.992188 36.226562 16.996094 36.230469 17 C 36.230469 16.992188 36.230469 16.984375 36.230469 16.976562 Z M 37.183594 18.476562 C 37.191406 18.488281 37.199219 18.492188 37.21875 18.480469 C 37.207031 18.472656 37.195312 18.472656 37.183594 18.476562 Z M 37.097656 17.648438 L 37.105469 17.636719 C 37.105469 17.636719 37.101562 17.636719 37.101562 17.632812 C 37.101562 17.636719 37.097656 17.636719 37.097656 17.636719 C 37.09375 17.628906 37.089844 17.621094 37.085938 17.613281 C 37.078125 17.628906 37.078125 17.636719 37.097656 17.648438 Z M 36.378906 18.253906 C 36.371094 18.242188 36.363281 18.234375 36.355469 18.226562 C 36.34375 18.242188 36.363281 18.246094 36.363281 18.253906 C 36.363281 18.257812 36.375 18.253906 36.378906 18.253906 Z M 35.316406 16.539062 C 35.304688 16.539062 35.292969 16.542969 35.277344 16.542969 C 35.289062 16.550781 35.300781 16.554688 35.308594 16.558594 C 35.3125 16.554688 35.316406 16.546875 35.316406 16.539062 Z M 36.960938 18.453125 C 36.953125 18.441406 36.949219 18.433594 36.945312 18.425781 C 36.941406 18.429688 36.9375 18.433594 36.929688 18.441406 C 36.941406 18.445312 36.945312 18.445312 36.960938 18.453125 Z M 37.035156 17.582031 C 37.03125 17.582031 37.03125 17.582031 37.03125 17.582031 C 37.039062 17.59375 37.046875 17.601562 37.058594 17.613281 C 37.0625 17.589844 37.042969 17.589844 37.035156 17.582031 Z M 36.5 18.285156 C 36.488281 18.285156 36.480469 18.28125 36.472656 18.28125 L 36.472656 18.285156 C 36.476562 18.289062 36.484375 18.296875 36.488281 18.300781 C 36.492188 18.296875 36.496094 18.292969 36.5 18.285156 Z M 36.5 18.285156 " fill-opacity="1" fill-rule="nonzero"/></g></g></g><g clip-path="url(#693140e49d)"><g clip-path="url(#735ab0eac2)"><g clip-path="url(#6d3ca67686)"><path fill="#5a3e71" d="M 36.027344 18.125 C 36.027344 18.128906 36.027344 18.128906 36.027344 18.132812 C 36.015625 18.140625 36.007812 18.125 35.996094 18.125 C 35.988281 18.121094 35.980469 18.117188 35.976562 18.117188 C 35.972656 18.113281 35.96875 18.117188 35.96875 18.113281 C 35.953125 18.097656 35.9375 18.097656 35.917969 18.09375 C 35.910156 18.089844 35.90625 18.074219 35.914062 18.066406 C 35.917969 18.070312 35.917969 18.074219 35.917969 18.078125 C 35.9375 18.082031 35.953125 18.085938 35.964844 18.085938 C 35.972656 18.09375 35.976562 18.09375 35.984375 18.097656 C 35.988281 18.101562 35.992188 18.101562 35.996094 18.105469 C 36 18.105469 36 18.109375 36 18.109375 C 36.015625 18.105469 36.023438 18.113281 36.027344 18.125 Z M 36.027344 18.125 " fill-opacity="1" fill-rule="nonzero"/></g></g></g><g clip-path="url(#a7c72bbf77)"><g clip-path="url(#66fda9967d)"><g clip-path="url(#d54cfc4ac1)"><path fill="#5a3e71" d="M 35.882812 18.046875 C 35.886719 18.054688 35.890625 18.0625 35.898438 18.066406 C 35.910156 18.070312 35.902344 18.074219 35.902344 18.078125 C 35.898438 18.078125 35.898438 18.078125 35.894531 18.074219 C 35.890625 18.074219 35.890625 18.078125 35.886719 18.078125 C 35.875 18.078125 35.867188 18.074219 35.863281 18.066406 C 35.859375 18.0625 35.855469 18.054688 35.851562 18.058594 C 35.84375 18.0625 35.835938 18.058594 35.828125 18.050781 C 35.824219 18.046875 35.820312 18.046875 35.816406 18.046875 C 35.8125 18.042969 35.808594 18.039062 35.800781 18.035156 C 35.808594 18.03125 35.816406 18.027344 35.816406 18.023438 C 35.824219 18.027344 35.828125 18.03125 35.835938 18.035156 C 35.839844 18.035156 35.851562 18.039062 35.851562 18.042969 C 35.863281 18.058594 35.871094 18.050781 35.882812 18.046875 Z M 35.882812 18.046875 " fill-opacity="1" fill-rule="nonzero"/></g></g></g><g clip-path="url(#41da8c098a)"><g clip-path="url(#8b2338e450)"><g clip-path="url(#fab0ca593f)"><path fill="#5a3e71" d="M 35.371094 17.84375 C 35.382812 17.832031 35.398438 17.835938 35.402344 17.855469 C 35.40625 17.851562 35.410156 17.847656 35.410156 17.84375 C 35.421875 17.851562 35.433594 17.863281 35.441406 17.871094 C 35.441406 17.871094 35.445312 17.871094 35.449219 17.871094 C 35.453125 17.875 35.460938 17.875 35.46875 17.878906 C 35.46875 17.878906 35.472656 17.882812 35.46875 17.886719 C 35.46875 17.886719 35.464844 17.890625 35.460938 17.886719 C 35.453125 17.882812 35.441406 17.878906 35.433594 17.875 C 35.429688 17.871094 35.425781 17.871094 35.421875 17.871094 C 35.414062 17.871094 35.410156 17.871094 35.402344 17.859375 C 35.398438 17.851562 35.382812 17.851562 35.371094 17.847656 Z M 35.371094 17.84375 " fill-opacity="1" fill-rule="nonzero"/></g></g></g><g clip-path="url(#92c8fa93fc)"><g clip-path="url(#75c1b9ad4d)"><g clip-path="url(#3a500a6e5b)"><path fill="#5a3e71" d="M 34.542969 16.214844 C 34.550781 16.214844 34.554688 16.214844 34.558594 16.214844 C 34.582031 16.214844 34.605469 16.21875 34.628906 16.21875 C 34.632812 16.230469 34.625 16.226562 34.621094 16.226562 C 34.589844 16.226562 34.5625 16.226562 34.53125 16.226562 C 34.519531 16.226562 34.511719 16.226562 34.5 16.226562 C 34.515625 16.222656 34.53125 16.21875 34.542969 16.214844 Z M 34.542969 16.214844 " fill-opacity="1" fill-rule="nonzero"/><path fill="#5a3e71" d="M 34.453125 16.238281 C 34.417969 16.242188 34.382812 16.246094 34.34375 16.25 C 34.347656 16.246094 34.347656 16.242188 34.351562 16.242188 C 34.382812 16.238281 34.410156 16.234375 34.441406 16.230469 C 34.445312 16.230469 34.449219 16.234375 34.453125 16.238281 Z M 34.453125 16.238281 " fill-opacity="1" fill-rule="nonzero"/></g></g></g><g clip-path="url(#843bea8f46)"><g clip-path="url(#52a724f68b)"><g clip-path="url(#a75cd69da9)"><path fill="#5a3e71" d="M 35.242188 17.773438 C 35.242188 17.773438 35.242188 17.777344 35.238281 17.777344 C 35.226562 17.769531 35.214844 17.757812 35.199219 17.757812 C 35.199219 17.753906 35.195312 17.75 35.195312 17.75 C 35.199219 17.746094 35.203125 17.742188 35.207031 17.742188 C 35.210938 17.742188 35.21875 17.746094 35.21875 17.746094 C 35.222656 17.761719 35.238281 17.757812 35.242188 17.765625 C 35.242188 17.769531 35.242188 17.769531 35.242188 17.773438 Z M 35.242188 17.773438 " fill-opacity="1" fill-rule="nonzero"/><path fill="#5a3e71" d="M 35.242188 17.773438 C 35.242188 17.769531 35.242188 17.769531 35.242188 17.765625 C 35.242188 17.765625 35.246094 17.761719 35.25 17.757812 C 35.253906 17.773438 35.261719 17.777344 35.269531 17.765625 C 35.277344 17.773438 35.28125 17.777344 35.285156 17.78125 C 35.265625 17.808594 35.257812 17.777344 35.246094 17.777344 C 35.246094 17.773438 35.246094 17.773438 35.242188 17.773438 Z M 35.242188 17.773438 " fill-opacity="1" fill-rule="nonzero"/><path fill="#5a3e71" d="M 35.34375 17.828125 C 35.328125 17.824219 35.316406 17.816406 35.304688 17.8125 C 35.324219 17.796875 35.335938 17.800781 35.34375 17.828125 Z M 35.34375 17.828125 " fill-opacity="1" fill-rule="nonzero"/></g></g></g><g clip-path="url(#ea8c95aa12)"><g clip-path="url(#628d084e8e)"><g clip-path="url(#e172930ae6)"><path fill="#5a3e71" d="M 34.988281 17.59375 C 34.984375 17.605469 34.980469 17.613281 34.996094 17.613281 C 34.996094 17.613281 34.996094 17.621094 34.996094 17.625 C 34.988281 17.621094 34.976562 17.617188 34.96875 17.613281 C 34.96875 17.613281 34.964844 17.609375 34.964844 17.605469 C 34.964844 17.601562 34.96875 17.601562 34.972656 17.597656 C 34.976562 17.597656 34.980469 17.597656 34.988281 17.59375 Z M 34.988281 17.59375 " fill-opacity="1" fill-rule="nonzero"/></g></g></g><g clip-path="url(#a2611b4343)"><g clip-path="url(#ba44884781)"><g clip-path="url(#c12ca881dd)"><path fill="#5a3e71" d="M 35.492188 17.882812 C 35.496094 17.886719 35.5 17.894531 35.5 17.894531 C 35.511719 17.898438 35.519531 17.902344 35.527344 17.90625 L 35.527344 17.910156 C 35.523438 17.910156 35.515625 17.914062 35.511719 17.914062 C 35.503906 17.90625 35.484375 17.902344 35.492188 17.882812 Z M 35.492188 17.882812 " fill-opacity="1" fill-rule="nonzero"/><path fill="#5a3e71" d="M 35.144531 17.710938 C 35.148438 17.710938 35.152344 17.714844 35.15625 17.710938 C 35.160156 17.710938 35.164062 17.707031 35.167969 17.703125 C 35.167969 17.707031 35.167969 17.710938 35.167969 17.714844 C 35.167969 17.71875 35.164062 17.722656 35.164062 17.726562 C 35.152344 17.726562 35.140625 17.730469 35.140625 17.710938 C 35.140625 17.710938 35.144531 17.710938 35.144531 17.710938 Z M 35.144531 17.710938 " fill-opacity="1" fill-rule="nonzero"/><path fill="#5a3e71" d="M 35.144531 17.710938 C 35.144531 17.710938 35.140625 17.710938 35.140625 17.710938 C 35.125 17.722656 35.128906 17.703125 35.121094 17.699219 C 35.136719 17.691406 35.140625 17.691406 35.144531 17.710938 Z M 35.144531 17.710938 " fill-opacity="1" fill-rule="nonzero"/><path fill="#5a3e71" d="M 35.082031 17.679688 C 35.085938 17.679688 35.085938 17.675781 35.085938 17.675781 C 35.085938 17.675781 35.089844 17.675781 35.089844 17.675781 C 35.101562 17.683594 35.109375 17.691406 35.117188 17.695312 C 35.117188 17.699219 35.117188 17.699219 35.113281 17.703125 C 35.105469 17.695312 35.09375 17.6875 35.082031 17.679688 Z M 35.082031 17.679688 " fill-opacity="1" fill-rule="nonzero"/><path fill="#5a3e71" d="M 35.015625 17.621094 L 35.03125 17.640625 C 35.023438 17.640625 35.019531 17.644531 35.019531 17.644531 C 35.015625 17.640625 35.011719 17.632812 35.007812 17.628906 Z M 35.015625 17.621094 " fill-opacity="1" fill-rule="nonzero"/><path fill="#5a3e71" d="M 35.082031 17.679688 L 35.050781 17.660156 C 35.050781 17.65625 35.050781 17.65625 35.050781 17.65625 C 35.0625 17.660156 35.074219 17.664062 35.082031 17.667969 C 35.082031 17.671875 35.082031 17.675781 35.082031 17.679688 Z M 35.082031 17.679688 " fill-opacity="1" fill-rule="nonzero"/></g></g></g></svg>