<svg xmlns="http://www.w3.org/2000/svg" width='100' fill='white' viewBox="0 0 25 25" data-animate-icon="flower" className="icon-1x1-small"  ><path fill-rule="evenodd" clip-rule="evenodd" d="M14.0685 10.9315C15.2136 10.4415 16.8866 10.1326 18.75 10.1326C22.2018 10.1326 25 11.1925 25 12.5C25 13.8075 22.2018 14.8674 18.75 14.8674C16.8866 14.8674 15.2136 14.5585 14.0685 14.0685C14.5585 15.2136 14.8674 16.8866 14.8674 18.75C14.8674 22.2018 13.8075 25 12.5 25C11.1925 25 10.1326 22.2018 10.1326 18.75C10.1326 16.8866 10.4415 15.2136 10.9315 14.0685C9.7864 14.5585 8.11344 14.8674 6.25 14.8674C2.79822 14.8674 0 13.8075 0 12.5C0 11.1925 2.79822 10.1326 6.25 10.1326C8.11344 10.1326 9.7864 10.4415 10.9315 10.9315C10.4415 9.7864 10.1326 8.11344 10.1326 6.25C10.1326 2.79822 11.1925 0 12.5 0C13.8075 0 14.8674 2.79822 14.8674 6.25C14.8674 8.11344 14.5585 9.7864 14.0685 10.9315Z"></path></svg>